<?xml version="1.0" encoding="UTF-8" standalone="no"?>
<!-- Created with Inkscape (http://www.inkscape.org/) -->

<svg
   xmlns:dc="http://purl.org/dc/elements/1.1/"
   xmlns:cc="http://creativecommons.org/ns#"
   xmlns:rdf="http://www.w3.org/1999/02/22-rdf-syntax-ns#"
   xmlns:svg="http://www.w3.org/2000/svg"
   xmlns="http://www.w3.org/2000/svg"
   xmlns:sodipodi="http://sodipodi.sourceforge.net/DTD/sodipodi-0.dtd"
   xmlns:inkscape="http://www.inkscape.org/namespaces/inkscape"
   width="561.21582mm"
   height="295.19116mm"
   viewBox="0 0 1988.56 1045.9529"
   id="svg4357"
   version="1.1"
   inkscape:version="0.91 r13725"
   sodipodi:docname="tess.svg">
  <defs
     id="defs4359" />
  <sodipodi:namedview
     id="base"
     pagecolor="#ffffff"
     bordercolor="#666666"
     borderopacity="1.0"
     inkscape:pageopacity="0.0"
     inkscape:pageshadow="2"
     inkscape:zoom="0.35"
     inkscape:cx="1031.2246"
     inkscape:cy="583.20796"
     inkscape:document-units="px"
     inkscape:current-layer="layer1"
     showgrid="false"
     fit-margin-top="0"
     fit-margin-left="0"
     fit-margin-right="0"
     fit-margin-bottom="0"
     inkscape:window-width="1366"
     inkscape:window-height="713"
     inkscape:window-x="0"
     inkscape:window-y="0"
     inkscape:window-maximized="1" />
  <metadata
     id="metadata4362">
    <rdf:RDF>
      <cc:Work
         rdf:about="">
        <dc:format>image/svg+xml</dc:format>
        <dc:type
           rdf:resource="http://purl.org/dc/dcmitype/StillImage" />
        <dc:title></dc:title>
      </cc:Work>
    </rdf:RDF>
  </metadata>
  <g
     inkscape:label="Layer 1"
     inkscape:groupmode="layer"
     id="layer1"
     transform="translate(567.13709,-69.617188)">
    <g
       transform="matrix(1.8461628,0,0,1.8461628,1776.1056,-2091.4048)"
       style="font-style:normal;font-weight:normal;font-size:40px;line-height:125%;font-family:sans-serif;text-align:center;letter-spacing:11.2299881px;word-spacing:0px;text-anchor:middle;fill:#000000;fill-opacity:1;stroke:none;stroke-width:1px;stroke-linecap:butt;stroke-linejoin:miter;stroke-opacity:1"
       id="flowRoot4216-5">
      <path
         d="m -1264.9303,1630.183 0,-19.08 25.92,0 0,39.96 0,2.16 4.32,0 0,-2.16 0,-39.96 25.56,0 0,19.08 0,2.16 4.32,0 0,-2.16 0,-21.24 0,-2.16 -2.16,0 -27.72,0 -4.32,0 -28.08,0 -2.16,0 0,2.16 0,21.24 0,2.16 4.32,0 0,-2.16 z m 30.24,102.6 0,-60.66 0,-2.16 -4.32,0 0,2.16 0,60.66 -12.96,0 -2.16,0 0,4.32 2.16,0 12.96,0 4.32,0 12.78,0 2.16,0 0,-4.32 -2.16,0 -12.78,0 z"
         style="font-style:normal;font-variant:normal;font-weight:normal;font-stretch:normal;font-size:180px;font-family:Stenciles;-inkscape-font-specification:Stenciles;text-align:center;letter-spacing:11.2299881px;text-anchor:middle"
         id="path4969"
         inkscape:connector-curvature="0" />
      <path
         d="m -1095.3678,1669.963 -45.18,0 -2.16,0 0,2.16 0,60.66 -12.78,0 -2.16,0 0,4.32 2.16,0 12.78,0 4.32,0 57.96,0 2.16,0 0,-2.16 0,-20.88 0,-2.16 -4.32,0 0,2.16 0,18.72 -55.8,0 0,-58.5 43.02,0 2.16,0 0,-4.32 -2.16,0 z m -43.02,-63.18 -4.32,0 -12.78,0 -2.16,0 0,4.32 2.16,0 12.78,0 0,39.96 0,2.16 4.32,0 0,-2.16 0,-39.96 55.8,0 0,19.08 0,2.16 4.32,0 0,-2.16 0,-21.24 0,-2.16 -2.16,0 -57.96,0 z"
         style="font-style:normal;font-variant:normal;font-weight:normal;font-stretch:normal;font-size:180px;font-family:Stenciles;-inkscape-font-specification:Stenciles;text-align:center;letter-spacing:11.2299881px;text-anchor:middle"
         id="path4971"
         inkscape:connector-curvature="0" />
      <path
         d="m -1014.0053,1674.283 57.95997,0 0,58.5 -55.79997,0 0,-18.72 0,-2.16 -4.32,0 0,2.16 0,20.88 0,2.16 2.16,0 60.11997,0 2.16,0 0,-2.16 0,-62.82 0,-2.16 -2.16,0 -60.11997,0 -2.16,0 0,4.32 2.16,0 z m 62.27997,-44.1 0,-21.24 0,-2.16 -2.16,0 -60.11997,0 -2.16,0 0,2.16 0,42.12 0,2.16 4.32,0 0,-2.16 0,-39.96 55.79997,0 0,19.08 0,2.16 4.32,0 0,-2.16 z"
         style="font-style:normal;font-variant:normal;font-weight:normal;font-stretch:normal;font-size:180px;font-family:Stenciles;-inkscape-font-specification:Stenciles;text-align:center;letter-spacing:11.2299881px;text-anchor:middle"
         id="path4973"
         inkscape:connector-curvature="0" />
      <path
         d="m -887.46283,1674.283 57.96,0 0,58.5 -55.8,0 0,-18.72 0,-2.16 -4.32,0 0,2.16 0,20.88 0,2.16 2.16,0 60.12,0 2.16,0 0,-2.16 0,-62.82 0,-2.16 -2.16,0 -60.12,0 -2.16,0 0,4.32 2.16,0 z m 62.28,-44.1 0,-21.24 0,-2.16 -2.16,0 -60.12,0 -2.16,0 0,2.16 0,42.12 0,2.16 4.32,0 0,-2.16 0,-39.96 55.8,0 0,19.08 0,2.16 4.32,0 0,-2.16 z"
         style="font-style:normal;font-variant:normal;font-weight:normal;font-stretch:normal;font-size:180px;font-family:Stenciles;-inkscape-font-specification:Stenciles;text-align:center;letter-spacing:11.2299881px;text-anchor:middle"
         id="path4975"
         inkscape:connector-curvature="0" />
      <path
         d="m -715.74035,1669.963 -45.18,0 -2.16,0 0,2.16 0,60.66 -12.78,0 -2.16,0 0,4.32 2.16,0 12.78,0 4.32,0 57.96,0 2.16,0 0,-2.16 0,-20.88 0,-2.16 -4.32,0 0,2.16 0,18.72 -55.8,0 0,-58.5 43.02,0 2.16,0 0,-4.32 -2.16,0 z m -43.02,-63.18 -4.32,0 -12.78,0 -2.16,0 0,4.32 2.16,0 12.78,0 0,39.96 0,2.16 4.32,0 0,-2.16 0,-39.96 55.8,0 0,19.08 0,2.16 4.32,0 0,-2.16 0,-21.24 0,-2.16 -2.16,0 -57.96,0 z"
         style="font-style:normal;font-variant:normal;font-weight:normal;font-stretch:normal;font-size:180px;font-family:Stenciles;-inkscape-font-specification:Stenciles;text-align:center;letter-spacing:11.2299881px;text-anchor:middle"
         id="path4977"
         inkscape:connector-curvature="0" />
      <path
         d="m -636.53784,1737.103 4.32,0 12.96,0 2.16,0 0,-4.32 -2.16,0 -12.96,0 0,-58.5 41.4,0 14.4,61.2 0.54,1.62 1.62,0 15.12,0 2.16,0 0,-4.32 -2.16,0 -13.5,0 -14.4,-61.2 -0.54,-1.62 -1.62,0 -45.18,0 -2.16,0 0,2.16 0,60.66 -12.78,0 -2.16,0 0,4.32 2.16,0 12.78,0 z m 0,-130.32 -12.78,0 -2.16,0 0,4.32 2.16,0 12.78,0 0,39.96 0,2.16 4.32,0 0,-2.16 0,-39.96 55.8,0 0,39.96 0,2.16 4.32,0 0,-2.16 0,-42.12 0,-2.16 -2.16,0 -57.96,0 -4.32,0 z"
         style="font-style:normal;font-variant:normal;font-weight:normal;font-stretch:normal;font-size:180px;font-family:Stenciles;-inkscape-font-specification:Stenciles;text-align:center;letter-spacing:11.2299881px;text-anchor:middle"
         id="path4979"
         inkscape:connector-curvature="0" />
      <path
         d="m -505.3238,1651.063 0,-39.96 55.62,0 0,39.96 0,2.16 4.32,0 0,-2.16 0,-42.12 0,-2.16 -2.16,0 -59.94,0 -2.16,0 0,2.16 0,42.12 0,2.16 4.32,0 0,-2.16 z m -17.1,86.04 14.94,0 2.16,0 0,-2.16 0,-60.66 55.62,0 0,60.66 0,2.16 2.16,0 15.12,0 2.16,0 0,-4.32 -2.16,0 -12.96,0 0,-60.66 0,-2.16 -2.16,0 -59.94,0 -2.16,0 0,2.16 0,60.66 -12.78,0 -2.16,0 0,4.32 2.16,0 z"
         style="font-style:normal;font-variant:normal;font-weight:normal;font-stretch:normal;font-size:180px;font-family:Stenciles;-inkscape-font-specification:Stenciles;text-align:center;letter-spacing:11.2299881px;text-anchor:middle"
         id="path4981"
         inkscape:connector-curvature="0" />
      <path
         d="m -378.78132,1732.783 0,-60.66 0,-2.16 -4.32,0 0,2.16 0,60.66 -12.78,0 -2.16,0 0,4.32 2.16,0 12.78,0 4.32,0 57.96,0 2.16,0 0,-2.16 0,-20.88 0,-2.16 -4.32,0 0,2.16 0,18.72 -55.8,0 z m 0,-126 -4.32,0 -12.78,0 -2.16,0 0,4.32 2.16,0 12.78,0 0,39.96 0,2.16 4.32,0 0,-2.16 0,-39.96 55.8,0 0,19.08 0,2.16 4.32,0 0,-2.16 0,-21.24 0,-2.16 -2.16,0 -57.96,0 z"
         style="font-style:normal;font-variant:normal;font-weight:normal;font-stretch:normal;font-size:180px;font-family:Stenciles;-inkscape-font-specification:Stenciles;text-align:center;letter-spacing:11.2299881px;text-anchor:middle"
         id="path4983"
         inkscape:connector-curvature="0" />
      <path
         d="m -252.23884,1630.183 0,-19.08 25.92,0 0,39.96 0,2.16 4.32,0 0,-2.16 0,-39.96 25.56,0 0,19.08 0,2.16 4.32,0 0,-2.16 0,-21.24 0,-2.16 -2.16,0 -27.72,0 -4.32,0 -28.08,0 -2.16,0 0,2.16 0,21.24 0,2.16 4.32,0 0,-2.16 z m 30.24,102.6 0,-60.66 0,-2.16 -4.32,0 0,2.16 0,60.66 -12.96,0 -2.16,0 0,4.32 2.16,0 12.96,0 4.32,0 12.78,0 2.16,0 0,-4.32 -2.16,0 -12.78,0 z"
         style="font-style:normal;font-variant:normal;font-weight:normal;font-stretch:normal;font-size:180px;font-family:Stenciles;-inkscape-font-specification:Stenciles;text-align:center;letter-spacing:11.2299881px;text-anchor:middle"
         id="path4985"
         inkscape:connector-curvature="0" />
    </g>
    <g
       transform="translate(-49.085174,-769.126)"
       id="g5027">
      <path
         d="m 181.61277,1419.1037 228.90644,-113.4075 0,58.337 -148.97971,73.9947"
         style="fill:#ff5555;fill-opacity:1;fill-rule:evenodd;stroke:none;stroke-width:9.5;stroke-linecap:round;stroke-linejoin:round;stroke-miterlimit:4;stroke-dasharray:none;stroke-dashoffset:0;stroke-opacity:1"
         id="path2207-4"
         inkscape:connector-curvature="0" />
      <path
         d="m 181.07212,1381.747 179.60392,-88.2281 49.59552,12.6971 -228.78188,113.2667"
         style="fill:#5fd35f;fill-opacity:1;fill-rule:evenodd;stroke:none;stroke-width:9.5;stroke-linecap:round;stroke-linejoin:round;stroke-miterlimit:4;stroke-dasharray:none;stroke-dashoffset:0;stroke-opacity:1"
         id="path3954-7"
         inkscape:connector-curvature="0" />
      <path
         d="m 147.66612,1436.3558 34.15909,-17.035 -0.70362,-354.7027 -34.06619,-7.6923"
         style="fill:#ff5555;fill-opacity:1;fill-rule:evenodd;stroke:none;stroke-width:9.5;stroke-linecap:round;stroke-linejoin:round;stroke-miterlimit:4;stroke-dasharray:none;stroke-dashoffset:0;stroke-opacity:1"
         id="path1331-1"
         inkscape:connector-curvature="0" />
      <path
         d="m 476.61955,1488.8029 -294.66186,-69.6582 -34.18675,17.0627 328.29916,78.6946"
         style="fill:#5fd35f;fill-opacity:1;fill-rule:evenodd;stroke:none;stroke-width:9.5;stroke-linecap:round;stroke-linejoin:round;stroke-miterlimit:4;stroke-dasharray:none;stroke-dashoffset:0;stroke-opacity:1"
         id="path2209-1"
         inkscape:connector-curvature="0" />
      <path
         d="m 97.144541,985.50925 0,496.18995 426.856609,102.4778 0.38754,-498.1071 L 97.144541,985.50925 Z m 50.607009,72.03315 325.81492,76.8583 0,380.0983 -325.81492,-78.237 0,-378.7196 z"
         style="fill:#0093d3;fill-opacity:1;fill-rule:evenodd;stroke:none;stroke-width:9.5;stroke-linecap:round;stroke-linejoin:round;stroke-miterlimit:4;stroke-dasharray:none;stroke-dashoffset:0;stroke-opacity:1"
         id="path4030-97"
         inkscape:connector-curvature="0" />
      <path
         d="m 820.94249,941.00657 0,496.18993 -296.87153,147.1945 0,-498.3008 296.87153,-145.08363 z m -35.1963,77.33463 -226.59876,110.9899 0,380.0983 226.59876,-112.3685 0,-378.7197 z"
         style="fill:#ff5555;fill-opacity:1;fill-rule:evenodd;stroke:none;stroke-width:9.5;stroke-linecap:round;stroke-linejoin:round;stroke-miterlimit:4;stroke-dasharray:none;stroke-dashoffset:0;stroke-opacity:1"
         id="path4037-0"
         inkscape:connector-curvature="0" />
      <path
         d="m 181.59716,980.88001 227.92865,-112.79425 0,59.07822 -147.63879,72.43687 0,0"
         style="fill:#ff5555;fill-opacity:1;fill-rule:evenodd;stroke:none;stroke-width:9.5;stroke-linecap:round;stroke-linejoin:round;stroke-miterlimit:4;stroke-dasharray:none;stroke-dashoffset:0;stroke-opacity:1"
         id="path5814-0"
         inkscape:connector-curvature="0" />
      <path
         d="M 736.95819,946.76169 409.1373,867.8915 l 0.19425,59.24978 246.95728,59.17805"
         style="fill:#0093d3;fill-opacity:1;fill-rule:evenodd;stroke:none;stroke-width:9.5;stroke-linecap:round;stroke-linejoin:round;stroke-miterlimit:4;stroke-dasharray:none;stroke-dashoffset:0;stroke-opacity:1"
         id="path5816-3"
         inkscape:connector-curvature="0" />
      <path
         d="M 394.58277,838.74318 97.891291,985.68157 524.23092,1085.9191 821.03729,941.22093 394.58277,838.74318 Z M 409.74764,867.9815 737.40069,946.73543 509.35326,1057.8296 181.81506,980.85639 409.74764,867.9815 Z"
         style="fill:#5fd35f;fill-opacity:1;fill-rule:evenodd;stroke:none;stroke-width:9.5;stroke-linecap:round;stroke-linejoin:round;stroke-miterlimit:4;stroke-dasharray:none;stroke-dashoffset:0;stroke-opacity:1"
         id="path5803-8"
         inkscape:connector-curvature="0" />
      <path
         d="m 409.32095,927.2066 35.83324,8.58192 0,353.15458 -35.83324,17.8251 0.88388,-0.088"
         style="fill:#ff5555;fill-opacity:1;fill-rule:evenodd;stroke:none;stroke-width:9.5;stroke-linecap:round;stroke-linejoin:round;stroke-miterlimit:4;stroke-dasharray:none;stroke-dashoffset:0;stroke-opacity:1"
         id="path3964-56"
         inkscape:connector-curvature="0" />
      <path
         d="m 360.5719,1293.9071 0,-342.87163 48.72807,-23.75574 1.02134,379.05637"
         style="fill:#0093d3;fill-opacity:1;fill-rule:evenodd;stroke:none;stroke-width:9.5;stroke-linecap:round;stroke-linejoin:round;stroke-miterlimit:4;stroke-dasharray:none;stroke-dashoffset:0;stroke-opacity:1"
         id="path1325-0"
         inkscape:connector-curvature="0" />
      <path
         d="m 410.59366,1306.1274 0,57.7727 247.21761,59.3677 80.27922,-39.165"
         style="fill:#0093d3;fill-opacity:1;fill-rule:evenodd;stroke:none;stroke-width:9.5;stroke-linecap:round;stroke-linejoin:round;stroke-miterlimit:4;stroke-dasharray:none;stroke-dashoffset:0;stroke-opacity:1"
         id="path4846-2"
         inkscape:connector-curvature="0" />
      <path
         d="m 739.64229,1358.5764 -294.233,-69.7808 -34.61564,17.3078 328.29914,78.572"
         style="fill:#5fd35f;fill-opacity:1;fill-rule:evenodd;stroke:none;stroke-width:9.5;stroke-linecap:round;stroke-linejoin:round;stroke-miterlimit:4;stroke-dasharray:none;stroke-dashoffset:0;stroke-opacity:1"
         id="path4842-63"
         inkscape:connector-curvature="0" />
      <path
         d="m 785.94869,1018.1071 -48.0765,23.1268 -0.245,342.7253 48.5666,12.6324"
         style="fill:#0093d3;fill-opacity:1;fill-rule:evenodd;stroke:none;stroke-width:9.5;stroke-linecap:round;stroke-linejoin:round;stroke-miterlimit:4;stroke-dasharray:none;stroke-dashoffset:0;stroke-opacity:1"
         id="path2205-8"
         inkscape:connector-curvature="0" />
      <path
         d="m 786.02529,1396.7988 -226.82582,112.561 0,-37.9459 178.55422,-87.2962 48.2716,12.6811 z"
         style="fill:#5fd35f;fill-opacity:1;fill-rule:evenodd;stroke:none;stroke-width:9.5;stroke-linecap:round;stroke-linejoin:round;stroke-miterlimit:4;stroke-dasharray:none;stroke-dashoffset:0;stroke-opacity:1"
         id="path4848-4"
         inkscape:connector-curvature="0" />
    </g>
  </g>
</svg>
