<?xml version="1.0" encoding="UTF-8" standalone="no"?>
<svg
   xmlns:dc="http://purl.org/dc/elements/1.1/"
   xmlns:cc="http://creativecommons.org/ns#"
   xmlns:rdf="http://www.w3.org/1999/02/22-rdf-syntax-ns#"
   xmlns:svg="http://www.w3.org/2000/svg"
   xmlns="http://www.w3.org/2000/svg"
   xmlns:sodipodi="http://sodipodi.sourceforge.net/DTD/sodipodi-0.dtd"
   xmlns:inkscape="http://www.inkscape.org/namespaces/inkscape"
   width="350"
   height="200"
   viewBox="0 0 280 160"
   version="1.1"
   id="svg2"
   inkscape:version="0.48.5 r10040"
   sodipodi:docname="ajsitges.svg">
  <metadata
     id="metadata72">
    <rdf:RDF>
      <cc:Work
         rdf:about="">
        <dc:format>image/svg+xml</dc:format>
        <dc:type
           rdf:resource="http://purl.org/dc/dcmitype/StillImage" />
        <dc:title />
      </cc:Work>
    </rdf:RDF>
  </metadata>
  <defs
     id="defs70" />
  <sodipodi:namedview
     pagecolor="#f83838"
     bordercolor="#666666"
     borderopacity="1"
     objecttolerance="10"
     gridtolerance="10"
     guidetolerance="10"
     inkscape:pageopacity="0.15294118"
     inkscape:pageshadow="2"
     inkscape:window-width="1214"
     inkscape:window-height="732"
     id="namedview68"
     showgrid="false"
     inkscape:zoom="2.3063549"
     inkscape:cx="175.81856"
     inkscape:cy="106.29921"
     inkscape:window-x="75"
     inkscape:window-y="34"
     inkscape:window-maximized="0"
     inkscape:current-layer="svg2"
     fit-margin-left="5"
     fit-margin-top="5"
     fit-margin-bottom="5"
     fit-margin-right="5"
     units="px" />
  <g
     id="#fefefeff"
     transform="translate(12.963227,-429.06322)" />
  <g
     id="#000000ff"
     style="fill:#ffffff"
     transform="matrix(0.17180768,0,0,0.17180768,22.943132,30.589829)">
    <path
       d="m 73.02,6.6 c 2.22,-2.13 4.36,-4.36 6.74,-6.31 2.84,2.8 5.9,5.36 8.76,8.13 1.74,-1.72 3.48,-3.46 5.21,-5.2 2.81,2.5 5.51,5.13 8.26,7.69 1.63,-1.77 3.28,-3.51 4.9,-5.29 2.79,2.79 5.59,5.57 8.37,8.37 1.52,7.18 2.77,14.41 4.05,21.64 C 105.95,34.08 92.63,32.13 79.34,29.98 77.51,22.12 75.32,14.34 73.02,6.6 z"
       id="path6"
       style="fill:#ffffff"
       inkscape:connector-curvature="0" />
    <path
       d="m 345.69,8.48 c 3.05,-2.68 6.03,-5.43 9.11,-8.08 2.32,1.93 4.49,4.04 6.62,6.2 -2.36,7.74 -4.51,15.56 -6.36,23.43 -13.28,2.02 -26.56,4.09 -39.91,5.59 1.24,-7.22 2.45,-14.47 4.02,-21.63 2.64,-2.91 5.69,-5.44 8.37,-8.34 1.64,1.74 3.26,3.5 4.84,5.3 2.78,-2.6 5.59,-5.18 8.32,-7.84 1.62,1.83 3.28,3.62 4.99,5.37 z"
       id="path8"
       style="fill:#ffffff"
       inkscape:connector-curvature="0" />
    <path
       d="m 151.75,12.42 c 1.94,2.08 3.87,4.16 5.82,6.23 1.4,-1.76 2.82,-3.5 4.24,-5.25 1.85,2.19 3.68,4.41 5.83,6.31 0.15,-0.36 0.45,-1.07 0.6,-1.42 1.08,-1.32 2.17,-2.64 3.26,-3.96 2.05,2.33 4.09,4.67 6.1,7.03 0.65,6.55 0.7,13.14 1.45,19.68 -10.04,-0.75 -20.09,-1.38 -30.14,-2.1 -0.74,-6.73 -1.54,-13.45 -2.45,-20.15 1.74,-2.15 3.54,-4.23 5.29,-6.37 z"
       id="path10"
       style="fill:#ffffff"
       inkscape:connector-curvature="0" />
    <path
       d="m 276.88,18.65 c 1.93,-2.08 3.85,-4.16 5.76,-6.27 1.77,2.15 3.58,4.25 5.34,6.42 -0.96,6.69 -1.68,13.41 -2.48,20.12 -9.99,0.72 -19.98,1.37 -29.97,2.11 0.24,-6.62 0.85,-13.22 1.35,-19.83 2.07,-2.26 4.07,-4.57 6.07,-6.89 1.42,1.76 2.85,3.5 4.31,5.22 1.77,-2.04 3.55,-4.08 5.41,-6.06 1.41,1.73 2.81,3.45 4.21,5.18 z"
       id="path12"
       style="fill:#ffffff"
       inkscape:connector-curvature="0" />
    <path
       d="m 203.18,22.45 c 1.55,-2.22 3.38,-4.22 5.07,-6.32 1.49,1.8 2.97,3.62 4.39,5.49 1.59,-1.75 3.11,-3.57 4.58,-5.43 1.47,1.81 2.95,3.62 4.41,5.44 1.53,-1.81 3.05,-3.64 4.56,-5.47 1.76,2.15 3.51,4.3 5.26,6.46 -0.13,6.33 -0.25,12.66 -0.35,18.99 -9.23,0.63 -18.54,0.6 -27.78,0.02 0.35,-6.4 -0.83,-12.81 -0.14,-19.18 z"
       id="path14"
       style="fill:#ffffff"
       inkscape:connector-curvature="0" />
    <path
       d="m 80.9,36.49 c 90.32,12.42 182.3,12.45 272.62,-0.02 -2.45,11.28 -4.43,22.66 -5.84,34.12 -1.55,0.11 -3.09,0.26 -4.62,0.42 0.91,-7.2 -6.58,-12.46 -13.19,-11.75 -7.15,0.88 -14.06,6.22 -15.18,13.61 -11.91,0.45 -23.79,1.37 -35.71,1.59 -0.07,-5.48 -4.27,-11.04 -10.04,-11.07 -6.16,0.31 -10.74,5.91 -11.41,11.79 -10.19,0.29 -20.39,0.51 -30.58,0.49 -0.11,-5.01 -3.57,-10.09 -8.67,-11.02 -5.99,-0.65 -10.83,5.39 -10.72,11.03 -10.26,-0.01 -20.52,-0.19 -30.77,-0.52 -0.42,-5.76 -5.04,-11.1 -10.86,-11.77 -5.92,-0.19 -10.54,5.38 -10.44,11.09 -11.93,-0.27 -23.83,-1.13 -35.76,-1.62 -1.6,-9.78 -13.84,-17 -22.82,-11.89 -3.71,1.84 -6.02,5.9 -5.58,10.05 C 89.8,70.85 88.26,70.7 86.73,70.57 85.36,59.12 83.34,47.75 80.9,36.49 z"
       id="path16"
       style="fill:#ffffff"
       inkscape:connector-curvature="0" />
    <path
       d="m 87.32,75.93 c 86.52,4.92 173.29,4.9 259.81,0.01 -1.04,10.31 -1.63,20.68 -1.45,31.05 -12.85,0.03 -25.69,0 -38.52,0.01 -0.25,-7.33 -8.6,-13.38 -15.54,-10.48 -4.39,1.59 -7.69,5.74 -7.81,10.48 -10.68,0 -21.36,0 -32.04,0 -0.27,-4.91 -3.82,-9.75 -8.82,-10.55 -5.9,-0.7 -10.69,4.99 -10.92,10.54 -9.91,0 -19.81,0.04 -29.72,-0.01 -0.23,-5.09 -3.98,-10.19 -9.29,-10.58 -5.7,-0.31 -10.15,5.16 -10.33,10.57 -10.65,0.07 -21.3,0.01 -31.94,0.03 -0.37,-5.01 -3.97,-9.46 -8.83,-10.78 -6.84,-2.06 -14.43,3.71 -14.69,10.78 -12.81,0 -25.62,0 -38.44,0 0.17,-10.38 -0.52,-20.74 -1.47,-31.07 z"
       id="path18"
       style="fill:#ffffff"
       inkscape:connector-curvature="0" />
    <path
       d="m 157.1,203.1 c 20.27,-19.74 40.08,-39.94 60.15,-59.89 C 289.15,215.25 361.27,287.07 433.27,359 377,415.16 320.97,471.56 264.51,527.52 248.7,543.31 232.95,559.15 217.1,574.89 145.13,502.93 73.17,430.97 1.21,359.01 53.16,307.02 105.14,255.07 157.1,203.1 m 44.18,-21.98 c 7.61,6.35 10.26,16.64 10.45,26.18 -9.48,-0.48 -19.67,-2.96 -26.06,-10.52 -0.05,10.61 0.07,21.23 -0.06,31.84 6.35,-7.54 16.6,-10.44 26.15,-10.34 -0.39,9.34 -2.78,19.65 -10.48,25.72 10.55,-0.01 21.1,-0.01 31.66,0.01 -7.37,-6.32 -10.04,-16.35 -10.24,-25.72 9.57,-0.12 19.88,2.81 26.18,10.43 -0.16,-10.71 -0.09,-21.42 -0.04,-32.13 -6.26,7.76 -16.6,10.23 -26.11,10.7 0.04,-9.53 2.85,-19.71 10.3,-26.12 -10.58,0.03 -21.17,0.12 -31.75,-0.05 m -15.61,91.74 c 0,29.94 -0.02,59.88 0.01,89.82 -7.89,-0.04 -15.78,-0.01 -23.67,-0.01 -0.01,-19.55 -0.04,-39.09 0.02,-58.64 -2.09,-1.93 -4.17,-3.85 -6.16,-5.87 -2.41,2.42 -4.82,4.85 -7.27,7.24 -2.41,-2.41 -4.82,-4.82 -7.22,-7.24 -2.37,2.39 -4.74,4.79 -7.22,7.08 -2.36,-2.43 -4.77,-4.81 -7.16,-7.2 -2.09,2.09 -4.17,4.18 -6.29,6.23 -0.1,51.25 -0.02,102.49 -0.04,153.73 21.04,0 42.08,0 63.13,0 0,-11.01 -0.02,-22.03 0,-33.03 0.37,-12.49 8.56,-24.2 20,-29.12 12.76,-5.69 28.8,-2.31 38.12,8.12 5.46,6 8.58,14 8.71,22.12 0.09,10.63 0.01,21.27 0.03,31.91 21.05,0 42.09,-0.01 63.14,0 0,-51.23 -0.01,-102.46 0,-153.7 -2.11,-2.09 -4.31,-4.08 -6.46,-6.12 -2.39,2.42 -4.79,4.83 -7.23,7.2 -2.42,-2.41 -4.83,-4.82 -7.24,-7.24 -2.51,2.15 -4.48,5.31 -7.36,6.8 -2.44,-2.13 -4.59,-4.57 -6.93,-6.8 -2.21,1.97 -4.3,4.07 -6.37,6.18 0,19.45 -0.02,38.9 0.01,58.34 -7.81,0 -15.62,0.01 -23.43,0 -0.04,-29.85 0.11,-59.7 -0.07,-89.55 -1.92,-2.81 -4.81,-4.9 -7.09,-7.44 -2.73,2.69 -5.43,5.4 -8.14,8.11 -2.85,-2.44 -5.13,-6.05 -8.38,-7.72 -2.78,2.41 -5.21,5.19 -7.87,7.73 -2.7,-2.72 -5.41,-5.41 -8.1,-8.13 -2.72,2.71 -5.42,5.43 -8.15,8.13 -2.71,-2.71 -5.41,-5.43 -8.13,-8.13 -2.39,2.41 -4.78,4.81 -7.19,7.2 z"
       id="path20"
       style="fill:#ffffff"
       inkscape:connector-curvature="0" />
    <path
       d="m 548.95,194.01 c 6.31,-0.02 12.63,-0.01 18.95,-0.01 14.86,40.89 29.63,81.82 44.58,122.68 -6.16,-0.03 -12.32,-0.02 -18.48,-0.01 -4.07,-12.24 -8.31,-24.41 -12.38,-36.64 -16.12,-0.07 -32.23,-0.01 -48.35,-0.03 -4.44,12.22 -8.85,24.44 -13.26,36.67 -5.77,0 -11.54,-0.04 -17.3,0.02 15.48,-40.87 30.86,-81.78 46.24,-122.68 m 8.73,18.71 c -6.55,17.86 -13.05,35.74 -19.6,53.6 12.69,0.03 25.38,0.01 38.08,0.01 -6.12,-17.89 -12.18,-35.79 -18.48,-53.61 z"
       id="path22"
       style="fill:#ffffff"
       inkscape:connector-curvature="0" />
    <path
       d="m 625.33,194.01 c 5.03,-0.02 10.06,-0.01 15.1,-0.01 0,5.81 -0.02,11.62 0.01,17.43 -5.04,-0.01 -10.08,-0.02 -15.11,0.01 0.01,-5.81 0,-11.62 0,-17.43 z"
       id="path24"
       style="fill:#ffffff"
       inkscape:connector-curvature="0" />
    <path
       d="m 856.56,202.33 c 5.14,0.01 10.28,0.01 15.43,0 0.01,8.34 0.01,16.67 0.01,25.01 4.73,-0.01 9.47,-0.01 14.22,0 -0.03,4.11 -0.03,8.21 0,12.32 -4.74,0.01 -9.48,0 -14.22,0.01 0.11,20.1 -0.22,40.22 0.17,60.32 1.28,6.38 9.24,5.01 14.04,4.79 -0.02,4.04 0,8.07 -0.03,12.11 -7.11,1.48 -14.89,2.37 -21.74,-0.61 -5.86,-2.94 -7.59,-10.15 -7.83,-16.17 -0.08,-20.15 -0.01,-40.3 -0.04,-60.45 -4.01,0.01 -8.01,0 -12.01,0.01 0.03,-4.12 0.02,-8.23 0,-12.34 4,0.01 8,0 12.01,0.01 0,-8.34 0.02,-16.67 -0.01,-25.01 z"
       id="path26"
       style="fill:#ffffff"
       inkscape:connector-curvature="0" />
    <path
       d="m 1331.79,202.34 c 5.13,-0.02 10.27,0.01 15.42,-0.02 -0.02,8.33 0,16.67 -0.01,25 4.74,0.02 9.49,0.02 14.24,0.01 -0.03,4.11 -0.03,8.23 0,12.34 -4.75,-0.01 -9.5,0 -14.24,0 0,19.14 0,38.28 0,57.42 -0.12,2.77 0.7,6.07 3.58,7.15 3.39,1.22 7.11,0.7 10.65,0.54 -0.02,4.05 0.01,8.1 -0.04,12.16 -7.05,1.37 -14.71,2.33 -21.5,-0.6 -6.33,-3.18 -7.9,-11.02 -8.04,-17.46 -0.13,-19.74 -0.02,-39.48 -0.05,-59.21 -4.02,-0.01 -8.02,0 -12.02,-0.01 0.01,-4.11 0.02,-8.22 0,-12.33 4,0 8,0 12.01,0 0.01,-8.33 0.01,-16.66 0,-24.99 z"
       id="path28"
       style="fill:#ffffff"
       inkscape:connector-curvature="0" />
    <path
       d="m 773.04,239.51 c 5.73,-7.16 13.88,-12.7 23.13,-13.86 9.03,-1.02 19.16,-0.26 26.37,5.9 6.7,5.76 8.6,15.04 8.86,23.48 0.06,20.54 -0.01,41.09 0.04,61.64 -5.15,-0.01 -10.29,-0.01 -15.44,0 -0.02,-19.56 0.02,-39.11 -0.01,-58.66 -0.13,-5.66 -1.59,-11.84 -6.02,-15.7 -4.45,-3.75 -10.66,-3.67 -16.12,-3.04 -7.63,0.96 -14.14,6.39 -17.57,13.11 -2.3,4.5 -2.37,9.67 -2.62,14.6 0.01,16.57 -0.01,33.14 0.02,49.7 -5.05,-0.03 -10.09,-0.01 -15.12,-0.01 0.03,-29.78 0.03,-59.56 -0.01,-89.34 4.81,0.01 9.62,0.01 14.44,0 0.01,4.06 -0.01,8.12 0.05,12.18 z"
       id="path30"
       style="fill:#ffffff"
       inkscape:connector-curvature="0" />
    <path
       d="m 910.72,232.61 c 10.97,-7.85 25.4,-8.85 38.3,-6.38 6.3,1.34 12.77,3.62 17.35,8.35 3.36,3.58 5.13,8.47 5.27,13.34 0.11,18 -0.1,36.01 0.1,54.01 -0.19,5.52 6.24,4.7 9.93,4.05 -0.01,3.75 -0.01,7.5 -0.01,11.26 -5.7,1.48 -12.19,2.55 -17.67,-0.19 -4.45,-2.19 -5.94,-7.33 -6.71,-11.84 -7.84,9.31 -20.08,14.83 -32.27,14.48 -6.64,0.2 -13.4,-1.8 -18.59,-5.99 -13.01,-9.94 -12.91,-33.13 1.17,-42.06 5.38,-3.73 11.86,-5.53 18.3,-6.29 7.74,-0.97 15.48,-1.92 23.23,-2.9 2.97,-0.36 6.13,-1.93 7.12,-4.96 1.66,-5.35 0.77,-12.29 -4.15,-15.67 -5.28,-3.62 -12,-4.01 -18.19,-3.81 -5.18,0.13 -10.7,1.69 -14.16,5.76 -2.7,2.97 -3.47,7.07 -4.09,10.89 -4.73,0.01 -9.45,0 -14.16,0.01 0.2,-8.07 2.36,-17.05 9.23,-22.06 m 9.46,47.6 c -8.37,3.83 -10.1,16.73 -3.04,22.58 5.46,4.71 13.31,4.77 19.94,2.98 6.92,-1.84 14.01,-5.58 17.27,-12.29 3.43,-6.85 1.87,-14.69 2.24,-22.03 -11.23,6.24 -24.91,3.47 -36.41,8.76 z"
       id="path32"
       style="fill:#ffffff"
       inkscape:connector-curvature="0" />
    <path
       d="m 1029.91,226.19 c 7.21,-1.61 15.16,-1.28 21.84,2.13 4.46,2.31 7.55,6.5 9.89,10.83 5.37,-8.03 14.57,-13.42 24.26,-13.78 7.84,-0.45 16.49,0.73 22.43,6.35 6.46,5.82 8.14,14.96 8.32,23.27 0.04,20.57 -0.01,41.13 0.03,61.69 -5.23,-0.04 -10.45,-0.01 -15.67,-0.01 -0.05,-20.6 0.05,-41.2 -0.04,-61.8 -0.02,-4.63 -0.84,-10.06 -5.02,-12.83 -9.68,-6.32 -24.6,-2.15 -29.38,8.47 -1.66,3.93 -2.44,8.22 -2.38,12.47 0.03,17.9 -0.01,35.8 0.02,53.7 -5.22,-0.03 -10.44,-0.02 -15.65,-0.01 0.04,-19.54 -0.01,-39.09 0.03,-58.63 -0.02,-4.96 -0.11,-10.49 -3.24,-14.61 -3.89,-4.7 -10.75,-5.06 -16.31,-3.97 -6.52,1.72 -12.62,6.24 -15,12.72 -3.5,8.86 -2.47,18.55 -2.62,27.85 0.01,12.21 -0.02,24.43 0.02,36.64 -5.04,0 -10.09,-0.02 -15.12,0.01 0.03,-29.79 0.02,-59.57 0.01,-89.36 4.95,0.04 9.91,0 14.88,0.02 -0.02,4.15 0.01,8.29 -0.01,12.44 4.84,-6.1 10.89,-11.81 18.71,-13.59 z"
       id="path34"
       style="fill:#ffffff"
       inkscape:connector-curvature="0" />
    <path
       d="m 1148.49,235.47 c 15.72,-15.02 43.75,-13.14 57.78,3.27 8.72,10.62 9.32,25.14 9.15,38.26 -21.83,0 -43.66,0 -65.49,0 0.4,9.51 2.88,20.22 11.06,26.06 10.07,6.17 24.8,4.85 32.78,-4.19 2.57,-2.96 4.43,-6.49 5.54,-10.25 5.03,-0.08 10.07,-0.06 15.12,-0.02 -1.89,8.94 -6.78,17.31 -13.85,23.12 -8.56,6.84 -20.05,8.87 -30.73,8.06 -13.04,-0.92 -25.08,-9.29 -30.89,-20.93 -4.36,-8.54 -5.56,-18.33 -5.2,-27.82 0.19,-13.1 4.86,-26.6 14.73,-35.56 m 10.93,8.94 c -5.8,5.1 -8.84,12.74 -9.11,20.37 16.54,0 33.09,0.08 49.63,-0.04 -0.75,-5.97 -1.93,-12.12 -5.42,-17.16 -7.64,-11.06 -25.44,-12.13 -35.1,-3.17 z"
       id="path36"
       style="fill:#ffffff"
       inkscape:connector-curvature="0" />
    <path
       d="m 1248.21,239.77 c 5.77,-7.45 14.19,-13.14 23.71,-14.17 8.96,-0.88 19.15,-0.18 26.14,6.18 5.06,4.32 7.33,10.95 8.15,17.37 1.26,10.9 0.65,21.9 0.79,32.85 0,11.55 0,23.11 0,34.67 -5.24,0 -10.46,-0.02 -15.68,0.01 0.04,-17.57 -0.01,-35.15 0.02,-52.72 0.11,-5.93 0.15,-12.22 -2.8,-17.56 -2,-3.89 -6,-6.58 -10.31,-7.17 -6,-0.7 -12.5,-0.21 -17.68,3.18 -5.45,3.72 -9.92,9.42 -10.89,16.08 -0.48,3.16 -0.6,6.37 -0.66,9.56 -0.01,16.21 0.01,32.41 -0.01,48.62 -5.08,-0.01 -10.15,0.01 -15.22,-0.02 0.05,-29.77 0.03,-59.54 0.01,-89.31 4.81,-0.01 9.62,0 14.43,0 -0.03,4.14 0,8.29 0,12.43 z"
       id="path38"
       style="fill:#ffffff"
       inkscape:connector-curvature="0" />
    <path
       d="m 663.01,227.33 c 5.14,0.01 10.28,0.01 15.43,0 -0.03,19.56 -0.03,39.12 0,58.68 0.17,5.46 0.88,11.53 5,15.55 4.56,4.41 11.5,4.82 17.44,3.75 5.72,-0.95 10.98,-4.44 13.94,-9.46 4.31,-7.11 5.01,-15.67 5.17,-23.79 0.03,-14.91 -0.01,-29.82 0.02,-44.73 5.06,0.01 10.13,0.01 15.2,0 -0.01,29.78 -0.02,59.55 0.01,89.33 -4.82,0.01 -9.63,0 -14.44,0.01 -0.05,-4.25 0.08,-8.49 0.26,-12.73 -4.93,8.18 -13.61,13.96 -23.15,14.98 -9.32,0.97 -19.82,-0.27 -26.93,-6.94 -6.2,-5.9 -7.82,-14.86 -7.97,-23.06 0.02,-20.53 -0.01,-41.06 0.02,-61.59 z"
       id="path40"
       style="fill:#ffffff"
       inkscape:connector-curvature="0" />
    <path
       d="m 625.34,330.02 c -0.01,-34.16 0.01,-68.31 -0.01,-102.46 5.03,0.03 10.06,0.02 15.1,0.01 -0.02,35.16 0,70.32 -0.01,105.48 -0.09,5.81 -1.9,12.15 -6.86,15.66 -6.55,4.59 -14.97,4.25 -22.56,3.68 0,-4.36 -0.02,-8.71 0.02,-13.06 4.12,-0.58 8.54,-0.08 12.39,-1.95 1.75,-1.99 1.75,-4.86 1.93,-7.36 z"
       id="path42"
       style="fill:#ffffff"
       inkscape:connector-curvature="0" />
    <path
       d="m 207.29,293.35 c 3.71,-6.73 14.26,-7.62 18.89,-1.41 4.83,6.29 2.11,14.77 2.83,22.06 -7.9,0 -15.79,0.01 -23.68,-0.01 0.54,-6.84 -1.45,-14.34 1.96,-20.64 z"
       id="path44"
       style="fill:#ffffff"
       inkscape:connector-curvature="0" />
    <path
       d="m 133.62,317.99 c 1.34,-5.3 8.41,-7.93 12.72,-4.37 4.97,4.01 2.91,11.08 3.31,16.6 -5.44,-0.03 -10.87,-0.02 -16.31,-0.01 0.14,-4.07 -0.35,-8.18 0.28,-12.22 z"
       id="path46"
       style="fill:#ffffff"
       inkscape:connector-curvature="0" />
    <path
       d="m 286.84,314.86 c 2.93,-3.82 9.25,-3.75 12.23,-0.03 3.58,4.31 1.65,10.29 2.13,15.38 -5.47,-0.01 -10.94,-0.01 -16.4,-0.01 0.47,-5.08 -1.43,-11 2.04,-15.34 z"
       id="path48"
       style="fill:#ffffff"
       inkscape:connector-curvature="0" />
    <path
       d="m 780.92,363.09 c 11.56,-2.25 23.79,-1.68 34.94,2.26 7.67,2.89 15.24,7.37 19.61,14.54 3.97,6.26 5.02,13.82 5.26,21.1 -5.28,0.02 -10.55,0.01 -15.82,0.01 -0.95,-6.49 -2.83,-13.41 -8.01,-17.84 -6.81,-5.81 -16.24,-7.04 -24.89,-6.75 -7.63,0.07 -16.19,1.81 -21.17,8.12 -4.77,5.63 -6.27,14.41 -2.16,20.79 2.85,4.36 8.1,6.05 12.84,7.49 12.09,3.59 24.55,5.72 36.74,8.95 8.43,2.33 16.97,6.59 21.61,14.35 5.11,8.52 5.29,19.19 2.97,28.63 -1.97,7.88 -7.46,14.68 -14.65,18.42 -13.76,7.71 -30.25,9.49 -45.67,7.13 -11.02,-1.74 -21.78,-7.06 -28.55,-16.15 -5.68,-7.41 -7.86,-16.92 -7.68,-26.13 5.26,-0.02 10.51,-0.01 15.77,-0.01 0.32,8.48 3.27,17.49 10.41,22.64 9.24,6.79 21.5,7.1 32.45,5.78 8.07,-1.42 17.22,-4.43 21.15,-12.27 3.82,-8.13 1.89,-20.27 -7.2,-23.95 -17.15,-8.06 -36.96,-7.84 -54.1,-15.99 -7.17,-3.45 -12.51,-10.37 -13.86,-18.23 -1.61,-9.86 0.3,-20.57 6.42,-28.62 5.59,-7.64 14.39,-12.49 23.59,-14.27 z"
       id="path50"
       style="fill:#ffffff"
       inkscape:connector-curvature="0" />
    <path
       d="m 569.79,364.58 c 4.88,-0.01 9.76,0.01 14.64,-0.02 -0.01,41.04 -0.02,82.08 0.01,123.11 -4.63,-0.01 -9.26,-0.01 -13.88,0 0.03,-3.96 0.02,-7.92 -0.01,-11.88 -5.65,9 -15.78,14.96 -26.48,14.88 -7.69,0.58 -15.55,-1.57 -21.68,-6.29 -9.33,-6.84 -15.1,-17.77 -16.68,-29.13 -2.27,-15.57 0.29,-32.48 9.86,-45.31 9.31,-13.37 28.59,-16.76 42.97,-10.33 4.59,2.18 8.08,6 11.25,9.87 0.01,-14.97 0.01,-29.94 0,-44.9 m -30.37,46.16 c -5.31,1.5 -9.9,5.12 -12.89,9.72 -4.29,6.66 -5.45,14.79 -5.54,22.56 -0.18,8.82 1.52,17.97 6.45,25.42 7.33,11.1 25.58,12.48 34.32,2.37 7.34,-7.99 8.76,-19.44 8.58,-29.84 -0.33,-8.75 -1.89,-18.42 -8.58,-24.72 -5.6,-5.99 -14.61,-7.81 -22.34,-5.51 z"
       id="path52"
       style="fill:#ffffff"
       inkscape:connector-curvature="0" />
    <path
       d="m 863,364.79 c 5.14,0 10.28,0.01 15.43,0 -0.01,5.8 -0.01,11.61 -0.01,17.42 -5.14,-0.02 -10.28,0 -15.42,-0.01 0,-5.8 0,-11.61 0,-17.41 z"
       id="path54"
       style="fill:#ffffff"
       inkscape:connector-curvature="0" />
    <path
       d="m 904.01,373.33 c 5.14,0 10.28,0.01 15.43,-0.01 -0.04,8.22 -0.01,16.45 -0.02,24.67 4.75,0.02 9.5,0 14.25,0.02 -0.01,4.14 -0.02,8.28 0,12.43 -4.75,-0.03 -9.5,-0.01 -14.24,-0.02 -0.01,19.47 -0.02,38.94 0,58.41 -0.09,2.7 1.23,5.64 3.97,6.52 3.34,0.85 6.86,0.34 10.28,0.36 -0.04,4.05 0.01,8.09 -0.06,12.14 -6.82,1.25 -14.14,2.15 -20.79,-0.31 -6.85,-2.69 -8.55,-10.93 -8.8,-17.49 -0.07,-19.88 0,-39.76 -0.04,-59.63 -4,0.01 -8,0 -11.99,0 -0.01,-4.14 -0.01,-8.28 0,-12.42 4,-0.01 7.99,0 12,0 0,-8.22 -0.01,-16.45 0.01,-24.67 z"
       id="path56"
       style="fill:#ffffff"
       inkscape:connector-curvature="0" />
    <path
       d="m 619,403.98 c 16.44,-12.68 42.66,-9.71 55.7,6.49 7.97,10.58 8.61,24.47 8.51,37.21 -21.88,-0.03 -43.77,-0.02 -65.65,-0.01 0.5,8.59 2.37,17.75 8.53,24.16 6.4,6.05 16.17,6.92 24.38,4.79 8.15,-2.08 14.27,-9.12 16.59,-17.03 5.02,-0.02 10.04,-0.03 15.07,0 -2.47,11.58 -10.03,22.49 -21.01,27.4 -7.84,3.65 -16.69,4.17 -25.19,3.47 -13.21,-1.46 -25.11,-10.68 -30.27,-22.87 -4.17,-9.53 -4.76,-20.21 -3.9,-30.46 1.19,-12.68 6.94,-25.34 17.24,-33.15 m 7.66,11.76 c -5.52,5.1 -8.47,12.57 -8.55,20.04 16.55,-0.01 33.09,0.1 49.64,-0.06 -0.91,-5.94 -1.91,-12.18 -5.47,-17.19 -7.75,-11.33 -26.04,-12.21 -35.62,-2.79 z"
       id="path58"
       style="fill:#ffffff"
       inkscape:connector-curvature="0" />
    <path
       d="m 1055.53,404.59 c 16.47,-13.43 43.59,-10.57 56.72,6.21 7.82,10.51 8.38,24.28 8.19,36.87 -21.83,-0.01 -43.66,0 -65.48,0 0.33,8.52 2.27,17.64 8.37,23.99 6.08,6.12 15.67,6.95 23.71,5.16 8.45,-1.88 14.98,-9 17.27,-17.2 5.04,-0.07 10.08,-0.06 15.12,-0.01 -2.5,11.74 -10.24,22.85 -21.5,27.62 -7.84,3.46 -16.61,3.93 -25.04,3.2 -12.25,-1.51 -23.2,-9.67 -28.83,-20.54 -5.27,-10.35 -6,-22.37 -4.87,-33.74 1.3,-12.05 6.79,-23.88 16.34,-31.56 m 7.89,11.75 c -5.27,5.02 -7.73,12.29 -8.12,19.44 16.54,0.01 33.08,0.06 49.62,-0.03 -0.5,-5.81 -1.79,-11.72 -4.96,-16.7 -7.66,-11.99 -27.02,-12.97 -36.54,-2.71 z"
       id="path60"
       style="fill:#ffffff"
       inkscape:connector-curvature="0" />
    <path
       d="m 1142.22,406.29 c 6.86,-7.82 17.73,-10.68 27.81,-10.52 8.62,0.07 17.82,1.72 24.6,7.43 6.06,5.05 9.97,12.82 9.63,20.79 -4.75,0.02 -9.49,0.01 -14.23,0 -0.58,-5.82 -3.99,-11.61 -9.84,-13.39 -7.4,-2.36 -16.03,-2.82 -23.19,0.55 -6.1,2.91 -7.79,11.88 -2.75,16.55 6.43,5.73 15.55,6.09 23.47,8.44 7.89,2.29 16.55,3.74 23.05,9.11 6.37,5.37 7.36,14.56 5.98,22.3 -2.26,11.09 -11.77,19.99 -22.8,22.12 -10.87,2.17 -22.54,2.09 -33.02,-1.76 -11.33,-4.33 -17.14,-16.83 -17.69,-28.33 4.87,-0.01 9.75,0.01 14.63,-0.02 0.58,4.97 1.88,10.37 5.97,13.66 5.56,4.48 13.15,5.35 20.06,4.92 5.44,-0.48 11.24,-1.99 15.2,-6 4.64,-4.72 4.46,-14.09 -1.84,-17.32 -7.34,-3.56 -15.54,-4.73 -23.33,-6.9 -8.87,-2.32 -18.77,-4.7 -24.63,-12.35 -6.05,-8.82 -3.88,-21.48 2.92,-29.28 z"
       id="path62"
       style="fill:#ffffff"
       inkscape:connector-curvature="0" />
    <path
       d="m 956.45,406.24 c 9.36,-9.57 24.51,-12.23 36.83,-7.35 5.75,2.13 10.36,6.44 14.03,11.24 0.02,-3.71 0.03,-7.42 0.02,-11.12 4.62,-0.02 9.24,-0.02 13.87,0 0.01,26.98 -0.01,53.97 0.01,80.95 0.06,10.87 -1.11,22.54 -7.61,31.64 -5.39,7.76 -14.59,12.02 -23.76,13.25 -11.15,1.46 -23.22,0.55 -32.91,-5.61 -7.25,-4.22 -10.98,-12.54 -11.52,-20.65 5.13,-0.03 10.27,0 15.41,-0.03 0.84,5.63 4.34,10.99 9.99,12.71 8.1,2.52 17.47,2.29 25.06,-1.72 5.63,-3.1 8.82,-9.24 9.7,-15.43 1.1,-6.04 0.98,-12.2 1.2,-18.31 -2.97,3.39 -5.93,6.95 -9.97,9.12 -6.59,3.75 -14.49,4.06 -21.87,3.57 -12.26,-1.24 -24.13,-9.21 -28.53,-20.93 -3.81,-9.7 -3.98,-20.32 -3.42,-30.57 0.94,-11.32 4.87,-22.94 13.47,-30.76 m 20.04,4.45 c -4.73,1.09 -8.9,4 -11.77,7.89 -5.57,7.97 -6.4,18.1 -6.48,27.55 0.24,7.96 1.33,16.6 6.65,22.92 9.04,11.22 28.77,9.02 36.24,-2.89 5.9,-9.18 6.91,-20.68 5.67,-31.29 -0.72,-7.49 -3.54,-15.22 -9.6,-20.03 -5.65,-4.81 -13.66,-5.78 -20.71,-4.15 z"
       id="path64"
       style="fill:#ffffff"
       inkscape:connector-curvature="0" />
    <path
       d="m 863.01,398.58 c 5.13,-0.02 10.28,0.01 15.42,-0.02 -0.01,29.7 -0.03,59.41 0.01,89.11 -5.15,-0.01 -10.29,-0.01 -15.43,0 -0.02,-29.69 -0.01,-59.39 0,-89.09 z"
       id="path66"
       style="fill:#ffffff"
       inkscape:connector-curvature="0" />
  </g>
</svg>
