<?xml version="1.0" encoding="UTF-8" standalone="no"?>
<!-- Created with Inkscape (http://www.inkscape.org/) -->

<svg
   xmlns:dc="http://purl.org/dc/elements/1.1/"
   xmlns:cc="http://creativecommons.org/ns#"
   xmlns:rdf="http://www.w3.org/1999/02/22-rdf-syntax-ns#"
   xmlns:svg="http://www.w3.org/2000/svg"
   xmlns="http://www.w3.org/2000/svg"
   xmlns:sodipodi="http://sodipodi.sourceforge.net/DTD/sodipodi-0.dtd"
   xmlns:inkscape="http://www.inkscape.org/namespaces/inkscape"
   version="1.1"
   width="1439.371"
   height="1687.833"
   viewBox="0 0 1151.4968 1350.2664"
   id="svg2"
   inkscape:version="0.48.5 r10040"
   sodipodi:docname="bllogo.svg">
  <sodipodi:namedview
     pagecolor="#ffffff"
     bordercolor="#666666"
     borderopacity="1"
     objecttolerance="10"
     gridtolerance="10"
     guidetolerance="10"
     inkscape:pageopacity="0"
     inkscape:pageshadow="2"
     inkscape:window-width="640"
     inkscape:window-height="480"
     id="namedview27"
     showgrid="false"
     units="mm"
     fit-margin-bottom="60"
     fit-margin-top="0"
     fit-margin-left="0"
     fit-margin-right="0"
     inkscape:zoom="0.16027165"
     inkscape:cx="726.39594"
     inkscape:cy="948.84842"
     inkscape:window-x="452"
     inkscape:window-y="36"
     inkscape:window-maximized="0"
     inkscape:current-layer="svg2" />
  <metadata
     id="metadata18">
    <rdf:RDF>
      <cc:Work
         rdf:about="">
        <dc:format>image/svg+xml</dc:format>
        <dc:type
           rdf:resource="http://purl.org/dc/dcmitype/StillImage" />
        <dc:title />
      </cc:Work>
    </rdf:RDF>
  </metadata>
  <defs
     id="defs16">
    <clipPath
       id="clipPath3053">
      <path
         d="m 0,850.394 1417.323,0 L 1417.323,0 0,0 0,850.394 z"
         id="path3055"
         inkscape:connector-curvature="0" />
    </clipPath>
  </defs>
  <g
     id="#ffffffff"
     transform="translate(10.116749,2.187708)" />
  <g
     id="#000000ff"
     style="fill:#aaaaaa;fill-opacity:1"
     transform="translate(10.116749,2.187708)">
    <path
       d="m 1033.86,7.86 c 1.11,-1.86 3.47,-1.03 5.12,-0.55 7.03,2.41 13.82,6.27 18.26,12.38 2.37,3.63 6.41,5.56 9.18,8.81 3.03,3.5 6.26,7.08 7.61,11.62 1.77,5.55 3.9,11.7 1.63,17.42 -4.63,9.49 -9.03,19.1 -13.41,28.71 -5.8,12.44 -9.89,25.57 -14.43,38.49 -16.27,48.22 -31.33,96.83 -46.19,145.49 9.01,-11.51 17.37,-23.56 27.2,-34.41 9.11,-9.94 18.71,-19.66 30.06,-27.06 7.26,-4.95 16.3,-6.57 24.95,-6.32 9.06,1.44 16.29,7.93 22.53,14.23 4.48,5.8 11.01,9.66 15.01,15.88 3.94,5.93 4.97,13.38 3.91,20.33 -3.78,24.99 -11.06,49.24 -17.56,73.61 -5.89,24.74 -11.65,49.51 -17.34,74.3 -4.49,19.21 -8.14,38.61 -11.15,58.1 -1.78,12.65 -3.85,25.64 -1.19,38.32 8.51,-1.94 16.59,-5.56 24.09,-9.98 5.2,-3.35 9.63,-7.72 14.25,-11.8 4.33,-3.83 7.88,-8.98 13.66,-10.74 3.74,3.85 7.52,7.66 11.33,11.45 -3.3,7.85 -9.24,14.16 -15.22,20.05 -6.18,5.87 -12.71,11.4 -19.76,16.19 -8.38,5.14 -17.98,7.84 -27.47,10.07 -10.89,2.54 -21.96,-1.55 -31.13,-7.27 -9.41,-4.87 -16.26,-13.13 -23.58,-20.54 -6.34,-9.59 -5.74,-21.77 -4.34,-32.69 1.54,-23.34 7.5,-46.04 12.38,-68.82 10.22,-44.84 20.98,-89.56 32.91,-133.97 1.97,-7.89 5.02,-15.48 6.49,-23.49 -12.4,7.6 -21.19,19.55 -30.5,30.46 -14.79,18.52 -28.72,37.82 -40.55,58.38 -5.55,9.39 -9.18,19.71 -13.51,29.67 -2.65,6.12 -5.3,12.25 -7.06,18.7 -7.62,25.92 -14.33,52.11 -21.55,78.15 -1.83,6.53 -3.38,13.13 -4.19,19.88 -0.44,3.76 -3.07,7.79 -7.33,7.49 -9.56,-0.57 -19.94,-2.29 -26.97,-9.4 -3.39,-3.69 -7.33,-6.89 -10.38,-10.85 -2.26,-5.84 -1.67,-12.34 -0.25,-18.31 1.32,-9.85 2.96,-19.66 4.65,-29.45 -6.07,10.37 -12.09,20.79 -18.8,30.76 -10.68,15.43 -24.35,29.45 -41.6,37.37 -10.2,4.63 -21.52,6.89 -32.71,6.31 -11.21,-0.58 -21.61,-6.54 -28.95,-14.84 -1.73,-1.97 -3.3,-4.09 -5.4,-5.69 -6.51,-5.18 -11.39,-12.1 -15.36,-19.34 -8.23,16.56 -17.01,33.07 -28.87,47.36 -6.67,7.77 -14.41,15.56 -24.52,18.46 -9.27,1.24 -19.65,1.72 -27.69,-3.91 -4.74,-2.87 -7.79,-7.58 -11.62,-11.42 -6.66,-4.78 -11.37,-11.66 -15.29,-18.75 -8.26,15 -17.96,29.29 -29.67,41.82 -9.09,9.35 -20.17,17.83 -33.36,20.01 -11.91,2.26 -24.42,-0.78 -34.61,-7.14 -3.64,-2.29 -6.74,-5.37 -9.19,-8.89 -1.6,-2.4 -4.25,-3.71 -6.32,-5.61 -5.52,-4.87 -8.77,-11.73 -10.91,-18.64 -4.43,10.11 -9.47,20 -15.72,29.12 -6.1,9.03 -11.17,18.74 -17.95,27.3 -9.43,11.76 -19.89,22.81 -32.02,31.82 -11.69,9.02 -25.81,15.06 -40.51,16.71 -15.9,1.87 -32.09,-4.62 -43.33,-15.78 -2.72,-2.65 -4.86,-5.84 -7.86,-8.19 -11.99,-9.99 -19.04,-24.73 -22.45,-39.72 -4.57,-20.19 -3.73,-41.17 -1,-61.56 4.27,-34.26 17.56,-66.86 35.01,-96.45 12.92,-21.34 28.59,-41.64 49.14,-56.14 6.84,-4.53 14.04,-9.4 22.45,-10.16 9.93,-1.05 20.17,0.55 29.32,4.57 4.43,1.88 8.23,5.12 10.74,9.25 1.67,3.35 5.65,4.28 7.98,7.04 6.39,7.08 9.42,16.54 10.87,25.8 1.06,7.36 0.92,15 -1.2,22.17 -6.14,20.3 -15.29,39.71 -27.35,57.16 -7.64,11.2 -16.61,21.4 -25.51,31.6 -12.03,13.35 -26.66,24.13 -42.26,32.94 -2.22,1.55 -5.66,2.59 -5.82,5.77 -2.14,14.78 -2.19,30.37 2.92,44.58 1.06,2.21 1.56,5.44 4.41,6.01 8.32,3.14 17.38,-0.05 24.62,-4.43 14.33,-8.88 27.03,-20.42 37.15,-33.91 9.99,-13.28 17.53,-28.15 25.4,-42.73 6.09,-11.86 12.48,-23.89 15.13,-37.08 -0.44,-12.37 -0.13,-24.83 2.12,-37.04 6.16,-35.38 19.75,-70.05 42.51,-98.11 12.27,-14.84 27.36,-27.48 44.43,-36.45 9.14,-4.48 19.22,-8.96 29.62,-7.59 10.62,3.19 22.46,6.43 29.39,15.8 2.66,4.38 7.68,6.42 10.77,10.46 1.76,-5.8 2.34,-12.69 6.88,-17.1 8.74,-2.32 18.21,-0.03 26.16,3.91 5.64,3.02 11.78,6.58 14.3,12.81 4.91,3.16 10.8,6.91 11.43,13.31 1.02,8.29 0.23,16.76 -1.52,24.9 -4.83,19.3 -8.51,38.86 -12.77,58.29 -4.04,19.62 -8.59,39.15 -11.73,58.94 -1.02,5.38 -1.95,10.81 -1.81,16.31 7.36,-5.11 12.28,-12.81 17.12,-20.17 8.35,-13.48 15.94,-27.53 21.48,-42.41 1.65,-4.07 1.08,-8.53 1.11,-12.8 1.22,-35.96 6.87,-72.8 24.19,-104.81 8.09,-15.2 19.64,-28.43 33.05,-39.16 12.28,-9.7 27.05,-17.22 42.94,-17.87 9.96,-0.66 19.45,2.93 28.79,5.84 7.65,2.18 12.99,8.46 17.99,14.24 4.44,3.87 9.12,7.76 12.01,12.99 2.37,4.85 3.07,10.3 3.58,15.62 0.69,9.72 0.73,19.58 -1.32,29.15 -1.83,8.76 -2.87,17.91 -7.19,25.9 -1.8,3.22 -2.84,6.89 -5.15,9.81 -2.36,2.35 -5.87,0.77 -8.68,0.34 -3.48,-1 -7.75,-0.75 -10.24,-3.81 -3.37,-3.69 -7.12,-7.03 -10.48,-10.72 -1.55,-2.98 -0.55,-6.52 0.1,-9.62 5.59,-19.15 12.78,-38.39 12.76,-58.6 -11.27,1.36 -20.04,9.57 -26.88,18.03 -11.97,15.18 -20.24,32.89 -27.39,50.75 -7.01,17.13 -11.5,35.11 -15.61,53.11 -3.4,16.33 -6.13,33.13 -4.28,49.83 0.75,4.78 1.41,9.95 4.06,14.06 8.88,3.73 18.81,0.37 26.55,-4.46 7.05,-4.47 13.44,-9.91 19.72,-15.38 10.73,-9.86 18.64,-22.24 26.53,-34.37 12.24,-19.61 22.26,-40.53 31.35,-61.75 3.14,-6.72 4.27,-14.1 6.25,-21.18 9.72,-38.42 20.11,-76.67 30.09,-115.01 4.6,-15.06 9.34,-30.07 14.09,-45.07 11.14,-34.43 22.37,-68.94 37.28,-101.96 5.54,-12.06 11.36,-24.1 18.95,-35.04 M 632.05,325 c -11.5,15.23 -19.95,32.51 -26.92,50.2 -7.14,18.37 -12.75,37.35 -16.61,56.68 -2.77,14.51 -4.81,29.36 -3.57,44.16 0.45,4.25 1.09,8.55 2.64,12.56 4.4,1.4 9.17,-0.36 13.32,-2 14.77,-6.36 26.3,-18.42 35.08,-31.63 8.65,-12.89 17.95,-25.52 24.2,-39.82 9.06,-21.19 16.19,-43.31 19.73,-66.11 1.14,-6.61 0.5,-13.32 0.25,-19.97 -0.66,-11.37 -1.62,-22.83 -4.79,-33.82 -18.15,2.65 -32.64,15.62 -43.33,29.75 m -160.32,40.7 c -10.12,14.85 -16.9,31.63 -23.62,48.21 -7.47,19.19 -15.5,38.21 -21.5,57.94 0.22,-0.05 0.65,-0.14 0.87,-0.19 16.43,-14.55 33.19,-29.16 45.95,-47.18 8.69,-12.23 16.1,-25.42 21.8,-39.3 5.12,-12.48 6.08,-26.48 2.91,-39.58 -11.49,2.01 -20.06,10.9 -26.41,20.1 z"
       id="path6"
       style="fill:#aaaaaa;fill-opacity:1"
       inkscape:connector-curvature="0" />
    <path
       d="m 155.92,110.87 c 26.26,-9.45 54.31,-12.91 82.11,-12.94 30.2,0.14 61.21,5.24 87.77,20.28 10.8,6.08 20.52,14.01 28.7,23.31 8.54,7.58 16.12,16.32 21.74,26.3 7.2,12.39 11.08,26.38 13.56,40.4 4.04,22.76 2.45,46.37 -3.98,68.54 -5.11,17.97 -12.94,35.03 -21.61,51.53 -8,16 -18.52,30.51 -28.54,45.27 -10.95,15.66 -21.82,31.41 -33.92,46.2 -13.21,15.09 -26.92,29.72 -40.57,44.4 -4.48,5.05 -9.63,9.41 -14.67,13.88 16.17,3.35 31.92,8.96 46.31,17.11 11.4,6.47 22.3,14.11 31.16,23.83 3.72,4.25 8.29,7.68 11.94,12 10.17,11.16 16.86,25.52 18.27,40.6 1.53,18.07 -0.19,36.93 -8.31,53.39 -6.98,14.43 -17.86,26.58 -29.76,37.17 -14.84,13.15 -31.33,24.29 -48.1,34.81 -12.21,7.79 -25.13,14.37 -37.86,21.25 -18.31,9.75 -36.67,19.39 -55.08,28.93 -32.16,16.34 -63.59,34.5 -92.08,56.73 -9.01,7.23 -18.05,14.64 -25.36,23.65 -4.98,7.51 -11.22,14.14 -18.19,19.85 -2.33,1.78 -5.31,4.21 -8.39,2.59 -3.11,-1.82 -5.77,-4.32 -8.9,-6.12 -1.95,-1.06 -3.31,-2.82 -4.08,-4.87 -1.31,-3.61 -5.36,-4.78 -8.12,-7 -3.01,-1.9 -3.08,-5.92 -5.41,-8.37 -1.33,-1.82 -3.81,-3.16 -3.79,-5.66 0.22,-11.62 -0.46,-23.26 0.08,-34.87 0.38,-8.56 5.95,-15.67 11.72,-21.52 9.86,-9.86 20.81,-18.55 31.59,-27.37 13.35,-11.11 28.29,-20.07 43.21,-28.88 36.13,-21 73.37,-39.99 110.22,-59.68 17.32,-9.3 34.7,-18.52 51.45,-28.84 19.29,-11.98 36.99,-27.74 47.47,-48.19 4.82,-8.64 7.55,-18.97 4.64,-28.72 -2.11,-6.69 -5.23,-13.85 -11.58,-17.51 -14.98,-10.1 -32.65,-15.71 -50.48,-17.92 -8.7,-1.03 -17.63,-1.51 -26.23,0.47 -6.74,1.38 -10.82,8.54 -17.87,9.02 -4.3,0.12 -6.69,-3.88 -9.47,-6.45 -1.44,-1.14 -2.05,-2.89 -2.7,-4.52 -4.25,-1.29 -6.73,-5.11 -9.78,-8.04 -3.55,-8.43 -4.99,-17.65 -5.79,-26.72 -10.02,45.31 -18.64,90.94 -26.32,136.71 -3.27,19.04 -5.63,38.23 -9.2,57.22 -0.66,2.01 0.69,5.13 -1.81,6.1 -4.25,1.39 -8.53,-1.02 -12.3,-2.75 -8.16,-3.87 -15.57,-9.62 -24.51,-11.6 -2.89,-3.14 -6.26,-6.06 -7.59,-10.27 -1.14,-0.29 -2.27,-0.57 -3.41,-0.86 -4.14,-3.8 -8.78,-8.5 -7.63,-14.69 1.97,-12.31 2.15,-24.81 3.85,-37.16 5.96,-47.83 17.06,-94.83 29,-141.47 8.46,-34.14 18.64,-67.81 28.79,-101.48 9.62,-31.23 21.04,-61.89 33.86,-91.95 5.65,-13.11 11.36,-26.51 20.49,-37.63 2.34,-2.44 4.76,-6 8.62,-5.47 7.55,2.17 13.6,7.54 18.84,13.18 3.41,5.01 9.12,7.8 12.47,12.85 3.75,5.21 7.81,10.3 10.43,16.2 1.25,2.98 2.33,6.48 0.86,9.58 -2.63,5.53 -6.12,10.59 -9.22,15.85 -5.26,8.41 -9.14,17.56 -13.23,26.56 -15.32,34.86 -27.69,70.93 -38.54,107.4 -3.62,12 -6.6,24.18 -9.54,36.35 16.02,-16.91 34.4,-31.44 50.07,-48.7 18.48,-19.6 37.14,-39.11 53.5,-60.54 19.29,-24.91 37.29,-51.19 49.8,-80.23 9.6,-22.4 15.42,-47.11 12.2,-71.54 -1.63,-12.73 -5.79,-25.22 -12.71,-36.07 -2.42,-3.71 -4.86,-7.59 -8.63,-10.08 -18.47,-13.67 -41.73,-19.19 -64.4,-19.96 -16.74,-0.62 -33.48,1.27 -49.94,4.25 -19.81,3.63 -39.38,9.46 -57.19,18.99 -23.49,12.31 -42.44,31.46 -59.03,51.82 -16.52,20.72 -26.95,46.14 -30.04,72.44 -2.61,21.33 -0.73,43.03 4.09,63.92 3.31,14.25 8.57,28.12 16.35,40.55 7.06,11.52 16.23,21.57 23.18,33.16 1.63,2.83 4.34,5.72 3.26,9.27 -1.71,8.49 -5.53,16.66 -11.45,23.04 -4.4,4.79 -8.53,10.17 -14.23,13.44 -5.94,0.36 -11.16,-3.45 -15.36,-7.26 -3.97,-3.35 -7.21,-7.42 -10.94,-10.99 C 37.63,425.81 28.7,412.07 22.39,397.44 15.2,380.87 11.7,362.98 9.44,345.14 5.8,315.61 7.97,285.12 18.01,256.98 c 6.41,-23.61 18.52,-45.29 32.62,-65.14 26.14,-36.49 62.73,-66.03 105.29,-80.97 z"
       id="path8"
       style="fill:#aaaaaa;fill-opacity:1"
       inkscape:connector-curvature="0" />
    <path
       d="m 897.59,494.55 c 1.31,-1.68 3.71,-0.67 5.46,-0.47 6.97,1.75 13.7,4.54 19.95,8.07 4.37,2.47 7.56,6.44 10.46,10.45 4.36,3.24 8.83,6.76 11.24,11.78 1.23,2.81 2.13,6.21 0.6,9.1 -2.42,4.75 -3.33,10.05 -4.89,15.11 -16.2,57.25 -32.09,114.64 -44.95,172.76 9.62,-14.9 18.71,-30.21 29.86,-44.04 7.76,-9.2 16.41,-17.92 26.81,-24.13 4.44,-2.49 9.5,-4.97 14.75,-3.97 7.67,1.6 15.57,4.03 21.41,9.52 3.44,2.84 5.59,6.94 9.21,9.58 10.76,8.52 16.73,21.68 19.37,34.88 4.34,21.99 3.43,44.59 2.2,66.84 -0.87,16.85 -2.94,33.69 -7.5,49.97 -7.66,28.15 -20.56,54.71 -36.66,78.98 -4.64,6.56 -8.71,13.72 -14.9,18.98 -14.47,12.56 -32.65,20.44 -51.42,23.78 -16.67,2.77 -34.35,3.21 -50.36,-2.94 -5.77,-2.25 -11.81,-5.21 -15,-10.81 -1.57,-3.85 -6.09,-4.63 -8.55,-7.7 -7.62,-8.48 -8.3,-20.58 -8.92,-31.4 -4.19,7.65 -8.43,15.26 -13.03,22.67 -4.65,7.59 -10.04,14.68 -15,22.06 -5.86,8.66 -11.84,17.52 -20.09,24.11 -7.69,5.08 -17.83,4.51 -26.25,1.66 -4.34,-2.28 -8.33,-5.56 -10.92,-9.77 -1.68,-2.72 -4.79,-4 -7.02,-6.17 -3.52,-2.88 -5.42,-7.12 -7.01,-11.25 -9.43,15.98 -19.59,31.59 -31.1,46.16 -5.58,6.77 -11.46,13.97 -19.8,17.37 -9.88,3.55 -20.75,1.47 -30.37,-1.95 -9.59,-3.47 -17.37,-10.44 -23.83,-18.14 -19.13,-15.65 -28.55,-40.44 -30.12,-64.6 -2.31,-34.7 4.05,-69.6 15.46,-102.3 9.65,-27.32 22.32,-53.91 40.32,-76.75 9.81,-12.58 22.08,-23.53 36.62,-30.3 7.01,-3.42 14.85,-4.31 22.42,-5.75 11.72,-2.6 24.67,2.65 31.6,12.4 2.59,3.91 7.17,5.8 9.99,9.54 3.18,-3.21 6.59,-9.24 11.89,-7.27 11.89,4.18 22.31,11.91 30.43,21.48 3.57,4.07 8.44,6.99 11.35,11.65 0.79,3.38 0.27,6.91 0.13,10.36 -1.03,12.03 -2.6,24.06 -5.34,35.84 -4.28,22.23 -8.09,44.54 -11.6,66.9 -2.61,16.78 -4.07,33.72 -5.3,50.64 9.05,-4.41 13.02,-14.1 18.13,-22.12 5.7,-8.49 10.66,-17.44 15.68,-26.35 3.6,-6.58 8.05,-12.81 10.15,-20.1 1.92,-6.56 4.26,-13.05 5.47,-19.8 0.06,-11.72 1.38,-23.4 2.35,-35.08 7.25,-81.47 25.45,-161.51 47.6,-240.1 3.33,-11 6.98,-21.89 10.62,-32.79 1.89,-5.92 4.53,-11.7 8.4,-16.59 m 53.93,200.99 c -5.5,5.17 -10.85,10.61 -14.91,17.02 -10.06,15.27 -19.07,31.21 -27.78,47.27 -7.14,13.41 -14.18,26.91 -19.98,40.96 -8.94,23.39 -12.11,48.49 -13.93,73.31 -0.52,9.63 -1.75,19.36 -0.11,28.96 4.58,1.18 9.54,1.64 14.03,-0.17 7.47,-2.93 13.42,-8.54 19.3,-13.82 8.74,-8.01 16.91,-16.83 22.86,-27.15 7.28,-12.61 11.97,-26.47 16.79,-40.14 8.48,-23.36 12.19,-48.12 14.85,-72.73 1.74,-20.12 3.34,-40.65 -0.58,-60.62 -4.16,1.27 -7.39,4.26 -10.54,7.11 m -244.6,58.41 c -9.43,11.88 -16.57,25.39 -22.74,39.19 -7.53,17.03 -13.52,34.73 -18.28,52.72 -3.9,15.08 -7.36,30.44 -7.48,46.1 -0.29,17.45 -0.21,35.62 6.6,52 3.21,0.49 6.53,0.54 9.65,-0.49 4.54,-1.16 7.22,-5.34 10.18,-8.62 10.18,-12.68 19.38,-26.12 28.29,-39.71 5.29,-11.62 10.5,-23.52 12.19,-36.29 4.36,-27.11 8.47,-54.36 9.45,-81.83 0.43,-14.37 0.73,-28.92 -2.08,-43.09 -10.55,3.59 -18.92,11.49 -25.78,20.02 z"
       id="path10"
       style="fill:#aaaaaa;fill-opacity:1"
       inkscape:connector-curvature="0" />
    <path
       d="m 394.55,626.53 c 1.42,-2.2 3.58,-4.28 6.44,-3.87 5.61,0.54 11.53,1.75 15.98,5.44 5.57,4.43 12.02,7.8 16.8,13.15 5.48,5.52 11.02,10.98 16.48,16.5 4.15,4.19 6.99,10.48 4.78,16.33 -5.5,16.52 -11.32,32.92 -16.64,49.5 -18.01,55.48 -33.15,111.95 -43.96,169.28 -6.19,32.57 -11.83,65.24 -16.28,98.09 -4.12,30.02 -7.07,60.18 -11.49,90.16 21.54,-19.72 42.68,-39.87 64.74,-59 13.35,-11.34 27.54,-21.65 41.75,-31.87 19.48,-13.79 39.18,-27.35 59.9,-39.22 10.35,-6.18 22.65,-10.22 34.78,-8.48 6.29,1.54 12.68,5.74 14.87,12.09 3.9,2.55 8.57,4.93 10.48,9.45 2.35,17.92 0.04,36.19 -5.37,53.37 -3.25,10.27 -6.8,20.71 -13.11,29.55 -3.31,-4.37 -4.88,-9.85 -8.67,-13.86 -0.59,0.56 -1.76,1.68 -2.35,2.24 -0.53,-0.37 -1.59,-1.1 -2.12,-1.46 -19.2,3.16 -37.15,11.27 -54.14,20.49 -25.16,13.86 -48.84,30.19 -72.23,46.81 -25.74,18.59 -50.8,38.23 -73.73,60.22 -5.31,4.63 -8.22,11.2 -12.68,16.56 l -12.7,0 c -2.24,-1.44 -4.48,-2.87 -6.7,-4.34 -5.51,-3.19 -7.77,-9.75 -13.39,-12.83 -8.33,-7.91 -14.25,-19.14 -14.24,-30.81 -1.06,-27.5 0.07,-55.04 2.05,-82.48 2.74,-37.01 7.14,-73.88 12.46,-110.61 5.04,-34.07 10.53,-68.1 17.57,-101.83 5.98,-27.42 12.26,-54.78 18.56,-82.14 3.56,-15.1 6.71,-30.32 11.23,-45.18 5.28,-17.83 10.87,-35.57 16.77,-53.21 3.24,-10 8.2,-19.4 14.16,-28.04 z"
       id="path12"
       style="fill:#aaaaaa;fill-opacity:1"
       inkscape:connector-curvature="0" />
  </g>
  <g
     transform="matrix(11.92855,0,0,11.89278,-23.612749,-11336.264)"
     id="layer1"
     style="fill:#ffffff;fill-opacity:1">
    <g
       transform="matrix(0.13241427,0,0,-0.13241427,-43.284276,1058.0615)"
       id="g3047"
       style="fill:#ffffff;fill-opacity:1">
      <g
         id="g3049"
         style="fill:#ffffff;fill-opacity:1">
        <g
           clip-path="url(#clipPath3053)"
           id="g3051"
           style="fill:#ffffff;fill-opacity:1">
          <g
             transform="translate(630.1045,507.8857)"
             id="g3057"
             style="fill:#ffffff;fill-opacity:1">
            <path
               d="m 0,0 c 9.83,9.318 17.601,19.694 24.186,32.5 5.185,10.085 9.318,19.73 6.298,33.76 -0.673,3.128 -2.869,8.238 -5.794,8.062 C 9.389,73.402 -0.376,52.052 -9.852,27.98 -19.327,3.908 -23.975,-7.291 -25.446,-21.415 -16.401,-15.652 -8.085,-7.664 0,0 m 83.989,31.726 c -8.865,-33.299 -7.926,-61.422 9.741,-55.808 5.155,1.638 14.86,6.604 23.925,19.799 14.093,20.513 15.049,22.722 20.659,37.539 5.611,14.816 8.967,31.844 8.818,36.783 -0.148,4.9 -0.562,37.449 -9.646,36.483 C 111.067,103.716 92.854,65.026 83.989,31.726 m 252.456,57.749 c 1.797,1.324 6.881,12.129 8.818,15.117 5.635,8.689 12.178,17.03 18.644,25.446 5.749,7.481 21.249,24.533 31.241,27.461 2.08,0.61 7.081,1.461 9.825,1.26 6.435,-0.473 13.87,-8.049 15.847,-10.38 2.957,-3.486 4.833,-8.34 3.805,-15.066 -2.408,-15.738 -7.206,-31.957 -11.086,-46.357 -0.322,-1.195 -10.101,-42.788 -13.101,-56.435 -0.753,-3.421 -6.442,-31.354 -6.802,-43.081 -0.431,-14.04 3.954,-16.855 6.046,-17.384 3.183,-0.805 14.627,4.338 18.392,7.054 2.864,2.067 5.359,4.46 8.113,6.899 2.89,2.558 5.428,6.194 8.767,6.706 -3.072,-8.441 -16.611,-19.255 -21.565,-22.722 -0.682,-0.479 -5.613,-4.128 -18.493,-7.007 -10.192,-2.277 -19.16,4.461 -20.407,5.039 -1.974,0.914 -3.548,2.349 -5.543,3.78 -4.843,3.471 -5.191,12.972 -5.291,14.863 -0.047,0.873 1.613,17.618 1.763,18.645 2.649,18.011 20.357,92.188 28.973,122.946 1.222,4.358 7.948,21.747 -1.511,19.399 -7.1,-1.762 -18.151,-15.91 -20.911,-19.148 -5.585,-6.549 -25.45,-32.618 -31.745,-48.12 -2.18,-5.369 -4.381,-10.448 -6.55,-15.619 -2.256,-5.379 -10.069,-35.198 -12.597,-44.343 -1.018,-3.683 -4.884,-17.502 -5.29,-20.407 -0.627,-4.482 -0.701,-8.995 -5.794,-8.818 -2.296,0.08 -9.1,1.245 -10.677,2.029 -0.979,0.487 -4.282,2.254 -5.012,2.984 -1.271,1.271 -1.441,4.488 -1.539,7.094 -0.07,1.881 0.711,4.17 1.008,6.551 1.885,15.118 5.967,31.904 7.307,47.113 -4.084,-9.906 -18.834,-34.807 -23.401,-41.482 -14.488,-21.175 -29.358,-26.104 -36.813,-27.551 -7.166,-1.389 -13.772,-1.425 -19.651,1.26 -11.121,5.079 -16.681,15.974 -21.164,27.714 -2.877,-5.479 -18.356,-41.268 -36.04,-46.407 -1.198,-0.349 -6.179,-0.573 -8.313,-0.505 -6.218,0.203 -13.012,2.797 -19.651,15.117 -2.673,4.96 -1.809,11.528 -1.764,18.14 -3.072,-6.684 -5.784,-11.755 -10.172,-19.068 -1.877,-3.129 -6.99,-10.448 -11.998,-16.204 -5.009,-5.756 -12.534,-12.406 -20.659,-14.613 -8.125,-2.205 -15.253,-1.069 -22.171,2.269 -9.896,4.772 -13.971,13.193 -15.611,33.844 -2.323,-7.112 -7.628,-19.871 -14.116,-29.348 -4.198,-6.131 -7.43,-12.63 -12.631,-18.945 -7.054,-8.566 -14.142,-15.743 -23.651,-22.083 -3.012,-2.008 -18.09,-10.642 -32.525,-7.188 -8.704,2.082 -41.044,13.04 -28.522,81.279 5.471,29.82 29.347,78.384 60.552,93.614 8.204,4.005 22.878,1.234 28.604,-3.343 6.528,-5.216 10.865,-20.677 7.43,-31.948 C 29.732,19.73 14.294,3.739 7.558,-4.283 c -15.26,-18.173 -31.889,-24.329 -33.012,-26.432 -0.751,-1.406 -5.048,-31.309 9.287,-39.749 8.446,-4.972 17.401,1.011 23.473,5.464 15.458,11.334 22.804,23.789 29.378,35.758 9.188,16.73 13.085,24.85 14.942,33.394 0,4.459 -1.568,15.439 4.376,37.729 5.711,21.42 16.471,42.104 30.958,56.221 14.893,14.511 31.671,22.079 40.269,20.814 1.081,-0.16 11.295,-3.291 14.864,-6.047 8.908,-6.877 6.112,-11.505 9.322,-18.14 1.433,3.094 1.449,6.424 2.519,10.078 0.769,2.621 1.989,7.518 4.031,8.314 0.666,0.259 3.818,0.507 4.535,0.504 0.841,-0.004 3.808,-0.493 5.292,-0.756 4.704,-0.837 13.719,-5.59 15.368,-9.826 1.143,-2.939 0.94,-8.087 0.504,-12.597 -0.482,-4.973 -2.172,-10.08 -3.276,-15.368 C 177.373,60.642 168.477,19.567 167.792,14.36 167.08,8.956 165.068,1.979 166.28,-2.771 c 0.618,-2.426 1.465,-5.833 4.786,-5.543 3.322,0.29 9.658,6.302 19.916,25.676 4.459,8.42 7.1,15.61 7.307,16.7 0.497,2.63 -0.002,5.73 0.252,9.07 0.657,8.666 1.203,43.128 19.034,70.618 5.888,9.078 26.376,33.434 51.005,30.158 2.068,-0.276 12.937,-3.267 15.619,-4.787 2.96,-1.677 7.487,-6.281 8.819,-8.818 2.771,-5.277 2.766,-15.568 2.52,-21.667 -0.165,-4.082 -2.728,-15.929 -3.276,-17.888 -1.111,-3.969 -2.21,-5.333 -3.78,-8.817 -1.506,-3.345 -2.094,-4.806 -6.046,-3.779 -1.036,0.268 -5.812,1.108 -6.551,1.511 -3.066,1.679 -0.412,8.639 0.757,12.345 2.596,8.239 6.697,22.358 6.55,30.737 -0.047,2.662 0.763,8.751 -6.292,8.617 -22.793,-0.429 -40.707,-56.197 -42.332,-64.799 -0.576,-3.053 -18.247,-59.771 7.809,-62.23 6.949,-0.655 14.086,4.284 17.888,7.306 8.838,7.025 12.802,9.951 24.101,27.486 11.298,17.534 21.911,43.099 22.257,44.569 0.716,3.06 12.458,48.848 17.887,68.528 1.574,5.707 2.766,11.518 4.534,17.132 4.223,13.398 8.521,27.565 13.101,41.065 0.94,2.77 16.262,51.641 31.242,73.063 1.318,1.886 8.074,-2.048 8.566,-2.267 1.186,-0.531 4.037,-2.677 5.039,-4.031 0.617,-0.835 3.939,-4.023 4.861,-7.413 0.749,-2.757 2.055,-5.353 1.531,-9.48 -0.224,-1.767 -1.647,-3.741 -2.519,-5.795 -0.833,-1.96 -7.803,-16.43 -9.826,-21.919 -14.204,-38.543 -40.468,-126.589 -42.326,-132.016 -1.21,-3.535 -2.42,-7.182 -2.268,-11.086"
               id="path3059"
               style="fill:#ffffff;fill-opacity:1;fill-rule:evenodd;stroke:none"
               inkscape:connector-curvature="0" />
          </g>
          <g
             transform="translate(486.874,492.0845)"
             id="g3061"
             style="fill:#ffffff;fill-opacity:1">
            <path
               d="m 0,0 c 19.983,-2.158 35.122,-7.952 48.462,-16.762 26.253,-17.337 26.504,-36.471 26,-49 -1.077,-26.787 -16.428,-45.512 -60,-72 -7.884,-4.794 -49.146,-26.361 -57.64,-30.698 -46.21,-23.597 -69.418,-44.771 -73.699,-51.831 -2.066,-3.404 -11.266,-12.857 -13.976,-12.917 -2.103,-0.047 -3.219,1.34 -4.787,2.519 -1.415,1.064 -3.201,1.852 -4.283,3.023 -0.938,1.018 -1.111,2.875 -2.267,4.283 -1.232,1.499 -2.444,2.187 -2.771,3.527 -0.289,1.181 0.32,2.696 0.252,4.535 -0.139,3.688 -0.669,17.918 0.385,21.256 2.06,6.527 6.321,11.363 29.688,30.142 23.368,18.778 92.845,51.806 124.785,70.798 9.163,5.448 27.677,16.963 36.245,37.375 8.646,20.599 -15.108,40.37 -45.819,44.085 -6.032,0.729 -12.03,0.969 -17.585,-0.496 -4.43,-1.167 -9.395,-9.263 -14.731,-3.543 -0.377,0.405 -0.824,1.064 -1.259,1.512 -0.597,0.613 -1.322,0.962 -1.512,1.259 -0.897,1.408 -5.78,16.867 -2.821,25.902 0.766,2.34 5.364,6.411 7.795,8.769 8.226,7.976 16.584,15.056 23.934,22.926 10.279,11.004 20.842,21.839 30.072,33.164 33.922,41.62 46.188,71.222 46.311,95.499 0.183,36.411 -26.654,64.929 -83.793,57.683 -45.524,-5.772 -64.524,-22.772 -82.755,-44.044 -16.939,-19.763 -26.188,-46.659 -20.959,-80.356 5.23,-33.697 18.286,-42.219 26.946,-56.694 0.654,-1.092 2.566,-3.805 2.52,-4.787 -0.219,-4.676 -3.088,-9.718 -3.276,-10.33 -0.879,-2.865 -11.198,-14.181 -13.333,-14.561 -2.719,-0.484 -7.027,2.062 -8.818,3.78 -1.7,1.629 -17.394,13.484 -23.917,43.295 -9.645,44.071 2.182,69.227 3.602,74.912 4.306,17.238 37.6,89.201 118.918,98.053 57.515,6.261 97.783,-13.164 108.548,-51.04 C 104.967,152.28 93.287,123.801 76.812,93.985 73.197,87.442 49.487,52.817 40.289,42.087 35.714,36.75 16.884,16.347 12.071,11.351 9.684,8.872 1.983,2.695 0,0"
               id="path3063"
               style="fill:#ffffff;fill-opacity:1;fill-rule:evenodd;stroke:none"
               inkscape:connector-curvature="0" />
          </g>
          <g
             transform="translate(469.5264,659.8804)"
             id="g3065"
             style="fill:#ffffff;fill-opacity:1">
            <path
               d="m 0,0 c 1.213,-0.735 5.482,-2.407 6.298,-3.527 0.396,-0.543 4.219,-3.51 4.989,-4.56 3.06,-4.173 6.674,-8.736 8.08,-12.66 1.311,-3.66 0.505,-4.864 -1.008,-7.558 -2.789,-4.966 -6.302,-9.927 -8.818,-15.368 -1.892,-4.092 -15.147,-30.776 -29.729,-80.621 -8.728,-29.832 -22.502,-102.097 -27.954,-139.996 -0.847,-5.892 -1.836,-11.48 -2.771,-16.377 -0.363,-1.902 0.417,-2.494 -0.504,-3.274 -2.611,-2.211 -8.888,1.691 -11.085,2.772 -1.798,0.882 -10.548,6.277 -13.068,5.881 -1.538,2.634 -4.607,3.438 -4.787,8.063 -0.109,2.787 0.831,6.015 1.007,9.069 1.742,30.123 10.804,70.387 17.877,98.174 4.708,18.501 5.992,24.539 15.62,56.939 5.167,17.391 12.067,41.69 28.163,78.985 3.549,8.223 8.995,19.206 14.667,23.555 C -2.404,-0.029 -1.711,0.125 0,0"
               id="path3067"
               style="fill:#ffffff;fill-opacity:1;fill-rule:evenodd;stroke:none"
               inkscape:connector-curvature="0" />
          </g>
          <g
             transform="translate(756.5483,242.1602)"
             id="g3069"
             style="fill:#ffffff;fill-opacity:1">
            <path
               d="m 0,0 c -0.586,-4.123 -5.201,-58.697 18.251,-49.488 4.449,1.746 22.778,29.685 23.178,30.231 0.563,0.77 4.277,9.938 5.795,14.11 2.58,7.094 6.823,42.534 7.054,45.096 2.356,26.097 2.044,53.789 -6.298,51.649 C 22.251,84.993 3.765,26.51 0,0 M 180.5,109.232 C 175.319,103.124 157.044,71.881 148,51.287 138.956,30.693 137.951,1.637 137.419,-6.911 c -0.239,-3.821 -0.319,-13.661 3.526,-15.62 8.978,-3.831 13.45,-3.391 23.935,6.046 15.683,14.116 19.215,22.057 28.217,48.373 9.002,26.315 14.955,92.792 1.007,88.682 -0.227,-0.067 -0.462,-0.252 -0.503,-0.252 -3.005,-0.019 -11.343,-9.012 -13.101,-11.086 M 145.48,70.686 c 1.136,2.84 22.317,37.827 30.613,48.196 10.402,13.002 21.809,20.875 27.74,19.566 7.316,-1.614 11.468,-3.29 15.85,-8.173 8.669,-9.659 13.666,-25.016 9.908,-70.586 -2.48,-30.04 -16.192,-57.953 -30.761,-78.565 -1.237,-1.751 -2.367,-3.425 -3.78,-5.039 -1.303,-1.49 -18.202,-19.317 -50.577,-19.023 -13.342,0.122 -21.596,4.924 -23.431,6.298 -9.4,7.038 -7.088,24.844 -7.559,40.562 -1.837,-1.326 -2.457,-3.645 -3.527,-5.542 -5.132,-9.101 -10.412,-19.361 -16.627,-27.966 -1.289,-1.784 -6.097,-8.806 -7.307,-10.581 -2.976,-4.365 -6.273,-8.376 -10.078,-11.589 -0.714,-0.603 -6.596,-4.713 -17.131,-1.26 -1.15,0.377 -4.669,3.277 -5.542,4.283 -4.61,5.312 -5.854,17.42 -5.291,22.674 -2.904,-7.129 -22.343,-38.716 -32.249,-46.861 -3.716,-3.055 -6.794,-4.507 -12.848,-4.534 -3.437,-0.016 -7.203,0.896 -10.077,1.764 -18.564,5.6 -25.46,27.444 -26.202,29.728 -6.299,19.378 -3.026,46.784 1.763,65.757 3.776,14.956 14.544,47.572 34.516,70.039 6.186,6.96 14.8,13.457 23.179,16.375 2.496,0.871 12.441,2.645 14.36,2.771 3.085,0.204 8.083,-1.387 10.077,-2.518 6.356,-3.608 8.338,-8.221 11.841,-14.612 0.546,2.77 5.535,7.357 6.803,7.557 2.429,0.385 9.658,-3.961 10.834,-4.535 C 81.851,93.958 90.23,86.68 90.81,85.047 91.913,81.934 89.116,62.195 88.038,58.089 87.001,54.137 80.869,19.393 79.221,6.945 c -0.82,-6.178 -1.449,-12.541 -2.016,-19.65 -0.459,-5.751 -1.994,-13.772 3.527,-14.613 3.958,-0.604 8.259,4.17 9.826,6.55 1.859,2.828 3.491,6.007 5.543,9.071 3.824,5.711 7.221,12.135 10.833,18.39 1.809,3.135 3.896,6.507 4.787,9.575 0.403,1.392 3.375,10.494 3.779,13.604 0.179,1.378 -0.11,2.72 0,4.283 3.038,43.353 9.339,91.268 31.744,171.067 1.029,3.67 6.292,19.749 8.062,24.69 0.465,1.298 3.767,7.863 5.039,8.062 2.549,0.398 8.543,-2.133 9.574,-2.52 1.447,-0.541 6.399,-2.81 8.142,-4.432 2.719,-2.529 5.321,-5.138 5.461,-9.424 0.051,-1.518 -1.387,-3.255 -1.763,-4.786 -1.431,-5.842 -28.315,-96.59 -36.279,-146.126"
               id="path3071"
               style="fill:#ffffff;fill-opacity:1;fill-rule:evenodd;stroke:none"
               inkscape:connector-curvature="0" />
          </g>
          <g
             transform="translate(566.6147,95.5439)"
             id="g3073"
             style="fill:#ffffff;fill-opacity:1">
            <path
               d="m 0,0 c 4.787,3.472 39.807,37.073 53.956,48.712 14.537,11.956 49.509,36.762 66.552,45.434 2.637,1.343 15.241,5.935 21.88,1.521 6.638,-4.416 5.089,-5.837 5.376,-8.459 1.674,-15.302 -3.41,-29.96 -4.981,-34.762 -1.641,-5.017 -4.467,-11.154 -6.249,-13.795 -1.783,-2.64 -2.362,2.65 -3.891,3.923 -1.315,1.094 -0.183,4.042 -4.414,3.438 C 108.993,43.266 87.003,31.427 51.15,6.208 15.289,-19.019 -3.047,-37.775 -3.676,-38.69 c -0.492,-0.719 -4.86,-8.334 -7.379,-8.809 -3.549,-0.669 -10.916,3.928 -12.648,5.754 -3.147,3.317 -7.779,10.342 -8.099,16.782 -2.975,59.941 12.639,151.734 19.105,184.685 2.405,12.257 16.25,72.359 17.711,78.168 2.941,11.691 12.667,42.002 14.598,47.052 2.187,5.723 6.56,13.192 9.009,16.03 0.94,1.09 2.68,1.305 5.039,0.836 1.831,-0.365 5.261,-1.267 5.987,-1.731 0.839,-0.536 7.766,-5.651 10.076,-7.173 1.097,-0.722 2.08,-2.105 3.164,-3.14 2.679,-2.56 7.19,-6.242 6.623,-11.724 C 59.105,274.135 35.116,213.747 20.739,138.68 6.362,63.613 8.005,47.444 0,0"
               id="path3075"
               style="fill:#ffffff;fill-opacity:1;fill-rule:evenodd;stroke:none"
               inkscape:connector-curvature="0" />
          </g>
        </g>
      </g>
    </g>
  </g>
</svg>
