<?xml version="1.0" encoding="UTF-8" standalone="no"?>
<svg
   xmlns:dc="http://purl.org/dc/elements/1.1/"
   xmlns:cc="http://creativecommons.org/ns#"
   xmlns:rdf="http://www.w3.org/1999/02/22-rdf-syntax-ns#"
   xmlns:svg="http://www.w3.org/2000/svg"
   xmlns="http://www.w3.org/2000/svg"
   xmlns:sodipodi="http://sodipodi.sourceforge.net/DTD/sodipodi-0.dtd"
   xmlns:inkscape="http://www.inkscape.org/namespaces/inkscape"
   width="350"
   height="200"
   viewBox="0 0 280 160"
   version="1.1"
   id="svg2"
   inkscape:version="0.92.1 r"
   sodipodi:docname="dubai.svg">
  <metadata
     id="metadata72">
    <rdf:RDF>
      <cc:Work
         rdf:about="">
        <dc:format>image/svg+xml</dc:format>
        <dc:type
           rdf:resource="http://purl.org/dc/dcmitype/StillImage" />
        <dc:title></dc:title>
      </cc:Work>
    </rdf:RDF>
  </metadata>
  <defs
     id="defs70">
    <clipPath
       id="clipPath16"
       clipPathUnits="userSpaceOnUse">
      <path
         inkscape:connector-curvature="0"
         id="path18-6"
         d="m 0,841.89 595.28,0 L 595.28,0 0,0 0,841.89 Z" />
    </clipPath>
  </defs>
  <sodipodi:namedview
     pagecolor="#f83838"
     bordercolor="#666666"
     borderopacity="1"
     objecttolerance="10"
     gridtolerance="10"
     guidetolerance="10"
     inkscape:pageopacity="0.15294118"
     inkscape:pageshadow="2"
     inkscape:window-width="1366"
     inkscape:window-height="709"
     id="namedview68"
     showgrid="false"
     inkscape:zoom="1.053423"
     inkscape:cx="181.67259"
     inkscape:cy="86.022217"
     inkscape:window-x="0"
     inkscape:window-y="0"
     inkscape:window-maximized="1"
     inkscape:current-layer="svg2"
     fit-margin-left="5"
     fit-margin-top="5"
     fit-margin-bottom="5"
     fit-margin-right="5"
     units="px" />
  <g
     id="#fefefeff"
     transform="translate(12.963227,-429.06322)" />
  <g
     transform="matrix(0.50572338,0,0,-0.50572338,-1.9844181,348.03686)"
     inkscape:label="dubai_tourism_new_logo"
     id="g10"
     style="fill:#ffffff">
    <g
       id="g12"
       style="fill:#ffffff">
      <g
         clip-path="url(#clipPath16)"
         id="g14"
         style="fill:#ffffff">
        <g
           transform="translate(218.9814,558.8198)"
           id="g20"
           style="fill:#ffffff">
          <path
             inkscape:connector-curvature="0"
             id="path22-7"
             style="fill:#ffffff;fill-opacity:1;fill-rule:evenodd;stroke:none"
             d="m 0,0 v 58.336 h 13.367 c 8.336,0 15.172,-6.836 15.172,-15.172 V 4.787 H 11.541 C 6.287,4.3 2.475,2.069 0,0" />
        </g>
        <g
           transform="translate(311.3311,617.501)"
           id="g24"
           style="fill:#ffffff">
          <path
             inkscape:connector-curvature="0"
             id="path26-5"
             style="fill:#e6e6e6;fill-opacity:1;fill-rule:evenodd;stroke:none"
             d="m 0,0 c 24.989,-0.507 45.11,-20.933 45.11,-46.064 0,-25.457 -20.648,-46.106 -46.084,-46.106 -20.871,0 -41.904,0.467 -62.837,0.467 v -33.144 c 0,-15.111 -12.373,-27.485 -27.484,-27.485 h -35.333 c -15.132,0 -27.505,12.374 -27.505,27.485 v 63.387 l 18.823,-0.183 c 6.957,-0.709 11.034,-7.443 11.257,-10.892 v -35.699 c 0,-8.703 7.14,-15.842 15.862,-15.842 h 15.841 v 32.373 10.162 5.294 c 0,8.519 6.957,15.476 15.456,15.476 H 0 c 9.067,0 16.409,7.019 16.409,15.66 0,8.661 -7.342,15.679 -16.409,15.679 z" />
        </g>
        <g
           transform="translate(172.3901,617.1563)"
           id="g28"
           style="fill:#ffffff">
          <path
             inkscape:connector-curvature="0"
             id="path30-3"
             style="fill:#ffffff;fill-opacity:1;fill-rule:evenodd;stroke:none"
             d="m 0,0 h 14.888 v -58.093 c -8.782,8.053 -24.522,6.187 -30.08,5.213 v 37.708 C -15.192,-6.836 -8.356,0 0,0" />
        </g>
        <g
           transform="translate(493.9414,617.1563)"
           id="g32"
           style="fill:#ffffff">
          <path
             inkscape:connector-curvature="0"
             id="path34-5"
             style="fill:#ffffff;fill-opacity:1;fill-rule:evenodd;stroke:none"
             d="m 0,0 h 17.77 v -136.997 c 0,-8.256 -6.756,-14.99 -14.991,-14.99 h -14.99 V -12.21 C -12.211,-5.497 -6.713,0 0,0" />
        </g>
        <g
           transform="translate(49.7988,617.1563)"
           id="g36"
           style="fill:#ffffff">
          <path
             inkscape:connector-curvature="0"
             id="path38-6"
             style="fill:#ffffff;fill-opacity:1;fill-rule:evenodd;stroke:none"
             d="m 0,0 h 62.817 c 15.132,0 27.504,-12.373 27.504,-27.484 v -97.018 c 0,-15.111 -12.372,-27.485 -27.504,-27.485 H 0 Z m 27.889,-28.64 h 16.836 c 9.269,0 16.855,-7.588 16.855,-16.857 v -61.379 c 0,-9.27 -7.586,-16.855 -16.855,-16.855 H 27.889 Z" />
        </g>
        <g
           transform="translate(350.1738,535.7163)"
           id="g40"
           style="fill:#ffffff">
          <path
             inkscape:connector-curvature="0"
             id="path42-2"
             style="fill:#ffffff;fill-opacity:1;fill-rule:evenodd;stroke:none"
             d="m 0,0 c 3.488,-6.713 5.477,-14.34 5.477,-22.433 0,-22.109 -14.747,-40.772 -34.909,-46.714 -13.264,-3.895 -27.564,-1.4 -41.235,-1.4 -8.032,0 -14.604,6.572 -14.604,14.604 l 0.345,38.905 30.019,0.325 v -9.454 h 0.02 v -0.019 c 0,-8.985 7.282,-16.268 16.268,-16.268 8.985,0 16.287,7.283 16.287,16.268 0,4.503 -1.825,8.561 -4.766,11.5 C -13.002,-14.726 -3.691,-4.827 0,0" />
        </g>
        <g
           transform="translate(303.3809,519.0234)"
           id="g44"
           style="fill:#ffffff">
          <path
             inkscape:connector-curvature="0"
             id="path46-9"
             style="fill:#e6e6e6;fill-opacity:1;fill-rule:evenodd;stroke:none"
             d="m 0,0 h 8.012 c 4.421,0 8.031,-3.611 8.031,-8.033 0,-4.402 -3.61,-8.011 -8.031,-8.011 -4.403,0 -8.012,3.609 -8.012,8.011 z" />
        </g>
        <g
           transform="translate(374.1289,518.2529)"
           id="g48"
           style="fill:#ffffff">
          <path
             inkscape:connector-curvature="0"
             id="path50-1"
             style="fill:#ffffff;fill-opacity:1;fill-rule:evenodd;stroke:none"
             d="m 0,0 h 28.924 v -38.621 c 0,-7.951 -6.512,-14.463 -14.463,-14.463 H 0 Z" />
        </g>
        <g
           transform="translate(464.2871,532.5723)"
           id="g52"
           style="fill:#ffffff">
          <path
             inkscape:connector-curvature="0"
             id="path54-2"
             style="fill:#ffffff;fill-opacity:1;fill-rule:evenodd;stroke:none"
             d="M 0,0 C -6.672,-9.614 -16.631,-13.873 -28.924,-14.319 V -52.94 c 0,-7.952 6.512,-14.463 14.463,-14.463 H 0 Z" />
        </g>
        <g
           transform="translate(403.0527,563.5459)"
           id="g56"
           style="fill:#ffffff">
          <path
             inkscape:connector-curvature="0"
             id="path58-7"
             style="fill:#ffffff;fill-opacity:1;fill-rule:evenodd;stroke:none"
             d="M 0,0 C -17.262,0.223 -19.918,2.476 -28.924,-5.335 V 26.41 c 0,13.712 14.158,26.673 26.104,26.673 H 6.389 C 2.414,50.893 0.162,47.181 0,41.684 Z" />
        </g>
        <g
           transform="translate(374.0273,526.4678)"
           id="g60"
           style="fill:#ffffff">
          <path
             inkscape:connector-curvature="0"
             id="path62-0"
             style="fill:#e6e6e6;fill-opacity:1;fill-rule:evenodd;stroke:none"
             d="m 0,0 h 31.316 29.452 c 16.795,0 30.546,13.732 30.546,30.547 v 30.162 c 0,15.902 -12.31,29.087 -27.888,30.446 l -12.313,0.304 c -7.849,0 -14.259,-6.43 -14.259,-14.28 V 63.082 l -0.141,-0.183 h 8.396 c 9.25,0 16.795,-7.565 16.795,-16.815 0,-9.229 -7.545,-16.794 -16.795,-16.794 -10.263,0 -20.384,-0.184 -30.546,-0.184 C 6.551,29.106 0,22.555 0,14.543 Z" />
        </g>
        <g
           transform="translate(182.6333,458.1309)"
           id="g64"
           style="fill:#ffffff">
          <path
             inkscape:connector-curvature="0"
             id="path66-9"
             style="fill:#e6e6e6;fill-opacity:1;fill-rule:evenodd;stroke:none"
             d="m 0,0 h 8.033 c 4.401,0 8.011,-3.61 8.011,-8.012 0,-4.423 -3.61,-8.032 -8.011,-8.032 -4.422,0 -8.033,3.609 -8.033,8.032 z" />
        </g>
        <g
           transform="translate(206.5684,458.1309)"
           id="g68"
           style="fill:#ffffff">
          <path
             inkscape:connector-curvature="0"
             id="path70"
             style="fill:#e6e6e6;fill-opacity:1;fill-rule:evenodd;stroke:none"
             d="m 0,0 h 8.012 c 4.421,0 8.011,-3.61 8.011,-8.012 0,-4.423 -3.59,-8.032 -8.011,-8.032 -4.403,0 -8.012,3.609 -8.012,8.032 z" />
        </g>
        <g
           transform="translate(265.5723,617.4399)"
           id="g72"
           style="fill:#ffffff">
          <path
             inkscape:connector-curvature="0"
             id="path74"
             style="fill:#ffffff;fill-opacity:1;fill-rule:evenodd;stroke:none"
             d="m 0,0 h 37.809 v -32.23 c -5.072,-1.562 -8.804,-6.309 -8.804,-11.867 v -8.985 H 0 Z" />
        </g>
      </g>
    </g>
  </g>
</svg>
