<?xml version="1.0" encoding="UTF-8" standalone="no"?>
<!-- Created with Inkscape (http://www.inkscape.org/) -->

<svg
   xmlns:dc="http://purl.org/dc/elements/1.1/"
   xmlns:cc="http://creativecommons.org/ns#"
   xmlns:rdf="http://www.w3.org/1999/02/22-rdf-syntax-ns#"
   xmlns:svg="http://www.w3.org/2000/svg"
   xmlns="http://www.w3.org/2000/svg"
   xmlns:sodipodi="http://sodipodi.sourceforge.net/DTD/sodipodi-0.dtd"
   xmlns:inkscape="http://www.inkscape.org/namespaces/inkscape"
   id="svg2"
   version="1.1"
   inkscape:version="0.48.5 r10040"
   width="350"
   height="200"
   xml:space="preserve"
   sodipodi:docname="fabconnblk.svg"><metadata
     id="metadata8"><rdf:RDF><cc:Work
         rdf:about=""><dc:format>image/svg+xml</dc:format><dc:type
           rdf:resource="http://purl.org/dc/dcmitype/StillImage" /><dc:title /></cc:Work></rdf:RDF></metadata><defs
     id="defs6"><clipPath
       clipPathUnits="userSpaceOnUse"
       id="clipPath48"><path
         d="m 0.05511475,-74.13779 841.88978525,0 0,595.27559 -841.88978525,0 0,-595.27559 z"
         clip-rule="evenodd"
         id="path50"
         inkscape:connector-curvature="0" /></clipPath><clipPath
       clipPathUnits="userSpaceOnUse"
       id="clipPath54"><path
         d="m 0,178 842,0 0,93 -842,0 0,-93 z"
         id="path56"
         inkscape:connector-curvature="0" /></clipPath><clipPath
       clipPathUnits="userSpaceOnUse"
       id="clipPath58"><path
         d="m -21.94489,270.1378 884.99999,0 0,-92 -884.99999,0 0,92 z"
         clip-rule="evenodd"
         id="path60"
         inkscape:connector-curvature="0" /></clipPath><clipPath
       clipPathUnits="userSpaceOnUse"
       id="clipPath62"><path
         d="M 0,0 842,0 842,446 0,446 0,0 z"
         id="path64"
         inkscape:connector-curvature="0" /></clipPath><clipPath
       clipPathUnits="userSpaceOnUse"
       id="clipPath66"><path
         d="m 92.95511,198.9778 25.11999,0 0,10 -6.08,0 0,21.2 8.48,0 0,10 -8.48,0 0,2 c 0,3.92 3.92,4 5.92,4 1.2,0 2,0 2.56,-0.08 l 0.8,-0.16 0,10.88 -1.36,0.16 c -0.88,0.08 -2,0.16 -3.52,0.16 -6.4,0 -18.23999,-1.76 -18.23999,-15.28 l 0,-1.68 -5.6,0 0,-10 5.6,0 0,-21.2 -5.2,0 0,-10 z m 31.51999,11.76 c 0,-8.32 6.32,-12.72 13.52,-12.72 4.48,0 7.44,1.76 9.36,3.44 1.12,0.96 2.08,2.08 2.8,3.36 l 0.16,0 c 0,-0.08 0,-0.24 -0.08,-0.4 -0.08,-0.16 -0.08,-0.48 -0.08,-0.88 l 0,-0.24 c 0,-2 1.44,-4.32 5.52,-4.32 l 11.92,0 0,10 -3.04,0 c -1.2,0 -1.76,0.56 -1.76,1.76 l 0,13.6 c 0,10.88 -6.32,16.8 -18.4,16.8 -5.2,0 -9.52,-1.28 -12.64,-2.64 -1.76,-0.8 -3.36,-1.68 -4.8,-2.72 l 4.8,-9.36 c 1.12,0.72 2.32,1.44 3.6,2 2.16,0.96 4.96,1.92 7.76,1.92 3.12,0 5.84,-1.12 5.84,-4.56 l 0,-1.2 -2.48,0 c -6.4,0 -22,-1.76 -22,-13.84 z m 13.92,0.96 c 0,3.68 4.88,5.12 9.44,5.12 l 1.28,0 0,-0.96 c 0,-3.6 -3.52,-7.84 -7.04,-7.84 -2.24,0 -3.68,1.52 -3.68,3.68 z m 36.56,-12.72 12.96,0 0,1.36 0,1.84 c 0,0.32 0,0.64 -0.08,0.88 l 0.16,0 c 0.72,-0.88 1.52,-1.76 2.56,-2.48 1.84,-1.28 4.56,-2.56 8.72,-2.56 10.96,0 19.2,8.48 19.2,21.52 0,12.8 -7.36,21.6 -18.56,21.6 -3.6,0 -6.48,-0.96 -8.32,-2.16 -1.04,-0.64 -2,-1.36 -2.8,-2.24 l -0.16,0 c 0,0.24 0,0.56 0.08,0.96 0.08,0.64 0.08,1.52 0.08,2.56 l 0,15.92 -19.44,0 0,-10 5.6,0 0,-47.2 z m 13.44,20.32 c 0,7.04 3.92,10.16 8.08,10.16 4.8,0 8.08,-4 8.08,-10.16 0,-6.4 -3.68,-9.84 -8.08,-9.84 -5.44,0 -8.08,4.96 -8.08,9.84 z m 54.24,0.16 c 0,-13.36 11.28,-21.44 23.44,-21.44 6.72,0 13.44,2.24 17.92,6.32 l -4.64,9.68 c -3.52,-2.8 -8.24,-4.56 -12.4,-4.56 -5.68,0 -10.4,3.12 -10.4,10.48 0,5.68 2.72,9.68 9.2,9.68 3.2,0 5.84,-1.04 5.84,-3.04 l 0,-2.48 11.76,0 0,6.56 c 0,7.6 -9.92,10.48 -18.16,10.48 -13.36,0 -22.56,-9.76 -22.56,-21.68 z m 45.36,0 c 0,-12.88 10.4,-21.44 23.36,-21.44 12.96,0 23.36,8.56 23.36,21.44 0,13.04 -10.4,21.68 -23.44,21.68 -12.8,0 -23.28,-8.64 -23.28,-21.68 z m 14,0 c 0,6.16 4.32,10.16 9.36,10.16 5.04,0 9.36,-4 9.36,-10.16 0,-6.16 -4.32,-9.92 -9.36,-9.92 -5.04,0 -9.36,3.76 -9.36,9.92 z m 38.08,-20.48 24.24,0 0,10 -5.2,0 0,7.44 c 0,5.76 2.72,12.16 8.88,12.16 3.12,0 4.64,-1.6 4.64,-5.44 l 0,-24.16 19.04,0 0,10 -5.2,0 0,16.72 c 0,11.52 -6.16,15.44 -13.92,15.44 -5.2,0 -8.64,-1.92 -10.88,-3.92 -1.36,-1.2 -2.4,-2.48 -3.12,-4 l -0.16,0 c 0.08,0.08 0.08,0.24 0.08,0.32 l 0,0.64 0,1.36 c 0,2.8 -1.92,4.64 -5.68,4.64 l -13.12,0 0,-10 3.84,0 c 1.2,0 1.76,-0.56 1.76,-1.76 l 0,-19.44 -5.2,0 0,-10 z m 56.64,0 24.24,0 0,10 -5.2,0 0,7.44 c 0,5.76 2.72,12.16 8.88,12.16 3.12,0 4.64,-1.6 4.64,-5.44 l 0,-24.16 19.04,0 0,10 -5.2,0 0,16.72 c 0,11.52 -6.16,15.44 -13.92,15.44 -5.2,0 -8.64,-1.92 -10.88,-3.92 -1.36,-1.2 -2.4,-2.48 -3.12,-4 l -0.16,0 c 0.08,0.08 0.08,0.24 0.08,0.32 l 0,0.64 0,1.36 c 0,2.8 -1.92,4.64 -5.68,4.64 l -13.12,0 0,-10 3.84,0 c 1.2,0 1.76,-0.56 1.76,-1.76 l 0,-19.44 -5.2,0 0,-10 z m 55.28,20.64 c 0,-10.96 7.92,-21.6 22.64,-21.6 5.68,0 9.92,1.36 13.04,2.88 1.76,0.88 3.36,1.84 4.72,2.88 l -5.04,9.6 c -1.04,-0.72 -2.24,-1.36 -3.52,-1.92 -2.16,-0.96 -4.96,-2 -8.08,-2 -4.48,0 -8.56,2.24 -9.6,7.6 l 26.16,0 0.16,1.6 c 0.08,0.88 0.16,1.92 0.16,2.56 0,11.44 -6.88,19.92 -19.2,19.92 -13.28,0 -21.44,-9.44 -21.44,-21.52 z m 14.48,5.04 c 0.72,3.2 2.56,6.08 6.64,6.08 3.12,0 5.2,-2.8 5.2,-6.08 l -11.84,0 z m 30.48,-5.2 c 0,-13.36 11.28,-21.44 23.44,-21.44 6.72,0 13.44,2.24 17.92,6.32 l -4.64,9.68 c -3.52,-2.8 -8.24,-4.56 -12.4,-4.56 -5.68,0 -10.4,3.12 -10.4,10.48 0,5.68 2.72,9.68 9.2,9.68 3.2,0 5.84,-1.04 5.84,-3.04 l 0,-2.48 11.76,0 0,6.56 c 0,7.6 -9.92,10.48 -18.16,10.48 -13.36,0 -22.56,-9.76 -22.56,-21.68 z m 50.48,-5.28 c 0,-13.84 12.64,-15.6 19.28,-15.6 1.2,0 2.08,0 2.72,0.08 l 1.04,0.16 0,11.2 -0.48,0 c -0.32,0 -0.8,-0.08 -1.36,-0.08 -2.64,0 -7.36,0.8 -7.36,5.68 l 0,14.56 8.64,0 0,10 -8.64,0 0,11.12 -13.44,0 0,-11.12 -6,0 0,-10 5.6,0 0,-16 z m 34.24,31.2 13.52,0 0,10.8 -13.52,0 0,-10.8 z m -5.36,-46.4 24.24,0 0,10 -5.2,0 0,31.2 -19.44,0 0,-10 5.6,0 0,-21.2 -5.2,0 0,-10 z m 28.48,20.48 c 0,-12.88 10.4,-21.44 23.36,-21.44 12.96,0 23.36,8.56 23.36,21.44 0,13.04 -10.4,21.68 -23.44,21.68 -12.8,0 -23.28,-8.64 -23.28,-21.68 z m 14,0 c 0,6.16 4.32,10.16 9.36,10.16 5.04,0 9.36,-4 9.36,-10.16 0,-6.16 -4.32,-9.92 -9.36,-9.92 -5.04,0 -9.36,3.76 -9.36,9.92 z m 38.08,-20.48 24.24,0 0,10 -5.2,0 0,7.44 c 0,5.76 2.72,12.16 8.88,12.16 3.12,0 4.64,-1.6 4.64,-5.44 l 0,-24.16 19.04,0 0,10 -5.2,0 0,16.72 c 0,11.52 -6.16,15.44 -13.92,15.44 -5.2,0 -8.64,-1.92 -10.88,-3.92 -1.36,-1.2 -2.4,-2.48 -3.12,-4 l -0.16,0 c 0.08,0.08 0.08,0.24 0.08,0.32 l 0,0.64 0,1.36 c 0,2.8 -1.92,4.64 -5.68,4.64 l -13.12,0 0,-10 3.84,0 c 1.2,0 1.76,-0.56 1.76,-1.76 l 0,-19.44 -5.2,0 0,-10 z m 55.44,9.04 c 0,-6.8 10.24,-10 17.6,-10 9.84,0 18.8,4 18.8,13.28 0,8.56 -7.84,11.12 -14,12.8 -3.92,1.04 -7.2,2 -7.2,4.48 0,1.6 1.68,2.08 3.92,2.08 2.96,0 4.16,-0.96 4.16,-2.24 l 0,-1.84 11.6,0 0,5.6 c 0,6.72 -9.36,8.96 -15.76,8.96 -7.92,0 -17.68,-2.72 -17.68,-12.4 0,-8.24 7.12,-11.28 13.12,-13.2 5.36,-1.68 8.08,-2.08 8.08,-4.64 0,-1.6 -1.68,-2.4 -5.04,-2.4 -4,0 -6,0.96 -6,2.96 l 0,2.08 -11.6,0 0,-5.52 z"
         clip-rule="evenodd"
         id="path68"
         inkscape:connector-curvature="0" /></clipPath><clipPath
       clipPathUnits="userSpaceOnUse"
       id="clipPath70"><path
         d="M 0,0 842,0 842,446 0,446 0,0 z"
         id="path72"
         inkscape:connector-curvature="0" /></clipPath></defs><sodipodi:namedview
     pagecolor="#f46363"
     bordercolor="#666666"
     borderopacity="1"
     objecttolerance="10"
     gridtolerance="10"
     guidetolerance="10"
     inkscape:pageopacity="0.4"
     inkscape:pageshadow="2"
     inkscape:window-width="1234"
     inkscape:window-height="848"
     id="namedview4"
     showgrid="false"
     inkscape:zoom="2.0326619"
     inkscape:cx="152.18092"
     inkscape:cy="143.48324"
     inkscape:window-x="75"
     inkscape:window-y="24"
     inkscape:window-maximized="0"
     inkscape:current-layer="g3017" /><g
     id="g10"
     inkscape:groupmode="layer"
     inkscape:label="Slice 2"
     transform="matrix(1.25,0,0,-1.25,0,200)"><g
       id="g12" /><g
       id="g3017"
       transform="matrix(0.32800029,0,0,0.32800029,1.7478778,6.8559355)"><path
         inkscape:connector-curvature="0"
         d="M 421.49995,1.939153 523.61474,178.69948 m 51.183,88.59761 38.2632,66.23346 M 523.6148,267.30062 421.49995,444.06095 319.38808,267.30568 m -51.19093,-88.61132 -38.2582,-66.22481 0,0 383.1221,0 -38.26322,66.23347 m -344.85888,154.82753 383.1221,0 m 0,-221.061 -114.77575,66.22547 m -153.5706,88.61005 -114.77575,66.22548 38.25819,-66.22481 M 319.38808,178.69442 421.49995,1.939153 m -191.561,110.530397 114.77575,66.22547 m 153.57059,88.61005 114.77576,66.22548 m -191.5611,110.5304 0,-176.75876 m -1e-5,-88.60438 1e-5,-176.758761 m -191.561,265.363131 0,66.22827 191.561,110.5305 191.5611,-110.5305 0,-66.22827 m 0,-88.60436 0,-66.22827 -191.5611,-110.530501 0,0 -191.561,110.530501 0,66.22827"
         style="fill:none;stroke:#ffffff;stroke-width:2.92970741;stroke-linecap:butt;stroke-linejoin:miter;stroke-miterlimit:10;stroke-opacity:1;stroke-dasharray:none"
         id="path42" /><g
         transform="translate(7.9237188,-39.35427)"
         id="g44"
         style="fill:#ffffff"><g
           transform="translate(4.7058824,-7.0588235)"
           clip-path="url(#clipPath48)"
           id="g46"
           style="fill:#ffffff"><g
             id="g52"
             style="fill:#ffffff" /><g
             id="g74"
             style="fill:#ffffff"><g
               transform="translate(-2.3529412,48.235294)"
               id="g76"
               clip-path="url(#clipPath54)"
               style="fill:#ffffff"><g
                 id="g78"
                 style="fill:#ffffff" /><g
                 transform="translate(-25.882353,-9.4117647)"
                 id="g88"
                 style="fill:#ffffff"><g
                   transform="translate(16.470588,9.4117647)"
                   id="g90"
                   clip-path="url(#clipPath66)"
                   style="fill:#ffffff"><g
                     id="g92"
                     clip-path="url(#clipPath70)"
                     style="fill:#ffffff"><path
                       inkscape:connector-curvature="0"
                       id="path94"
                       style="fill:#ffffff;fill-opacity:1;fill-rule:evenodd;stroke:none"
                       d="m 87.55511,262.1378 666.15999,0 0,-69.12 -666.15999,0 0,69.12 z" /></g></g></g></g></g></g></g></g></g></svg>