<?xml version="1.0" encoding="UTF-8" standalone="no"?>
<!-- Created with Inkscape (http://www.inkscape.org/) -->

<svg
   xmlns:dc="http://purl.org/dc/elements/1.1/"
   xmlns:cc="http://creativecommons.org/ns#"
   xmlns:rdf="http://www.w3.org/1999/02/22-rdf-syntax-ns#"
   xmlns:svg="http://www.w3.org/2000/svg"
   xmlns="http://www.w3.org/2000/svg"
   xmlns:xlink="http://www.w3.org/1999/xlink"
   xmlns:sodipodi="http://sodipodi.sourceforge.net/DTD/sodipodi-0.dtd"
   xmlns:inkscape="http://www.inkscape.org/namespaces/inkscape"
   version="1.1"
   width="124.77275"
   height="124.77487"
   id="svg2"
   xml:space="preserve"
   inkscape:version="0.91 r13725"
   sodipodi:docname="leed.svg"><sodipodi:namedview
     pagecolor="#ffffff"
     bordercolor="#666666"
     borderopacity="1"
     objecttolerance="10"
     gridtolerance="10"
     guidetolerance="10"
     inkscape:pageopacity="0"
     inkscape:pageshadow="2"
     inkscape:window-width="668"
     inkscape:window-height="480"
     id="namedview57"
     showgrid="false"
     fit-margin-top="0"
     fit-margin-left="0"
     fit-margin-right="0"
     fit-margin-bottom="0"
     inkscape:zoom="1.7189843"
     inkscape:cx="63.40025"
     inkscape:cy="60.069813"
     inkscape:window-x="75"
     inkscape:window-y="34"
     inkscape:window-maximized="0"
     inkscape:current-layer="svg2" /><metadata
     id="metadata8"><rdf:RDF><cc:Work
         rdf:about=""><dc:format>image/svg+xml</dc:format><dc:type
           rdf:resource="http://purl.org/dc/dcmitype/StillImage" /><dc:title></dc:title></cc:Work></rdf:RDF></metadata><defs
     id="defs6"><clipPath
       id="clipPath18"><path
         d="M 0,0 612,0 612,792 0,792 0,0 Z"
         id="path20"
         inkscape:connector-curvature="0" /></clipPath><clipPath
       id="clipPath42"><path
         d="m 36,720 36,0 0,36 -36,0 0,-36 z"
         id="path44"
         inkscape:connector-curvature="0" /></clipPath><clipPath
       id="clipPath74"><path
         d="M 0,0 612,0 612,792 0,792 0,0 Z"
         id="path76"
         inkscape:connector-curvature="0" /></clipPath><clipPath
       id="clipPath286"><path
         d="m 36,568.599 117,0 0,114.583 -117,0 0,-114.583 z"
         id="path288"
         inkscape:connector-curvature="0" /></clipPath><clipPath
       id="clipPath354"><path
         d="m 138.011,388.022 91.977,0 0,91.977 -91.977,0 0,-91.977 z"
         id="path356"
         inkscape:connector-curvature="0" /></clipPath><clipPath
       id="clipPath422"><path
         d="M 0,0 612,0 612,792 0,792 0,0 Z"
         id="path424"
         inkscape:connector-curvature="0" /></clipPath><mask
       id="mask430"><image
         xlink:href="file:///home/irix/Documents/mac/data/Sitges/LEED%20HAS/LEED/Z-Archived/LOGOS/LEED%20Logo/leed_img0.png"
         id="image432"
         height="1"
         width="1"
         sodipodi:absref="/home/irix/Documents/mac/data/Sitges/LEED HAS/LEED/Z-Archived/LOGOS/LEED Logo/leed_img0.png" /></mask><clipPath
       id="clipPath440"><path
         d="m 270.355,398.357 71.999,0 0,72 -71.999,0 0,-72 z"
         id="path442"
         inkscape:connector-curvature="0" /></clipPath><clipPath
       id="clipPath508"><path
         d="M 0,0 612,0 612,792 0,792 0,0 Z"
         id="path510"
         inkscape:connector-curvature="0" /></clipPath></defs><g
     transform="matrix(1.25,0,0,-1.25,-49.39325,848.85863)"
     id="g10"><g
       id="g12" /><g
       id="g282"><g
         clip-path="url(#clipPath286)"
         id="g284"><path
           d="m 127.3421,591.8087 0.4339,0 c 0.4437,0 0.5865,0.1275 0.5865,0.3881 0,0.2274 -0.1109,0.355 -0.5255,0.355 l -0.4949,0 0,-0.7431 z m 0,-1.3296 -0.366,0 0,2.3721 0.9109,0 c 0.5656,0 0.8415,-0.2107 0.8415,-0.6765 0,-0.427 -0.2648,-0.61 -0.6197,-0.6544 l 0.6765,-1.0412 -0.4006,0 -0.6308,1.0301 -0.4118,0 0,-1.0301 z m 0.4381,2.91 c -0.9524,0 -1.6886,-0.7375 -1.6886,-1.7191 0,-1.0023 0.7362,-1.7288 1.6886,-1.7288 0.9427,0 1.6789,0.7265 1.6789,1.7288 0,0.9816 -0.7362,1.7191 -1.6789,1.7191 m 0,0.3327 c 1.1216,0 2.0796,-0.8706 2.0796,-2.0518 0,-1.1909 -0.958,-2.0615 -2.0796,-2.0615 -1.1313,0 -2.0893,0.8706 -2.0893,2.0615 0,1.1812 0.958,2.0518 2.0893,2.0518"
           id="path290"
           style="fill:#000000;fill-opacity:1;fill-rule:nonzero;stroke:none"
           inkscape:connector-curvature="0" /><path
           d="m 138.6741,629.177 c 0,-27.1507 -22.0088,-49.162 -49.15973,-49.162 -27.15093,0 -49.16115,22.0113 -49.16115,49.162 0,27.1506 22.01022,49.1619 49.16115,49.1619 27.15093,0 49.15973,-22.0113 49.15973,-49.1619"
           id="path292"
           style="fill:#ffffff;fill-opacity:1;fill-rule:nonzero;stroke:none"
           inkscape:connector-curvature="0" /><path
           d="m 89.42439,581.1469 c -26.52705,0 -48.03124,21.5054 -48.03124,48.0308 0,26.5239 21.50419,48.0279 48.03124,48.0279 26.52291,0 48.02851,-21.504 48.02851,-48.0279 0,-26.5254 -21.5056,-48.0308 -48.02851,-48.0308 m 0,97.94 c -27.56545,0 -49.90979,-22.3455 -49.90979,-49.9092 0,-27.5652 22.34434,-49.9107 49.90979,-49.9107 27.56271,0 49.90841,22.3455 49.90841,49.9107 0,27.5637 -22.3457,49.9092 -49.90841,49.9092"
           id="path294"
           style="fill:#000000;fill-opacity:1;fill-rule:nonzero;stroke:none"
           inkscape:connector-curvature="0" /><path
           d="m 89.85556,605.4246 c 0,0 -0.03744,-0.33 -0.29808,-0.3216 -0.25925,0.01 -0.244,0.3216 -0.244,0.3216 0,0 -0.18855,11.4458 -0.18855,19.2816 0,7.8399 0.18855,16.3772 0.18855,16.3772 0,0 0.06932,0.3244 0.28698,0.3244 0.21905,0 0.2551,-0.3244 0.2551,-0.3244 0,0 0.18993,-8.5373 0.18993,-16.3772 0,-7.8358 -0.18993,-19.2816 -0.18993,-19.2816 m 21.40024,16.9178 c 0.4686,0.2219 6.1791,1.9798 4.8648,5.3861 -0.9206,2.3956 -2.6938,-0.4409 -3.929,0.4824 -0.3979,0.2939 -0.6433,0.5296 1.0924,2.2141 1.7372,1.6899 2.2654,2.8864 2.4387,3.9262 0.1705,1.037 0.1705,1.8314 -0.5435,2.232 -0.7126,0.3979 -1.6553,-0.6585 -1.9395,0.4381 -0.1733,0.5878 0.0513,0.9178 0.054,1.9686 0.003,1.1507 -1.1742,4.0233 -3.9151,3.0542 -1.7732,-0.6252 -0.8332,-3.6822 -1.2893,-4.2617 -0.47,-0.5933 -0.8693,1.2214 -1.8647,1.5056 -1.1479,0.3272 -1.9507,-0.7361 -1.9423,-1.7219 0.0111,-0.9857 0.6529,-2.8226 0.8637,-3.5338 0.1192,-0.5629 0.4256,-2.099 0.2329,-2.5481 -0.2925,-0.6794 -0.5407,-0.4576 -1.1965,0.4062 -0.5767,0.7638 -0.2731,0.4436 -1.2935,1.6705 -1.2699,1.5652 -2.0407,-0.6044 -2.1336,-2.0546 -0.0915,-1.4515 1.0107,-6.4993 0.9913,-7.1703 -0.0749,-3.0278 -1.75936,0.4437 -1.81342,0.5269 -1.10495,1.6816 -3.23028,0.8942 -2.5662,-0.9123 1.2117,-3.2926 2.29724,-6.1346 1.15208,-8.9601 -0.15388,-0.3784 -0.36046,-1.037 -0.64189,-1.6913 9.33033,8.6856 11.89653,20.7192 11.89933,20.7331 0.036,0.1248 0.2579,0.2426 0.3715,0.2052 0.1165,-0.0347 0.1706,-0.2676 0.1345,-0.3951 -0.004,-0.0194 -3.0486,-17.8897 -19.31368,-27.0148 -0.36046,-0.1955 -0.40205,0.0152 -0.47137,0.3383 0.07764,2.8323 0.19548,4.758 1.24497,5.3805 8.76198,5.2016 5.9157,7.5945 4.09815,7.9494 -1.81616,0.3549 -2.85317,3.3259 -0.34798,4.6166 4.41008,2.4802 6.66571,11.3377 1.18813,9.401 -0.50048,-0.043 -4.10231,-1.916 -0.9261,3.5158 3.00568,5.4346 2.07957,10.273 -1.03702,8.1657 -0.81796,-0.5518 -3.13184,-3.0029 -2.66879,0.5421 0.82768,5.3777 -0.50464,7.2937 -2.08234,7.6458 0,0 -0.16498,0.0277 -0.29808,0.0444 l -0.14279,-0.008 0,0.0167 c -0.09428,0.007 -0.44226,-0.0527 -0.44226,-0.0527 -1.57909,-0.3521 -2.90863,-2.2681 -2.08235,-7.6458 0.46167,-3.545 -1.85082,-1.0939 -2.6674,-0.5421 -3.11797,2.1073 -4.04269,-2.7311 -1.03701,-8.1657 3.17482,-5.4318 -0.42701,-3.5588 -0.92749,-3.5158 -5.4776,1.9367 -3.22334,-6.9208 1.1909,-9.401 2.50381,-1.2907 1.46541,-4.2617 -0.35075,-4.6166 -1.81617,-0.3549 -4.6638,-2.7478 4.09676,-7.9494 1.05226,-0.6267 1.1812,-2.562 1.25745,-5.4027 -0.07071,-0.3133 -0.12478,-0.5088 -0.47969,-0.3161 -16.26643,9.1251 -19.30954,26.9954 -19.3137,27.0148 -0.03605,0.1275 0.05268,0.3604 0.16913,0.3951 0.11369,0.0374 0.2953,-0.1622 0.32996,-0.287 0.0042,-0.0139 2.5759,-11.9657 11.90765,-20.6513 -0.28282,0.6543 -0.48801,1.3129 -0.64328,1.6913 -1.14516,2.8255 -0.05823,5.6675 1.15208,8.9601 0.66408,1.8065 -1.45986,2.5939 -2.56481,0.9123 -0.05407,-0.0832 -1.73852,-3.5547 -1.81477,-0.5269 -0.01941,0.671 1.08276,5.7188 0.99126,7.1703 -0.09289,1.4502 -0.86372,3.6198 -2.13226,2.0546 -1.02176,-1.2269 -0.71814,-0.9067 -1.29626,-1.6705 -0.65438,-0.8638 -0.90393,-1.0856 -1.19645,-0.4062 -0.19132,0.4491 0.11368,1.9852 0.23291,2.5481 0.2135,0.7112 0.85401,2.5481 0.86372,3.5338 0.0097,0.9858 -0.79302,2.0491 -1.94094,1.7219 -0.99542,-0.2842 -1.3947,-2.0989 -1.86469,-1.5056 -0.45473,0.5795 0.48524,3.6365 -1.28933,4.2617 -2.74088,0.9691 -3.91931,-1.9035 -3.91515,-3.0542 0.0028,-1.0508 0.22737,-1.3808 0.05268,-1.9686 -0.28282,-1.0966 -1.22417,-0.0402 -1.93816,-0.4381 -0.71399,-0.4006 -0.71537,-1.195 -0.54485,-2.232 0.17469,-1.0398 0.7029,-2.2363 2.44004,-3.9262 1.73575,-1.6845 1.48897,-1.9202 1.09247,-2.2141 -1.23527,-0.9233 -3.00845,1.9132 -3.9304,-0.4824 -1.31152,-3.4063 4.39761,-5.1642 4.86621,-5.3861 1.22278,-0.585 1.89518,-1.9201 0.22459,-1.5263 -0.6724,0.1566 -1.70109,0.646 -2.50658,-0.2496 -2.12671,-2.3721 3.41882,-6.5062 7.10105,-7.2673 3.68224,-0.7639 6.97767,-2.1697 8.36821,-2.8033 1.37113,-0.6225 7.22583,-4.636 7.63204,-6.2622 0.10398,-0.4797 0.35491,-0.8346 0.91917,-0.8346 0.56287,0 0.80549,0.3147 0.90947,0.8013 0.37155,1.593 6.24981,5.673 7.62511,6.2955 1.38915,0.6336 4.68462,2.0394 8.36542,2.8033 3.6822,0.7611 9.2278,4.8952 7.1025,7.2673 -0.8069,0.8956 -1.8328,0.4062 -2.5066,0.2496 -1.672,-0.3938 -0.9996,0.9413 0.2246,1.5263"
           id="path296"
           style="fill:#000000;fill-opacity:1;fill-rule:nonzero;stroke:none"
           inkscape:connector-curvature="0" /><path
           d="m 74.26415,662.0518 c 0.3868,0.1636 1.3753,0.585 1.3753,0.585 0.31609,0.1331 0.51712,0.3036 0.59614,0.5019 l -0.05545,0.6543 -0.43949,0.4769 c -0.20518,0.0818 -0.46166,0.0638 -0.7431,-0.0568 0,0 -1.11327,-0.4741 -1.40025,-0.5961 0.11507,-0.269 0.55317,-1.2977 0.66685,-1.5652"
           id="path298"
           style="fill:#000000;fill-opacity:1;fill-rule:nonzero;stroke:none"
           inkscape:connector-curvature="0" /><path
           d="m 52.87809,644.2727 c -0.49078,0.1844 -0.88452,-0.0111 -1.08,-0.5338 0,0 -0.46582,-1.2477 -0.57673,-1.543 0.27034,-0.1026 1.26299,-0.4741 1.53472,-0.5767 0.11091,0.2981 0.57813,1.5458 0.57813,1.5458 0.04713,0.1303 0.08318,0.2731 0.08318,0.4173 0,0.2703 -0.12755,0.5365 -0.5393,0.6904"
           id="path300"
           style="fill:#000000;fill-opacity:1;fill-rule:nonzero;stroke:none"
           inkscape:connector-curvature="0" /><path
           d="m 122.533,644.2321 c 0,-0.1872 0.0402,-0.3813 0.1276,-0.5767 0.3868,-0.8859 1.3184,-1.0856 2.5537,-0.5449 0.714,0.3147 1.1937,0.7292 1.3781,1.2034 0.1275,0.3272 0.1109,0.6765 -0.0458,1.0398 -0.3882,0.8789 -1.3171,1.0772 -2.5482,0.5351 -0.9593,-0.4187 -1.4654,-1.0037 -1.4654,-1.6567"
           id="path302"
           style="fill:#000000;fill-opacity:1;fill-rule:nonzero;stroke:none"
           inkscape:connector-curvature="0" /><path
           d="m 98.91585,664.6972 c 0.41314,0.2551 0.70428,0.7251 0.86649,1.4044 0.06377,0.2634 0.09427,0.5088 0.09427,0.7348 0,0.3521 -0.07625,0.6557 -0.23291,0.9081 -0.23569,0.384 -0.65576,0.6516 -1.25191,0.7944 0,0 -0.34936,0.0831 -0.56425,0.1344 -0.0818,-0.3382 -0.87204,-3.6433 -0.95245,-3.9816 0.21489,-0.0513 0.56426,-0.1359 0.56426,-0.1359 0.59476,-0.1414 1.09247,-0.0943 1.4765,0.1414"
           id="path304"
           style="fill:#000000;fill-opacity:1;fill-rule:nonzero;stroke:none"
           inkscape:connector-curvature="0" /><path
           d="m 74.93239,665.9211 c 0,0.1095 -0.0305,0.2052 -0.05823,0.2676 -0.16636,0.3937 -0.45335,0.4963 -0.87203,0.3175 0,0 -1.09802,-0.4672 -1.38361,-0.5892 0.10398,-0.244 0.38125,-0.897 0.48523,-1.141 0.38819,0.1649 1.38361,0.5892 1.38361,0.5892 0.35492,0.1511 0.44503,0.3715 0.44503,0.5559"
           id="path306"
           style="fill:#000000;fill-opacity:1;fill-rule:nonzero;stroke:none"
           inkscape:connector-curvature="0" /><path
           d="m 130.6456,621.9175 c -0.1816,-1.0647 -0.7223,-1.744 -1.6595,-2.0823 l -0.1789,-0.0652 -0.5254,1.2783 0.1844,0.0762 c 0.5407,0.2274 0.7583,0.4839 0.8498,1.0204 0.0652,0.3812 -0.006,0.7209 -0.2051,1.0023 -0.2926,0.4118 -0.8596,0.7001 -1.636,0.8305 -1.3267,0.2246 -2.1794,-0.1858 -2.3402,-1.1285 -0.0943,-0.5532 0.0471,-0.9345 0.4797,-1.324 l 0.1539,-0.1387 -0.9206,-0.9746 -0.1428,0.122 c -0.7528,0.6253 -1.0758,1.5264 -0.9011,2.5399 0.2856,1.6996 1.8536,2.6105 3.9013,2.2639 1.0994,-0.1872 1.9894,-0.6849 2.5024,-1.4058 0.4104,-0.5767 0.5629,-1.2782 0.4381,-2.0144 m -1.568,-5.8629 -6.4342,2.013 0.3424,1.0994 0.0596,0.1885 6.4301,-2.0116 -0.3979,-1.2893 z m -1.4238,-3.6961 c 0,0 -4.5709,2.1128 -4.9092,2.2667 -0.147,-0.3161 -1.324,-2.8698 -1.324,-2.8698 l -1.2103,0.5574 1.805,3.9151 0.0846,0.1816 6.1223,-2.8241 -0.5684,-1.2269 z M 89.42425,599.0397 c -16.64491,0 -30.13858,13.4921 -30.13858,30.1368 0,16.6448 13.49367,30.1383 30.13858,30.1383 16.64215,0 30.13585,-13.4935 30.13585,-30.1383 0,-16.6447 -13.4937,-30.1368 -30.13585,-30.1368 m -36.83342,49.6708 2.20296,3.6752 0.10259,0.1719 1.13545,-0.6821 c 0,0 -1.43213,-2.3873 -1.61098,-2.6881 0.22182,-0.1331 0.77915,-0.4658 1.00097,-0.5989 0.16221,0.2717 0.9372,1.5596 0.9372,1.5596 l 1.13267,-0.6793 c 0,0 -0.77221,-1.2921 -0.93442,-1.5624 0.24677,-0.1456 1.12713,-0.6766 1.3739,-0.8235 0.18162,0.3008 1.68169,2.806 1.68169,2.806 l 1.13544,-0.6821 -2.37626,-3.9623 -5.78121,3.466 z m 4.55842,-6.2054 c 0,0 -2.56758,-0.2773 -2.79078,-0.3009 -0.06101,-0.1622 -0.2953,-0.7888 -0.38819,-1.037 0.31609,-0.1192 2.34992,-0.8803 2.34992,-0.8803 l -0.46721,-1.2477 -6.31359,2.3637 1.04533,2.7908 c 0.48662,1.2921 1.53611,1.8147 2.74365,1.3628 0.90808,-0.3411 1.39609,-1.0051 1.39609,-1.8855 0,-0.01 -0.0028,-0.0236 -0.0028,-0.0374 0.39373,0.043 2.96824,0.3161 2.96824,0.3161 l -0.54069,-1.4446 z m -2.1683,-29.0652 -3.63094,-1.3628 -0.47414,1.2643 3.60598,1.3545 c 0.57535,0.2135 0.94829,0.5005 1.10634,0.8471 0.11784,0.2606 0.11507,0.5615 -0.01109,0.897 -0.1941,0.5116 -0.59892,1.1285 -1.92153,0.6336 l -3.66421,-1.3726 -0.47414,1.2644 3.64896,1.367 c 1.77595,0.6668 3.0847,0.1566 3.68223,-1.4349 0.57535,-1.5361 -0.10537,-2.7949 -1.86746,-3.4576 m -6.97767,10.5835 c -0.10259,0.8485 0.10676,1.604 0.64329,2.3097 l 0.12061,0.1608 1.07584,-0.829 -0.12755,-0.1595 c -0.32996,-0.4117 -0.4478,-0.8429 -0.38126,-1.3919 0.03882,-0.3202 0.14419,-0.5573 0.30362,-0.6821 l 0.38403,-0.0998 c 0.26341,0.0319 0.4381,0.1373 0.64189,1.3309 0.20658,1.1784 0.50326,2.2501 1.82448,2.4081 0.59892,0.0721 1.10772,-0.0485 1.51393,-0.366 0.48801,-0.384 0.79024,-1.0231 0.89699,-1.9034 0.11369,-0.9289 -0.17607,-1.8467 -0.79439,-2.5232 l -0.12616,-0.1387 -1.04534,0.8416 0.1331,0.158 c 0.37432,0.4353 0.56564,1.0398 0.50187,1.5735 -0.11923,0.9774 -0.51851,1.0578 -0.85263,1.0176 -0.31887,-0.0374 -0.50603,-0.2578 -0.69874,-1.3836 -0.2232,-1.3212 -0.46859,-2.1987 -1.78566,-2.3582 -0.5088,-0.0624 -0.98156,0.0652 -1.36836,0.3674 -0.4686,0.366 -0.7736,0.9594 -0.85956,1.6678 m 6.6283,4.8232 c 0.0069,-0.4949 -0.40482,-0.9206 -0.90115,-0.9317 -0.50048,-0.005 -0.93026,0.4063 -0.93858,0.9012 -0.0083,0.4963 0.40899,0.9219 0.90808,0.9316 0.49633,0.006 0.92333,-0.4062 0.93165,-0.9011 m 1.05643,-8.2447 c 0.122,-0.4797 -0.18162,-0.9885 -0.66269,-1.1105 -0.48663,-0.122 -0.99959,0.1816 -1.1202,0.6613 -0.122,0.481 0.18577,0.9898 0.67101,1.1146 l 0,0 c 0.48246,0.1192 0.99126,-0.1844 1.11188,-0.6654 m -7.38804,15.6909 c 0.17607,1.0481 0.73478,1.7496 1.65812,2.0823 l 0.18022,0.0652 0.51713,-1.27 -0.18301,-0.0762 c -0.53653,-0.2246 -0.75003,-0.4839 -0.84153,-1.0259 -0.06516,-0.3868 0.0042,-0.7279 0.20657,-1.0135 0.29391,-0.4131 0.85817,-0.7001 1.63177,-0.8332 1.32816,-0.2246 2.18078,0.1927 2.3416,1.1396 0.01803,0.1054 0.02635,0.2066 0.02635,0.3036 0,0.2579 -0.06378,0.4742 -0.18994,0.653 -0.17746,0.2482 -0.43671,0.3577 -0.66962,0.4187 -0.04575,-0.2703 -0.16775,-0.9954 -0.16775,-0.9954 l -1.29627,0.219 0.39928,2.3666 0.92194,-0.1539 c 0.84431,-0.1442 1.507,-0.5227 1.9146,-1.0952 0.37986,-0.5352 0.51573,-1.2076 0.39234,-1.941 -0.12477,-0.7389 -0.49632,-1.3461 -1.07583,-1.7579 -0.71815,-0.5115 -1.72328,-0.6932 -2.82545,-0.506 -1.10218,0.1872 -1.99085,0.6849 -2.50242,1.4058 -0.31887,0.4464 -0.48108,0.9635 -0.48108,1.5167 0,0.1622 0.01387,0.3299 0.04298,0.4977 m 10.9649,21.6634 0.13032,0.1497 1.00375,-0.8623 c 0,0 -1.81755,-2.1101 -2.04631,-2.3763 0.19687,-0.1677 0.68904,-0.592 0.8859,-0.7597 0.20657,0.2398 1.18813,1.3794 1.18813,1.3794 l 1.00236,-0.8637 c 0,0 -0.98156,-1.141 -1.18813,-1.3794 0.21766,-0.1872 0.99681,-0.8582 1.21447,-1.0453 0.22875,0.2648 2.13364,2.4774 2.13364,2.4774 l 1.00236,-0.8637 -3.014,-3.502 -5.10882,4.3976 2.79633,3.2483 z m 3.09718,2.8905 4.40593,-1.5444 c 0,0 0.16498,-0.0638 0.28005,-0.1067 -0.13309,0.1622 -0.47414,0.5822 -0.47414,0.5822 l -2.17247,2.7062 0.8762,0.7029 0.15527,0.1262 4.22015,-5.2571 -0.94828,-0.7598 -4.5612,1.5528 c 0,0 -0.10675,0.0388 -0.18023,0.0637 0.09288,-0.1136 0.46859,-0.5753 0.46859,-0.5753 l 2.18356,-2.7187 -1.03147,-0.829 -4.22015,5.2557 0.99819,0.8013 z m 11.15068,6.8307 c 0.59476,0.2523 1.15486,0.2883 1.62069,0.1012 0.42146,-0.1706 0.7528,-0.5199 0.96215,-1.0093 0.09288,-0.2204 0.14002,-0.4381 0.14002,-0.6502 0,-0.2565 -0.15527,-0.4894 -0.29114,-0.7251 0.53098,-0.0277 1.14654,-0.2911 1.46679,-1.0495 0.14419,-0.3369 0.21628,-0.6585 0.21628,-0.9621 0,-0.2315 -0.04159,-0.4533 -0.12616,-0.6613 -0.21628,-0.5365 -0.69735,-0.9691 -1.43214,-1.281 l -2.50103,-1.0647 -2.63967,6.2026 2.58421,1.0994 z m 5.99611,1.9852 0.8041,-3.7626 c 0.22737,-1.0647 0.7542,-1.5166 1.56384,-1.3434 0.53099,0.1165 1.20477,0.4298 0.91224,1.8065 l -0.81796,3.825 1.12435,0.2412 0.19548,0.0416 0.81381,-3.8084 c 0.20796,-0.9732 0.11507,-1.7717 -0.2745,-2.3734 -0.34799,-0.5365 -0.91502,-0.8915 -1.68723,-1.0564 -0.7431,-0.1609 -1.38638,-0.068 -1.91044,0.2717 -0.60723,0.3937 -1.02315,1.0952 -1.23388,2.0851 l -0.81103,3.7917 1.32122,0.2814 z m 7.57797,1.1188 0.19964,0.0139 0.45751,-6.7253 -1.34618,-0.0915 -0.45889,6.7239 1.14792,0.079 z m 2.72286,-0.0845 0.01109,0.1982 1.34756,-0.0762 c 0,0 -0.28698,-5.0298 -0.30639,-5.3985 0.35076,-0.0222 3.1568,-0.1817 3.1568,-0.1817 l -0.07764,-1.3295 -4.50297,0.2579 0.37155,6.5298 z m 6.96657,-0.617 0.04714,0.1941 1.87439,-0.4478 c 2.00333,-0.4797 2.90863,-1.9908 2.41643,-4.0426 -0.5795,-2.4178 -2.43723,-2.8837 -3.98166,-2.5135 l -1.87855,0.4492 1.52225,6.3606 z m 7.23276,-2.0421 0.0735,0.1844 1.256,-0.4922 -2.4608,-6.2747 -1.256,0.4936 2.3873,6.0889 z m 3.8264,-1.3503 1.1105,-0.6336 0.1844,-4.6637 c 0,0 10e-4,-0.1775 10e-4,-0.2995 0.1497,0.2621 0.3688,0.653 0.3688,0.653 l 1.7191,3.0154 1.1479,-0.6544 -3.3384,-5.8574 -1.0537,0.6031 -0.2329,4.812 c 0,0 -10e-4,0.1137 -0.004,0.1914 -0.1387,-0.244 -0.366,-0.6461 -0.366,-0.6461 l -1.7247,-3.0292 -1.1507,0.6544 3.2386,5.6813 0.0998,0.1733 z m 8.9574,-5.9004 c 0.8069,-0.6904 1.1202,-1.5291 0.9317,-2.4941 l -0.0388,-0.1885 -1.3531,0.2107 0.0263,0.1955 c 0.0873,0.5753 -0.0263,0.8928 -0.4464,1.2519 -0.2953,0.2551 -0.6225,0.3715 -0.9719,0.3452 -0.506,-0.0374 -1.0425,-0.3743 -1.5541,-0.9677 -0.5088,-0.5961 -0.7611,-1.1784 -0.7209,-1.683 0.0277,-0.3494 0.1899,-0.6558 0.488,-0.9109 0.3008,-0.2565 0.6031,-0.3757 0.9039,-0.3535 0.3064,0.0236 0.531,0.1913 0.7015,0.3577 -0.2052,0.1788 -0.7639,0.6571 -0.7639,0.6571 l 0.8554,0.9982 1.8231,-1.5652 -0.61,-0.7084 c -0.5573,-0.6503 -1.2228,-1.0218 -1.9243,-1.0745 -0.6558,-0.0513 -1.3004,0.1789 -1.8661,0.6641 -0.5684,0.488 -0.8956,1.1202 -0.9496,1.8286 -0.068,0.8804 0.2939,1.8328 1.0231,2.6812 0.7279,0.8471 1.6165,1.3518 2.4969,1.4197 0.7084,0.0541 1.3836,-0.1761 1.9492,-0.6641 m 1.2561,-10.2896 c 0.165,0.8692 0.7667,1.6927 1.6928,2.318 1.7163,1.1645 3.52,0.9885 4.4863,-0.4367 0.6045,-0.8928 0.6849,-1.7593 0.2412,-2.6521 l -0.0845,-0.1719 -1.2644,0.5614 0.0818,0.1817 c 0.2357,0.5406 0.2107,0.8734 -0.0929,1.3239 -0.219,0.3217 -0.5005,0.5199 -0.8415,0.5851 -0.495,0.0943 -1.1022,-0.0887 -1.7524,-0.531 -1.1147,-0.7556 -1.4488,-1.6442 -0.915,-2.4345 0.3147,-0.463 0.6793,-0.6418 1.2643,-0.6224 l 0.2038,0.005 0.0139,-1.3406 -0.1899,-0.0111 c -0.9747,-0.0679 -1.83,0.3632 -2.4082,1.2103 -0.4187,0.6225 -0.5712,1.3157 -0.4353,2.0144 m 9.7352,-4.6027 c 0.2994,-0.6905 0.3216,-1.4058 0.0638,-2.0685 -0.3217,-0.8207 -1.0634,-1.5222 -2.0865,-1.9687 -1.0218,-0.4477 -2.0366,-0.5171 -2.8602,-0.1954 -0.6626,0.2606 -1.1756,0.7611 -1.4751,1.4515 -0.3008,0.6849 -0.323,1.4002 -0.0651,2.0601 0.3216,0.8235 1.0633,1.5223 2.0879,1.9687 1.9007,0.8346 3.642,0.3313 4.3352,-1.2477 m 1.8619,-5.2239 0.287,-1.3184 -3.7613,-0.8263 c -0.6031,-0.1317 -1.012,-0.3618 -1.2172,-0.6821 -0.1525,-0.2412 -0.19,-0.5379 -0.1151,-0.89 0.0846,-0.3799 0.244,-0.6419 0.488,-0.7986 0.3036,-0.1955 0.7473,-0.2287 1.3212,-0.1012 l 3.8265,0.8374 0.2869,-1.3185 -3.8042,-0.8346 c -1.855,-0.4062 -3.0764,0.2843 -3.4424,1.9437 -0.3507,1.6041 0.5019,2.7548 2.3402,3.1582 l 3.5935,0.7874 0.1969,0.043 z m 1.4599,-8.0368 0.0305,-1.2768 -3.9138,-2.5509 c 0,0 -0.1483,-0.0929 -0.2537,-0.1581 0.1567,0.006 0.75,0.0222 0.75,0.0222 l 3.4688,0.0707 0.0263,-1.3212 -6.7364,-0.1386 -0.025,1.213 4.0136,2.6702 c 0,0 0.097,0.0596 0.1594,0.0998 -0.1566,-0.003 -0.7417,-0.0194 -0.7417,-0.0194 l -3.4881,-0.0693 -0.0264,1.3212 6.5382,0.1345 0.1983,0.003 z m -41.68303,42.8041 c -25.54966,0 -46.26222,-20.7109 -46.26222,-46.2617 0,-25.5493 20.71256,-46.2617 46.26222,-46.2617 25.54963,0 46.26223,20.7124 46.26223,46.2617 0,25.5508 -20.7126,46.2617 -46.26223,46.2617"
           id="path308"
           style="fill:#000000;fill-opacity:1;fill-rule:nonzero;stroke:none"
           inkscape:connector-curvature="0" /><path
           d="m 74.01169,589.2092 c -1.42936,0.5268 -2.03798,1.8467 -1.40163,3.5713 l 1.22556,3.3231 1.18259,-0.4367 -1.21863,-3.3065 c -0.34937,-0.9469 -0.11369,-1.7149 0.63912,-1.9922 0.75281,-0.2772 1.43213,0.1345 1.7815,1.0814 l 1.22556,3.3231 1.18398,-0.4367 -1.21864,-3.3065 c -0.63357,-1.7163 -1.89379,-2.3748 -3.39941,-1.8203"
           id="path310"
           style="fill:#ffffff;fill-opacity:1;fill-rule:nonzero;stroke:none"
           inkscape:connector-curvature="0" /><path
           d="m 81.75256,587.1567 c -1.03978,0.1733 -1.87439,0.7597 -2.23069,1.5319 l 1.03147,0.6502 c 0.35076,-0.5795 0.87758,-0.8775 1.47234,-0.976 0.73894,-0.122 1.11881,0.025 1.19784,0.4964 0.06516,0.4006 -0.11785,0.6127 -1.24775,1.0744 -1.10217,0.4575 -1.84112,0.9538 -1.63732,2.1808 0.18716,1.1298 1.29766,1.6581 2.52461,1.4543 0.96908,-0.1609 1.61929,-0.6447 2.10453,-1.3545 l -1.04256,-0.7223 c -0.33274,0.4755 -0.73895,0.7805 -1.30736,0.8748 -0.66685,0.1109 -0.93581,-0.1373 -0.98156,-0.4132 -0.06516,-0.3909 0.18023,-0.5587 1.1299,-0.9538 0.94829,-0.3965 1.9853,-0.915 1.76071,-2.2653 -0.19687,-1.184 -1.07584,-1.8591 -2.77416,-1.5777"
           id="path312"
           style="fill:#ffffff;fill-opacity:1;fill-rule:nonzero;stroke:none"
           inkscape:connector-curvature="0" /><path
           d="m 89.58951,586.58 c -1.64841,-0.0278 -2.77831,1.2158 -2.8102,3.2066 -0.03189,1.9202 1.0994,3.2733 2.7492,3.2996 1.28795,0.0208 1.98253,-0.5712 2.41369,-1.5375 l -1.1909,-0.5157 c -0.24262,0.4658 -0.53653,0.8124 -1.2214,0.7999 -0.94552,-0.0152 -1.47234,-0.8526 -1.45293,-2.0241 0.01802,-1.1631 0.58228,-2.0088 1.52779,-1.9936 0.8651,0.0139 1.15624,0.4243 1.22002,0.976 l -1.00097,-0.0166 -0.01941,1.1798 2.26258,0.0374 0.01247,-0.8304 c 0.02773,-1.6207 -1.03008,-2.5565 -2.48994,-2.5814"
           id="path314"
           style="fill:#ffffff;fill-opacity:1;fill-rule:nonzero;stroke:none"
           inkscape:connector-curvature="0" /><path
           d="m 97.43879,590.4305 -1.64147,-0.3383 0.33134,-1.5971 1.64009,0.3383 c 0.60169,0.1234 0.81797,0.4991 0.71815,0.9857 -0.10952,0.5282 -0.44641,0.7361 -1.04811,0.6114 m -0.53791,2.2542 -1.57077,-0.3244 0.24261,-1.1743 1.63316,0.3369 c 0.51158,0.1054 0.64744,0.3813 0.57674,0.7279 -0.0818,0.3868 -0.34383,0.5448 -0.88174,0.4339 m 1.06613,-5.0339 -2.80743,-0.5795 -1.27409,6.1777 2.83239,0.585 c 1.20338,0.2482 2.07957,-0.1705 2.29723,-1.2297 0.11091,-0.5296 -0.04852,-1.0023 -0.40482,-1.3351 0.5393,-0.1178 1.00235,-0.4921 1.14376,-1.1701 0.26615,-1.299 -0.46305,-2.1766 -1.78704,-2.4483"
           id="path316"
           style="fill:#ffffff;fill-opacity:1;fill-rule:nonzero;stroke:none"
           inkscape:connector-curvature="0" /><path
           d="m 104.5751,594.4947 c -0.3716,0.3161 -0.8,0.4132 -1.3254,0.1983 -0.8776,-0.3577 -1.0648,-1.3281 -0.6211,-2.4151 0.427,-1.0494 1.2644,-1.6442 2.1406,-1.2865 0.5254,0.2149 0.7417,0.5656 0.8387,1.2089 l 1.2242,-0.1816 c -0.0638,-0.9899 -0.5643,-1.7676 -1.6235,-2.2002 -1.5278,-0.6224 -3.0306,0.1262 -3.782,1.9701 -0.7251,1.7773 -0.1622,3.4479 1.3656,4.0703 1.1021,0.4506 1.988,0.1886 2.6646,-0.4214 l -0.8817,-0.9428 z"
           id="path318"
           style="fill:#ffffff;fill-opacity:1;fill-rule:nonzero;stroke:none"
           inkscape:connector-curvature="0" /><g
           transform="matrix(1.386383,0,0,-1.386368,88.92003,610.5476)"
           id="g320"><path
             d="m 0,0 c -15.547,0 -24.616,4.49 -24.616,4.49 l 2.761,6.862 C -17.727,10.025 -9.784,7.848 0.092,7.848 l 0.222,0 c 9.875,0 17.816,2.177 21.943,3.504 L 25.021,4.49 C 25.021,4.49 15.95,0 0.402,0 L 0,0 Z"
             id="path322"
             style="fill:none;stroke:#000000;stroke-width:1.24699998;stroke-linecap:butt;stroke-linejoin:miter;stroke-miterlimit:4;stroke-dasharray:none;stroke-opacity:1"
             inkscape:connector-curvature="0" /></g><path
           d="m 88.92003,610.5476 c -21.5541,0 -34.12721,-6.2248 -34.12721,-6.2248 l 3.8278,-9.5132 c 5.72299,1.8397 16.73503,4.8578 30.42695,4.8578 l 0.30778,0 c 13.69055,0 24.69985,-3.0181 30.42145,-4.8578 l 3.8319,9.5132 c 0,0 -12.5759,6.2248 -34.13135,6.2248 l -0.55732,0 z"
           id="path324"
           style="fill:#ffffff;fill-opacity:1;fill-rule:nonzero;stroke:none"
           inkscape:connector-curvature="0" /><path
           d="m 73.02875,600.5113 -0.95522,6.265 1.2519,0.1899 0.76806,-5.0297 3.14154,0.4797 0.18717,-1.2353 -4.39345,-0.6696 z"
           id="path326"
           style="fill:#000000;fill-opacity:1;fill-rule:nonzero;stroke:none"
           inkscape:connector-curvature="0" /><g
           transform="matrix(1.386383,0,0,-1.386368,73.02875,600.5113)"
           id="g328"><path
             d="M 0,0 -0.689,-4.519 0.214,-4.656 0.768,-1.028 3.034,-1.374 3.169,-0.483 0,0 Z"
             id="path330"
             style="fill:none;stroke:#000000;stroke-width:0.05;stroke-linecap:butt;stroke-linejoin:miter;stroke-miterlimit:4;stroke-dasharray:none;stroke-opacity:1"
             inkscape:connector-curvature="0" /></g><path
           d="m 82.62723,601.6811 -0.29391,6.3302 4.39483,0.2038 0.05823,-1.2394 -3.12906,-0.1442 0.0499,-1.0939 1.81755,0.0832 0.05823,-1.2283 -1.81755,-0.086 0.06932,-1.5291 3.26632,0.1539 0.05684,-1.2408 -4.5307,-0.2094 z"
           id="path332"
           style="fill:#000000;fill-opacity:1;fill-rule:nonzero;stroke:none"
           inkscape:connector-curvature="0" /><g
           transform="matrix(1.386383,0,0,-1.386368,82.62723,601.6811)"
           id="g334"><path
             d="M 0,0 -0.212,-4.566 2.958,-4.713 3,-3.819 0.743,-3.715 0.779,-2.926 2.09,-2.986 2.132,-2.1 0.821,-2.038 0.871,-0.935 3.227,-1.046 3.268,-0.151 0,0 Z"
             id="path336"
             style="fill:none;stroke:#000000;stroke-width:0.05;stroke-linecap:butt;stroke-linejoin:miter;stroke-miterlimit:4;stroke-dasharray:none;stroke-opacity:1"
             inkscape:connector-curvature="0" /></g><path
           d="m 92.02594,601.8584 0.34382,6.3274 4.39206,-0.2357 -0.06654,-1.2394 -3.12907,0.1692 -0.05823,-1.0939 1.81755,-0.0984 -0.06655,-1.2297 -1.81754,0.0984 -0.08319,-1.5264 3.26355,-0.1774 -0.06516,-1.2394 -4.5307,0.2453 z"
           id="path338"
           style="fill:#000000;fill-opacity:1;fill-rule:nonzero;stroke:none"
           inkscape:connector-curvature="0" /><g
           transform="matrix(1.386383,0,0,-1.386368,92.02594,601.8584)"
           id="g340"><path
             d="M 0,0 0.248,-4.564 3.416,-4.394 3.368,-3.5 1.111,-3.622 1.069,-2.833 2.38,-2.762 2.332,-1.875 1.021,-1.946 0.961,-0.845 3.315,-0.717 3.268,0.177 0,0 Z"
             id="path342"
             style="fill:none;stroke:#000000;stroke-width:0.05;stroke-linecap:butt;stroke-linejoin:miter;stroke-miterlimit:4;stroke-dasharray:none;stroke-opacity:1"
             inkscape:connector-curvature="0" /></g><path
           d="m 104.6645,605.7522 -0.6613,0.1081 -0.6253,-3.8236 0.617,-0.0998 c 1.3129,-0.2149 2.0366,0.4547 2.2237,1.5985 0.2094,1.2768 -0.2315,2.0019 -1.5541,2.2168 m -0.8693,-5.0311 -1.8674,0.3064 1.0245,6.2539 1.9562,-0.3217 c 1.787,-0.2925 2.971,-1.3489 2.5967,-3.635 -0.3591,-2.1974 -2.1018,-2.8657 -3.71,-2.6036"
           id="path344"
           style="fill:#000000;fill-opacity:1;fill-rule:nonzero;stroke:none"
           inkscape:connector-curvature="0" /><g
           transform="matrix(1.386383,0,0,-1.386368,104.6645,605.7522)"
           id="g346"><path
             d="M 0,0 -0.477,-0.078 -0.928,2.68 -0.483,2.752 C 0.464,2.907 0.986,2.424 1.121,1.599 1.272,0.678 0.954,0.155 0,0 Z m -0.627,3.629 -1.347,-0.221 0.739,-4.511 1.411,0.232 C 1.465,-0.66 2.319,0.102 2.049,1.751 1.79,3.336 0.533,3.818 -0.627,3.629 Z"
             id="path348"
             style="fill:none;stroke:#000000;stroke-width:0.05;stroke-linecap:butt;stroke-linejoin:miter;stroke-miterlimit:4;stroke-dasharray:none;stroke-opacity:1"
             inkscape:connector-curvature="0" /></g></g></g></g></svg>