<?xml version="1.0" encoding="UTF-8" standalone="no"?>
<!-- Created with Inkscape (http://www.inkscape.org/) -->

<svg
   xmlns:dc="http://purl.org/dc/elements/1.1/"
   xmlns:cc="http://creativecommons.org/ns#"
   xmlns:rdf="http://www.w3.org/1999/02/22-rdf-syntax-ns#"
   xmlns:svg="http://www.w3.org/2000/svg"
   xmlns="http://www.w3.org/2000/svg"
   xmlns:sodipodi="http://sodipodi.sourceforge.net/DTD/sodipodi-0.dtd"
   xmlns:inkscape="http://www.inkscape.org/namespaces/inkscape"
   width="350"
   height="200"
   id="svg2"
   version="1.1"
   inkscape:version="0.91 r13725"
   inkscape:export-filename="/Users/Francisco/Desktop/cartel.png"
   inkscape:export-xdpi="470"
   inkscape:export-ydpi="470"
   sodipodi:docname="mbg.svg">
  <defs
     id="defs4">
    <clipPath
       id="clipPath3120"
       clipPathUnits="userSpaceOnUse">
      <path
         id="path3122"
         d="M 0,0 595,0 595,842 0,842 0,0 z"
         inkscape:connector-curvature="0" />
    </clipPath>
    <clipPath
       id="clipPath3100"
       clipPathUnits="userSpaceOnUse">
      <path
         id="path3102"
         d="m 0,472 595,0 0,58 -595,0 0,-58 z"
         inkscape:connector-curvature="0" />
    </clipPath>
    <clipPath
       id="clipPath3080"
       clipPathUnits="userSpaceOnUse">
      <path
         id="path3082"
         d="m 0,472 595,0 0,58 -595,0 0,-58 z"
         inkscape:connector-curvature="0" />
    </clipPath>
    <clipPath
       id="clipPath3066"
       clipPathUnits="userSpaceOnUse">
      <path
         id="path3068"
         d="M 0,0 595,0 595,842 0,842 0,0 z"
         inkscape:connector-curvature="0" />
    </clipPath>
    <clipPath
       id="clipPath3034"
       clipPathUnits="userSpaceOnUse">
      <path
         id="path3036"
         d="m 0,528 595,0 0,58 -595,0 0,-58 z"
         inkscape:connector-curvature="0" />
    </clipPath>
    <clipPath
       id="clipPath3022"
       clipPathUnits="userSpaceOnUse">
      <path
         id="path3024"
         d="M 0,0 595,0 595,842 0,842 0,0 z"
         inkscape:connector-curvature="0" />
    </clipPath>
    <clipPath
       id="clipPath3363"
       clipPathUnits="userSpaceOnUse">
      <path
         id="path3365"
         clip-rule="evenodd"
         d="m 144.1697,36 0,37.39624 12.8637,0 c 6.9019,0 10.3528,-2.49306 10.3528,-7.47925 l 0,-0.71167 c 0,-1.40544 -0.3513,-2.74373 -1.054,-4.01489 -0.7028,-1.27117 -1.6852,-2.35209 -2.9474,-3.2428 -1.2622,-0.89071 -2.6632,-1.47929 -4.2029,-1.76575 3.0078,-0.46549 5.3375,-1.345 6.9891,-2.63855 1.6516,-1.29354 2.4774,-3.42181 2.4774,-6.38488 0,-2.56024 -0.6333,-4.67956 -1.9,-6.35803 -1.2667,-1.67848 -2.9116,-2.89815 -4.9347,-3.65906 C 159.7906,36.38045 157.6332,36 155.3416,36 l -11.1719,0 z m 4.7265,21.06812 3.4644,0 c 2.1305,0 3.9343,0.2775 5.4114,0.83251 1.477,0.55502 2.6206,1.37858 3.4308,2.47071 0.8101,1.09213 1.2913,2.43041 1.4434,4.01489 l 0,0.60425 c 0,1.36068 -0.3938,2.51546 -1.1816,3.46435 -0.7878,0.9489 -1.8351,1.65385 -3.1421,2.11487 -1.307,0.46102 -2.7437,0.69153 -4.3103,0.69153 l -5.116,0 0,-14.19311 z m 0,-18.91968 5.1697,0 c 1.9068,0 3.5718,0.3894 4.9951,1.16821 1.4234,0.77881 2.5155,1.77022 3.2764,2.97424 0.7609,1.20403 1.1414,2.4058 1.1414,3.60535 0,2.417 -0.4901,4.27673 -1.4704,5.57922 -0.9802,1.3025 -2.5087,2.20215 -4.5855,2.69898 -2.0769,0.49683 -4.9191,0.74524 -8.5267,0.74524 l 0,-16.77124 z m 25.9723,28.81103 c 0.5127,-0.1831 1.1572,-0.27466 1.9336,-0.27466 0.7251,0 1.3696,0.09156 1.9336,0.27466 l 0,-30.95947 c -0.564,0.18311 -1.2085,0.27466 -1.9336,0.27466 -0.7764,0 -1.4209,-0.09155 -1.9336,-0.27466 0,0 0.5127,0.18311 0,0 l 0,30.95947 z M 191.5964,36 l 0,28.8501 c -0.6665,0 -1.6296,-0.06226 -2.8894,-0.18677 -1.2598,-0.12451 -2.5086,-0.26916 -3.7464,-0.43396 -1.2378,-0.1648 -2.2924,-0.32043 -3.164,-0.46692 0.1758,0.53467 0.2637,1.06201 0.2637,1.58203 0,0.53467 -0.0879,1.073 -0.2637,1.61499 l 23.5327,0 c -0.1831,-0.52734 -0.2747,-1.06567 -0.2747,-1.61499 0,-0.52734 0.0916,-1.05468 0.2747,-1.58203 -4.2261,0.7251 -7.511,1.08765 -9.8547,1.08765 l 0,-28.8501 c -0.5127,0.18311 -1.1133,0.27466 -1.8018,0.27466 -0.6299,0 -1.322,-0.09155 -2.0764,-0.27466 0,0 0.7544,0.18311 0,0 z m 15.0689,23.89526 c 0.3736,2.66603 1.4813,4.63073 3.3234,5.89417 1.842,1.26343 3.9606,1.89514 6.3556,1.89514 1.4868,0 2.8729,-0.23803 4.1583,-0.71411 1.2854,-0.47608 2.1808,-1.08032 2.6862,-1.81275 -0.5713,-0.56396 -1.0364,-1.73216 -1.3953,-3.50463 l -0.7251,0 c -0.1392,0.54932 -0.4394,1.12243 -0.9009,1.71936 -0.4614,0.59692 -1.0913,1.10412 -1.8896,1.5216 -0.7984,0.41749 -1.7432,0.62622 -2.8345,0.62622 -0.835,0 -1.6479,-0.24902 -2.439,-0.74707 -0.791,-0.49805 -1.43,-1.15905 -1.9171,-1.98303 -0.487,-0.82398 -0.7306,-1.69738 -0.7306,-2.62024 0,-2.16798 1.3513,-3.89281 4.054,-5.17456 l 4.8999,-2.12036 c 1.7358,-0.7251 3.0249,-1.73217 3.8672,-3.02124 0.8423,-1.28907 1.2634,-2.71362 1.2634,-4.27368 0,-1.66261 -0.4724,-3.29223 -1.4172,-4.88892 -0.9449,-1.59669 -2.2669,-2.89855 -3.9661,-3.90564 -1.6992,-1.00708 -3.6108,-1.51062 -5.7349,-1.51062 -1.3256,0 -2.6971,0.28748 -4.1143,0.86243 -1.4173,0.57495 -2.5031,1.23596 -3.2575,1.98303 0.3223,0.7837 0.5219,1.46118 0.5988,2.03247 0.0769,0.57129 0.1153,1.30371 0.1153,2.19727 l 0.7251,0 c 0.9595,-1.39894 1.8585,-2.43896 2.6972,-3.12012 0.8386,-0.68116 1.5674,-1.0968 2.1863,-1.24695 0.6189,-0.15015 1.3311,-0.22522 2.1368,-0.22522 1.2378,0 2.3126,0.28015 3.2245,0.84046 0.9119,0.5603 1.6003,1.30004 2.0654,2.21923 0.4651,0.9192 0.6976,1.89514 0.6976,2.92786 0,1.2378 -0.3369,2.37121 -1.0107,3.40027 -0.6738,1.02906 -1.6443,1.77063 -2.9114,2.22473 l -4.5373,2.10938 c -1.6407,0.75439 -2.8437,1.56921 -3.609,2.44445 -0.7654,0.87525 -1.2342,1.74683 -1.4063,2.61475 -0.1721,0.86792 -0.2582,1.98669 -0.2582,3.35632 0,0 0,-1.36963 0,0 z M 238.3682,36 l 14.0405,31.27808 1.0767,0 L 267.2073,36 c -0.1905,0 -0.6446,0.02197 -1.3623,0.06592 -0.7178,0.04394 -1.2964,0.06592 -1.7359,0.06592 -0.6445,0 -1.2597,-0.04395 -1.8457,-0.13184 l -4.9109,12.28271 -10.8874,0 L 241.8728,36 c -0.3589,0.08789 -0.7324,0.13184 -1.1206,0.13184 -0.3003,0 -0.7214,-0.02198 -1.2634,-0.06592 C 238.9468,36.02197 238.5732,36 238.3682,36 z m 9.1296,14.40308 9.1846,0 -4.5923,10.93139 -4.5923,-10.93139 z M 270.2242,36 l 0,30.95947 2.1643,0 21.4124,-23.57666 0,23.57666 c 0.3808,-0.1831 0.8459,-0.27466 1.3952,-0.27466 0.5933,0 1.073,0.09156 1.4393,0.27466 l 0,-30.95947 -1.7469,0 -21.8298,24.25781 0,-24.25781 c -0.3809,0.18311 -0.802,0.27466 -1.2634,0.27466 -0.4834,0 -1.0071,-0.09155 -1.5711,-0.27466 0,0 0.564,0.18311 0,0 z m 32.9767,30.95947 14.4031,0 c 2.4756,0 4.5959,-0.37536 6.361,-1.1261 1.7652,-0.75073 3.1861,-1.7871 4.2627,-3.10913 1.0767,-1.32202 1.8622,-2.84911 2.3566,-4.5813 0.4944,-1.73218 0.7416,-3.60899 0.7416,-5.63049 0,-2.27052 -0.4468,-4.61974 -1.3404,-7.04773 -0.8935,-2.42799 -2.4719,-4.55748 -4.7351,-6.38855 -2.2632,-1.83106 -5.277,-2.85644 -9.0417,-3.07617 l -13.0078,0 0,30.95947 z m 4.2297,-2.10937 0,-26.72974 c 1.2525,-0.12451 2.6331,-0.18677 4.1419,-0.18677 2.622,0 4.8504,0.26001 6.6851,0.78003 1.8348,0.52003 3.3545,1.34399 4.5594,2.47193 1.2048,1.12793 2.1222,2.58727 2.752,4.37805 0.6299,1.79078 1.0181,3.98619 1.1646,6.5863 0.0293,0.33692 0.0439,0.802 0.0439,1.39527 0,3.09083 -0.6866,5.50414 -2.0599,7.23999 -1.3733,1.73584 -3.0743,2.9132 -5.1031,3.5321 -2.0289,0.6189 -4.2151,0.92835 -6.5589,0.92835 -0.7764,0 -1.5216,-0.02381 -2.2357,-0.07142 -0.7141,-0.0476 -1.3733,-0.10437 -1.9775,-0.17028 -0.6043,-0.06592 -1.0749,-0.11719 -1.4118,-0.15381 0,0 0.3369,0.03662 0,0 z M 345.5092,36 l 17.1606,38.22876 1.3159,0 L 380.757,36 c -0.2328,0 -0.7878,0.02686 -1.6651,0.08057 -0.8772,0.05371 -1.5844,0.08056 -2.1215,0.08056 -0.7878,0 -1.5397,-0.05371 -2.2559,-0.16113 l -6.0022,15.01221 -13.3069,0 L 349.7926,36 c -0.4386,0.10742 -0.8952,0.16113 -1.3696,0.16113 -0.367,0 -0.8818,-0.02685 -1.5442,-0.08056 C 346.2164,36.02686 345.7598,36 345.5092,36 z m 11.1584,17.60376 11.2256,0 -5.6128,13.3606 -5.6128,-13.3606 z M 390.2644,36 l 0,28.8501 c -0.6665,0 -1.6296,-0.06226 -2.8894,-0.18677 -1.2598,-0.12451 -2.5085,-0.26916 -3.7463,-0.43396 -1.2378,-0.1648 -2.2925,-0.32043 -3.1641,-0.46692 0.1758,0.53467 0.2637,1.06201 0.2637,1.58203 0,0.53467 -0.0879,1.073 -0.2637,1.61499 l 23.5327,0 c -0.1831,-0.52734 -0.2746,-1.06567 -0.2746,-1.61499 0,-0.52734 0.0915,-1.05468 0.2746,-1.58203 -4.2261,0.7251 -7.511,1.08765 -9.8547,1.08765 l 0,-28.8501 c -0.5127,0.18311 -1.1133,0.27466 -1.8018,0.27466 -0.6299,0 -1.322,-0.09155 -2.0764,-0.27466 0,0 0.7544,0.18311 0,0 z m 14.3548,15.47974 c 0,2.70265 0.6519,5.29173 1.9556,7.76733 1.3037,2.4756 3.2574,4.49157 5.8612,6.04797 2.6038,1.55641 5.744,2.3346 9.4208,2.3346 3.2593,-0.08057 5.9875,-0.61157 8.1848,-1.59302 2.1973,-0.98145 3.9075,-2.23571 5.1306,-3.76282 1.2232,-1.5271 2.0966,-3.17137 2.6203,-4.93286 0.5236,-1.76148 0.8367,-3.59435 0.9393,-5.49865 l 0,-0.63721 c 0,-2.40236 -0.4559,-4.59594 -1.3678,-6.58081 -0.9119,-1.98488 -2.1625,-3.67309 -3.7518,-5.0647 -1.5894,-1.39161 -3.3911,-2.45361 -5.4053,-3.18603 -2.0142,-0.73243 -4.1162,-1.09864 -6.3062,-1.09864 l -0.769,0 c -1.875,0 -3.7683,0.29663 -5.6799,0.88989 -1.9117,0.59327 -3.6933,1.53625 -5.3449,2.82898 -1.6516,1.29274 -2.9791,2.98461 -3.9825,5.07569 -1.0035,2.09107 -1.5052,4.56114 -1.5052,7.41028 0,0 0,-2.84914 0,0 z m 4.5923,0 c 0,-2.96633 0.5329,-5.53893 1.5985,-7.7179 1.0657,-2.17897 2.558,-3.83788 4.477,-4.97681 1.9189,-1.13892 4.1088,-1.70837 6.5698,-1.70837 2.2119,0 4.2077,0.56762 5.9875,1.70288 1.7798,1.13526 3.2172,2.78869 4.3122,4.96033 1.0949,2.17164 1.756,4.75157 1.983,7.73987 0.0293,0.1831 0.0439,0.43945 0.0439,0.76904 0,2.52687 -0.5346,4.83397 -1.604,6.92139 -1.0693,2.08741 -2.5726,3.72802 -4.5098,4.92187 -1.9373,1.19385 -4.1291,1.79077 -6.5754,1.79077 -3.9404,0 -6.8646,-1.44102 -8.7725,-4.32312 -1.908,-2.88209 -3.078,-6.24204 -3.5102,-10.07995 0,0 0.4322,3.83791 0,0 z M 440.0239,36 l 4.2297,30.95947 1.3953,0 12.3266,-23.57666 12.6453,23.57666 1.3953,0 L 475.5207,36 c -0.8789,0.18311 -1.6406,0.27466 -2.2852,0.27466 -0.6079,0 -1.3586,-0.09155 -2.2522,-0.27466 l -2.1203,23.2251 -11.6016,-22.5 -0.7251,0 -11.25,22.13745 L 443.166,36 c -0.3223,0.18311 -0.802,0.27466 -1.4392,0.27466 -0.5713,0 -1.139,-0.09155 -1.7029,-0.27466 0,0 0.5639,0.18311 0,0 z m 38.6016,23.89526 c 0.3736,2.66603 1.4814,4.63073 3.3234,5.89417 1.8421,1.26343 3.9606,1.89514 6.3556,1.89514 1.4868,0 2.8729,-0.23803 4.1583,-0.71411 1.2854,-0.47608 2.1808,-1.08032 2.6862,-1.81275 -0.5713,-0.56396 -1.0364,-1.73216 -1.3953,-3.50463 l -0.7251,0 c -0.1391,0.54932 -0.4394,1.12243 -0.9009,1.71936 -0.4614,0.59692 -1.0913,1.10412 -1.8896,1.5216 -0.7984,0.41749 -1.7432,0.62622 -2.8345,0.62622 -0.835,0 -1.6479,-0.24902 -2.439,-0.74707 -0.791,-0.49805 -1.43,-1.15905 -1.9171,-1.98303 -0.487,-0.82398 -0.7306,-1.69738 -0.7306,-2.62024 0,-2.16798 1.3513,-3.89281 4.054,-5.17456 l 4.8999,-2.12036 c 1.7358,-0.7251 3.0249,-1.73217 3.8672,-3.02124 0.8423,-1.28907 1.2634,-2.71362 1.2634,-4.27368 0,-1.66261 -0.4724,-3.29223 -1.4172,-4.88892 -0.9448,-1.59669 -2.2669,-2.89855 -3.9661,-3.90564 -1.6992,-1.00708 -3.6108,-1.51062 -5.7348,-1.51062 -1.3257,0 -2.6972,0.28748 -4.1144,0.86243 -1.4173,0.57495 -2.5031,1.23596 -3.2575,1.98303 0.3223,0.7837 0.5219,1.46118 0.5988,2.03247 0.0769,0.57129 0.1153,1.30371 0.1153,2.19727 l 0.7251,0 c 0.9595,-1.39894 1.8586,-2.43896 2.6972,-3.12012 0.8386,-0.68116 1.5674,-1.0968 2.1863,-1.24695 0.6189,-0.15015 1.3311,-0.22522 2.1368,-0.22522 1.2378,0 2.3126,0.28015 3.2245,0.84046 0.9119,0.5603 1.6003,1.30004 2.0654,2.21923 0.4651,0.9192 0.6976,1.89514 0.6976,2.92786 0,1.2378 -0.3369,2.37121 -1.0107,3.40027 -0.6738,1.02906 -1.6443,1.77063 -2.9114,2.22473 l -4.5373,2.10938 c -1.6407,0.75439 -2.8436,1.56921 -3.609,2.44445 -0.7654,0.87525 -1.2342,1.74683 -1.4063,2.61475 -0.1721,0.86792 -0.2582,1.98669 -0.2582,3.35632 0,0 0,-1.36963 0,0 z"
         inkscape:connector-curvature="0" />
    </clipPath>
    <clipPath
       id="clipPath3353"
       clipPathUnits="userSpaceOnUse">
      <path
         id="path3355"
         clip-rule="evenodd"
         d="m 154.8638,92 0,35.2612 c -0.8147,0 -1.9918,-0.0761 -3.5315,-0.2282 -1.5397,-0.1522 -3.066,-0.329 -4.5789,-0.5304 -1.5128,-0.2015 -2.8019,-0.3917 -3.8672,-0.5707 0.2149,0.6535 0.3223,1.298 0.3223,1.9336 0,0.6535 -0.1074,1.3114 -0.3223,1.9739 l 28.7622,0 c -0.2238,-0.6446 -0.3357,-1.3025 -0.3357,-1.9739 0,-0.6446 0.1119,-1.2891 0.3357,-1.9336 -5.1652,0.8862 -9.18,1.3293 -12.0446,1.3293 l 0,-35.2612 c -0.6267,0.2238 -1.3607,0.33569 -2.2022,0.33569 -0.7698,0 -1.6158,-0.11189 -2.5378,-0.33569 0,0 0.922,0.2238 0,0 z m 20.1621,0 0,31.2781 c 0.542,-0.1831 1.2341,-0.2747 2.0764,-0.2747 0.8423,0 1.4429,0.0916 1.8018,0.2747 l 0,-13.0078 c 1.5893,-0.3296 4.7973,-0.4944 9.624,-0.4944 4.812,0 7.9321,0.1648 9.3603,0.4944 l 0,13.0078 c 0.7105,-0.1831 1.4026,-0.2747 2.0764,-0.2747 0.6592,0 1.2598,0.0916 1.8018,0.2747 l 0,-31.2781 c -0.5713,0.18311 -1.1719,0.27466 -1.8018,0.27466 -0.6298,0 -1.322,-0.09155 -2.0764,-0.27466 l 0,15.4797 c -2.8418,0.271 -6.0644,0.4065 -9.6679,0.4065 -3.6915,0 -6.7969,-0.1355 -9.3164,-0.4065 l 0,-15.4797 c -0.7544,0.18311 -1.355,0.27466 -1.8018,0.27466 -0.4468,0 -1.1389,-0.09155 -2.0764,-0.27466 0,0 0.9375,0.18311 0,0 z m 34.1452,0 0,30.5969 16.1609,0 c -0.1831,-0.5273 -0.2746,-1.0071 -0.2746,-1.4392 0,-0.4028 0.0915,-0.8679 0.2746,-1.3952 -1.4575,0.3002 -3.4094,0.4504 -5.8557,0.4504 -0.6738,0 -1.6955,-0.0147 -3.0652,-0.044 -1.3696,-0.0293 -2.373,-0.0439 -3.0102,-0.0439 l 0,-10.8875 6.7126,0 4.1858,0.3626 c -0.1831,-0.3589 -0.2746,-0.7947 -0.2746,-1.3074 0,-0.4834 0.0915,-0.9961 0.2746,-1.5381 l -5.2734,0.3626 -5.625,0 0,-12.64528 c 0.7251,-0.11718 1.8054,-0.17578 3.2409,-0.17578 1.5015,0 3.0964,0.05127 4.7846,0.15381 1.6882,0.10254 3.1073,0.23071 4.2572,0.38452 -0.1758,-0.53467 -0.2637,-1.05834 -0.2637,-1.57104 0,-0.47608 0.0879,-0.89722 0.2637,-1.26343 0,0 -0.1758,0.36621 0,0 l -16.5125,0 z m 31.064,18.4766 c 0,2.5871 0.4677,5.0465 1.4032,7.3785 0.9355,2.332 2.2872,4.3998 4.0552,6.2036 1.768,1.8038 3.9052,3.2182 6.4117,4.2432 2.5065,1.025 5.2771,1.5375 8.3118,1.5375 5.8187,0 10.129,-0.8594 12.9309,-2.5782 l -1.3293,-4.2968 -0.4432,0 c -3.2584,3.1152 -6.9421,4.6728 -11.051,4.6728 -2.5692,0 -4.9794,-0.6669 -7.2308,-2.0007 -2.2514,-1.3339 -4.0552,-3.2585 -5.4114,-5.774 -1.3562,-2.5154 -2.0343,-5.4247 -2.0343,-8.728 l 0,-0.6579 c 0.0627,-2.9989 0.5103,-5.5904 1.3428,-7.7747 0.8325,-2.1843 1.9425,-3.95893 3.3301,-5.32409 1.3875,-1.36516 2.954,-2.36552 4.6997,-3.0011 1.7456,-0.63558 3.5673,-0.95337 5.465,-0.95337 1.4502,0 2.887,0.16784 4.3103,0.50354 1.4234,0.33569 2.7706,0.81909 4.0418,1.4502 1.2712,0.6311 2.4125,1.37633 3.4241,2.23571 l -0.3894,-3.46435 c -3.9747,-2.30958 -8.0611,-3.46436 -12.2596,-3.46436 -2.6049,0 -5.0958,0.46325 -7.4725,1.38977 -2.3767,0.92652 -4.4737,2.26033 -6.2909,4.00147 -1.8172,1.74114 -3.2405,3.83584 -4.27,6.28418 -1.0295,2.4483 -1.5442,5.154 -1.5442,8.1171 0,0 0,-2.9631 0,0 z M 277.4773,92 l 0,30.5969 16.1609,0 c -0.1831,-0.5273 -0.2747,-1.0071 -0.2747,-1.4392 0,-0.4028 0.0916,-0.8679 0.2747,-1.3952 -1.4575,0.3002 -3.4094,0.4504 -5.8557,0.4504 -0.6739,0 -1.6956,-0.0147 -3.0652,-0.044 -1.3697,-0.0293 -2.3731,-0.0439 -3.0103,-0.0439 l 0,-10.8875 6.7127,0 4.1858,0.3626 c -0.1831,-0.3589 -0.2747,-0.7947 -0.2747,-1.3074 0,-0.4834 0.0916,-0.9961 0.2747,-1.5381 l -5.2735,0.3626 -5.625,0 0,-12.64528 c 0.7251,-0.11718 1.8054,-0.17578 3.241,-0.17578 1.5015,0 3.0963,0.05127 4.7845,0.15381 1.6883,0.10254 3.1073,0.23071 4.2572,0.38452 -0.1757,-0.53467 -0.2636,-1.05834 -0.2636,-1.57104 0,-0.47608 0.0879,-0.89722 0.2636,-1.26343 0,0 -0.1757,0.36621 0,0 l -16.5124,0 z m 21.8186,0 0,30.9595 2.1643,0 21.4124,-23.57669 0,23.57669 c 0.3808,-0.1831 0.8459,-0.2747 1.3952,-0.2747 0.5933,0 1.073,0.0916 1.4392,0.2747 l 0,-30.9595 -1.7468,0 -21.8298,24.2578 0,-24.2578 c -0.3809,0.18311 -0.802,0.27466 -1.2635,0.27466 -0.4834,0 -1.007,-0.09155 -1.571,-0.27466 0,0 0.564,0.18311 0,0 z m 40.1218,0 0,28.8501 c -0.6665,0 -1.6296,-0.0623 -2.8894,-0.1868 -1.2598,-0.1245 -2.5085,-0.2691 -3.7463,-0.4339 -1.2378,-0.1648 -2.2925,-0.3205 -3.1641,-0.4669 0.1758,0.5346 0.2637,1.062 0.2637,1.582 0,0.5347 -0.0879,1.073 -0.2637,1.615 l 23.5327,0 c -0.1831,-0.5274 -0.2746,-1.0657 -0.2746,-1.615 0,-0.5274 0.0915,-1.0547 0.2746,-1.582 -4.2261,0.7251 -7.5109,1.0876 -9.8547,1.0876 l 0,-28.8501 c -0.5127,0.18311 -1.1133,0.27466 -1.8018,0.27466 -0.6298,0 -1.322,-0.09155 -2.0764,-0.27466 0,0 0.7544,0.18311 0,0 z m 17.3142,0 0,30.5969 16.1609,0 c -0.1831,-0.5273 -0.2746,-1.0071 -0.2746,-1.4392 0,-0.4028 0.0915,-0.8679 0.2746,-1.3952 -1.4575,0.3002 -3.4094,0.4504 -5.8557,0.4504 -0.6738,0 -1.6955,-0.0147 -3.0652,-0.044 -1.3696,-0.0293 -2.373,-0.0439 -3.0102,-0.0439 l 0,-10.8875 6.7126,0 4.1858,0.3626 c -0.1831,-0.3589 -0.2747,-0.7947 -0.2747,-1.3074 0,-0.4834 0.0916,-0.9961 0.2747,-1.5381 l -5.2734,0.3626 -5.625,0 0,-12.64528 c 0.7251,-0.11718 1.8054,-0.17578 3.2409,-0.17578 1.5015,0 3.0963,0.05127 4.7846,0.15381 1.6882,0.10254 3.1073,0.23071 4.2572,0.38452 -0.1758,-0.53467 -0.2637,-1.05834 -0.2637,-1.57104 0,-0.47608 0.0879,-0.89722 0.2637,-1.26343 0,0 -0.1758,0.36621 0,0 l -16.5125,0 z m 21.5,0 0,30.9155 10.8875,0 c 2.8784,0 5.0683,-0.6738 6.5698,-2.0215 1.5015,-1.3476 2.2522,-3.1347 2.2522,-5.3613 0,-1.8091 -0.5035,-3.3252 -1.5106,-4.5483 -1.0071,-1.2232 -2.2174,-2.1369 -3.631,-2.7411 -1.4136,-0.6043 -2.7576,-0.9796 -4.032,-1.1261 L 400.7319,92 c -0.9375,0.18311 -1.82,0.27466 -2.6477,0.27466 -0.8496,0 -1.7212,-0.09155 -2.6147,-0.27466 l -11.6126,14.7546 -1.3952,0 0,-14.7546 c -0.7471,0.18311 -1.4502,0.27466 -2.1094,0.27466 -0.6592,0 -1.366,-0.09155 -2.1204,-0.27466 0,0 0.7544,0.18311 0,0 z m 4.2298,16.5125 c 0.3589,-0.0293 0.9008,-0.044 1.6259,-0.044 2.7906,0 4.8999,0.4486 6.3282,1.3458 1.4282,0.8973 2.3346,1.8622 2.7191,2.8949 0.3845,1.0327 0.5768,1.9739 0.5768,2.8235 0,0.6665 -0.2014,1.4319 -0.6043,2.2962 -0.4028,0.8642 -1.1554,1.6351 -2.2577,2.3126 -1.1023,0.6775 -2.6055,1.0162 -4.5099,1.0162 l -3.8781,0 0,-12.6452 z m 33.4529,14.0844 15.8422,0 c -0.1831,-0.5639 -0.2746,-1.0876 -0.2746,-1.571 0,-0.5127 0.0915,-1.0547 0.2746,-1.626 -3.8672,0.7251 -7.8552,1.0876 -11.9641,1.0876 l 0,-10.8874 6.6577,0 4.5923,0.3076 c -0.1831,-0.4834 -0.2746,-0.9485 -0.2746,-1.3952 0,-0.4029 0.0915,-0.868 0.2746,-1.3953 l -4.5923,0.3625 -6.6577,0 0,-15.4797 c -0.5713,0.18311 -1.1718,0.27466 -1.8017,0.27466 -0.6299,0 -1.3221,-0.09155 -2.0764,-0.27466 0,0 0.7543,0.18311 0,0 l 0,30.5969 z m 19.3906,-15.1172 c 0,2.7027 0.6518,5.2918 1.9555,7.7674 1.3038,2.4756 3.2575,4.4915 5.8612,6.0479 2.6038,1.5564 5.744,2.3346 9.4208,2.3346 3.2593,-0.0805 5.9876,-0.6115 8.1848,-1.593 2.1973,-0.9814 3.9075,-2.2357 5.1307,-3.7628 1.2231,-1.5271 2.0965,-3.1714 2.6202,-4.9329 0.5237,-1.7614 0.8368,-3.5943 0.9393,-5.4986 l 0,-0.6372 c 0,-2.4024 -0.4559,-4.596 -1.3678,-6.5808 -0.9118,-1.98491 -2.1624,-3.67312 -3.7518,-5.06473 -1.5894,-1.39161 -3.3911,-2.45361 -5.4053,-3.18603 -2.0141,-0.73243 -4.1162,-1.09864 -6.3061,-1.09864 l -0.7691,0 c -1.875,0 -3.7683,0.29663 -5.6799,0.88989 -1.9116,0.59327 -3.6932,1.53625 -5.3449,2.82898 -1.6516,1.29274 -2.9791,2.98461 -3.9825,5.07573 -1.0034,2.091 -1.5051,4.5611 -1.5051,7.4102 0,0 0,-2.8491 0,0 z m 4.5923,0 c 0,-2.9663 0.5328,-5.5389 1.5985,-7.71786 1.0657,-2.17897 2.5579,-3.83788 4.4769,-4.97681 1.919,-1.13892 4.1089,-1.70837 6.5698,-1.70837 2.2119,0 4.2078,0.56762 5.9876,1.70288 1.7798,1.13526 3.2171,2.78869 4.3121,4.96033 1.095,2.17163 1.756,4.75153 1.983,7.73983 0.0293,0.1831 0.044,0.4395 0.044,0.7691 0,2.5268 -0.5347,4.834 -1.604,6.9214 -1.0694,2.0874 -2.5726,3.728 -4.5099,4.9218 -1.9373,1.1939 -4.129,1.7908 -6.5753,1.7908 -3.9405,0 -6.8646,-1.441 -8.7726,-4.3231 -1.908,-2.8821 -3.078,-6.2421 -3.5101,-10.08 0,0 0.4321,3.8379 0,0 z M 473.6692,92 l 0,30.9155 10.8874,0 c 2.8785,0 5.0684,-0.6738 6.5699,-2.0215 1.5014,-1.3476 2.2522,-3.1347 2.2522,-5.3613 0,-1.8091 -0.5036,-3.3252 -1.5107,-4.5483 -1.007,-1.2232 -2.2174,-2.1369 -3.6309,-2.7411 -1.4136,-0.6043 -2.7576,-0.9796 -4.032,-1.1261 L 496.1692,92 c -0.9375,0.18311 -1.8201,0.27466 -2.6477,0.27466 -0.8496,0 -1.7212,-0.09155 -2.6148,-0.27466 l -11.6125,14.7546 -1.3953,0 0,-14.7546 c -0.747,0.18311 -1.4502,0.27466 -2.1093,0.27466 -0.6592,0 -1.366,-0.09155 -2.1204,-0.27466 0,0 0.7544,0.18311 0,0 z m 4.2297,16.5125 c 0.3589,-0.0293 0.9009,-0.044 1.626,-0.044 2.7905,0 4.8999,0.4486 6.3281,1.3458 1.4283,0.8973 2.3346,1.8622 2.7191,2.8949 0.3846,1.0327 0.5768,1.9739 0.5768,2.8235 0,0.6665 -0.2014,1.4319 -0.6042,2.2962 -0.4029,0.8642 -1.1554,1.6351 -2.2577,2.3126 -1.1023,0.6775 -2.6056,1.0162 -4.5099,1.0162 l -3.8782,0 0,-12.6452 z"
         inkscape:connector-curvature="0" />
    </clipPath>
    <clipPath
       id="clipPath3343"
       clipPathUnits="userSpaceOnUse">
      <path
         id="path3345"
         clip-rule="evenodd"
         d="m 144.5778,20.3499 2.9781,0 4.4095,-12.977927 4.3783,12.977927 2.9466,0 0,-15.3499 -1.9749,0 0,9.05947 c 0,0.31348 0.007,0.83245 0.0209,1.55694 0.014,0.72448 0.0209,1.5012 0.0209,2.33017 L 152.979,5 l -2.0585,0 -4.4096,12.94658 0,-0.47021 c 0,-0.37618 0.009,-0.94914 0.0262,-1.7189 0.0174,-0.76976 0.0261,-1.33576 0.0261,-1.698 l 0,-9.05947 -1.9854,0 0,15.3499 z m 23.4226,-8.56836 c 0.4319,0.05573 0.721,0.23685 0.8673,0.54336 0.0836,0.16719 0.1254,0.40752 0.1254,0.721 0,0.64089 -0.2282,1.10587 -0.6845,1.39497 -0.4562,0.2891 -1.1093,0.43364 -1.9592,0.43364 -0.9822,0 -1.6788,-0.26471 -2.0898,-0.79414 -0.2299,-0.29258 -0.3797,-0.72796 -0.4493,-1.30615 l -1.7555,0 c 0.0348,1.3793 0.4824,2.33888 1.3427,2.87876 0.8603,0.53988 1.8582,0.80981 2.9937,0.80981 1.3166,0 2.3859,-0.25078 3.2079,-0.75234 0.8151,-0.50157 1.2226,-1.28177 1.2226,-2.34063 l 0,-6.447164 c 0,-0.195053 0.04,-0.35179 0.1201,-0.470215 0.0802,-0.118425 0.2491,-0.177636 0.5068,-0.177636 0.0836,0 0.1777,0.00522 0.2822,0.015674 0.1045,0.010449 0.2159,0.026122 0.3343,0.047021 l 0,-1.389746 c -0.2925,-0.083594 -0.5155,-0.13584 -0.6687,-0.156738 -0.1533,-0.020899 -0.3623,-0.031348 -0.627,-0.031348 -0.6478,0 -1.118,0.22988 -1.4106,0.689648 -0.1533,0.243817 -0.2612,0.588638 -0.3239,1.034473 -0.3832,-0.501565 -0.9335,-0.936945 -1.651,-1.306152 -0.7175,-0.369208 -1.5082,-0.553809 -2.372,-0.553809 -1.0379,0 -1.8861,0.315215 -2.5444,0.945654 -0.6583,0.63044 -0.9874,1.419348 -0.9874,2.366748 0,1.037961 0.3239,1.842543 0.9718,2.41377 0.6478,0.57123 1.4977,0.92301 2.5496,1.05537 0,0 -1.0519,-0.13236 0,0 l 2.9989,0.37617 z m -3.9603,-5.088767 c 0.3971,-0.313478 0.8673,-0.470214 1.4107,-0.470214 0.6618,0 1.3026,0.153253 1.9226,0.459765 1.045,0.508531 1.5674,1.340978 1.5674,2.497364 l 0,1.515132 c -0.2299,-0.14629 -0.5259,-0.26819 -0.8882,-0.36572 -0.3622,-0.09752 -0.7175,-0.16719 -1.0658,-0.20898 l -1.1389,-0.146292 c -0.6827,-0.09056 -1.1947,-0.233365 -1.5361,-0.428418 -0.5782,-0.32741 -0.8673,-0.849866 -0.8673,-1.567383 0,-0.543362 0.1986,-0.971775 0.5956,-1.285254 0,0 -0.397,0.313479 0,0 z m 10.779,1.818165 c 0.0558,-0.626957 0.2125,-1.107616 0.4703,-1.441993 0.4737,-0.606057 1.2957,-0.909082 2.466,-0.909082 0.6966,0 1.3096,0.151512 1.839,0.454541 0.5295,0.303029 0.7942,0.771498 0.7942,1.40542 0,0.480667 -0.2125,0.846386 -0.6374,1.097168 -0.2717,0.153256 -0.8081,0.330891 -1.6092,0.53291 l -1.4942,0.376168 c -0.9544,0.23685 -1.658,0.50157 -2.1108,0.79414 -0.8081,0.50854 -1.2121,1.21211 -1.2121,2.11075 0,1.05886 0.3814,1.91568 1.1442,2.5705 0.7628,0.65483 1.7885,0.98223 3.0773,0.98223 1.6858,0 2.9014,-0.49459 3.6468,-1.48379 0.4667,-0.62695 0.6931,-1.30266 0.6792,-2.02715 l -1.7764,0 c -0.0348,0.42494 -0.1846,0.81156 -0.4493,1.15987 -0.4319,0.4946 -1.1808,0.74189 -2.2466,0.74189 -0.7106,0 -1.2487,-0.13584 -1.6144,-0.40752 -0.3657,-0.27168 -0.5486,-0.63043 -0.5486,-1.07627 0,-0.48763 0.2403,-0.87773 0.721,-1.17031 0.2787,-0.17415 0.6897,-0.32741 1.233,-0.45977 l 1.2435,-0.30302 c 1.3514,-0.32741 2.257,-0.64437 2.7168,-0.95088 0.7314,-0.48067 1.0971,-1.236487 1.0971,-2.267482 0,-0.996164 -0.3779,-1.856474 -1.1337,-2.580957 -0.7558,-0.724483 -1.907,-1.086719 -3.4535,-1.086719 -1.6649,0 -2.8439,0.37791 -3.537,1.13374 -0.6932,0.755831 -1.0641,1.691027 -1.1129,2.805616 0,0 0.0488,-1.114589 0,0 l 1.8077,0 z m 10.4969,0 c 0.0557,-0.626957 0.2125,-1.107616 0.4702,-1.441993 0.4737,-0.606057 1.2957,-0.909082 2.466,-0.909082 0.6967,0 1.3097,0.151512 1.8391,0.454541 0.5294,0.303029 0.7941,0.771498 0.7941,1.40542 0,0.480667 -0.2124,0.846386 -0.6374,1.097168 -0.2716,0.153256 -0.808,0.330891 -1.6091,0.53291 l -1.4943,0.376168 c -0.9543,0.23685 -1.6579,0.50157 -2.1107,0.79414 -0.8081,0.50854 -1.2121,1.21211 -1.2121,2.11075 0,1.05886 0.3814,1.91568 1.1442,2.5705 0.7628,0.65483 1.7885,0.98223 3.0773,0.98223 1.6858,0 2.9014,-0.49459 3.6467,-1.48379 0.4668,-0.62695 0.6932,-1.30266 0.6792,-2.02715 l -1.7763,0 c -0.0349,0.42494 -0.1846,0.81156 -0.4493,1.15987 -0.4319,0.4946 -1.1808,0.74189 -2.2466,0.74189 -0.7106,0 -1.2487,-0.13584 -1.6144,-0.40752 -0.3658,-0.27168 -0.5486,-0.63043 -0.5486,-1.07627 0,-0.48763 0.2403,-0.87773 0.721,-1.17031 0.2786,-0.17415 0.6896,-0.32741 1.233,-0.45977 l 1.2434,-0.30302 c 1.3515,-0.32741 2.2571,-0.64437 2.7168,-0.95088 0.7315,-0.48067 1.0972,-1.236487 1.0972,-2.267482 0,-0.996164 -0.3779,-1.856474 -1.1337,-2.580957 -0.7559,-0.724483 -1.907,-1.086719 -3.4535,-1.086719 -1.6649,0 -2.8439,0.37791 -3.5371,1.13374 -0.6931,0.755831 -1.064,1.691027 -1.1128,2.805616 0,0 0.0488,-1.114589 0,0 l 1.8077,0 z m 15.3767,3.270602 c 0.4319,0.05573 0.721,0.23685 0.8673,0.54336 0.0836,0.16719 0.1254,0.40752 0.1254,0.721 0,0.64089 -0.2282,1.10587 -0.6845,1.39497 -0.4563,0.2891 -1.1093,0.43364 -1.9592,0.43364 -0.9822,0 -1.6788,-0.26471 -2.0898,-0.79414 -0.2299,-0.29258 -0.3797,-0.72796 -0.4494,-1.30615 l -1.7554,0 c 0.0348,1.3793 0.4824,2.33888 1.3427,2.87876 0.8603,0.53988 1.8582,0.80981 2.9937,0.80981 1.3166,0 2.3859,-0.25078 3.2079,-0.75234 0.815,-0.50157 1.2226,-1.28177 1.2226,-2.34063 l 0,-6.447164 c 0,-0.195053 0.04,-0.35179 0.1201,-0.470215 0.0801,-0.118425 0.2491,-0.177636 0.5068,-0.177636 0.0836,0 0.1777,0.00522 0.2821,0.015674 0.1045,0.010449 0.216,0.026122 0.3344,0.047021 l 0,-1.389746 c -0.2926,-0.083594 -0.5155,-0.13584 -0.6687,-0.156738 -0.1533,-0.020899 -0.3623,-0.031348 -0.627,-0.031348 -0.6478,0 -1.118,0.22988 -1.4106,0.689648 -0.1533,0.243817 -0.2613,0.588638 -0.324,1.034473 -0.3831,-0.501565 -0.9334,-0.936945 -1.6509,-1.306152 -0.7175,-0.369208 -1.5082,-0.553809 -2.372,-0.553809 -1.038,0 -1.8861,0.315215 -2.5444,0.945654 -0.6583,0.63044 -0.9874,1.419348 -0.9874,2.366748 0,1.037961 0.3239,1.842543 0.9717,2.41377 0.6479,0.57123 1.4978,0.92301 2.5496,1.05537 0,0 -1.0518,-0.13236 0,0 l 2.999,0.37617 z m -3.9603,-5.088767 c 0.3971,-0.313478 0.8673,-0.470214 1.4107,-0.470214 0.6618,0 1.3026,0.153253 1.9226,0.459765 1.0449,0.508531 1.5674,1.340978 1.5674,2.497364 l 0,1.515132 c -0.2299,-0.14629 -0.5259,-0.26819 -0.8882,-0.36572 -0.3622,-0.09752 -0.7175,-0.16719 -1.0658,-0.20898 l -1.139,-0.146292 c -0.6826,-0.09056 -1.1947,-0.233365 -1.536,-0.428418 -0.5782,-0.32741 -0.8673,-0.849866 -0.8673,-1.567383 0,-0.543362 0.1985,-0.971775 0.5956,-1.285254 0,0 -0.3971,0.313479 0,0 z m 17.0538,8.902737 c 0.7906,-0.61303 1.2661,-1.66839 1.4263,-3.16612 l -1.8286,0 c -0.1115,0.68966 -0.3657,1.26262 -0.7628,1.7189 -0.3971,0.45629 -1.0345,0.68442 -1.9122,0.68442 -1.1982,0 -2.055,-0.58515 -2.5705,-1.75546 -0.3344,-0.75932 -0.5016,-1.69625 -0.5016,-2.81084 0,-1.121559 0.2369,-2.065462 0.7106,-2.831742 0.4737,-0.76628 1.219,-1.149414 2.2361,-1.149414 0.7802,0 1.3984,0.238588 1.8547,0.715771 0.4563,0.477184 0.7715,1.130253 0.9457,1.959229 l 1.8286,0 c -0.209,-1.483797 -0.7314,-2.568763 -1.5674,-3.254932 -0.8359,-0.686169 -1.9052,-1.029248 -3.2079,-1.029248 -1.4629,0 -2.6297,0.534647 -3.5005,1.603955 -0.8708,1.069309 -1.3061,2.405054 -1.3061,4.007271 0,1.96447 0.4771,3.49352 1.4315,4.58721 0.9544,1.09369 2.17,1.64053 3.6468,1.64053 1.2609,0 2.2866,-0.30651 3.0773,-0.91953 0,0 -0.7907,0.61302 0,0 z m 3.104,4.80664 1.8809,0 0,-5.72617 c 0.4458,0.56426 0.8464,0.96132 1.2017,1.19121 0.606,0.39707 1.3618,0.5956 2.2674,0.5956 1.6232,0 2.7238,-0.56773 3.302,-1.70322 0.3135,-0.61999 0.4702,-1.4803 0.4702,-2.58096 l 0,-7.17861 -1.9331,0 0,7.05322 c 0,0.82201 -0.1045,1.42458 -0.3135,1.80772 -0.3413,0.61302 -0.9822,0.91953 -1.9226,0.91953 -0.7802,0 -1.4873,-0.2682 -2.1212,-0.80459 -0.6339,-0.5364 -0.9509,-1.54996 -0.9509,-3.04072 l 0,-5.93516 -1.8809,0 0,15.40215 z m 13.5794,-4.21104 0,-7.429391 c 0,-0.571227 0.0906,-1.037954 0.2717,-1.400196 0.3344,-0.668753 0.9578,-1.003125 1.8704,-1.003125 1.3097,0 2.2013,0.585151 2.675,1.755469 0.2578,0.626956 0.3866,1.487267 0.3866,2.580953 l 0,5.49629 1.8809,0 0,-11.19111 -1.7764,0 0.0209,1.650977 c -0.2438,-0.424937 -0.5468,-0.78369 -0.9091,-1.07627 -0.7175,-0.585159 -1.5882,-0.877734 -2.6123,-0.877734 -1.5952,0 -2.6819,0.532904 -3.2601,1.59873 -0.3135,0.571227 -0.4702,1.334012 -0.4702,2.288379 l 0,7.607028 1.9226,0 z m 10.9358,-7.680172 c 0.0557,-0.626957 0.2124,-1.107616 0.4702,-1.441993 0.4737,-0.606057 1.2957,-0.909082 2.466,-0.909082 0.6966,0 1.3096,0.151512 1.8391,0.454541 0.5294,0.303029 0.7941,0.771498 0.7941,1.40542 0,0.480667 -0.2125,0.846386 -0.6374,1.097168 -0.2717,0.153256 -0.8081,0.330891 -1.6092,0.53291 l -1.4942,0.376168 c -0.9544,0.23685 -1.658,0.50157 -2.1108,0.79414 -0.808,0.50854 -1.2121,1.21211 -1.2121,2.11075 0,1.05886 0.3814,1.91568 1.1442,2.5705 0.7628,0.65483 1.7886,0.98223 3.0773,0.98223 1.6858,0 2.9014,-0.49459 3.6468,-1.48379 0.4667,-0.62695 0.6931,-1.30266 0.6792,-2.02715 l -1.7764,0 c -0.0348,0.42494 -0.1846,0.81156 -0.4493,1.15987 -0.4319,0.4946 -1.1807,0.74189 -2.2466,0.74189 -0.7105,0 -1.2487,-0.13584 -1.6144,-0.40752 -0.3657,-0.27168 -0.5486,-0.63043 -0.5486,-1.07627 0,-0.48763 0.2404,-0.87773 0.721,-1.17031 0.2787,-0.17415 0.6897,-0.32741 1.233,-0.45977 l 1.2435,-0.30302 c 1.3514,-0.32741 2.257,-0.64437 2.7168,-0.95088 0.7314,-0.48067 1.0972,-1.236487 1.0972,-2.267482 0,-0.996164 -0.3779,-1.856474 -1.1338,-2.580957 -0.7558,-0.724483 -1.9069,-1.086719 -3.4534,-1.086719 -1.665,0 -2.844,0.37791 -3.5371,1.13374 -0.6931,0.755831 -1.0641,1.691027 -1.1128,2.805616 0,0 0.0487,-1.114589 0,0 l 1.8077,0 z m 16.3484,7.371922 c 0.7454,-0.37269 1.3131,-0.85509 1.7032,-1.44722 0.3762,-0.56426 0.627,-1.22255 0.7524,-1.9749 0.1114,-0.5155 0.1672,-1.33749 0.1672,-2.466013 l -8.2027,0 c 0.0349,-1.135488 0.3031,-2.046302 0.8046,-2.732471 0.5016,-0.686169 1.2783,-1.029248 2.3302,-1.029248 0.9822,0 1.7659,0.323922 2.3511,0.971777 0.3343,0.376174 0.5712,0.811554 0.7105,1.306153 l 1.8495,0 C 260.1711,8.099933 260.0091,7.641913 259.7339,7.136865 259.4588,6.631817 259.1505,6.219077 258.8092,5.898633 258.238,5.341338 257.5309,4.96517 256.688,4.770117 256.2352,4.658658 255.7232,4.60293 255.152,4.60293 c -1.3933,0 -2.574,0.506782 -3.5423,1.520361 -0.9683,1.013579 -1.4525,2.432917 -1.4525,4.258059 0,1.79727 0.4877,3.25667 1.4629,4.37822 0.9753,1.12156 2.2501,1.68232 3.8244,1.68232 0.7942,0 1.5639,-0.18634 2.3093,-0.55903 0,0 -0.7454,0.37269 0,0 z m 0.6897,-4.3939 c -0.0767,0.81505 -0.2543,1.46638 -0.533,1.95401 -0.5155,0.9056 -1.3758,1.3584 -2.5809,1.3584 -0.8638,0 -1.5883,-0.31173 -2.1734,-0.93521 -0.5852,-0.62347 -0.8952,-1.41586 -0.93,-2.3772 0,0 0.0348,0.96134 0,0 l 6.2173,0 z m 4.4154,7.82647 1.9017,0 0,-3.12432 1.7869,0 0,-1.53603 -1.7869,0 0,-7.304006 c 0,-0.390106 0.1324,-0.651334 0.3971,-0.783691 0.1463,-0.076628 0.3901,-0.114942 0.7315,-0.114942 0.0905,0 0.188,0.00174 0.2925,0.00522 0.1045,0.00348 0.2264,0.012191 0.3658,0.026123 L 266.5475,5 c -0.216,-0.062696 -0.4406,-0.107975 -0.674,-0.13584 -0.2334,-0.027865 -0.4859,-0.041797 -0.7576,-0.041797 -0.8777,0 -1.4733,0.224656 -1.7868,0.673975 -0.3135,0.449319 -0.4702,1.032727 -0.4702,1.750244 l 0,7.408498 -1.5152,0 0,1.53603 1.5152,0 0,3.12432 z m 5.7425,0 1.9017,0 0,-3.12432 1.7868,0 0,-1.53603 -1.7868,0 0,-7.304006 c 0,-0.390106 0.1324,-0.651334 0.3971,-0.783691 0.1463,-0.076628 0.3901,-0.114942 0.7314,-0.114942 0.0906,0 0.1881,0.00174 0.2926,0.00522 0.1045,0.00348 0.2264,0.012191 0.3657,0.026123 L 272.2899,5 c -0.2159,-0.062696 -0.4406,-0.107975 -0.6739,-0.13584 -0.2334,-0.027865 -0.4859,-0.041797 -0.7576,-0.041797 -0.8777,0 -1.4733,0.224656 -1.7868,0.673975 -0.3135,0.449319 -0.4702,1.032727 -0.4702,1.750244 l 0,7.408498 -1.5152,0 0,1.53603 1.5152,0 0,3.12432 z m 6.4843,-10.804492 c 0.0558,-0.626957 0.2125,-1.107616 0.4703,-1.441993 0.4737,-0.606057 1.2957,-0.909082 2.466,-0.909082 0.6966,0 1.3096,0.151512 1.839,0.454541 0.5295,0.303029 0.7942,0.771498 0.7942,1.40542 0,0.480667 -0.2125,0.846386 -0.6374,1.097168 -0.2717,0.153256 -0.8081,0.330891 -1.6092,0.53291 l -1.4942,0.376168 c -0.9544,0.23685 -1.658,0.50157 -2.1108,0.79414 -0.8081,0.50854 -1.2121,1.21211 -1.2121,2.11075 0,1.05886 0.3814,1.91568 1.1442,2.5705 0.7628,0.65483 1.7885,0.98223 3.0773,0.98223 1.6858,0 2.9014,-0.49459 3.6468,-1.48379 0.4667,-0.62695 0.6931,-1.30266 0.6792,-2.02715 l -1.7764,0 c -0.0348,0.42494 -0.1846,0.81156 -0.4493,1.15987 -0.4319,0.4946 -1.1808,0.74189 -2.2466,0.74189 -0.7106,0 -1.2487,-0.13584 -1.6144,-0.40752 -0.3657,-0.27168 -0.5486,-0.63043 -0.5486,-1.07627 0,-0.48763 0.2403,-0.87773 0.721,-1.17031 0.2787,-0.17415 0.6897,-0.32741 1.233,-0.45977 l 1.2435,-0.30302 c 1.3514,-0.32741 2.257,-0.64437 2.7168,-0.95088 0.7314,-0.48067 1.0971,-1.236487 1.0971,-2.267482 0,-0.996164 -0.3779,-1.856474 -1.1337,-2.580957 -0.7558,-0.724483 -1.907,-1.086719 -3.4535,-1.086719 -1.6649,0 -2.8439,0.37791 -3.537,1.13374 -0.6932,0.755831 -1.0641,1.691027 -1.1129,2.805616 0,0 0.0488,-1.114589 0,0 l 1.8077,0 z m 15.8423,11.838962 2.1003,0 0,-15.3499 -2.1003,0 0,15.3499 z m 5.0215,-4.15879 1.7868,0 0,-1.58828 c 0.5295,0.65482 1.0902,1.12503 1.6824,1.41065 0.5921,0.28561 1.2504,0.42841 1.9749,0.42841 1.5882,0 2.661,-0.5538 3.2183,-1.66142 0.3065,-0.60606 0.4598,-1.47334 0.4598,-2.60186 l 0,-7.17861 -1.9122,0 0,7.05322 c 0,0.68269 -0.101,1.23301 -0.3031,1.65098 -0.3343,0.69662 -0.9404,1.04492 -1.8181,1.04492 -0.4459,0 -0.8116,-0.04528 -1.0972,-0.13584 -0.5155,-0.15325 -0.9683,-0.45976 -1.3584,-0.91953 -0.3135,-0.36921 -0.5172,-0.7506 -0.6113,-1.14419 -0.094,-0.39359 -0.141,-0.9561 -0.141,-1.68755 l 0,-5.86201 -1.8809,0 0,11.19111 z m 12.8166,-7.680172 c 0.0557,-0.626957 0.2125,-1.107616 0.4702,-1.441993 0.4737,-0.606057 1.2957,-0.909082 2.466,-0.909082 0.6967,0 1.3097,0.151512 1.8391,0.454541 0.5294,0.303029 0.7941,0.771498 0.7941,1.40542 0,0.480667 -0.2124,0.846386 -0.6374,1.097168 -0.2716,0.153256 -0.808,0.330891 -1.6091,0.53291 l -1.4943,0.376168 c -0.9543,0.23685 -1.6579,0.50157 -2.1107,0.79414 -0.8081,0.50854 -1.2121,1.21211 -1.2121,2.11075 0,1.05886 0.3814,1.91568 1.1442,2.5705 0.7628,0.65483 1.7885,0.98223 3.0773,0.98223 1.6858,0 2.9014,-0.49459 3.6467,-1.48379 0.4668,-0.62695 0.6932,-1.30266 0.6792,-2.02715 l -1.7763,0 c -0.0349,0.42494 -0.1846,0.81156 -0.4493,1.15987 -0.432,0.4946 -1.1808,0.74189 -2.2466,0.74189 -0.7106,0 -1.2487,-0.13584 -1.6144,-0.40752 -0.3658,-0.27168 -0.5486,-0.63043 -0.5486,-1.07627 0,-0.48763 0.2403,-0.87773 0.721,-1.17031 0.2786,-0.17415 0.6896,-0.32741 1.233,-0.45977 l 1.2434,-0.30302 c 1.3515,-0.32741 2.2571,-0.64437 2.7168,-0.95088 0.7315,-0.48067 1.0972,-1.236487 1.0972,-2.267482 0,-0.996164 -0.3779,-1.856474 -1.1337,-2.580957 -0.7559,-0.724483 -1.907,-1.086719 -3.4535,-1.086719 -1.6649,0 -2.8439,0.37791 -3.5371,1.13374 -0.6931,0.755831 -1.064,1.691027 -1.1128,2.805616 0,0 0.0488,-1.114589 0,0 l 1.8077,0 z m 9.755,10.804492 1.9018,0 0,-3.12432 1.7868,0 0,-1.53603 -1.7868,0 0,-7.304006 c 0,-0.390106 0.1323,-0.651334 0.397,-0.783691 0.1463,-0.076628 0.3901,-0.114942 0.7315,-0.114942 0.0905,0 0.1881,0.00174 0.2925,0.00522 0.1045,0.00348 0.2264,0.012191 0.3658,0.026123 L 322.2097,5 c -0.216,-0.062696 -0.4406,-0.107975 -0.674,-0.13584 -0.2334,-0.027865 -0.4859,-0.041797 -0.7576,-0.041797 -0.8777,0 -1.4733,0.224656 -1.7868,0.673975 -0.3135,0.449319 -0.4702,1.032727 -0.4702,1.750244 l 0,7.408498 -1.5151,0 0,1.53603 1.5151,0 0,3.12432 z m 5.3663,-3.17656 1.9122,0 0,-11.13887 -1.9122,0 0,11.13887 z m 0,4.21103 1.9122,0 0,-2.13164 -1.9122,0 0,2.13164 z m 4.9274,-1.03447 1.9018,0 0,-3.12432 1.7868,0 0,-1.53603 -1.7868,0 0,-7.304006 c 0,-0.390106 0.1324,-0.651334 0.3971,-0.783691 0.1463,-0.076628 0.3901,-0.114942 0.7314,-0.114942 0.0906,0 0.1881,0.00174 0.2926,0.00522 0.1045,0.00348 0.2264,0.012191 0.3657,0.026123 L 332.5034,5 c -0.2159,-0.062696 -0.4406,-0.107975 -0.674,-0.13584 -0.2333,-0.027865 -0.4858,-0.041797 -0.7575,-0.041797 -0.8778,0 -1.4734,0.224656 -1.7868,0.673975 -0.3135,0.449319 -0.4703,1.032727 -0.4703,1.750244 l 0,7.408498 -1.5151,0 0,1.53603 1.5151,0 0,3.12432 z m 7.2472,-3.12432 0,-7.429391 c 0,-0.571227 0.0906,-1.037954 0.2717,-1.400196 0.3344,-0.668753 0.9578,-1.003125 1.8704,-1.003125 1.3096,0 2.2013,0.585151 2.675,1.755469 0.2577,0.626956 0.3866,1.487267 0.3866,2.580953 l 0,5.49629 1.8809,0 0,-11.19111 -1.7764,0 0.0209,1.650977 c -0.2438,-0.424937 -0.5468,-0.78369 -0.9091,-1.07627 -0.7175,-0.585159 -1.5882,-0.877734 -2.6123,-0.877734 -1.5952,0 -2.6819,0.532904 -3.2601,1.59873 -0.3135,0.571227 -0.4702,1.334012 -0.4702,2.288379 l 0,7.607028 1.9226,0 z m 10.1939,3.12432 1.9017,0 0,-3.12432 1.7868,0 0,-1.53603 -1.7868,0 0,-7.304006 c 0,-0.390106 0.1324,-0.651334 0.3971,-0.783691 0.1463,-0.076628 0.3901,-0.114942 0.7314,-0.114942 0.0906,0 0.1881,0.00174 0.2926,0.00522 0.1045,0.00348 0.2264,0.012191 0.3657,0.026123 L 349.9444,5 c -0.2159,-0.062696 -0.4406,-0.107975 -0.6739,-0.13584 -0.2334,-0.027865 -0.4859,-0.041797 -0.7576,-0.041797 -0.8777,0 -1.4733,0.224656 -1.7868,0.673975 -0.3135,0.449319 -0.4702,1.032727 -0.4702,1.750244 l 0,7.408498 -1.5152,0 0,1.53603 1.5152,0 0,3.12432 z m 12.3359,-3.43257 c 0.7454,-0.37269 1.3131,-0.85509 1.7032,-1.44722 0.3762,-0.56426 0.627,-1.22255 0.7524,-1.9749 0.1114,-0.5155 0.1672,-1.33749 0.1672,-2.466013 l -8.2027,0 c 0.0348,-1.135488 0.303,-2.046302 0.8046,-2.732471 0.5016,-0.686169 1.2783,-1.029248 2.3302,-1.029248 0.9822,0 1.7659,0.323922 2.3511,0.971777 0.3343,0.376174 0.5712,0.811554 0.7105,1.306153 l 1.8495,0 C 361.009,8.099933 360.8471,7.641913 360.5719,7.136865 360.2968,6.631817 359.9885,6.219077 359.6472,5.898633 359.0759,5.341338 358.3689,4.96517 357.526,4.770117 357.0732,4.658658 356.5612,4.60293 355.9899,4.60293 c -1.3932,0 -2.5739,0.506782 -3.5422,1.520361 -0.9683,1.013579 -1.4525,2.432917 -1.4525,4.258059 0,1.79727 0.4876,3.25667 1.4629,4.37822 0.9753,1.12156 2.2501,1.68232 3.8244,1.68232 0.7942,0 1.5639,-0.18634 2.3093,-0.55903 0,0 -0.7454,0.37269 0,0 z m 0.6896,-4.3939 c -0.0766,0.81505 -0.2542,1.46638 -0.5329,1.95401 -0.5155,0.9056 -1.3758,1.3584 -2.5809,1.3584 -0.8638,0 -1.5883,-0.31173 -2.1735,-0.93521 -0.5851,-0.62347 -0.8951,-1.41586 -0.9299,-2.3772 0,0 0.0348,0.96134 0,0 l 6.2172,0 z m 17.9531,3.58409 c 0.9961,-0.96134 1.4942,-2.37545 1.4942,-4.24239 0,-1.804237 -0.4389,-3.294977 -1.3166,-4.472262 -0.8777,-1.177284 -2.2396,-1.765918 -4.0856,-1.765918 -1.5396,0 -2.7621,0.520715 -3.6677,1.562159 -0.9056,1.041444 -1.3584,2.439883 -1.3584,4.195361 0,1.88087 0.4772,3.37858 1.4315,4.49316 0.9544,1.11459 2.2362,1.67188 3.8453,1.67188 1.442,0 2.6611,-0.48066 3.6573,-1.44199 0,0 -0.9962,0.96133 0,0 z m -1.1651,-7.445071 c 0.4632,0.943917 0.6949,1.994053 0.6949,3.150441 0,1.04493 -0.1672,1.89479 -0.5016,2.54961 -0.5294,1.03099 -1.442,1.54648 -2.7377,1.54648 -1.1494,0 -1.9853,-0.43886 -2.5078,-1.3166 -0.5225,-0.87774 -0.7837,-1.93658 -0.7837,-3.17656 0,-1.191219 0.2612,-2.183885 0.7837,-2.97803 0.5225,-0.794144 1.3514,-1.191211 2.4869,-1.191211 1.2469,0 2.102,0.471952 2.5653,1.41587 0,0 -0.4633,-0.943918 0,0 z m 5.5701,11.980031 c 0.4388,0.64089 1.2852,0.96133 2.5391,0.96133 0.1184,0 0.2403,-0.0035 0.3657,-0.01045 0.1254,-0.007 0.2682,-0.01742 0.4285,-0.03135 l 0,-1.71367 c -0.1951,0.01393 -0.3362,0.02264 -0.4232,0.02612 -0.0871,0.0035 -0.169,0.0052 -0.2456,0.0052 -0.5712,0 -0.9126,-0.14802 -1.024,-0.44409 -0.1115,-0.29606 -0.1672,-1.05014 -0.1672,-2.26225 l 1.86,0 0,-1.48379 -1.8809,0 0,-9.65508 -1.86,0 0,9.65508 -1.5569,0 0,1.48379 1.5569,0 0,1.75547 c 0.0279,0.78021 0.1637,1.35143 0.4076,1.71367 0,0 -0.2439,-0.36224 0,0 z m 21.652,0.74189 0,-1.82861 -5.1724,0 0,-13.52129 -2.1107,0 0,13.52129 -5.1724,0 0,1.82861 12.4555,0 z m 6.0455,-4.46704 c 0.7454,-0.37269 1.3131,-0.85509 1.7032,-1.44722 0.3762,-0.56426 0.627,-1.22255 0.7524,-1.9749 0.1114,-0.5155 0.1672,-1.33749 0.1672,-2.466013 l -8.2027,0 c 0.0349,-1.135488 0.3031,-2.046302 0.8046,-2.732471 0.5016,-0.686169 1.2783,-1.029248 2.3302,-1.029248 0.9822,0 1.7659,0.323922 2.3511,0.971777 0.3343,0.376174 0.5712,0.811554 0.7105,1.306153 l 1.8495,0 C 411.7543,8.099933 411.5923,7.641913 411.3171,7.136865 411.042,6.631817 410.7337,6.219077 410.3924,5.898633 409.8212,5.341338 409.1141,4.96517 408.2712,4.770117 407.8184,4.658658 407.3064,4.60293 406.7352,4.60293 c -1.3933,0 -2.574,0.506782 -3.5423,1.520361 -0.9683,1.013579 -1.4525,2.432917 -1.4525,4.258059 0,1.79727 0.4877,3.25667 1.4629,4.37822 0.9753,1.12156 2.2501,1.68232 3.8244,1.68232 0.7942,0 1.5639,-0.18634 2.3093,-0.55903 0,0 -0.7454,0.37269 0,0 z m 0.6897,-4.3939 c -0.0767,0.81505 -0.2543,1.46638 -0.533,1.95401 -0.5154,0.9056 -1.3758,1.3584 -2.5809,1.3584 -0.8638,0 -1.5883,-0.31173 -2.1734,-0.93521 -0.5852,-0.62347 -0.8952,-1.41586 -0.93,-2.3772 0,0 0.0348,0.96134 0,0 l 6.2173,0 z m 11.432,4.10655 c 0.7907,-0.61303 1.2661,-1.66839 1.4264,-3.16612 l -1.8287,0 c -0.1114,0.68966 -0.3657,1.26262 -0.7627,1.7189 -0.3971,0.45629 -1.0345,0.68442 -1.9123,0.68442 -1.1981,0 -2.055,-0.58515 -2.5705,-1.75546 -0.3343,-0.75932 -0.5015,-1.69625 -0.5015,-2.81084 0,-1.121559 0.2368,-2.065462 0.7105,-2.831742 0.4737,-0.76628 1.2191,-1.149414 2.2362,-1.149414 0.7802,0 1.3984,0.238588 1.8547,0.715771 0.4563,0.477184 0.7715,1.130253 0.9456,1.959229 l 1.8287,0 c -0.209,-1.483797 -0.7315,-2.568763 -1.5674,-3.254932 -0.836,-0.686169 -1.9053,-1.029248 -3.2079,-1.029248 -1.4629,0 -2.6298,0.534647 -3.5005,1.603955 -0.8708,1.069309 -1.3062,2.405054 -1.3062,4.007271 0,1.96447 0.4772,3.49352 1.4316,4.58721 0.9543,1.09369 2.1699,1.64053 3.6467,1.64053 1.2609,0 2.2867,-0.30651 3.0773,-0.91953 0,0 -0.7906,0.61302 0,0 z m 3.1041,4.80664 1.8809,0 0,-5.72617 c 0.4458,0.56426 0.8463,0.96132 1.2016,1.19121 0.6061,0.39707 1.3619,0.5956 2.2675,0.5956 1.6231,0 2.7238,-0.56773 3.3019,-1.70322 0.3135,-0.61999 0.4703,-1.4803 0.4703,-2.58096 l 0,-7.17861 -1.9331,0 0,7.05322 c 0,0.82201 -0.1045,1.42458 -0.3135,1.80772 -0.3414,0.61302 -0.9822,0.91953 -1.9227,0.91953 -0.7802,0 -1.4872,-0.2682 -2.1212,-0.80459 -0.6339,-0.5364 -0.9508,-1.54996 -0.9508,-3.04072 l 0,-5.93516 -1.8809,0 0,15.40215 z m 11.6985,-4.21104 1.7868,0 0,-1.58828 c 0.5295,0.65482 1.0902,1.12503 1.6824,1.41065 0.5921,0.28561 1.2504,0.42841 1.9749,0.42841 1.5883,0 2.661,-0.5538 3.2183,-1.66142 0.3065,-0.60606 0.4598,-1.47334 0.4598,-2.60186 l 0,-7.17861 -1.9122,0 0,7.05322 c 0,0.68269 -0.101,1.23301 -0.303,1.65098 -0.3344,0.69662 -0.9405,1.04492 -1.8182,1.04492 -0.4458,0 -0.8116,-0.04528 -1.0972,-0.13584 -0.5155,-0.15325 -0.9683,-0.45976 -1.3584,-0.91953 -0.3134,-0.36921 -0.5172,-0.7506 -0.6112,-1.14419 -0.0941,-0.39359 -0.1411,-0.9561 -0.1411,-1.68755 l 0,-5.86201 -1.8809,0 0,11.19111 z m 19.8699,-1.11806 c 0.9961,-0.96134 1.4942,-2.37545 1.4942,-4.24239 0,-1.804237 -0.4389,-3.294977 -1.3166,-4.472262 -0.8778,-1.177284 -2.2396,-1.765918 -4.0857,-1.765918 -1.5395,0 -2.762,0.520715 -3.6676,1.562159 -0.9056,1.041444 -1.3584,2.439883 -1.3584,4.195361 0,1.88087 0.4771,3.37858 1.4315,4.49316 0.9544,1.11459 2.2361,1.67188 3.8453,1.67188 1.442,0 2.6611,-0.48066 3.6573,-1.44199 0,0 -0.9962,0.96133 0,0 z m -1.1651,-7.445071 c 0.4632,0.943917 0.6948,1.994053 0.6948,3.150441 0,1.04493 -0.1671,1.89479 -0.5015,2.54961 -0.5295,1.03099 -1.442,1.54648 -2.7377,1.54648 -1.1494,0 -1.9854,-0.43886 -2.5078,-1.3166 -0.5225,-0.87774 -0.7837,-1.93658 -0.7837,-3.17656 0,-1.191219 0.2612,-2.183885 0.7837,-2.97803 0.5224,-0.794144 1.3514,-1.191211 2.4869,-1.191211 1.2469,0 2.102,0.471952 2.5653,1.41587 0,0 -0.4633,-0.943918 0,0 z m 4.7445,12.721921 1.8809,0 0,-15.3499 -1.8809,0 0,15.3499 z m 12.6704,-5.27685 c 0.9961,-0.96134 1.4942,-2.37545 1.4942,-4.24239 0,-1.804237 -0.4389,-3.294977 -1.3166,-4.472262 -0.8777,-1.177284 -2.2396,-1.765918 -4.0857,-1.765918 -1.5395,0 -2.762,0.520715 -3.6676,1.562159 -0.9056,1.041444 -1.3584,2.439883 -1.3584,4.195361 0,1.88087 0.4772,3.37858 1.4315,4.49316 0.9544,1.11459 2.2361,1.67188 3.8453,1.67188 1.442,0 2.6611,-0.48066 3.6573,-1.44199 0,0 -0.9962,0.96133 0,0 z m -1.1651,-7.445071 c 0.4632,0.943917 0.6948,1.994053 0.6948,3.150441 0,1.04493 -0.1671,1.89479 -0.5015,2.54961 -0.5295,1.03099 -1.442,1.54648 -2.7377,1.54648 -1.1494,0 -1.9854,-0.43886 -2.5078,-1.3166 -0.5225,-0.87774 -0.7837,-1.93658 -0.7837,-3.17656 0,-1.191219 0.2612,-2.183885 0.7837,-2.97803 0.5224,-0.794144 1.3514,-1.191211 2.4869,-1.191211 1.2469,0 2.102,0.471952 2.5653,1.41587 0,0 -0.4633,-0.943918 0,0 z m 10.9409,8.113821 c 0.3553,-0.24382 0.7175,-0.59909 1.0868,-1.06582 l 0,1.41064 1.7345,0 0,-10.177538 c 0,-1.421101 -0.209,-2.542639 -0.6269,-3.364648 -0.7802,-1.518628 -2.2536,-2.2779301 -4.42,-2.2779301 -1.2052,0 -2.2188,0.2699355 -3.0408,0.8098141 -0.822,0.539879 -1.2817,1.384516 -1.3793,2.533936 l 1.9122,0 c 0.0906,-0.501565 0.2717,-0.888182 0.5434,-1.159863 0.4249,-0.417971 1.0937,-0.626953 2.0062,-0.626953 1.442,0 2.386,0.508523 2.8318,1.525585 0.2647,0.599092 0.3866,1.668385 0.3657,3.207911 -0.3762,-0.571227 -0.829,-0.996158 -1.3584,-1.274805 -0.5294,-0.278647 -1.2295,-0.417969 -2.1003,-0.417969 -1.2121,0 -2.2727,0.430155 -3.1818,1.290479 -0.9091,0.860323 -1.3636,2.283144 -1.3636,4.268501 0,1.87391 0.458,3.33678 1.3741,4.38868 0.916,1.05189 2.0219,1.57783 3.3176,1.57783 0.8777,0 1.644,-0.21595 2.2988,-0.64785 0,0 -0.6548,0.4319 0,0 z m 0.2299,-2.0167 c -0.5712,0.66875 -1.2992,1.00312 -2.1839,1.00312 -1.3235,0 -2.2291,-0.61998 -2.7168,-1.85996 -0.2577,-0.66179 -0.3866,-1.52906 -0.3866,-2.60185 0,-1.260882 0.256,-2.220459 0.768,-2.878764 0.512,-0.658304 1.1999,-0.987451 2.0638,-0.987451 1.3514,0 2.3023,0.609532 2.8526,1.828614 0.3065,0.689651 0.4598,1.494233 0.4598,2.413771 0,1.38627 -0.2857,2.41376 -0.8569,3.08252 0,0 0.5712,-0.66876 0,0 z m 12.2106,2.46601 2.0794,0 c -0.2648,-0.71751 -0.8534,-2.35454 -1.766,-4.91113 -0.6826,-1.922665 -1.2539,-3.490033 -1.7136,-4.702148 -1.0868,-2.856134 -1.853,-4.597653 -2.2989,-5.224609 -0.4458,-0.6269566 -1.2121,-0.94043 -2.2988,-0.94043 -0.2647,0 -0.4685,0.0104491 -0.6113,0.0313476 -0.1428,0.0208986 -0.3187,0.059212 -0.5277,0.1149414 l 0,1.713672 c 0.3275,-0.09056 0.5643,-0.146289 0.7106,-0.167188 0.1463,-0.020898 0.2752,-0.031347 0.3866,-0.031347 0.3483,0 0.6043,0.05747 0.768,0.172412 0.1637,0.114942 0.3013,0.256005 0.4128,0.423193 0.0348,0.05573 0.1602,0.341339 0.3761,0.856836 0.216,0.515498 0.3727,0.898632 0.4703,1.149414 l -4.1379,11.515036 2.1316,0 2.9989,-9.111715 3.0199,9.111715 z"
         inkscape:connector-curvature="0" />
    </clipPath>
    <clipPath
       id="clipPath3327"
       clipPathUnits="userSpaceOnUse">
      <path
         id="path3329"
         clip-rule="evenodd"
         d="m 79.2886,81.2886 c 7.6152,-7.6153 7.6152,-19.962 0,-27.5772 -7.6152,-7.6152 -19.962,-7.6152 -27.5772,0 -7.6152,7.6152 -7.6152,19.9619 0,27.5772 7.6152,7.6152 19.962,7.6152 27.5772,0"
         inkscape:connector-curvature="0" />
    </clipPath>
    <clipPath
       id="clipPath3317"
       clipPathUnits="userSpaceOnUse">
      <path
         id="path3319"
         clip-rule="evenodd"
         d="m 33.78858,126.2886 c 7.61523,-7.6153 7.61523,-19.9619 0,-27.5772 -7.61521,-7.6152 -19.96194,-7.6152 -27.57716,0 -7.61523,7.6153 -7.61523,19.9619 0,27.5772 7.61522,7.6152 19.96195,7.6152 27.57716,0"
         inkscape:connector-curvature="0" />
    </clipPath>
    <clipPath
       id="clipPath3307"
       clipPathUnits="userSpaceOnUse">
      <path
         id="path3309"
         clip-rule="evenodd"
         d="m 48,130 35,0 0,-35 -35,0 0,0 0,35 0,0 z"
         inkscape:connector-curvature="0" />
    </clipPath>
    <clipPath
       id="clipPath3297"
       clipPathUnits="userSpaceOnUse">
      <path
         id="path3299"
         clip-rule="evenodd"
         d="m 94,130 35,0 0,-35 -35,0 0,0 0,35 0,0 z"
         inkscape:connector-curvature="0" />
    </clipPath>
    <clipPath
       id="clipPath3287"
       clipPathUnits="userSpaceOnUse">
      <path
         id="path3289"
         clip-rule="evenodd"
         d="m 94,85 35,0 0,-35 -35,0 0,0 0,35 0,0 z"
         inkscape:connector-curvature="0" />
    </clipPath>
    <clipPath
       id="clipPath3277"
       clipPathUnits="userSpaceOnUse">
      <path
         id="path3279"
         clip-rule="evenodd"
         d="m 3,85 35,0 0,-35 -35,0 0,0 0,35 0,0 z"
         inkscape:connector-curvature="0" />
    </clipPath>
    <clipPath
       id="clipPath3267"
       clipPathUnits="userSpaceOnUse">
      <path
         id="path3269"
         clip-rule="evenodd"
         d="M 3,40 38,40 38,5 3,5 3,5 3,40 3,40 z"
         inkscape:connector-curvature="0" />
    </clipPath>
    <clipPath
       id="clipPath3257"
       clipPathUnits="userSpaceOnUse">
      <path
         id="path3259"
         clip-rule="evenodd"
         d="m 48,40 35,0 0,-35 -35,0 0,0 0,35 0,0 z"
         inkscape:connector-curvature="0" />
    </clipPath>
    <clipPath
       id="clipPath3247"
       clipPathUnits="userSpaceOnUse">
      <path
         id="path3249"
         clip-rule="evenodd"
         d="m 94,40 35,0 0,-35 -35,0 0,0 0,35 0,0 z"
         inkscape:connector-curvature="0" />
    </clipPath>
    <clipPath
       id="clipPath3589"
       clipPathUnits="userSpaceOnUse">
      <path
         id="path3591"
         d="M 0,0 595,0 595,842 0,842 0,0 z"
         inkscape:connector-curvature="0" />
    </clipPath>
    <clipPath
       id="clipPath3569"
       clipPathUnits="userSpaceOnUse">
      <path
         id="path3571"
         d="m 0,380.9108 595,0 0,25 -595,0 0,-25 z"
         inkscape:connector-curvature="0" />
    </clipPath>
    <clipPath
       id="clipPath3557"
       clipPathUnits="userSpaceOnUse">
      <path
         id="path3559"
         d="M 0,0 595,0 595,842 0,842 0,0 z"
         inkscape:connector-curvature="0" />
    </clipPath>
    <clipPath
       id="clipPath3691"
       clipPathUnits="userSpaceOnUse">
      <path
         id="path3693"
         d="M 0,0 595,0 595,842 0,842 0,0 z"
         inkscape:connector-curvature="0" />
    </clipPath>
    <clipPath
       id="clipPath3671"
       clipPathUnits="userSpaceOnUse">
      <path
         id="path3673"
         d="m 0,380.9108 595,0 0,25 -595,0 0,-25 z"
         inkscape:connector-curvature="0" />
    </clipPath>
    <clipPath
       id="clipPath3659"
       clipPathUnits="userSpaceOnUse">
      <path
         id="path3661"
         d="M 0,0 595,0 595,842 0,842 0,0 z"
         inkscape:connector-curvature="0" />
    </clipPath>
    <clipPath
       id="clipPath3761"
       clipPathUnits="userSpaceOnUse">
      <path
         id="path3763"
         d="M 0,0 595,0 595,842 0,842 0,0 z"
         inkscape:connector-curvature="0" />
    </clipPath>
    <clipPath
       id="clipPath3882"
       clipPathUnits="userSpaceOnUse">
      <path
         id="path3884"
         d="M 0,0 595,0 595,842 0,842 0,0 z"
         inkscape:connector-curvature="0" />
    </clipPath>
    <clipPath
       id="clipPath4009"
       clipPathUnits="userSpaceOnUse">
      <path
         id="path4011"
         clip-rule="evenodd"
         d="m 0.972,0.5000365 0.36,0 0,12.4020035 0.036,0 8.784,-12.4020035 0.54,0 0,12.8520035 -0.36,0 0,-12.4020035 -0.036,0 -8.784,12.4020035 -0.54,0 0,-12.8520035 z m 15.444,6.5159995 7.686,0 0,0.36 -7.686,0 0,5.616004 8.172,0 0,0.36 -8.532,0 0,-12.8520035 8.604,0 0,0.36 -8.244,0 0,6.1559995 z m 16.074,5.976004 0,-12.4920035 0.36,0 0,12.4920035 4.626,0 0,0.36 -9.612,0 0,-0.36 4.626,0 z m 19.998,-12.0420035 -0.036,0 -3.762,12.4020035 -0.522,0 -3.708,-12.4020035 -0.036,0 -3.636,12.4020035 -0.378,0 3.798,-12.8520035 0.486,0 3.708,12.4020035 0.036,0 3.78,-12.4020035 0.486,0 3.726,12.8520035 -0.36,0 -3.582,-12.4020035 z m 7.758,5.9759995 c 0,-3.654 2.07,-6.7319995 5.922,-6.7319995 3.852,0 5.922,3.0779995 5.922,6.7319995 0,3.654004 -2.07,6.732004 -5.922,6.732004 -3.852,0 -5.922,-3.078 -5.922,-6.732004 0,0 0,3.654004 0,0 z m 0.36,0 c 0.036,3.708004 2.106,6.372004 5.562,6.372004 3.456,0 5.526,-2.664 5.562,-6.372004 -0.036,-3.708 -2.106,-6.3719995 -5.562,-6.3719995 -3.456,0 -5.526,2.6639995 -5.562,6.3719995 0,0 0.036,-3.708 0,0 z m 16.79399,-0.396 4.842,0 c 2.952,0 3.402,-1.224 3.402,-3.33 0,-0.828 0.054,-2.16 0.27,-2.6999995 l 0.396,0 c -0.234,0.36 -0.306,1.8719995 -0.306,2.6459995 0,2.052 -0.36,3.276 -2.538,3.564 l 0,0.036 c 1.8,0.396 2.79,1.62 2.754,3.312004 -0.054,2.214 -1.278,3.294 -3.924,3.294 l -5.256,0 0,-12.8520035 0.36,0 0,6.0299995 z m 0,6.462004 4.986,0 c 2.448,0 3.456,-1.08 3.474,-2.898 0.018,-2.250004 -1.764,-3.204004 -3.654,-3.204004 l -4.806,0 0,6.102004 z m 17.37,-5.328004 6.37201,-7.1639995 0.486,0 -6.57001,7.3799995 6.21001,5.472004 -0.54,0 -8.91001,-7.812004 0,7.812004 -0.36,0 0,-12.8520035 0.36,0 0,4.5539995 2.952,2.61 z"
         inkscape:connector-curvature="0" />
    </clipPath>
    <inkscape:perspective
       id="perspective31"
       inkscape:persp3d-origin="372.04724 : 179.40944 : 1"
       inkscape:vp_z="744.09448 : 269.11417 : 1"
       inkscape:vp_y="0 : 1000 : 0"
       inkscape:vp_x="0 : 269.11417 : 1"
       sodipodi:type="inkscape:persp3d" />
    <clipPath
       id="clp19">
      <path
         id="path10161"
         d="m 0.06,737.1 581.16,0 0,-737.04 -581.16,0 0,737.04 z" />
    </clipPath>
    <clipPath
       id="clp16">
      <path
         id="path10105"
         d="m 0.06,737.1 581.16,0 0,-737.04 -581.16,0 0,737.04 z" />
    </clipPath>
    <clipPath
       id="clp63">
      <path
         id="path11432"
         d="m 0.06,737.1 581.16,0 0,-737.04 -581.16,0 0,737.04 z" />
    </clipPath>
  </defs>
  <sodipodi:namedview
     id="base"
     pagecolor="#a8a8a8"
     bordercolor="#666666"
     borderopacity="1.0"
     inkscape:pageopacity="0.84705882"
     inkscape:pageshadow="2"
     inkscape:zoom="4.1841748"
     inkscape:cx="263.81679"
     inkscape:cy="104.22535"
     inkscape:document-units="px"
     inkscape:current-layer="g3479"
     showgrid="false"
     units="px"
     fit-margin-top="5"
     fit-margin-left="5"
     fit-margin-right="5"
     fit-margin-bottom="5"
     inkscape:window-width="1301"
     inkscape:window-height="744"
     inkscape:window-x="65"
     inkscape:window-y="24"
     inkscape:window-maximized="1"
     showguides="true"
     inkscape:guide-bbox="true">
    <sodipodi:guide
       orientation="1,0"
       position="-761.32022,2093.0195"
       id="guide3228" />
    <sodipodi:guide
       orientation="0,1"
       position="288.64443,1840.7934"
       id="guide3230" />
    <sodipodi:guide
       orientation="0,1"
       position="435.28754,1482.9842"
       id="guide3232" />
    <sodipodi:guide
       position="14.339745,146.2654"
       orientation="1,0"
       id="guide3609" />
    <sodipodi:guide
       position="117.10792,98.705245"
       orientation="0,1"
       id="guide3443" />
  </sodipodi:namedview>
  <metadata
     id="metadata7">
    <rdf:RDF>
      <cc:Work
         rdf:about="">
        <dc:format>image/svg+xml</dc:format>
        <dc:type
           rdf:resource="http://purl.org/dc/dcmitype/StillImage" />
        <dc:title />
      </cc:Work>
    </rdf:RDF>
  </metadata>
  <g
     inkscape:label="Layer 1"
     inkscape:groupmode="layer"
     id="layer1"
     transform="translate(-209.09962,-26.13453)">
    <text
       xml:space="preserve"
       style="font-size:40px;font-style:normal;font-variant:normal;font-weight:normal;font-stretch:normal;line-height:135.00000238%;letter-spacing:0px;word-spacing:0px;fill:#000000;fill-opacity:1;stroke:none;font-family:Transport;-inkscape-font-specification:Transport"
       x="2805.8623"
       y="7716.1411"
       id="text3518"
       sodipodi:linespacing="135%"
       transform="translate(0,-9577.5601)"><tspan
         sodipodi:role="line"
         id="tspan3520"
         x="2805.8623"
         y="7716.1411" /></text>
    <g
       transform="matrix(1.25,0,0,-1.25,3499.1191,-2166.5682)"
       inkscape:label="network"
       id="g3874">
      <g
         id="g3876" />
    </g>
    <g
       style="font-size:100px;font-style:normal;font-variant:normal;font-weight:bold;font-stretch:normal;text-align:start;line-height:135.00000238%;letter-spacing:0px;word-spacing:0px;writing-mode:lr-tb;text-anchor:start;fill:#666666;fill-opacity:1;stroke:none;font-family:Museo Slab;-inkscape-font-specification:Museo Slab Bold"
       id="text4760">
      <g
         id="g3487"
         style="fill:#ffffff"
         transform="matrix(0.04731898,0,0,0.04731898,167.20669,227.38611)">
        <g
           style="fill:#ffffff"
           id="g3479"
           inkscape:label="ink_ext_XXXXXX"
           transform="matrix(5.5826602,0,0,-5.5826602,859.51975,-898.76819)">
          <g
             id="layer1-3"
             transform="matrix(1.0718836,0,0,-1.0718836,-2383.8351,-326.75209)">
            <g
               id="g3606"
               style="fill:#ffffff"
               transform="matrix(1.3174301,0,0,1.3174301,-81.353286,-257.58974)">
              <path
                 id="path9941"
                 style="fill:#ffffff;fill-rule:nonzero;stroke:none"
                 d="m 2108.7026,-266.82978 -2.9805,66.78189 c -0.2828,6.41422 4.4145,7.7347 10.2247,8.11199 l 0,2.26377 c -4.1123,-0.18859 -8.2251,-0.566 -12.3563,-0.566 -4.1129,0 -8.0932,0.37741 -12.2055,0.566 l 0,-2.26377 c 5.8291,-0.37729 9.9414,-1.69777 10.2248,-8.11199 l 3.1313,-63.19749 c 0.4154,-6.79141 -4.4145,-7.7347 -10.2247,-7.92335 l 0,-2.45246 c 3.5467,0 6.9614,0.18875 10.5075,0.18875 3.1131,0 6.0936,-0.18875 9.0742,-0.56599 l 23.5814,66.5933 23.9963,-66.5933 2.6977,0.37724 c 2.1316,0 4.414,0.18875 6.6781,0.18875 3.4147,0 6.8289,-0.18875 10.2247,-0.18875 l 0,2.45246 c -5.8102,0.18865 -10.3567,1.32065 -10.2247,7.92335 l 1.4334,63.19749 c 0.2834,6.41422 4.2448,7.7347 10.3573,8.11199 l 0,2.26377 -5.2446,-0.37724 c -3.1314,-0.18876 -6.1125,-0.37735 -9.2439,-0.37735 -3.1125,0 -6.2444,0.18859 -9.3758,0.37735 l -5.1126,0.37724 0,-2.26377 c 5.9805,-0.37729 10.3756,-1.69777 10.2247,-8.11199 l -0.9809,-66.78189 -26.7128,74.51659 -1.5466,0 -26.1472,-74.51659"
                 inkscape:connector-curvature="0" />
              <path
                 id="path9949"
                 style="fill:#ffffff;fill-rule:nonzero;stroke:none"
                 d="m 2251.0198,-240.60749 0,44.52135 c 0,4.15024 -5.8291,4.33895 -8.8096,4.52754 l 0,1.88647 c 4.2631,-0.18859 8.5079,-0.566 12.7716,-0.566 4.2632,0 8.5269,0.37741 12.79,0.566 l 0,-1.88647 c -4.8293,-0.3773 -8.9416,-0.94324 -8.9416,-6.60282 l 0,-25.09025 c 0,-7.16865 1.1318,-21.50606 10.7909,-22.26065 1.6974,-0.18864 4.2632,0.75459 4.3951,2.82977 0,1.13183 -0.5656,2.07506 -0.5656,3.20695 0,2.45246 2.2636,4.15029 4.546,4.33894 3.4147,0 4.9618,-3.01836 4.9618,-6.03666 0,-5.28223 -4.8293,-9.24399 -10.0739,-9.24399 -7.1123,0 -12.6397,4.90499 -14.6393,11.5077 0,-4.15035 -0.4148,-8.30059 -0.849,-12.26229 -4.9613,1.32059 -10.0739,2.64106 -15.186,2.82988 l 0,1.88647 c 5.1121,0.18859 8.8096,0 8.8096,5.84806"
                 inkscape:connector-curvature="0" />
              <path
                 id="path9951"
                 style="fill:#ffffff;fill-rule:nonzero;stroke:none"
                 d="m 2322.0276,-251.54914 -3.2822,6.22542 c -3.2639,-3.0183 -6.9426,-5.09359 -11.7719,-5.09359 -16.3372,0 -24.0151,16.22388 -24.0151,30.74994 0,14.33741 6.6781,31.12718 23.4301,31.12718 11.9415,0 17.9032,-9.99847 19.0349,-20.56288 l -4.8293,0 c -1.4151,7.92335 -4.2637,16.60123 -13.9034,16.60123 -13.5075,0 -14.9227,-17.16706 -14.9227,-27.16553 0,-9.43247 2.283,-27.73142 15.0547,-27.73142 8.9416,0 13.2053,7.73454 14.7712,15.28059 l 2.4144,0 0,-19.43094 -1.9807,0"
                 inkscape:connector-curvature="0" />
              <path
                 id="path9953"
                 style="fill:#ffffff;fill-rule:nonzero;stroke:none"
                 d="m 2374.6985,-209.29166 4.9807,0 c -1.8493,12.63947 -9.2255,20.75147 -22.2989,20.75147 -16.752,0 -23.43,-15.65794 -23.43,-30.18389 0,-14.52611 6.3952,-31.69323 23.43,-31.69323 16.3373,0 22.1475,14.71476 22.0155,28.86341 l -37.7865,0 c 0.3022,11.69619 1.8487,29.05206 17.1862,29.05206 9.81,0 14.6393,-8.11188 15.903,-16.78982 z m -2.9805,-16.60112 0,-1.69783 c -0.849,-8.86653 -3.6787,-19.61959 -14.6205,-19.61959 -10.3756,0 -14.6204,12.63953 -15.054,21.31742 l 29.6745,0"
                 inkscape:connector-curvature="0" />
              <path
                 id="path9955"
                 style="fill:#ffffff;fill-rule:nonzero;stroke:none"
                 d="m 2440.8958,-193.44507 0,1.69788 c -5.1126,0.75453 -9.9419,1.32047 -14.9221,2.8297 -0.717,-3.58435 -1.2831,-7.16865 -1.4151,-10.94159 -2.9805,6.60265 -8.6588,10.94159 -16.0539,10.94159 -15.9036,0 -21.8646,-17.54441 -21.8646,-30.74988 0,-13.20547 6.1124,-30.37253 21.8646,-30.37253 7.6779,0 12.0736,4.71618 15.6203,11.13029 l 0,-24.33577 c 0,-5.84811 -3.3959,-6.6027 -8.7914,-6.6027 l 0,-1.69788 1.5471,-0.37735 c 5.1121,-0.56589 10.0928,-1.13189 15.0541,-2.64112 l 0,72.44147 c 0,6.60266 2.283,8.67789 8.961,8.67789 z m -16.7708,-25.84501 c 0,-9.99841 -1.698,-27.35412 -15.0547,-27.35412 -12.7716,0 -14.0542,17.35571 -14.0542,26.59954 0,9.43252 1.1317,27.73147 14.4884,27.73147 13.4881,0 14.6205,-17.16712 14.6205,-26.97689"
                 inkscape:connector-curvature="0" />
              <path
                 id="path9957"
                 style="fill:#ffffff;fill-rule:nonzero;stroke:none"
                 d="m 2488.1902,-209.29166 4.9612,0 c -1.1317,12.63947 -9.6586,20.75147 -22.2983,20.75147 -16.62,0 -23.5809,-15.65794 -23.5809,-30.18389 0,-14.52611 6.5461,-31.69323 23.5809,-31.69323 16.4692,0 22.1475,14.71476 22.1475,28.86341 l -37.7677,0 c -0.1508,11.69619 1.9808,29.05206 17.0354,29.05206 9.6586,0 14.9221,-8.11188 15.9219,-16.78982 z m -2.8486,-16.60112 c -0.849,-9.24388 -3.1319,-21.31742 -14.6393,-21.31742 -10.3567,0 -13.9034,11.6963 -15.0352,20.18548 l -0.1508,1.13194 29.8253,0"
                 inkscape:connector-curvature="0" />
              <path
                 id="path9959"
                 style="fill:#ffffff;fill-rule:nonzero;stroke:none"
                 d="m 2503.3762,-188.54019 2.8297,-5.28223 c 4.1317,3.3957 9.5272,4.90493 14.7713,4.90493 10.0928,0 19.7519,-6.60281 19.7519,-17.54441 0,-8.30059 -5.6788,-12.45094 -12.9225,-15.28064 l -5.6782,-2.26377 c -5.1127,-1.88647 -13.3567,-4.71635 -13.3567,-11.50759 0,-6.79141 5.3954,-11.5077 12.2055,-11.5077 8.8102,0 12.3569,7.16876 13.2247,14.9034 l 2.4144,0 0,-19.0537 -1.9996,0 -1.698,4.71635 c -3.6975,-2.26388 -7.8098,-3.58435 -12.2243,-3.58435 -9.5078,0 -18.318,6.22541 -18.318,16.22382 0,19.99683 31.8255,14.14871 31.8255,29.24065 0,7.35741 -6.5461,12.26224 -13.5075,12.26224 -10.3568,0 -14.9033,-7.7347 -17.0348,-16.78988 l -2.5658,0.18876 0.1508,20.37412 2.1316,0"
                 inkscape:connector-curvature="0" />
              <path
                 id="path9975"
                 style="fill:#ffffff;fill-rule:nonzero;stroke:none"
                 d="m 2230.9856,-209.29166 4.9801,0 c -1.1506,12.63947 -9.6586,20.75147 -22.2983,20.75147 -16.7708,0 -23.43,-15.46924 -23.43,-30.18389 0,-14.52611 6.3758,-31.69323 23.43,-31.69323 16.4692,0 22.1475,14.71476 22.1475,28.86341 l -37.7677,0 c -0.1508,11.69619 1.9807,29.05206 17.0348,29.05206 9.5083,0 15.1866,-8.11188 15.9036,-16.78982 z m -2.8297,-16.60112 c -0.585,-9.24388 -3.2828,-21.31742 -14.7713,-21.31742 -10.8098,0 -13.9223,12.63953 -15.0546,21.31742 l 29.8259,0"
                 inkscape:connector-curvature="0" />
            </g>
            <path
               inkscape:connector-curvature="0"
               d="m 2615.4525,-524.14752 c 0,91.87224 -75.2903,167.14342 -167.1247,167.14342 -91.759,0 -167.1247,-75.27118 -167.1247,-167.14342 0,-91.87236 75.2903,-167.14355 167.1247,-167.14355 91.8909,0 167.1247,75.27119 167.1247,167.14355 z m -204.1566,18.67612 -0.2074,0.37741 0.5279,-0.18859 32.0141,-18.86494 -5.6783,-3.20712 -26.6563,21.88324 z m 146.1467,43.01218 0.6039,0 -0.3399,-0.56589 -97.1167,-65.27276 -7.3763,4.15035 104.229,61.6883 z m -110.1146,-178.65113 -0.264,-0.37724 -0.2833,0.37724 -6.7535,109.22812 6.0182,3.58436 1.2826,-112.81248 z m 101.2673,-0.94324 0.2074,0.566 c 7.9041,7.35735 15.3934,15.28065 22.1663,23.76983 21.0911,26.41099 32.0889,59.80194 32.0889,93.57024 0,26.59947 -7.1117,52.25588 -19.8268,75.45977 l 1.7356,3.20695 -3.6221,0.18859 c -27.788,46.40788 -78.8365,75.64858 -133.0168,75.64858 -54.2558,0 -105.0208,-29.05211 -132.8283,-75.64858 l -3.4142,-0.18859 1.4146,-3.20695 c -8.1115,-14.90341 -13.6772,-30.74994 -16.9594,-47.35106 l -0.3205,-0.37735 -0.2079,0.566 c 2.1509,17.54441 7.6972,34.71153 16.0732,50.36936 27.335,51.31265 78.308,81.49659 136.3179,81.49659 88.0614,0 159.8805,-72.25277 159.8805,-160.16331 0,-45.08735 -23.2416,-90.55183 -59.1417,-117.90607 l -0.5467,0 z m -102.8144,-33.01354 c -82.0433,1.50912 -148.2971,68.47977 -148.2971,150.9196 0,25.65625 7.0362,50.36942 18.695,73.00731 l 104.6815,-85.83554 8.5839,4.90494 -114.3406,83.9489 -0.4719,1.13194 1.2831,0 129.9986,-73.19601 -0.2645,26.2223 -126.7347,47.53965 c 26.8637,45.08724 77.0254,73.0073 129.4136,73.0073 52.6521,0 102.1539,-27.92006 129.3381,-73.0073 l -126.6592,-47.53965 -0.3394,-26.2223 130.3568,73.19601 1.1317,0 -0.5284,-0.94329 -114.4155,-84.13755 8.508,-4.90494 104.7569,85.83554 c 11.9981,-22.4493 18.8835,-47.35106 18.8835,-73.00731 0,-83.19447 -65.9705,-148.46724 -148.2782,-151.1083 l 21.9589,133.75248 -22.4303,13.20548 -1.6225,-149.41037 -0.6604,-0.75459 -0.6039,0.75459 -15.8088,140.92107 -8.4325,-4.71618 22.2983,-133.56378 z m -104.153,273.73033 c -32.4859,-32.63636 -51.181,-76.40307 -51.181,-122.81073 0,-86.96741 70.9324,-157.89966 157.8809,-157.89966 76.1576,0 141.0534,55.0856 160.0878,127.33848 l 0.3965,0.18859 0.2074,-0.3774 c -15.2055,-76.40301 -82.2512,-132.62043 -160.6917,-132.62043 -89.8159,0 -163.4272,73.5733 -163.4272,163.37042 0,47.3509 21.0346,92.06084 56.3874,123.37673 l 0.4718,0 -0.1319,-0.566"
               style="fill:#ffffff;fill-rule:nonzero;stroke:none"
               id="path9979" />
          </g>
          <g
             transform="matrix(1,0,0,-1,0,7.5710029)"
             style="font-style:normal;font-variant:normal;font-weight:500;font-stretch:normal;font-size:170.3475647px;line-height:125%;font-family:'Corporate A BQ';-inkscape-font-specification:'Corporate A BQ Medium';letter-spacing:0px;word-spacing:0px;fill:#ffffff;fill-opacity:1;stroke:none;stroke-width:1px;stroke-linecap:butt;stroke-linejoin:miter;stroke-opacity:1"
             id="text3459">
            <path
               d="m 1244.1586,-334.60693 -3.0662,0 -7.6657,9.53946 c -3.7476,-3.06625 -10.3912,-8.17668 -22.3155,-9.36911 -1.5331,-0.17035 -2.8959,-0.17035 -4.429,-0.17035 -5.1105,0 -17.0348,0.68139 -27.7667,9.88016 -19.59,16.52371 -19.2493,45.4828 -19.2493,51.44496 0,32.87708 12.7761,50.25253 25.8929,57.57748 8.858,5.11043 18.0568,5.45112 21.4638,5.45112 18.0568,0 33.7288,-9.53946 38.1578,-12.09467 l 0,-30.49222 c 0,-3.2366 0.1704,-4.76973 1.1924,-5.96216 1.7035,-1.87383 6.3029,-2.38487 11.9244,-2.89591 l 0.1703,-3.5773 c -6.4732,0.51104 -12.9464,1.19243 -19.2493,1.19243 -6.4732,0 -12.776,-0.68139 -19.2492,-1.19243 l 0,3.5773 c 5.7918,0.34069 10.5615,1.19243 12.265,2.89591 2.2145,1.87382 1.8738,4.94008 1.8738,5.62147 l 0,30.15151 c -2.8959,1.70348 -13.6278,7.66565 -25.7225,7.66565 -31.0032,0 -35.7729,-34.92126 -35.7729,-57.23679 0,-17.5458 3.0662,-29.64047 5.9621,-36.28403 0.5111,-1.19243 1.8738,-4.08834 3.5773,-6.8139 8.6877,-12.77607 20.2714,-13.9685 26.2335,-13.9685 16.5238,0 24.1894,10.56155 27.0853,15.84232 1.7035,2.89591 3.0663,6.13252 5.1104,12.77607 l 3.5773,0.17035 0,-33.72882 z"
               id="path3464"
               inkscape:connector-curvature="0" />
          </g>
        </g>
        <g
           style="font-style:normal;font-variant:normal;font-weight:500;font-stretch:normal;font-size:528.32922363px;line-height:125%;font-family:'Corporate A BQ';-inkscape-font-specification:'Corporate A BQ Medium';letter-spacing:0px;word-spacing:0px;fill:#ffffff;fill-opacity:1;stroke:none;stroke-width:1px;stroke-linecap:butt;stroke-linejoin:miter;stroke-opacity:1"
           id="text3621">
          <path
             d="m 3714.2837,-1936.2004 41.738,0 c 14.2649,0 19.0199,0.5284 25.8881,3.6983 8.9816,3.6983 14.7933,10.0383 16.9066,13.2083 6.3399,8.4532 12.1515,22.7181 18.4915,45.9646 l 11.6232,0 -14.7932,-78.1927 -234.5782,0 -14.2648,78.1927 11.6232,0 c 10.0383,-31.1714 17.4349,-48.078 32.2281,-56.5312 10.5666,-5.8116 21.1332,-6.34 32.7564,-6.34 l 34.8697,0 0,311.7143 c 0,11.0949 0.5284,16.9065 -2.6416,22.1898 -6.8683,12.1516 -31.6998,13.7366 -42.7947,14.2649 l 0,11.0949 c 21.1332,-2.1133 42.7947,-4.2266 63.9278,-4.2266 21.6615,0 43.323,2.1133 64.4562,4.2266 l 0.5283,-11.0949 c -11.0949,-0.5283 -37.5113,-2.6417 -43.8513,-14.7932 -2.6416,-4.755 -2.1133,-10.5666 -2.1133,-21.1332 l 0,-312.2426 z"
             style=""
             id="path3467" />
          <path
             d="m 3839.8527,-1935.672 c 8.9816,0 30.6431,-1.0567 36.983,9.5099 2.6417,4.7549 3.17,10.0382 2.6417,20.6048 l 0,290.5811 c 0,6.3399 0,13.7366 -3.6983,19.0199 -4.755,6.3399 -18.4916,8.9815 -36.4548,9.5099 l 0,9.5099 c 19.0199,-1.585 38.0398,-3.17 57.5879,-3.17 19.0199,0 38.0397,1.585 57.5879,3.17 l 0,-9.5099 c -7.9249,0 -22.7181,-1.585 -30.6431,-4.755 -7.3966,-3.6983 -9.5099,-8.9816 -9.5099,-23.7748 l 0,-133.139 c 0,-19.5481 1.0567,-38.0397 14.2649,-53.8895 6.3399,-7.3967 22.1898,-21.6615 48.6063,-21.6615 33.813,-0.5284 45.4363,21.1331 49.6629,33.2847 2.6417,9.5099 3.6983,19.5482 3.6983,39.6247 l 0,135.7806 c 0,0 1.0567,12.6799 -3.6983,19.0199 -4.7549,6.3399 -19.0198,8.9815 -36.983,9.5099 l 0,9.5099 c 19.0198,-1.585 38.568,-3.17 57.5879,-3.17 19.5481,0 38.568,1.585 58.1162,3.17 l 0,-9.5099 c -18.4915,-0.5284 -32.2281,-3.17 -36.9831,-10.5666 -3.6983,-6.34 -3.1699,-16.9065 -3.1699,-17.9632 l 0,-136.8373 c 0,-16.3782 -0.5284,-32.2281 -6.8683,-48.0779 -5.8116,-15.3216 -26.9448,-47.5497 -73.4378,-47.5497 -20.0765,0 -36.4547,5.8117 -51.7762,17.9632 -11.095,8.9816 -15.3216,15.8499 -19.0199,21.1332 l 0,-147.9322 c -35.3981,8.9816 -58.6445,11.0949 -74.4944,12.6799 l 0,7.925 z"
             style=""
             id="path3469" />
          <path
             d="m 4324.1902,-1665.6958 c -7.3966,61.2862 -43.8513,75.5511 -71.3244,75.5511 -12.1516,0 -36.983,-2.1133 -55.4746,-28.5298 -17.9632,-25.8881 -20.6048,-71.3245 -20.6048,-100.9109 l 168.537,-0.5283 c 0.5283,-41.2097 -6.8683,-65.5128 -15.8499,-82.4194 -8.9816,-15.8499 -32.228,-46.4929 -81.891,-46.4929 -34.8697,0 -53.8896,14.2648 -63.9278,23.7748 -32.7564,29.5864 -41.738,74.4944 -41.738,116.7607 0,60.2296 17.9632,91.9293 38.568,110.9492 12.6799,11.6232 32.7564,24.8314 72.9094,24.8314 15.3216,0 26.4165,-2.6416 32.2281,-4.7549 31.1714,-10.5666 44.3797,-35.3981 49.1346,-45.4363 8.9816,-19.0199 10.5666,-33.8131 11.6233,-42.2664 l -22.1899,-0.5283 z m -145.8188,-74.4944 c 3.6983,-36.4547 19.0198,-94.571 68.1544,-94.571 13.2083,0 25.8882,4.2267 35.3981,12.6799 15.8499,13.2083 27.4731,37.5114 29.0581,81.8911 l -132.6106,0 z"
             style=""
             id="path3471" />
          <path
             d="m 4548.4743,-1572.1815 13.7365,0 19.0199,-50.7196 c 1.0566,2.1133 6.3399,13.2082 12.6799,21.1331 21.1332,25.8882 48.0779,28.0015 60.2295,28.0015 19.0199,0 51.7763,-4.755 77.6644,-44.3797 23.7748,-36.4547 24.3032,-77.6644 24.3032,-91.9293 0,-14.7932 -0.5284,-59.7012 -27.4732,-97.7409 -25.3598,-35.398 -54.9462,-39.6247 -72.9094,-39.6247 -47.5496,0 -64.9845,35.9264 -72.3811,50.1913 l 0,-159.0271 c -34.8697,8.9816 -58.6445,11.0949 -74.4944,12.6799 l 0,7.925 c 9.5099,0 31.1714,-1.0567 36.983,9.5099 2.6417,4.7549 3.17,10.5666 2.6417,20.6048 l 0,333.3758 z m 34.3414,-137.3656 c 0,-6.34 0.5283,-49.1346 12.6799,-78.7211 14.7932,-36.983 39.0963,-43.8513 56.0029,-43.8513 26.4164,0 53.8896,15.8499 62.8712,69.2111 2.6416,16.9066 4.2266,35.3981 4.2266,53.3613 0,5.2833 0,45.9646 -10.5666,73.9661 -14.2649,37.5113 -40.153,45.9646 -57.5879,45.9646 -14.2649,0.5283 -40.153,-6.3399 -54.9462,-39.0964 -13.7366,-29.0581 -12.6799,-76.6077 -12.6799,-80.8343 z"
             style=""
             id="path3473" />
          <path
             d="m 4989.7613,-1665.6958 c -7.3966,61.2862 -43.8513,75.5511 -71.3245,75.5511 -12.1515,0 -36.983,-2.1133 -55.4745,-28.5298 -17.9632,-25.8881 -20.6049,-71.3245 -20.6049,-100.9109 l 168.5371,-0.5283 c 0.5283,-41.2097 -6.8683,-65.5128 -15.8499,-82.4194 -8.9816,-15.8499 -32.2281,-46.4929 -81.891,-46.4929 -34.8698,0 -53.8896,14.2648 -63.9279,23.7748 -32.7564,29.5864 -41.738,74.4944 -41.738,116.7607 0,60.2296 17.9632,91.9293 38.568,110.9492 12.6799,11.6232 32.7565,24.8314 72.9095,24.8314 15.3215,0 26.4164,-2.6416 32.2281,-4.7549 31.1714,-10.5666 44.3796,-35.3981 49.1346,-45.4363 8.9816,-19.0199 10.5666,-33.8131 11.6232,-42.2664 l -22.1898,-0.5283 z m -145.8189,-74.4944 c 3.6983,-36.4547 19.0199,-94.571 68.1545,-94.571 13.2082,0 25.8881,4.2267 35.398,12.6799 15.8499,13.2083 27.4732,37.5114 29.0582,81.8911 l -132.6107,0 z"
             style=""
             id="path3475" />
          <path
             d="m 5065.0564,-1573.2382 9.5099,0 12.6799,-22.1898 c 2.6417,2.1133 8.4533,6.8683 17.4349,11.0949 20.0765,9.5099 41.2097,10.5666 48.6063,10.5666 47.0213,0 87.7026,-30.1148 87.7026,-79.7777 0,-25.8882 -9.5099,-41.738 -31.1714,-54.4179 -10.5666,-6.34 -27.4731,-13.2083 -29.0581,-13.7366 -29.5864,-12.1516 -51.2479,-20.6048 -62.3429,-28.0015 -13.2082,-8.4532 -20.0765,-18.4915 -20.0765,-34.3414 0,-21.1331 13.7366,-38.568 33.2848,-45.9646 9.5099,-3.17 17.9632,-3.6983 21.6615,-3.6983 5.8116,0 18.4915,0.5283 31.1714,8.9816 20.6048,13.7366 25.3598,34.3414 28.0014,57.5879 l 10.5666,0 0,-84.5327 -8.9816,0 -7.9249,20.0765 c -24.3032,-14.2649 -41.738,-15.8499 -54.4179,-15.8499 -31.1714,-0.5283 -62.3429,13.7366 -75.5511,43.323 -5.8116,13.2083 -5.8116,25.8882 -5.8116,31.1715 0,23.7748 8.9816,35.398 15.8499,42.7946 12.1515,12.1516 24.8314,16.3782 39.0963,22.7182 10.0383,4.2266 19.5482,7.9249 29.0581,12.1516 15.8499,6.3399 41.2097,15.3215 51.7763,30.6431 5.2833,7.9249 5.8116,17.9631 5.8116,21.6615 0,13.7365 -5.2833,22.7181 -8.4533,27.4731 -15.3215,24.3031 -44.9079,25.8881 -52.8329,25.8881 -40.6813,0 -59.1728,-28.0014 -64.9845,-40.6813 -5.2833,-11.6233 -9.5099,-32.2281 -10.0382,-33.2848 l -10.5666,0 0,90.3443 z"
             style=""
             id="path3477" />
          <path
             d="m 5430.8501,-1602.8246 c -2.6416,1.0566 -20.6048,8.9816 -35.398,8.9816 -24.8315,0 -31.1715,-17.4349 -33.2848,-26.4165 -1.585,-8.4533 -2.6416,-20.6048 -2.6416,-40.153 l 0,-162.1971 68.1544,0 0,-20.0765 -68.1544,0 0,-78.7211 -11.6233,0 c -7.3966,40.1531 -15.8499,62.8712 -33.2847,74.4945 -8.4533,5.8116 -16.9066,7.3966 -27.4731,7.9249 l 0,16.3782 37.5113,0 -2.1133,154.2721 c 0,34.3414 -1.0566,49.663 7.3966,66.5695 5.2833,11.6233 19.0199,28.0015 49.663,28.0015 26.9448,0 41.2097,-9.5099 51.2479,-14.7932 l 0,-14.2649 z"
             style=""
             id="path3479" />
          <path
             d="m 5802.4554,-1710.6038 c 0,-44.908 -14.2648,-99.8542 -54.4179,-125.7423 -19.0198,-12.1516 -39.0963,-12.6799 -47.5496,-12.6799 -51.2479,0 -85.5893,36.983 -99.3259,84.0043 -6.8683,23.7748 -6.8683,44.908 -6.8683,54.4179 0,72.9094 31.6998,111.4775 59.7012,126.799 17.9632,10.0383 36.9831,11.0949 43.8514,11.0949 30.643,0 50.1912,-13.7365 59.1728,-21.1331 13.2083,-11.0949 21.6615,-24.3032 24.3032,-29.0581 19.5482,-34.8698 21.1331,-76.6078 21.1331,-87.7027 z m -37.5113,-0.5283 c 0,62.8712 -14.2649,103.0242 -41.738,117.8174 -7.3967,3.6983 -16.9066,6.3399 -25.3598,6.3399 -14.2649,0 -36.9831,-5.2832 -51.7763,-35.9263 -4.755,-10.0383 -6.8683,-17.9632 -7.9249,-22.1899 -6.34,-26.4164 -6.34,-58.1162 -6.34,-65.5128 0,-56.0029 11.0949,-89.816 29.0581,-108.3075 14.2649,-14.2649 30.1148,-15.8499 38.568,-15.8499 12.1516,0 33.2848,3.6983 48.078,30.1148 2.1133,3.17 6.8683,13.7366 10.0383,24.8315 5.2832,19.0198 7.3966,48.6063 7.3966,68.6828 z"
             style=""
             id="path3481" />
          <path
             d="m 5842.8809,-1831.5912 c 12.1516,0 22.1899,1.0567 27.4732,2.1133 6.8682,2.1134 11.6232,6.34 11.6232,21.1332 l 0,193.3685 c 0,6.3399 0,13.7366 -3.6983,19.0199 -4.755,6.3399 -18.4915,8.9815 -36.4547,9.5099 l 0,9.5099 c 19.0198,-1.585 38.568,-3.17 57.5879,-3.17 19.0198,0 38.0397,1.585 57.0595,3.17 l 0.5283,-9.5099 c -13.7365,-0.5284 -25.3598,-2.6417 -30.1147,-4.755 -10.0383,-4.7549 -10.0383,-13.7365 -10.0383,-23.7748 l 0,-112.5341 c 0.5284,-24.3032 1.585,-48.6063 12.6799,-70.7961 11.0949,-22.1899 25.8882,-28.5298 37.5114,-28.5298 7.9249,0 17.4349,3.6983 17.4349,13.7365 0,4.755 -2.1133,8.9816 -2.1133,13.7366 0,3.6983 1.5849,11.6232 10.5665,15.8499 3.17,2.1133 5.8117,2.6416 10.0383,2.6416 8.9816,0 21.6615,-5.8116 21.6615,-26.4164 0,-7.925 -3.6983,-29.5865 -26.9448,-38.5681 -7.9249,-3.1699 -15.8499,-3.1699 -19.0199,-3.1699 -44.9079,0 -60.7578,39.6246 -64.4561,51.2479 0,-7.925 -0.5283,-16.9065 -1.0567,-25.3598 -0.5283,-9.5099 -2.1133,-19.0199 -3.17,-29.0581 -30.1147,8.9816 -54.9462,11.6232 -67.0978,12.6799 l 0,7.9249 z"
             style=""
             id="path3483" />
          <path
             d="m 6177.1895,-1829.4779 c 13.7366,0.5284 26.4165,1.0567 31.1714,2.6417 8.4533,3.6983 7.3966,14.2649 7.925,30.1147 l 0,181.7453 c 0,6.3399 0,13.7366 -3.6983,19.0199 -4.755,6.3399 -18.4916,8.9815 -36.4547,9.5099 l 0,9.5099 c 19.0198,-1.585 38.0397,-3.17 57.5878,-3.17 19.0199,0 38.5681,1.585 57.0596,3.17 l 0.5283,-9.5099 c -18.4915,-0.5284 -32.7564,-3.17 -36.983,-10.5666 -3.6983,-6.34 -3.17,-16.9065 -3.17,-17.9632 l 0,-133.139 c 0,-19.5481 1.0567,-38.0397 14.2649,-53.8895 6.3399,-7.3967 22.1898,-21.6615 48.6063,-21.6615 14.2649,0 23.2465,3.6983 28.5298,6.3399 24.8314,14.2649 24.8314,42.2663 24.8314,66.5695 l 0,135.7806 c 0.5284,10.0383 -0.5283,15.3215 -4.2266,19.5482 -6.34,7.3966 -28.0015,8.9816 -36.4547,8.9816 l 0,9.5099 c 19.0198,-1.585 38.568,-3.17 57.5879,-3.17 19.5481,0 38.568,1.585 58.1162,3.17 l 0,-9.5099 c -18.4915,-0.5284 -32.2281,-3.17 -36.9831,-10.5666 -3.6983,-6.34 -3.1699,-16.9065 -3.1699,-17.9632 l 0,-136.8373 c -0.5284,-25.8881 -1.585,-48.6063 -19.5482,-69.2111 -21.6615,-24.3031 -50.1913,-26.4165 -60.7579,-26.4165 -5.2833,0 -17.4348,0 -30.1147,5.2833 -25.3598,9.51 -38.5681,29.5865 -43.323,37.5114 -1.0567,-16.3782 -1.585,-32.7564 -3.6983,-49.1346 -16.9066,5.8116 -32.2281,11.0949 -67.6262,16.9065 l 0,7.3966 z"
             style=""
             id="path3485" />
          <path
             d="m 6684.7239,-1710.6038 c 0,-44.908 -14.2649,-99.8542 -54.4179,-125.7423 -19.0199,-12.1516 -39.0964,-12.6799 -47.5497,-12.6799 -51.2479,0 -85.5893,36.983 -99.3259,84.0043 -6.8682,23.7748 -6.8682,44.908 -6.8682,54.4179 0,72.9094 31.6997,111.4775 59.7012,126.799 17.9632,10.0383 36.983,11.0949 43.8513,11.0949 30.6431,0 50.1913,-13.7365 59.1729,-21.1331 13.2082,-11.0949 21.6615,-24.3032 24.3031,-29.0581 19.5482,-34.8698 21.1332,-76.6078 21.1332,-87.7027 z m -37.5114,-0.5283 c 0,62.8712 -14.2649,103.0242 -41.738,117.8174 -7.3966,3.6983 -16.9065,6.3399 -25.3598,6.3399 -14.2649,0 -36.9831,-5.2832 -51.7763,-35.9263 -4.7549,-10.0383 -6.8683,-17.9632 -7.9249,-22.1899 -6.34,-26.4164 -6.34,-58.1162 -6.34,-65.5128 0,-56.0029 11.0949,-89.816 29.0581,-108.3075 14.2649,-14.2649 30.1148,-15.8499 38.5681,-15.8499 12.1515,0 33.2847,3.6983 48.0779,30.1148 2.1134,3.17 6.8683,13.7366 10.0383,24.8315 5.2833,19.0198 7.3966,48.6063 7.3966,68.6828 z"
             style=""
             id="path3487" />
          <path
             d="m 6866.2131,-1602.8246 c -2.6416,1.0566 -20.6048,8.9816 -35.398,8.9816 -24.8315,0 -31.1714,-17.4349 -33.2847,-26.4165 -1.585,-8.4533 -2.6417,-20.6048 -2.6417,-40.153 l 0,-162.1971 68.1545,0 0,-20.0765 -68.1545,0 0,-78.7211 -11.6232,0 c -7.3966,40.1531 -15.8499,62.8712 -33.2848,74.4945 -8.4532,5.8116 -16.9065,7.3966 -27.4731,7.9249 l 0,16.3782 37.5114,0 -2.1133,154.2721 c 0,34.3414 -1.0567,49.663 7.3966,66.5695 5.2833,11.6233 19.0198,28.0015 49.6629,28.0015 26.9448,0 41.2097,-9.5099 51.2479,-14.7932 l 0,-14.2649 z"
             style=""
             id="path3489" />
          <path
             d="m 6888.0647,-1935.672 c 8.9816,0 30.6431,-1.0567 36.983,9.5099 2.6417,4.7549 3.17,10.0382 2.6417,20.6048 l 0,290.5811 c 0,6.3399 0,13.7366 -3.6983,19.0199 -4.755,6.3399 -18.4916,8.9815 -36.4547,9.5099 l 0,9.5099 c 19.0198,-1.585 38.0397,-3.17 57.5878,-3.17 19.0199,0 38.0397,1.585 57.5879,3.17 l 0,-9.5099 c -7.9249,0 -22.7181,-1.585 -30.6431,-4.755 -7.3966,-3.6983 -9.5099,-8.9816 -9.5099,-23.7748 l 0,-133.139 c 0,-19.5481 1.0567,-38.0397 14.2649,-53.8895 6.3399,-7.3967 22.1898,-21.6615 48.6063,-21.6615 33.8131,-0.5284 45.4363,21.1331 49.6629,33.2847 2.6417,9.5099 3.6983,19.5482 3.6983,39.6247 l 0,135.7806 c 0,0 1.0567,12.6799 -3.6983,19.0199 -4.7549,6.3399 -19.0198,8.9815 -36.983,9.5099 l 0,9.5099 c 19.0198,-1.585 38.568,-3.17 57.5879,-3.17 19.5482,0 38.568,1.585 58.1162,3.17 l 0,-9.5099 c -18.4915,-0.5284 -32.2281,-3.17 -36.9831,-10.5666 -3.6983,-6.34 -3.1699,-16.9065 -3.1699,-17.9632 l 0,-136.8373 c 0,-16.3782 -0.5284,-32.2281 -6.8683,-48.0779 -5.8116,-15.3216 -26.9448,-47.5497 -73.4378,-47.5497 -20.0765,0 -36.4547,5.8117 -51.7762,17.9632 -11.095,8.9816 -15.3216,15.8499 -19.0199,21.1332 l 0,-147.9322 c -35.3981,8.9816 -58.6445,11.0949 -74.4944,12.6799 l 0,7.925 z"
             style=""
             id="path3491" />
          <path
             d="m 7258.8114,-1852.196 c -33.8131,8.9816 -60.7579,11.6232 -74.4944,12.6799 l 0,7.9249 c 9.5099,0 31.1714,-1.0566 36.983,10.0383 4.2266,6.8683 2.6416,19.0198 2.6416,20.0765 l 0,186.5002 c 0,6.3399 0.5284,13.7366 -3.6983,19.0199 -4.2266,6.3399 -18.4915,8.9815 -35.9263,9.5099 l 0,9.5099 c 19.0198,-1.585 38.0397,-3.17 57.0595,-3.17 19.0199,0 38.568,1.585 57.5879,3.17 l 0,-9.5099 c -7.3966,0 -22.7182,-1.585 -30.1148,-4.755 -7.9249,-3.6983 -10.0382,-8.9816 -10.0382,-23.7748 l 0,-237.2198 z m -15.8499,-42.7947 c 14.7932,0 26.9448,-11.6232 26.9448,-26.4165 0,-14.7932 -11.0949,-26.4164 -26.4165,-26.4164 -14.2649,0 -26.4164,11.0949 -26.4164,25.8881 0,14.7932 11.6232,26.9448 25.8881,26.9448 z"
             style=""
             id="path3493" />
          <path
             d="m 7332.9095,-1829.4779 c 13.7365,0.5284 26.4164,1.0567 31.1714,2.6417 8.4533,3.6983 7.3966,14.2649 7.9249,30.1147 l 0,181.7453 c 0,6.3399 0,13.7366 -3.6983,19.0199 -4.7549,6.3399 -18.4915,8.9815 -36.4547,9.5099 l 0,9.5099 c 19.0199,-1.585 38.0397,-3.17 57.5879,-3.17 19.0199,0 38.568,1.585 57.0596,3.17 l 0.5283,-9.5099 c -18.4915,-0.5284 -32.7564,-3.17 -36.9831,-10.5666 -3.6983,-6.34 -3.1699,-16.9065 -3.1699,-17.9632 l 0,-133.139 c 0,-19.5481 1.0566,-38.0397 14.2649,-53.8895 6.3399,-7.3967 22.1898,-21.6615 48.6063,-21.6615 14.2648,0 23.2464,3.6983 28.5297,6.3399 24.8315,14.2649 24.8315,42.2663 24.8315,66.5695 l 0,135.7806 c 0.5283,10.0383 -0.5283,15.3215 -4.2266,19.5482 -6.34,7.3966 -28.0015,8.9816 -36.4547,8.9816 l 0,9.5099 c 19.0198,-1.585 38.568,-3.17 57.5878,-3.17 19.5482,0 38.5681,1.585 58.1163,3.17 l 0,-9.5099 c -18.4916,-0.5284 -32.2281,-3.17 -36.9831,-10.5666 -3.6983,-6.34 -3.17,-16.9065 -3.17,-17.9632 l 0,-136.8373 c -0.5283,-25.8881 -1.585,-48.6063 -19.5481,-69.2111 -21.6615,-24.3031 -50.1913,-26.4165 -60.7579,-26.4165 -5.2833,0 -17.4349,0 -30.1148,5.2833 -25.3598,9.51 -38.568,29.5865 -43.323,37.5114 -1.0566,-16.3782 -1.585,-32.7564 -3.6983,-49.1346 -16.9065,5.8116 -32.2281,11.0949 -67.6261,16.9065 l 0,7.3966 z"
             style=""
             id="path3495" />
          <path
             d="m 7802.9327,-1833.1762 c -10.5666,-6.3399 -26.9448,-14.2649 -56.5312,-14.2649 -35.3981,0 -58.1162,11.6233 -69.7395,21.1332 -17.9632,14.7932 -26.4164,38.0397 -26.4164,61.2862 0,33.8131 16.3782,51.2479 26.4164,60.2295 16.9066,14.2649 33.2848,17.9632 41.738,20.0765 -23.7748,5.8117 -40.153,12.1516 -48.6063,17.9632 -11.0949,8.4533 -14.2648,19.0199 -14.2648,24.8315 0,6.34 3.1699,11.6233 4.2266,13.2082 7.3966,11.6233 23.7748,15.3216 26.4165,16.3782 -7.3967,2.6417 -59.7012,16.3783 -59.7012,62.3429 0,25.3598 15.3215,60.7579 71.3244,74.4944 21.1332,5.2833 37.5114,5.8116 46.493,5.8116 26.9448,0 62.8711,-6.8682 85.5893,-23.7748 18.4915,-14.2649 31.1714,-36.4547 31.1714,-60.7578 0,-40.1531 -32.2281,-56.0029 -43.8513,-60.7579 -26.9448,-11.0949 -77.1361,-13.2082 -78.1927,-13.2082 -20.6049,-1.585 -40.153,-2.6417 -47.0213,-5.8117 -1.585,-1.0566 -8.4533,-5.2832 -8.4533,-12.6799 0,-12.1515 14.2649,-17.4348 15.3216,-17.4348 3.1699,-1.0567 5.8116,-2.1133 8.4532,-3.17 6.34,-2.1133 13.2083,-4.2266 19.5482,-6.3399 22.7182,-6.8683 53.8896,-14.7933 73.9661,-29.0582 31.1714,-22.1898 33.2847,-51.7762 33.2847,-66.0411 0,-23.7748 -7.3966,-37.5114 -12.6799,-45.9646 l 55.4746,2.1133 0,-20.6049 -73.9661,0 z m -118.8741,68.1545 c 0,-5.2833 0.5284,-34.8697 17.9632,-52.8329 11.0949,-11.0949 25.8882,-15.8499 41.2097,-15.8499 21.1332,0 31.6998,7.9249 38.0397,13.7366 14.7932,13.7365 18.4915,34.3414 18.4915,53.3612 0.5284,54.4179 -33.813,69.7395 -57.0595,69.7395 -25.3598,0 -45.4363,-14.7932 -53.8896,-38.5681 -4.2266,-12.6799 -4.755,-24.8314 -4.755,-29.5864 z m 59.1729,279.4862 c -3.6983,0 -63.3995,0 -87.1743,-32.7565 -4.755,-6.8682 -7.9249,-14.7932 -7.9249,-24.3031 0,-40.6813 54.9462,-52.3046 94.5709,-52.3046 31.1714,0 91.4009,5.2833 91.4009,51.2479 0.5284,7.925 -2.1133,16.3783 -5.8116,23.2465 -6.8683,12.1516 -17.9632,19.0199 -22.1898,21.1332 -9.5099,5.2833 -33.2848,13.7366 -62.8712,13.7366 z"
             style=""
             id="path3497" />
        </g>
      </g>
    </g>
  </g>
</svg>
