<?xml version="1.0" encoding="UTF-8" standalone="no"?>
<!-- Created with Inkscape (http://www.inkscape.org/) -->

<svg
   xmlns:dc="http://purl.org/dc/elements/1.1/"
   xmlns:cc="http://creativecommons.org/ns#"
   xmlns:rdf="http://www.w3.org/1999/02/22-rdf-syntax-ns#"
   xmlns:svg="http://www.w3.org/2000/svg"
   xmlns="http://www.w3.org/2000/svg"
   xmlns:xlink="http://www.w3.org/1999/xlink"
   xmlns:sodipodi="http://sodipodi.sourceforge.net/DTD/sodipodi-0.dtd"
   xmlns:inkscape="http://www.inkscape.org/namespaces/inkscape"
   width="35.21365mm"
   height="35.214207mm"
   viewBox="0 0 124.77277 124.77475"
   id="svg2"
   version="1.1"
   inkscape:version="0.91 r13725"
   sodipodi:docname="member.svg">
  <defs
     id="defs4">
    <clipPath
       id="clipPath4171"
       clipPathUnits="userSpaceOnUse">
      <path
         inkscape:connector-curvature="0"
         id="path4173"
         d="M 0,0 612,0 612,792 0,792 0,0 Z" />
    </clipPath>
    <clipPath
       id="clipPath4195"
       clipPathUnits="userSpaceOnUse">
      <path
         inkscape:connector-curvature="0"
         id="path4197"
         d="m 36,720 36,0 0,36 -36,0 0,-36 z" />
    </clipPath>
    <clipPath
       id="clipPath4227"
       clipPathUnits="userSpaceOnUse">
      <path
         inkscape:connector-curvature="0"
         id="path4229"
         d="M 0,0 612,0 612,792 0,792 0,0 Z" />
    </clipPath>
    <clipPath
       id="clipPath4343"
       clipPathUnits="userSpaceOnUse">
      <path
         inkscape:connector-curvature="0"
         id="path4345"
         d="m 36,560.454 124.364,0 0,121.909 -124.364,0 0,-121.909 z" />
    </clipPath>
    <clipPath
       id="clipPath4383"
       clipPathUnits="userSpaceOnUse">
      <path
         inkscape:connector-curvature="0"
         id="path4385"
         d="m 138.011,305.477 91.977,0 0,91.977 -91.977,0 0,-91.977 z" />
    </clipPath>
    <clipPath
       id="clipPath4423"
       clipPathUnits="userSpaceOnUse">
      <path
         inkscape:connector-curvature="0"
         id="path4425"
         d="m 260.012,305.477 91.976,0 0,91.977 -91.976,0 0,-91.977 z" />
    </clipPath>
    <clipPath
       id="clipPath4463"
       clipPathUnits="userSpaceOnUse">
      <path
         inkscape:connector-curvature="0"
         id="path4465"
         d="M 0,0 612,0 612,792 0,792 0,0 Z" />
    </clipPath>
    <clipPath
       id="clipPath4473"
       clipPathUnits="userSpaceOnUse">
      <path
         inkscape:connector-curvature="0"
         id="path4475"
         d="m 392,315.466 72,0 0,72 -72,0 0,-72 z" />
    </clipPath>
    <mask
       id="mask4479"
       height="1"
       width="1"
       y="0"
       x="0"
       maskUnits="userSpaceOnUse">
      <image
         sodipodi:absref="/home/irix/Desktop/Documents/mac/data/Sitges/LEED HAS/LEED/Z-Archived/LOGOS/USGBC Member/member_img0.png"
         xlink:href="Documents/mac/data/Sitges/LEED HAS/LEED/Z-Archived/LOGOS/USGBC Member/member_img0.png"
         width="1"
         height="1"
         preserveAspectRatio="none"
         id="image4481" />
    </mask>
    <clipPath
       id="clipPath4489"
       clipPathUnits="userSpaceOnUse">
      <path
         inkscape:connector-curvature="0"
         id="path4491"
         d="M 0,0 612,0 612,792 0,792 0,0 Z" />
    </clipPath>
  </defs>
  <sodipodi:namedview
     id="base"
     pagecolor="#e47777"
     bordercolor="#666666"
     borderopacity="1.0"
     inkscape:pageopacity="0"
     inkscape:pageshadow="2"
     inkscape:zoom="1.4"
     inkscape:cx="228.42429"
     inkscape:cy="108.29668"
     inkscape:document-units="px"
     inkscape:current-layer="g4163"
     showgrid="false"
     fit-margin-top="0"
     fit-margin-left="0"
     fit-margin-right="0"
     fit-margin-bottom="0"
     inkscape:window-width="1375"
     inkscape:window-height="876"
     inkscape:window-x="65"
     inkscape:window-y="24"
     inkscape:window-maximized="1" />
  <metadata
     id="metadata7">
    <rdf:RDF>
      <cc:Work
         rdf:about="">
        <dc:format>image/svg+xml</dc:format>
        <dc:type
           rdf:resource="http://purl.org/dc/dcmitype/StillImage" />
        <dc:title></dc:title>
      </cc:Work>
    </rdf:RDF>
  </metadata>
  <g
     inkscape:label="Layer 1"
     inkscape:groupmode="layer"
     id="layer1"
     transform="translate(-6.575705,-6.68545)">
    <g
       transform="matrix(1.25,0,0,-1.25,751.23398,1376.9158)"
       inkscape:label="member"
       id="g4163">
      <g
         id="g4165" />
      <g
         id="g4339"
         transform="translate(-644,425.71428)">
        <g
           clip-path="url(#clipPath4343)"
           id="g4341">
          <path
             inkscape:connector-curvature="0"
             id="path4347"
             style="fill:#ffffff;fill-opacity:1;fill-rule:nonzero;stroke:none"
             d="m 147.3422,620.5601 c 0,-27.1506 -22.0102,-49.1606 -49.16111,-49.1606 -27.15093,0 -49.15976,22.01 -49.15976,49.1606 0,27.1506 22.00883,49.1606 49.15976,49.1606 27.15091,0 49.16111,-22.01 49.16111,-49.1606" />
          <path
             inkscape:connector-curvature="0"
             id="path4349"
             style="fill:#000000;fill-opacity:1;fill-rule:nonzero;stroke:none"
             d="m 98.18317,572.5287 c -26.52706,0 -48.03125,21.5053 -48.03125,48.0321 0,26.524 21.50419,48.0279 48.03125,48.0279 26.52423,0 48.02843,-21.5039 48.02843,-48.0279 0,-26.5268 -21.5042,-48.0321 -48.02843,-48.0321 m 0,97.9413 c -27.56546,0 -49.90979,-22.3454 -49.90979,-49.9092 0,-27.5665 22.34433,-49.9106 49.90979,-49.9106 27.56263,0 49.90843,22.3441 49.90843,49.9106 0,27.5638 -22.3458,49.9092 -49.90843,49.9092" />
          <path
             inkscape:connector-curvature="0"
             id="path4351"
             style="fill:#000000;fill-opacity:1;fill-rule:nonzero;stroke:none"
             d="m 98.61364,596.8064 c 0,0 -0.03743,-0.33 -0.29807,-0.3203 -0.25926,0.008 -0.24401,0.3203 -0.24401,0.3203 0,0 -0.18854,11.4458 -0.18854,19.2829 0,7.8386 0.18854,16.3772 0.18854,16.3772 0,0 0.06932,0.3258 0.28698,0.3258 0.21905,0 0.2551,-0.3258 0.2551,-0.3258 0,0 0.18993,-8.5386 0.18993,-16.3772 0,-7.8371 -0.18993,-19.2829 -0.18993,-19.2829 m 21.40156,16.9192 c 0.4686,0.2204 6.1778,1.9797 4.8662,5.386 -0.9205,2.3957 -2.6951,-0.4408 -3.9304,0.4825 -0.3965,0.2953 -0.6432,0.531 1.0925,2.214 1.7385,1.69 2.2654,2.8878 2.44,3.9262 0.1706,1.0384 0.1692,1.8314 -0.5448,2.2307 -0.714,0.4006 -1.6553,-0.6572 -1.9382,0.4394 -0.1733,0.5879 0.0499,0.9192 0.0527,1.9701 0.004,1.1493 -1.1742,4.0218 -3.9151,3.0528 -1.7746,-0.6253 -0.8332,-3.6822 -1.2894,-4.2604 -0.4699,-0.5933 -0.8678,1.2201 -1.8646,1.5056 -1.148,0.3258 -1.9507,-0.7375 -1.941,-1.7232 0.01,-0.9871 0.6516,-2.8227 0.8637,-3.5325 0.1193,-0.5642 0.4243,-2.0989 0.2329,-2.5495 -0.2925,-0.6793 -0.542,-0.4575 -1.1978,0.4062 -0.5781,0.7639 -0.2731,0.4436 -1.2935,1.6706 -1.2699,1.5652 -2.0421,-0.6045 -2.1336,-2.0546 -0.0929,-1.4516 1.0093,-6.5007 0.9912,-7.1703 -0.0762,-3.0278 -1.7607,0.4436 -1.8147,0.5268 -1.105,1.6817 -3.2303,0.8942 -2.5662,-0.9136 1.2117,-3.2926 2.2986,-6.1347 1.152,-8.9601 -0.1538,-0.3771 -0.359,-1.037 -0.6405,-1.6914 9.3304,8.687 11.8966,20.7221 11.8994,20.7345 0.0346,0.1248 0.2564,0.244 0.3701,0.2066 0.1165,-0.0374 0.1719,-0.2689 0.1373,-0.3951 -0.006,-0.0208 -3.0487,-17.8911 -19.3165,-27.0162 -0.36045,-0.1968 -0.40205,0.0139 -0.47137,0.3383 0.07764,2.8324 0.19548,4.7566 1.24497,5.3805 8.7619,5.2017 5.9157,7.5931 4.0995,7.9481 -1.8175,0.3549 -2.8545,3.3272 -0.3493,4.6179 4.4114,2.4803 6.6657,11.3378 1.1881,9.401 -0.5005,-0.0416 -4.1023,-1.916 -0.9261,3.5158 3.0057,5.4346 2.0796,10.273 -1.037,8.1657 -0.818,-0.5517 -3.1319,-3.0014 -2.6688,0.5421 0.8277,5.3777 -0.5046,7.2937 -2.08235,7.6458 0,0 -0.16498,0.0291 -0.29807,0.043 l -0.1428,-0.007 0,0.0166 c -0.09427,0.007 -0.44226,-0.0527 -0.44226,-0.0527 -1.57909,-0.3521 -2.90863,-2.2681 -2.08373,-7.6458 0.46305,-3.5435 -1.85082,-1.0938 -2.66601,-0.5421 -3.11798,2.1073 -4.0427,-2.7311 -1.03702,-8.1657 3.17482,-5.4318 -0.42701,-3.5574 -0.92749,-3.5158 -5.4776,1.9368 -3.22334,-6.9207 1.18952,-9.401 2.50519,-1.2907 1.46679,-4.263 -0.34937,-4.6179 -1.81616,-0.355 -4.66379,-2.7464 4.09676,-7.9481 1.05227,-0.6266 1.1812,-2.562 1.25745,-5.4041 -0.07071,-0.3133 -0.12477,-0.5074 -0.47969,-0.3147 -16.26643,9.1251 -19.30954,26.9954 -19.3137,27.0162 -0.03605,0.1262 0.05268,0.3577 0.16914,0.3951 0.11368,0.0374 0.2953,-0.1636 0.32996,-0.2884 0.0042,-0.0138 2.5759,-11.9657 11.90764,-20.6527 -0.28282,0.6544 -0.48801,1.3143 -0.64328,1.6914 -1.14515,2.8254 -0.05823,5.6675 1.15208,8.9601 0.66408,1.8078 -1.45986,2.5953 -2.56481,0.9136 -0.05406,-0.0832 -1.73852,-3.5546 -1.81477,-0.5268 -0.01941,0.6696 1.08276,5.7187 0.99126,7.1703 -0.09288,1.4501 -0.86371,3.6198 -2.13364,2.0546 -1.02038,-1.227 -0.71676,-0.9067 -1.29488,-1.6706 -0.65437,-0.8637 -0.90392,-1.0855 -1.19645,-0.4062 -0.19132,0.4506 0.11368,1.9853 0.23291,2.5495 0.21212,0.7098 0.85401,2.5454 0.86372,3.5325 0.0097,0.9857 -0.79301,2.049 -1.94094,1.7232 -0.99681,-0.2855 -1.3947,-2.0989 -1.86468,-1.5056 -0.45612,0.5782 0.48523,3.6351 -1.28934,4.2604 -2.74088,0.969 -3.9193,-1.9035 -3.91515,-3.0528 0.0028,-1.0509 0.22737,-1.3822 0.05269,-1.9701 -0.28282,-1.0966 -1.22557,-0.0388 -1.93817,-0.4394 -0.71398,-0.3993 -0.71537,-1.1923 -0.54484,-2.2307 0.17468,-1.0384 0.70289,-2.2362 2.43864,-3.9262 1.73714,-1.683 1.49036,-1.9187 1.09386,-2.214 -1.23665,-0.9233 -3.00845,1.9132 -3.9304,-0.4825 -1.31152,-3.4063 4.39761,-5.1656 4.86621,-5.386 1.22279,-0.5851 1.89518,-1.9201 0.22459,-1.5264 -0.67239,0.1567 -1.70109,0.646 -2.50658,-0.2496 -2.12671,-2.372 3.41882,-6.5062 7.10106,-7.2687 3.68223,-0.7625 6.97766,-2.1683 8.3682,-2.8018 1.37114,-0.6225 7.22445,-4.6374 7.63204,-6.2636 0.10398,-0.4797 0.35492,-0.8332 0.91917,-0.8332 0.56288,0 0.80549,0.3147 0.90947,0.8013 0.37155,1.5929 6.24985,5.6716 7.62515,6.2955 1.3891,0.6335 4.6845,2.0393 8.3668,2.8018 3.6836,0.7625 9.2291,4.8967 7.1024,7.2687 -0.8069,0.8956 -1.8342,0.4063 -2.5066,0.2496 -1.6706,-0.3937 -0.9995,0.9413 0.2246,1.5264" />
          <path
             inkscape:connector-curvature="0"
             id="path4353"
             style="fill:#000000;fill-opacity:1;fill-rule:nonzero;stroke:none"
             d="m 139.4044,613.2993 c -0.1803,-1.0634 -0.7223,-1.7441 -1.6582,-2.0823 l -0.1802,-0.0652 -0.524,1.2796 0.183,0.0763 c 0.542,0.2273 0.7583,0.4838 0.8498,1.0189 0.0652,0.3827 -0.004,0.7223 -0.2038,1.0038 -0.2939,0.4117 -0.8609,0.7001 -1.6373,0.8304 -1.3268,0.2232 -2.1794,-0.1872 -2.3402,-1.1299 -0.0929,-0.5518 0.0471,-0.9344 0.4811,-1.324 l 0.1525,-0.1372 -0.9192,-0.9746 -0.1428,0.1206 c -0.7542,0.6252 -1.0758,1.5264 -0.9025,2.5412 0.2856,1.6983 1.8536,2.6091 3.9012,2.2625 1.1008,-0.1857 1.9895,-0.6848 2.5025,-1.4057 0.4103,-0.5768 0.5642,-1.2769 0.4381,-2.0144 m -1.568,-5.863 -6.4315,2.013 0.3397,1.0994 0.0596,0.19 6.4314,-2.0117 -0.3992,-1.2907 z m -1.4225,-3.6946 c 0,0 -4.5723,2.1128 -4.9092,2.2667 -0.1469,-0.3175 -1.3239,-2.8698 -1.3239,-2.8698 l -1.2104,0.5573 1.8051,3.9151 0.0846,0.1816 6.1222,-2.824 -0.5684,-1.2269 z M 98.18303,590.4228 c -16.6463,0 -30.13858,13.4922 -30.13858,30.1369 0,16.6447 13.49228,30.1382 30.13858,30.1382 16.64487,0 30.13717,-13.4935 30.13717,-30.1382 0,-16.6447 -13.4923,-30.1369 -30.13717,-30.1369 m -36.83481,49.6708 2.20435,3.6753 0.10259,0.1719 1.13545,-0.6821 c 0,0 -1.43214,-2.3873 -1.61237,-2.6882 0.22321,-0.1331 0.77915,-0.4658 1.00236,-0.5989 0.1622,0.2717 0.93581,1.5611 0.93581,1.5611 l 1.13406,-0.6808 c 0,0 -0.77222,-1.2907 -0.93581,-1.561 0.24677,-0.1483 1.12851,-0.6765 1.37529,-0.8249 0.18023,0.3022 1.68168,2.806 1.68168,2.806 l 1.13406,-0.6821 -2.37626,-3.9622 -5.78121,3.4659 z m 4.55842,-6.2054 c 0,0 -2.56619,-0.2759 -2.79079,-0.3008 -0.061,-0.1622 -0.29529,-0.7889 -0.38818,-1.037 0.31748,-0.1192 2.3513,-0.8804 2.3513,-0.8804 l -0.46721,-1.2463 -6.31359,2.361 1.04395,2.7921 c 0.48801,1.2921 1.5375,1.8134 2.74365,1.3614 0.90947,-0.3382 1.39609,-1.0023 1.39609,-1.8827 0,-0.0124 -0.0014,-0.0249 -0.0014,-0.0374 0.39374,0.0416 2.96686,0.3147 2.96686,0.3147 l -0.54069,-1.4446 z m -2.1683,-29.0652 -3.63094,-1.3628 -0.47414,1.2644 3.60598,1.3531 c 0.57535,0.2149 0.94829,0.5005 1.10634,0.8471 0.11923,0.2606 0.11507,0.5628 -0.01109,0.8983 -0.19271,0.5102 -0.59892,1.1285 -1.92015,0.6336 l -3.66421,-1.3725 -0.47414,1.263 3.64758,1.3683 c 1.77734,0.6669 3.0847,0.1567 3.68223,-1.4349 0.57673,-1.5361 -0.10537,-2.7963 -1.86746,-3.4576 m -6.97767,10.5836 c -0.10259,0.8484 0.10814,1.6026 0.64329,2.3083 l 0.12061,0.1622 1.07722,-0.8305 -0.12755,-0.158 c -0.32996,-0.4132 -0.4478,-0.8429 -0.38125,-1.3919 0.03743,-0.3217 0.14418,-0.5574 0.30362,-0.6821 l 0.38402,-0.0998 c 0.26342,0.0318 0.4381,0.1372 0.64051,1.3309 0.20796,1.1784 0.50326,2.2487 1.82587,2.4081 0.59892,0.0721 1.10772,-0.0499 1.51254,-0.3674 0.48801,-0.3826 0.79163,-1.0231 0.89838,-1.9035 0.1123,-0.9275 -0.17746,-1.8466 -0.79578,-2.5218 l -0.12616,-0.1386 -1.04395,0.8415 0.13309,0.1567 c 0.37294,0.4367 0.56565,1.0411 0.50049,1.5735 -0.11785,0.9788 -0.51851,1.0578 -0.85263,1.019 -0.31887,-0.0388 -0.50464,-0.2579 -0.69735,-1.3836 -0.22459,-1.3212 -0.46998,-2.1988 -1.78566,-2.3582 -0.5088,-0.0624 -0.98156,0.0651 -1.36836,0.366 -0.4686,0.3674 -0.77499,0.9607 -0.86095,1.6692 m 6.6283,4.8231 c 0.0083,-0.4949 -0.40482,-0.9219 -0.89976,-0.9316 -0.50048,-0.007 -0.93026,0.4076 -0.93997,0.9025 -0.0069,0.4949 0.40898,0.9219 0.90947,0.9303 0.49632,0.007 0.92194,-0.4049 0.93026,-0.9012 m 1.05781,-8.2447 c 0.122,-0.4797 -0.183,-0.9885 -0.66408,-1.1119 -0.48523,-0.122 -0.99958,0.1816 -1.12019,0.6627 -0.12062,0.4797 0.18577,0.9899 0.67101,1.1133 l 0.0014,0 c 0.48108,0.1206 0.98988,-0.1844 1.11188,-0.6641 m -7.38942,15.6909 c 0.17746,1.0481 0.73478,1.7482 1.65811,2.0823 l 0.18023,0.0652 0.51851,-1.2685 -0.183,-0.0763 c -0.53792,-0.2246 -0.75003,-0.4838 -0.84292,-1.0273 -0.06516,-0.3882 0.0042,-0.7278 0.20657,-1.0134 0.2953,-0.4132 0.85956,-0.7015 1.63177,-0.8318 1.32816,-0.2246 2.18217,0.1899 2.3416,1.1382 0.01803,0.1053 0.02773,0.2079 0.02773,0.3036 0,0.2565 -0.06377,0.4755 -0.19132,0.653 -0.17746,0.2495 -0.43532,0.3576 -0.66824,0.4186 -0.04713,-0.2703 -0.16914,-0.9954 -0.16914,-0.9954 l -1.29626,0.2191 0.40066,2.3679 0.92056,-0.1553 c 0.84569,-0.1428 1.507,-0.5212 1.91459,-1.0952 0.38126,-0.5365 0.51713,-1.2075 0.39374,-1.9409 -0.12478,-0.739 -0.49633,-1.3462 -1.07584,-1.7579 -0.71953,-0.5116 -1.72327,-0.6918 -2.82544,-0.5047 -1.10218,0.1858 -1.99085,0.6849 -2.50381,1.4058 -0.31748,0.4464 -0.48108,0.9635 -0.48108,1.5167 0,0.1622 0.01525,0.3286 0.04298,0.4963 m 10.96629,21.6634 0.13032,0.1511 1.00236,-0.8637 c 0,0 -1.81755,-2.1101 -2.04492,-2.3748 0.19687,-0.1692 0.68765,-0.5934 0.88451,-0.7626 0.20657,0.2413 1.18813,1.3809 1.18813,1.3809 l 1.00236,-0.8637 c 0,0 -0.98156,-1.141 -1.18813,-1.3795 0.21905,-0.1885 0.99681,-0.8581 1.21447,-1.0467 0.23014,0.2676 2.13364,2.4788 2.13364,2.4788 l 1.00374,-0.8637 -3.01538,-3.5019 -5.10743,4.3989 2.79633,3.2469 z m 3.09718,2.8906 4.40454,-1.5444 c 0,0 0.16637,-0.0638 0.28005,-0.1068 -0.13309,0.1622 -0.47414,0.5823 -0.47414,0.5823 l -2.17108,2.7062 0.87481,0.7042 0.15527,0.1248 4.22154,-5.2571 -0.94829,-0.7597 -4.56258,1.5527 c 0,0 -0.10537,0.0388 -0.18023,0.0652 0.09288,-0.1137 0.46998,-0.5768 0.46998,-0.5768 l 2.18217,-2.7186 -1.03009,-0.8305 -4.22153,5.2571 0.99958,0.8014 z m 11.14929,6.8306 c 0.59476,0.2523 1.15625,0.2884 1.62207,0.1012 0.42008,-0.1705 0.75281,-0.5185 0.96077,-1.0093 0.09427,-0.2204 0.14002,-0.4381 0.14002,-0.6502 0,-0.2565 -0.15527,-0.4894 -0.28975,-0.725 0.53098,-0.0278 1.14515,-0.2912 1.46679,-1.0481 0.14418,-0.3383 0.21627,-0.6599 0.21627,-0.9636 0,-0.2315 -0.04297,-0.4533 -0.12616,-0.6613 -0.21627,-0.5379 -0.69873,-0.969 -1.43213,-1.281 l -2.50103,-1.0647 -2.64106,6.2026 2.58421,1.0994 z m 5.9975,1.9853 0.80271,-3.764 c 0.22737,-1.0647 0.7542,-1.5153 1.56523,-1.3434 0.53098,0.1165 1.20477,0.4312 0.91085,1.8064 l -0.81796,3.8278 1.12574,0.2398 0.19548,0.0416 0.81381,-3.8083 c 0.20795,-0.9732 0.11507,-1.7718 -0.27589,-2.3735 -0.3466,-0.5365 -0.91502,-0.8928 -1.68723,-1.0564 -0.7431,-0.1594 -1.38638,-0.0679 -1.91044,0.2717 -0.60723,0.3938 -1.02176,1.0953 -1.23249,2.0851 l -0.81104,3.7918 1.32123,0.2814 z m 7.57797,1.1188 0.19825,0.0125 0.45889,-6.7239 -1.34756,-0.0915 -0.45751,6.7239 1.14793,0.079 z m 2.72147,-0.0846 0.01109,0.1983 1.34895,-0.0763 c 0,0 -0.28698,-5.0297 -0.30778,-5.3999 0.35076,-0.0194 3.15818,-0.1802 3.15818,-0.1802 l -0.0776,-1.3295 -4.50301,0.2564 0.37017,6.5312 z m 6.96794,-0.6169 0.0472,0.1941 1.8743,-0.4478 c 2.0034,-0.4797 2.9087,-1.9908 2.4165,-4.0441 -0.5795,-2.4164 -2.4373,-2.8808 -3.9817,-2.5121 l -1.8785,0.4492 1.5222,6.3607 z m 7.2328,-2.0421 0.0735,0.1843 1.256,-0.4935 -2.4608,-6.2733 -1.2561,0.4935 2.3874,6.089 z m 3.8264,-1.3504 1.1119,-0.6335 c 0,0 0.183,-4.6638 0.183,-4.6638 0,0 10e-4,-0.1774 0.003,-0.2994 0.1483,0.2634 0.3687,0.6529 0.3687,0.6529 l 1.7178,3.0154 1.1479,-0.6558 -3.3384,-5.856 -1.0537,0.6031 -0.2329,4.8135 c 0,0 -0.001,0.1123 -0.004,0.1899 -0.1372,-0.244 -0.3646,-0.646 -0.3646,-0.646 l -1.726,-3.0306 -1.1507,0.6557 3.24,5.6813 0.0984,0.1733 z m 8.9588,-5.9003 c 0.8069,-0.6905 1.1188,-1.5292 0.9303,-2.4941 l -0.0389,-0.1886 -1.3531,0.2108 0.0278,0.1954 c 0.0859,0.5768 -0.0264,0.8915 -0.4464,1.2519 -0.2967,0.2551 -0.6239,0.3716 -0.9719,0.3452 -0.506,-0.0374 -1.044,-0.3729 -1.5541,-0.9676 -0.5102,-0.5962 -0.7612,-1.1785 -0.7223,-1.6845 0.0277,-0.348 0.1913,-0.653 0.4893,-0.9094 0.3009,-0.2579 0.6031,-0.3771 0.9026,-0.3536 0.3078,0.0236 0.531,0.1914 0.7029,0.3577 -0.2066,0.1789 -0.7639,0.6572 -0.7639,0.6572 l 0.8554,0.9981 1.8231,-1.5652 -0.61,-0.707 c -0.5574,-0.6516 -1.2228,-1.0232 -1.9243,-1.0772 -0.6558,-0.0499 -1.3005,0.1802 -1.8661,0.6654 -0.5684,0.488 -0.897,1.1202 -0.9511,1.8287 -0.0679,0.8803 0.2953,1.8327 1.0246,2.6812 0.7278,0.8471 1.6151,1.3517 2.4955,1.4196 0.7084,0.0527 1.3836,-0.176 1.9506,-0.664 m 1.2547,-10.2883 c 0.1663,0.8679 0.768,1.69 1.6928,2.318 1.7163,1.1632 3.5214,0.9871 4.4877,-0.4381 0.6044,-0.8928 0.6835,-1.7593 0.2412,-2.6521 l -0.0859,-0.1705 -1.263,0.5601 0.0804,0.1816 c 0.2357,0.5407 0.2121,0.8748 -0.0915,1.3226 -0.2191,0.323 -0.5019,0.5199 -0.843,0.5864 -0.4949,0.0943 -1.1021,-0.0887 -1.7523,-0.531 -1.1133,-0.7541 -1.4474,-1.6428 -0.9137,-2.433 0.3147,-0.4631 0.6794,-0.6433 1.263,-0.6253 l 0.2052,0.007 0.0125,-1.3393 -0.1886,-0.0138 c -0.976,-0.0666 -1.83,0.3632 -2.4067,1.213 -0.4215,0.6211 -0.5726,1.3157 -0.4381,2.0144 m 9.7352,-4.6041 c 0.3008,-0.689 0.323,-1.4044 0.0637,-2.0685 -0.3216,-0.8221 -1.0633,-1.5222 -2.0865,-1.9686 -1.0217,-0.4478 -2.0366,-0.5171 -2.8587,-0.1955 -0.6641,0.2593 -1.1756,0.7625 -1.4765,1.4515 -0.3008,0.6863 -0.323,1.3989 -0.0638,2.0616 0.3203,0.8221 1.062,1.5222 2.0865,1.9686 1.9008,0.8318 3.6421,0.33 4.3353,-1.2491 m 1.8619,-5.2238 0.2883,-1.3185 -3.7612,-0.8263 c -0.6031,-0.1317 -1.0121,-0.3618 -1.2173,-0.682 -0.1538,-0.2413 -0.1913,-0.5393 -0.1136,-0.8887 0.0831,-0.3813 0.2412,-0.6433 0.4866,-0.7999 0.3022,-0.1941 0.7472,-0.2274 1.3212,-0.1012 l 3.825,0.8387 0.2884,-1.3198 -3.8042,-0.8346 c -1.855,-0.4062 -3.0764,0.2842 -3.4424,1.9451 -0.3508,1.6026 0.5018,2.7533 2.3402,3.1567 l 3.5935,0.7875 0.1955,0.043 z m 1.4612,-8.0354 0.0291,-1.2783 -3.9123,-2.5509 c 0,0 -0.1498,-0.0915 -0.2537,-0.1566 0.1566,0.005 0.7486,0.0221 0.7486,0.0221 l 3.4701,0.0694 0.0264,-1.3212 -6.7365,-0.1387 -0.0263,1.2145 4.0136,2.6673 c 0,0 0.097,0.0624 0.1608,0.1026 -0.1567,-0.004 -0.7431,-0.0194 -0.7431,-0.0194 l -3.4868,-0.0721 -0.0263,1.324 6.5368,0.1331 0.1996,0.004 z m -41.68436,42.8027 c -25.54965,0 -46.2636,-20.711 -46.2636,-46.2617 0,-25.5494 20.71395,-46.2617 46.2636,-46.2617 25.54966,0 46.26356,20.7123 46.26356,46.2617 0,25.5507 -20.7139,46.2617 -46.26356,46.2617" />
          <path
             inkscape:connector-curvature="0"
             id="path4355"
             style="fill:#000000;fill-opacity:1;fill-rule:nonzero;stroke:none"
             d="m 83.02237,653.4342 c 0.38681,0.165 1.3753,0.5851 1.3753,0.5851 0.31609,0.1344 0.51712,0.3036 0.59614,0.5032 l -0.05545,0.653 -0.43949,0.4769 c -0.20518,0.0832 -0.46166,0.0638 -0.7431,-0.0555 0,0 -1.11326,-0.4741 -1.40025,-0.5975 0.11507,-0.2689 0.55179,-1.2962 0.66685,-1.5652" />
          <path
             inkscape:connector-curvature="0"
             id="path4357"
             style="fill:#000000;fill-opacity:1;fill-rule:nonzero;stroke:none"
             d="m 61.63631,635.6565 c -0.49078,0.183 -0.88452,-0.0111 -1.08,-0.5337 0,0 -0.46582,-1.2477 -0.57673,-1.5444 0.27034,-0.1012 1.26299,-0.4728 1.53472,-0.5754 0.11092,0.2981 0.57813,1.5444 0.57813,1.5444 0.04713,0.1304 0.08318,0.2745 0.08318,0.4173 0,0.2718 -0.12755,0.5366 -0.5393,0.6918" />
          <path
             inkscape:connector-curvature="0"
             id="path4359"
             style="fill:#000000;fill-opacity:1;fill-rule:nonzero;stroke:none"
             d="m 131.2918,635.6159 c 0,-0.1871 0.0416,-0.3812 0.1275,-0.5781 0.3868,-0.8845 1.3185,-1.0841 2.5538,-0.5435 0.7153,0.3134 1.1936,0.7279 1.378,1.202 0.129,0.3272 0.1123,0.678 -0.0457,1.0412 -0.3868,0.8803 -1.3157,1.0758 -2.5482,0.5365 -0.958,-0.4201 -1.4654,-1.0051 -1.4654,-1.6581" />
          <path
             inkscape:connector-curvature="0"
             id="path4361"
             style="fill:#000000;fill-opacity:1;fill-rule:nonzero;stroke:none"
             d="m 107.6746,656.0804 c 0.4132,0.2551 0.7043,0.7264 0.8665,1.4044 0.0638,0.2634 0.0943,0.5088 0.0943,0.7333 0,0.3536 -0.0763,0.6572 -0.2329,0.9095 -0.2357,0.384 -0.6558,0.6516 -1.2519,0.7944 0,0 -0.3494,0.0832 -0.5643,0.1345 -0.0818,-0.3383 -0.872,-3.6434 -0.9524,-3.9817 0.2149,-0.0513 0.5642,-0.1345 0.5642,-0.1345 0.5948,-0.1428 1.0925,-0.0956 1.4765,0.1401" />
          <path
             inkscape:connector-curvature="0"
             id="path4363"
             style="fill:#000000;fill-opacity:1;fill-rule:nonzero;stroke:none"
             d="m 83.69047,657.3048 c 0,0.1095 -0.03188,0.2052 -0.05823,0.2676 -0.16636,0.3923 -0.45334,0.4963 -0.87203,0.3175 0,0 -1.09802,-0.4673 -1.38361,-0.5893 0.10398,-0.244 0.38125,-0.8969 0.48523,-1.1409 0.38819,0.1649 1.38361,0.5878 1.38361,0.5878 0.35492,0.1525 0.44503,0.3729 0.44503,0.5573" />
          <path
             inkscape:connector-curvature="0"
             id="path4365"
             style="fill:#ffffff;fill-opacity:1;fill-rule:nonzero;stroke:none"
             d="m 76.88846,584.4671 1.57077,2.379 c 0.23292,0.3508 0.79579,1.1632 0.96077,1.4114 -0.25232,-0.1789 -0.75142,-0.513 -1.16318,-0.7736 l -3.21502,-2.0089 0.58644,3.746 c 0.07902,0.4783 0.18993,1.0703 0.25509,1.3725 -0.16498,-0.2509 -0.69041,-1.0855 -0.92194,-1.4377 l -1.57077,-2.379 -1.26854,0.8388 4.27976,6.4771 1.24775,-0.8249 -0.58506,-3.8264 c -0.07209,-0.4714 -0.20102,-1.0897 -0.27173,-1.3753 0.24262,0.1844 0.73894,0.5352 1.1507,0.7944 l 3.24275,2.0726 1.27686,-0.8429 -4.27838,-6.4785 -1.29627,0.8554 z" />
          <path
             inkscape:connector-curvature="0"
             id="path4367"
             style="fill:#ffffff;fill-opacity:1;fill-rule:nonzero;stroke:none"
             d="m 81.7903,581.9571 2.5856,7.32 5.08248,-1.7953 -0.50603,-1.4321 -3.61846,1.2782 -0.4478,-1.2658 2.10314,-0.7417 -0.50187,-1.4238 -2.10175,0.7431 -0.62526,-1.7676 3.77512,-1.3337 -0.50465,-1.4321 -5.24052,1.8508 z" />
          <path
             inkscape:connector-curvature="0"
             id="path4369"
             style="fill:#ffffff;fill-opacity:1;fill-rule:nonzero;stroke:none"
             d="m 96.24098,578.7037 0.27035,2.8379 c 0.0402,0.4201 0.15527,1.4002 0.183,1.6983 -0.13725,-0.2773 -0.42146,-0.8069 -0.66269,-1.2283 l -1.89519,-3.2843 -1.24081,3.5824 c -0.15666,0.4602 -0.3355,1.0342 -0.41869,1.3309 -0.02772,-0.2967 -0.09982,-1.281 -0.14002,-1.7011 l -0.27035,-2.8379 -1.51254,0.1442 0.73617,7.729 1.49036,-0.1428 1.27963,-3.6545 c 0.15666,-0.4492 0.33273,-1.055 0.40621,-1.3406 0.12616,0.2773 0.40205,0.8193 0.6419,1.2422 l 1.88964,3.3508 1.52363,-0.1441 -0.73478,-7.7277 -1.54582,0.1456 z" />
          <path
             inkscape:connector-curvature="0"
             id="path4371"
             style="fill:#ffffff;fill-opacity:1;fill-rule:nonzero;stroke:none"
             d="m 104.7272,582.741 -2.0394,-0.3147 0.3064,-1.9826 2.0394,0.3134 c 0.7445,0.115 1.0342,0.5656 0.9413,1.1673 -0.1026,0.6585 -0.5032,0.9316 -1.2477,0.8166 m -0.5227,2.8032 -1.952,-0.2995 0.2246,-1.4584 2.0283,0.3119 c 0.6363,0.0998 0.8207,0.4312 0.7555,0.8582 -0.0762,0.481 -0.3882,0.6918 -1.0564,0.5878 m 0.9996,-6.2525 -3.4854,-0.5379 -1.1867,7.6721 3.5186,0.5435 c 1.4918,0.2301 2.5454,-0.3369 2.7478,-1.6526 0.0998,-0.6571 -0.1247,-1.2311 -0.5823,-1.6165 0.6586,-0.1774 1.202,-0.6668 1.3351,-1.5097 0.2468,-1.6124 -0.7042,-2.6452 -2.3471,-2.8989" />
          <path
             inkscape:connector-curvature="0"
             id="path4373"
             style="fill:#ffffff;fill-opacity:1;fill-rule:nonzero;stroke:none"
             d="m 111.3477,580.7372 -2.892,7.2036 5.0007,2.0102 0.567,-1.4113 -3.5616,-1.4293 0.5019,-1.2464 2.0685,0.8318 0.5601,-1.4002 -2.0685,-0.8318 0.6987,-1.7385 3.7141,1.4917 0.5671,-1.4099 -5.156,-2.0699 z" />
          <path
             inkscape:connector-curvature="0"
             id="path4375"
             style="fill:#ffffff;fill-opacity:1;fill-rule:nonzero;stroke:none"
             d="m 118.6398,591.4206 -1.6817,-1.1382 1.1216,-1.654 1.6789,1.1396 c 0.5975,0.4049 0.7306,0.897 0.3508,1.4571 -0.3924,0.5781 -0.9012,0.5809 -1.4696,0.1955 m 4.2701,-4.661 -2.716,1.5347 -1.2935,-0.8775 1.5667,-2.3139 -1.2852,-0.8706 -4.3546,6.4272 2.9918,2.0282 c 1.2131,0.8221 2.6674,0.8291 3.5935,-0.5393 0.6557,-0.9635 0.653,-1.8494 0.054,-2.7242 l 2.9211,-1.6636 -1.4778,-1.001 z" />
          <path
             inkscape:connector-curvature="0"
             id="path4377"
             style="fill:#000000;fill-opacity:1;fill-rule:nonzero;stroke:none"
             d="m 136.2024,583.116 0.4325,0 c 0.4437,0 0.5865,0.1275 0.5865,0.3882 0,0.2273 -0.1096,0.3549 -0.5255,0.3549 l -0.4935,0 0,-0.7431 z m 0,-1.3296 -0.366,0 0,2.3721 0.9094,0 c 0.5657,0 0.843,-0.2107 0.843,-0.6765 0,-0.427 -0.2662,-0.61 -0.6211,-0.6544 l 0.6765,-1.0412 -0.3993,0 -0.6322,1.0301 -0.4103,0 0,-1.0301 z m 0.4381,2.91 c -0.9539,0 -1.69,-0.7375 -1.69,-1.7191 0,-1.0023 0.7361,-1.7288 1.69,-1.7288 0.9427,0 1.6789,0.7265 1.6789,1.7288 0,0.9816 -0.7362,1.7191 -1.6789,1.7191 m 0,0.3328 c 1.1202,0 2.0795,-0.8707 2.0795,-2.0519 0,-1.1909 -0.9593,-2.0615 -2.0795,-2.0615 -1.1313,0 -2.0893,0.8706 -2.0893,2.0615 0,1.1812 0.958,2.0519 2.0893,2.0519" />
        </g>
      </g>
    </g>
  </g>
</svg>
