<?xml version="1.0" encoding="UTF-8" standalone="no"?>
<!-- Created with Inkscape (http://www.inkscape.org/) -->

<svg
   xmlns:dc="http://purl.org/dc/elements/1.1/"
   xmlns:cc="http://creativecommons.org/ns#"
   xmlns:rdf="http://www.w3.org/1999/02/22-rdf-syntax-ns#"
   xmlns:svg="http://www.w3.org/2000/svg"
   xmlns="http://www.w3.org/2000/svg"
   xmlns:sodipodi="http://sodipodi.sourceforge.net/DTD/sodipodi-0.dtd"
   xmlns:inkscape="http://www.inkscape.org/namespaces/inkscape"
   id="svg2"
   version="1.1"
   inkscape:version="0.48.5 r10040"
   width="350"
   height="200"
   xml:space="preserve"
   sodipodi:docname="MIT.eps"><metadata
     id="metadata8"><rdf:RDF><cc:Work
         rdf:about=""><dc:format>image/svg+xml</dc:format><dc:type
           rdf:resource="http://purl.org/dc/dcmitype/StillImage" /><dc:title></dc:title></cc:Work></rdf:RDF></metadata><defs
     id="defs6" /><sodipodi:namedview
     pagecolor="#fc8181"
     bordercolor="#666666"
     borderopacity="1"
     objecttolerance="10"
     gridtolerance="10"
     guidetolerance="10"
     inkscape:pageopacity="0.45490196"
     inkscape:pageshadow="2"
     inkscape:window-width="1073"
     inkscape:window-height="699"
     id="namedview4"
     showgrid="false"
     inkscape:zoom="0.97823834"
     inkscape:cx="-1.0222458"
     inkscape:cy="120.625"
     inkscape:window-x="65"
     inkscape:window-y="24"
     inkscape:window-maximized="0"
     inkscape:current-layer="g12" /><g
     id="g10"
     inkscape:groupmode="layer"
     inkscape:label="ink_ext_XXXXXX"
     transform="matrix(1.25,0,0,-1.25,0,200)"><g
       id="g12"
       transform="scale(0.1,0.1)"><g
         id="g3073"
         transform="matrix(3.0289498,0,0,3.0289498,55.854912,-2152.7987)"
         style="fill:#ffffff"><path
           inkscape:connector-curvature="0"
           id="path16"
           style="fill:#ffffff;fill-opacity:1;fill-rule:evenodd;stroke:none"
           d="m 467.984,1086.19 78.8633,0 0,74.2188 -78.8633,0 0,-74.2188 z" /><path
           inkscape:connector-curvature="0"
           id="path18"
           style="fill:#ffffff;fill-opacity:1;fill-rule:evenodd;stroke:none"
           d="m 596.332,789.309 78.3398,0 0,253.582 -78.3398,0 0,-253.582 z" /><path
           inkscape:connector-curvature="0"
           id="path20"
           style="fill:#ffffff;fill-opacity:1;fill-rule:evenodd;stroke:none"
           d="m 85.0391,789.309 78.3398,0 0,371.098 -78.3398,0 0,-371.098 z" /><path
           inkscape:connector-curvature="0"
           id="path22"
           style="fill:#ffffff;fill-opacity:1;fill-rule:evenodd;stroke:none"
           d="m 340.688,789.309 78.332,0 0,371.098 -78.332,0 0,-371.098 z" /><path
           inkscape:connector-curvature="0"
           id="path24"
           style="fill:#ffffff;fill-opacity:1;fill-rule:evenodd;stroke:none"
           d="m 212.859,906.82 78.3398,0 0,253.586 -78.3398,0 0,-253.586 z" /><path
           inkscape:connector-curvature="0"
           id="path26"
           style="fill:#ffffff;fill-opacity:1;fill-rule:evenodd;stroke:none"
           d="m 595.813,1086.19 206.68,0 0,74.2188 -206.68,0 0,-74.2188 z" /><path
           inkscape:connector-curvature="0"
           id="path96"
           style="fill:#ffffff;fill-opacity:1;fill-rule:evenodd;stroke:none"
           d="m 468.656,789.676 78.3398,0 0,253.582 -78.3398,0 0,-253.582 z" /></g></g></g></svg>