<?xml version="1.0" encoding="UTF-8" standalone="no"?>
<svg
   xmlns:dc="http://purl.org/dc/elements/1.1/"
   xmlns:cc="http://creativecommons.org/ns#"
   xmlns:rdf="http://www.w3.org/1999/02/22-rdf-syntax-ns#"
   xmlns:svg="http://www.w3.org/2000/svg"
   xmlns="http://www.w3.org/2000/svg"
   xmlns:sodipodi="http://sodipodi.sourceforge.net/DTD/sodipodi-0.dtd"
   xmlns:inkscape="http://www.inkscape.org/namespaces/inkscape"
   width="350"
   height="200"
   viewBox="0 0 280.00002 160"
   version="1.1"
   id="svg2"
   inkscape:version="0.48.5 r10040"
   sodipodi:docname="smart.svg">
  <metadata
     id="metadata72">
    <rdf:RDF>
      <cc:Work
         rdf:about="">
        <dc:format>image/svg+xml</dc:format>
        <dc:type
           rdf:resource="http://purl.org/dc/dcmitype/StillImage" />
        <dc:title />
      </cc:Work>
    </rdf:RDF>
  </metadata>
  <defs
     id="defs70" />
  <sodipodi:namedview
     pagecolor="#f83838"
     bordercolor="#666666"
     borderopacity="1"
     objecttolerance="10"
     gridtolerance="10"
     guidetolerance="10"
     inkscape:pageopacity="0.15294118"
     inkscape:pageshadow="2"
     inkscape:window-width="1214"
     inkscape:window-height="732"
     id="namedview68"
     showgrid="false"
     inkscape:zoom="1"
     inkscape:cx="-31.153218"
     inkscape:cy="42.716517"
     inkscape:window-x="75"
     inkscape:window-y="34"
     inkscape:window-maximized="0"
     inkscape:current-layer="svg2"
     fit-margin-left="5"
     fit-margin-top="5"
     fit-margin-bottom="5"
     fit-margin-right="5"
     units="px" />
  <g
     id="#fefefeff"
     transform="translate(-1589.1782,-399.74001)" />
  <g
     id="g3742"
     transform="matrix(0.40044491,0,0,0.40044491,2683.8331,20.414543)"
     style="fill:#ffffff">
    <g
       id="#ffffffff"
       style="fill:#ffffff" />
    <g
       transform="translate(-6677.6398,32.298137)"
       style="fill:#ffffff"
       id="#09018bff">
      <path
         inkscape:connector-curvature="0"
         style="fill:#ffffff"
         id="path6-9"
         d="m 60.75,1.5 c 8.25,0 16.5,0 24.75,0 0.01,8.33 0.01,16.67 0,25 -8.25,0 -16.5,0 -24.75,0 0,-8.33 -0.01,-16.67 0,-25 z" />
      <path
         inkscape:connector-curvature="0"
         style="fill:#ffffff"
         id="path8-9"
         d="m 31.5,26.5 c -0.01,-8.33 0,-16.67 0,-25 8.33,0 16.67,0 25,0 0,8.33 0,16.67 0,25 -8.33,0 -16.66,0 -25,0 z" />
      <path
         inkscape:connector-curvature="0"
         style="fill:#ffffff"
         id="path10-1"
         d="m 89.75,1.5 c 8.33,0 16.67,0 25,0 0,8.33 0,16.67 0,25.01 -8.33,-0.01 -16.67,-0.01 -25,-0.01 0,-8.33 -0.01,-16.67 0,-25 z" />
      <path
         inkscape:connector-curvature="0"
         style="fill:#ffffff"
         id="path12-7"
         d="m 119.25,26.5 c 0,-8.33 0,-16.67 0,-25 8.34,0 16.67,0 25,0 0,8.33 0,16.67 0,25 -8.33,0 -16.67,0 -25,0 z" />
      <path
         inkscape:connector-curvature="0"
         style="fill:#ffffff"
         id="path14-2"
         d="m 148.25,26.51 c 0,-8.34 -0.01,-16.68 0.01,-25.02 8.33,0.02 16.66,0.01 24.99,0.01 0,8.33 0.01,16.66 0,25 -8.33,0.01 -16.66,-0.01 -25,0.01 z" />
      <path
         inkscape:connector-curvature="0"
         style="fill:#ffffff"
         id="path16-3"
         d="m 2.5,55.51 c 0,-8.25 -0.01,-16.51 0,-24.76 8.33,0 16.67,-0.01 25,0 0.01,8.25 0,16.5 0,24.75 -8.33,0 -16.67,0 -25,0.01 z" />
      <path
         inkscape:connector-curvature="0"
         style="fill:#ffffff"
         id="path18-6"
         d="m 31.5,55.5 c 0,-8.25 -0.01,-16.5 0,-24.75 8.33,0 16.67,0 25,0 0.01,8.25 0,16.5 0,24.75 -8.33,0 -16.67,0 -25,0 z" />
      <path
         inkscape:connector-curvature="0"
         style="fill:#ffffff"
         id="path20-5"
         d="m 61.75,31.5 c 8.25,-0.01 16.5,0 24.75,0 0,8.33 0,16.67 0,25 -8.25,0 -16.5,0 -24.75,0 0,-8.33 0,-16.67 0,-25 z" />
      <path
         inkscape:connector-curvature="0"
         style="fill:#ffffff"
         id="path22-5"
         d="m 148.25,30.75 c 8.66,0.41 17.48,-0.86 26.04,0.7 -0.08,8.35 -0.02,16.7 -0.04,25.05 -8.52,-0.03 -17.03,0.09 -25.55,-0.07 -0.99,-8.51 -0.2,-17.13 -0.45,-25.68 z" />
      <path
         inkscape:connector-curvature="0"
         style="fill:#ffffff"
         id="path24-8"
         d="m 177.5,30.75 c 8.58,0.4 17.32,-0.86 25.79,0.69 -0.08,8.36 -0.02,16.71 -0.03,25.06 -8.47,-0.23 -17.01,0.49 -25.43,-0.35 -0.77,-8.43 -0.12,-16.94 -0.33,-25.4 z" />
      <path
         inkscape:connector-curvature="0"
         style="fill:#ffffff"
         id="path26-1"
         d="m 90.75,31.5 c 8.33,-0.01 16.67,-0.01 25,0 0,8.33 0,16.67 0,25 -8.33,0.01 -16.67,0.01 -25,0 -0.01,-8.33 -0.01,-16.67 0,-25 z" />
      <path
         inkscape:connector-curvature="0"
         style="fill:#ffffff"
         id="path28-4"
         d="m 119.75,31.5 c 8.33,0 16.67,-0.01 25,0 0,8.33 0.01,16.67 0,25 -8.34,0.01 -16.67,0 -25,0 0,-8.33 0,-16.67 0,-25 z" />
      <path
         inkscape:connector-curvature="0"
         style="fill:#ffffff"
         id="path30-7"
         d="m 2.5,59.75 c 8.33,0 16.67,0 25,0 0.01,8.33 0.01,16.67 0,25 -8.33,0 -16.67,0 -25,0 -0.01,-8.33 0,-16.67 0,-25 z" />
      <path
         inkscape:connector-curvature="0"
         style="fill:#ffffff"
         id="path32-1"
         d="m 31.5,59.75 c 7.2,0.02 14.39,-0.03 21.59,0 1.53,-0.05 2.98,0.45 4.43,0.86 -0.04,8.3 -0.01,16.6 -0.02,24.89 C 48.85,85.23 40.14,86.06 31.53,85.04 31.45,76.61 31.51,68.18 31.5,59.75 z" />
      <path
         inkscape:connector-curvature="0"
         style="fill:#ffffff"
         id="path34-3"
         d="m 148.25,59.75 c 8.33,0 16.67,0 25,0 0,8.33 0.01,16.66 0,25 -8.33,0 -16.67,0 -25,0 0,-8.34 0,-16.67 0,-25 z" />
      <path
         inkscape:connector-curvature="0"
         style="fill:#ffffff"
         id="path36-8"
         d="m 177.5,59.75 c 8.08,-0.01 16.16,0.02 24.24,-0.02 0.39,0.42 1.16,1.25 1.54,1.67 -0.07,8.03 -0.01,16.07 -0.03,24.1 -8.55,-0.13 -17.12,0.29 -25.66,-0.24 -0.19,-8.51 -0.05,-17.01 -0.09,-25.51 z" />
      <path
         inkscape:connector-curvature="0"
         style="fill:#ffffff"
         id="path38-4"
         d="m 61.75,60.75 c 8.25,0 16.5,0 24.75,0 0,8.25 0,16.5 0,24.75 -8.25,0 -16.5,-0.01 -24.75,0 0,-8.25 0.01,-16.5 0,-24.75 z" />
      <path
         inkscape:connector-curvature="0"
         style="fill:#ffffff"
         id="path40-8"
         d="m 207.5,60.75 c 8.33,-0.01 16.67,0 25,0 0.01,8.25 0.01,16.5 0,24.75 -8.34,0 -16.67,0 -25,0 0,-8.25 0,-16.5 0,-24.75 z" />
      <path
         inkscape:connector-curvature="0"
         style="fill:#ffffff"
         id="path42-0"
         d="m 2.5,88.75 c 8.33,0 16.67,0 25,0 0,8.33 0.01,16.67 0,25 -8.33,0 -16.67,0 -25,0 -0.01,-8.34 0,-16.67 0,-25 z" />
      <path
         inkscape:connector-curvature="0"
         style="fill:#ffffff"
         id="path44-4"
         d="m 31.5,88.75 c 7.19,0.02 14.38,-0.03 21.57,0 1.54,-0.06 3,0.44 4.45,0.87 -0.03,8.37 -0.02,16.75 -0.01,25.12 -8.64,-0.23 -17.34,0.54 -25.93,-0.43 C 31.4,105.79 31.54,97.27 31.5,88.75 z" />
      <path
         inkscape:connector-curvature="0"
         style="fill:#ffffff"
         id="path46-6"
         d="m 148.25,88.75 c 8.33,0 16.67,0 25,0 0,8.33 0.01,16.67 0,25 -8.33,0 -16.67,0 -25,0 0,-8.33 0,-16.67 0,-25 z" />
      <path
         inkscape:connector-curvature="0"
         style="fill:#ffffff"
         id="path48-0"
         d="m 177.5,88.75 c 8.03,-0.02 16.06,0.04 24.1,-0.04 0.42,0.39 1.25,1.17 1.67,1.56 -0.04,8.16 -0.01,16.32 -0.02,24.48 -8.55,-0.24 -17.16,0.53 -25.68,-0.44 -0.15,-8.52 -0.04,-17.04 -0.07,-25.56 z" />
      <path
         inkscape:connector-curvature="0"
         style="fill:#ffffff"
         id="path50-3"
         d="m 61.75,89.75 c 8.25,0 16.5,-0.01 24.75,0 0,8.33 -0.01,16.66 0,24.99 -8.25,0.02 -16.5,0.01 -24.75,0.01 0,-8.33 0,-16.67 0,-25 z" />
      <path
         inkscape:connector-curvature="0"
         style="fill:#ffffff"
         id="path52-2"
         d="m 207.5,89.75 c 8.33,0 16.67,0 25,0 0.01,8.33 0.01,16.66 0,25 -8.33,0 -16.67,0 -25,-0.01 0.01,-8.33 -0.01,-16.66 0,-24.99 z" />
      <path
         inkscape:connector-curvature="0"
         style="fill:#ffffff"
         id="path54-6"
         d="m 2.5,118.25 c 8.33,0 16.67,0 25,0 0.01,8.33 0,16.67 0,25 -8.33,0 -16.67,0 -25,0 0,-8.33 -0.01,-16.66 0,-25 z" />
      <path
         inkscape:connector-curvature="0"
         style="fill:#ffffff"
         id="path56-9"
         d="m 31.5,118.25 c 8.66,0.16 17.34,-0.33 25.98,0.28 0.04,8.41 0.01,16.81 0.03,25.22 -8.66,-0.14 -17.34,0.32 -25.99,-0.28 -0.05,-8.41 -0.02,-16.81 -0.02,-25.22 z" />
      <path
         inkscape:connector-curvature="0"
         style="fill:#ffffff"
         id="path58-4"
         d="m 148.25,118.25 c 8.33,0 16.67,0 25,0 0.01,8.33 0,16.67 0,25 -8.33,0 -16.67,0 -25,0 0,-8.33 0,-16.67 0,-25 z" />
      <path
         inkscape:connector-curvature="0"
         style="fill:#ffffff"
         id="path60-1"
         d="m 177.5,118.25 c 8.58,0.17 17.19,-0.37 25.75,0.32 0,8.39 0,16.79 0,25.18 -8.58,-0.15 -17.17,0.34 -25.73,-0.28 -0.05,-8.41 0,-16.81 -0.02,-25.22 z" />
      <path
         inkscape:connector-curvature="0"
         style="fill:#ffffff"
         id="path62-3"
         d="m 61.75,118.75 c 8.25,0 16.5,0 24.75,0 0,8.33 0.01,16.67 0,25 -8.25,0 -16.5,0 -24.75,0 0,-8.34 0,-16.67 0,-25 z" />
      <path
         inkscape:connector-curvature="0"
         style="fill:#ffffff"
         id="path64-7"
         d="m 207.5,118.75 c 8.33,0 16.67,0 25,0 0.01,8.33 0,16.66 0,25 -8.33,0 -16.67,0 -25,0 0,-8.34 0,-16.67 0,-25 z" />
      <path
         inkscape:connector-curvature="0"
         style="fill:#ffffff"
         id="path66-8"
         d="m 269.25,143 c 2.58,0 5.17,0 7.76,0 -0.01,2.58 -0.01,5.17 -0.01,7.75 -2.59,0 -5.17,0 -7.75,0 0,-2.58 0,-5.17 0,-7.75 z" />
      <path
         inkscape:connector-curvature="0"
         style="fill:#ffffff"
         id="path68"
         d="m 278,143 c 2.5,0 5,0 7.5,0 0,2.58 0,5.16 0.01,7.75 -2.51,0 -5.01,0 -7.51,0 -0.01,-2.58 0,-5.17 0,-7.75 z" />
      <path
         inkscape:connector-curvature="0"
         style="fill:#ffffff"
         id="path70"
         d="m 286.75,143 c 2.5,0 5,0 7.51,0 -0.01,2.58 -0.01,5.17 -0.01,7.75 -2.5,0 -5,0 -7.5,0 0,-2.58 0,-5.17 0,-7.75 z" />
      <path
         inkscape:connector-curvature="0"
         style="fill:#ffffff"
         id="path72"
         d="m 295.5,143 c 2.49,0 4.99,0 7.5,0 0,2.58 0,5.17 0,7.75 -2.5,0 -5,0 -7.5,0 -0.01,-2.58 0,-5.17 0,-7.75 z" />
      <path
         inkscape:connector-curvature="0"
         style="fill:#ffffff"
         id="path74"
         d="m 304,143 c 2.58,0 5.16,0 7.75,0 0,2.58 0,5.17 0,7.75 -2.59,0 -5.17,0 -7.75,0 0,-2.58 0,-5.17 0,-7.75 z" />
      <path
         inkscape:connector-curvature="0"
         style="fill:#ffffff"
         id="path76"
         d="m 326.25,143 c 2.5,0 5,0 7.5,0 0,2.58 0,5.17 0,7.75 -2.5,0 -5,0 -7.5,0 -0.01,-2.59 0,-5.17 0,-7.75 z" />
      <path
         inkscape:connector-curvature="0"
         style="fill:#ffffff"
         id="path78"
         d="m 334.75,143 c 2.58,0 5.16,0 7.75,0 0,2.58 0,5.16 0,7.75 -2.58,0 -5.17,0 -7.75,0 -0.01,-2.58 -0.01,-5.17 0,-7.75 z" />
      <path
         inkscape:connector-curvature="0"
         style="fill:#ffffff"
         id="path80"
         d="m 343.5,143 c 2.49,0 5,0 7.5,0 0,2.58 0,5.17 0,7.75 -2.5,-0.01 -5.01,0 -7.5,-0.01 -0.01,-2.58 -0.01,-5.16 0,-7.74 z" />
      <path
         inkscape:connector-curvature="0"
         style="fill:#ffffff"
         id="path82"
         d="m 352.25,143 c 2.5,0 5,0 7.5,0 0,2.58 0,5.16 0,7.75 -2.5,0 -5,0 -7.5,0 -0.01,-2.59 0,-5.17 0,-7.75 z" />
      <path
         inkscape:connector-curvature="0"
         style="fill:#ffffff"
         id="path84"
         d="m 361,143 c 2.5,0 5,0 7.51,0 -0.01,2.58 -0.01,5.17 -0.01,7.75 -2.5,0 -5,0 -7.5,0 0,-2.58 0,-5.17 0,-7.75 z" />
      <path
         inkscape:connector-curvature="0"
         style="fill:#ffffff"
         id="path86"
         d="m 369.5,143 c 2.58,0 5.17,0 7.75,0.01 0,2.58 0,5.16 0,7.74 -2.59,0 -5.17,0 -7.75,0 0,-2.59 0,-5.17 0,-7.75 z" />
      <path
         inkscape:connector-curvature="0"
         style="fill:#ffffff"
         id="path88"
         d="m 391.75,143 c 2.5,-0.01 5,0 7.5,0 0,2.58 0,5.17 0,7.75 -2.5,0 -5,0 -7.5,0 -0.01,-2.59 -0.01,-5.17 0,-7.75 z" />
      <path
         inkscape:connector-curvature="0"
         style="fill:#ffffff"
         id="path90"
         d="m 400.25,143 c 2.58,0 5.17,0 7.76,0 -0.01,2.58 -0.01,5.17 -0.01,7.75 -2.59,0 -5.17,0 -7.75,0 -0.01,-2.58 0,-5.17 0,-7.75 z" />
      <path
         inkscape:connector-curvature="0"
         style="fill:#ffffff"
         id="path92"
         d="m 409,143 c 2.5,0 5,0 7.5,0 0,2.58 -0.01,5.16 0,7.75 -2.5,0 -5,0 -7.5,0 0,-2.58 0,-5.17 0,-7.75 z" />
      <path
         inkscape:connector-curvature="0"
         style="fill:#ffffff"
         id="path94"
         d="m 417.74,143 c 2.5,0 5.01,0 7.51,0 0,2.58 0,5.17 0,7.75 -2.5,0 -5,0 -7.5,0 -0.01,-2.59 -0.01,-5.17 -0.01,-7.75 z" />
      <path
         inkscape:connector-curvature="0"
         style="fill:#ffffff"
         id="path96"
         d="m 426.49,143 c 2.5,0 5,0 7.51,0 0,2.58 0,5.17 0.01,7.75 -2.51,0 -5.02,0 -7.51,0 -0.01,-2.59 -0.01,-5.17 -0.01,-7.75 z" />
      <path
         inkscape:connector-curvature="0"
         style="fill:#ffffff"
         id="path98"
         d="m 434.99,143 c 2.58,0 5.17,0 7.76,0 0,2.58 0,5.17 0,7.75 -2.58,0 -5.17,0 -7.75,0 -0.01,-2.58 -0.01,-5.17 -0.01,-7.75 z" />
      <path
         inkscape:connector-curvature="0"
         style="fill:#ffffff"
         id="path100"
         d="m 465.75,143 c 2.58,0 5.16,0 7.75,0 0,2.58 -0.01,5.16 0.01,7.74 -2.59,0.01 -5.18,0.01 -7.76,0.01 -0.01,-2.58 0,-5.16 0,-7.75 z" />
      <path
         inkscape:connector-curvature="0"
         style="fill:#ffffff"
         id="path102"
         d="m 474.5,143 c 2.5,0 5,0 7.51,0 -0.01,2.58 -0.01,5.17 -0.01,7.75 -2.51,0 -5.01,0 -7.5,0 -0.01,-2.59 -0.01,-5.17 0,-7.75 z" />
      <path
         inkscape:connector-curvature="0"
         style="fill:#ffffff"
         id="path104"
         d="m 483.25,143 c 2.5,0 5,-0.01 7.5,0 0,2.58 0,5.17 0,7.75 -2.51,0 -5.01,0 -7.5,0 -0.01,-2.58 0,-5.16 0,-7.75 z" />
      <path
         inkscape:connector-curvature="0"
         style="fill:#ffffff"
         id="path106"
         d="m 491.99,143 c 2.5,0 5,0 7.51,0 0,2.58 -0.01,5.16 0.01,7.74 -2.51,0.01 -5.01,0.01 -7.51,0.01 -0.01,-2.58 -0.01,-5.16 -0.01,-7.75 z" />
      <path
         inkscape:connector-curvature="0"
         style="fill:#ffffff"
         id="path108"
         d="m 500.5,143 c 2.58,0 5.16,0 7.75,0 0,2.58 0,5.17 0,7.75 -2.59,0 -5.17,0 -7.76,-0.01 0,-2.58 0,-5.16 0.01,-7.74 z" />
      <path
         inkscape:connector-curvature="0"
         style="fill:#ffffff"
         id="path110"
         d="m 522.75,143 c 2.49,0 5,0 7.5,0 0,2.58 0,5.17 0,7.75 -2.5,0 -5,0 -7.5,0 -0.01,-2.59 -0.01,-5.17 0,-7.75 z" />
      <path
         inkscape:connector-curvature="0"
         style="fill:#ffffff"
         id="path112"
         d="m 531.25,143 c 2.58,0 5.17,0 7.76,0 -0.01,2.58 -0.01,5.17 -0.01,7.76 -2.59,-0.01 -5.17,-0.01 -7.75,-0.01 -0.01,-2.58 0,-5.17 0,-7.75 z" />
      <path
         inkscape:connector-curvature="0"
         style="fill:#ffffff"
         id="path114"
         d="m 540,143 c 2.5,0 5,0 7.51,0 -0.01,2.58 -0.02,5.17 -0.01,7.75 -2.51,0 -5.01,0 -7.5,0 -0.01,-2.58 0,-5.17 0,-7.75 z" />
      <path
         inkscape:connector-curvature="0"
         style="fill:#ffffff"
         id="path116"
         d="m 548.75,143 c 2.49,0 5,0 7.51,0 -0.01,2.58 -0.02,5.16 -0.01,7.75 -2.5,0 -5,0 -7.5,0 -0.01,-2.58 -0.01,-5.17 0,-7.75 z" />
      <path
         inkscape:connector-curvature="0"
         style="fill:#ffffff"
         id="path118"
         d="m 557.49,143 c 2.5,0 5.01,0 7.52,0 -0.01,2.58 -0.01,5.16 -0.01,7.75 -2.51,0 -5.01,0 -7.5,0 -0.01,-2.58 -0.01,-5.17 -0.01,-7.75 z" />
      <path
         inkscape:connector-curvature="0"
         style="fill:#ffffff"
         id="path120"
         d="m 566,143 c 2.58,0 5.16,0 7.75,0 0,2.58 0,5.17 0,7.75 -2.59,0 -5.17,0 -7.76,0 C 566,148.17 566,145.58 566,143 z" />
      <path
         inkscape:connector-curvature="0"
         style="fill:#ffffff"
         id="path122"
         d="m 574.75,143 c 2.49,0 5,0 7.5,0 0,2.58 0,5.17 0,7.75 -2.5,0 -5,0 -7.5,0 -0.01,-2.59 -0.01,-5.17 0,-7.75 z" />
      <path
         inkscape:connector-curvature="0"
         style="fill:#ffffff"
         id="path124"
         d="m 596.99,143 c 2.5,0 5,0 7.51,0 0,2.58 0,5.16 0.01,7.74 -2.51,0.01 -5.01,0.01 -7.51,0.01 -0.01,-2.58 -0.01,-5.17 -0.01,-7.75 z" />
      <path
         inkscape:connector-curvature="0"
         style="fill:#ffffff"
         id="path126"
         d="m 605.5,143 c 2.5,0 5,0 7.51,0 -0.01,2.58 -0.01,5.17 -0.02,7.75 -2.5,0 -5,0 -7.49,0 -0.01,-2.59 -0.01,-5.17 0,-7.75 z" />
      <path
         inkscape:connector-curvature="0"
         style="fill:#ffffff"
         id="path128"
         d="m 614.25,143 c 2.5,0 5,0 7.5,0 0,2.58 0,5.16 0,7.75 -2.51,0 -5.01,0 -7.5,0 -0.01,-2.58 0,-5.17 0,-7.75 z" />
      <path
         inkscape:connector-curvature="0"
         style="fill:#ffffff"
         id="path130"
         d="m 623,143 c 2.49,0 4.99,0 7.5,0 0,2.58 0,5.16 0,7.75 -2.5,0 -5,0 -7.5,0 -0.01,-2.58 -0.01,-5.17 0,-7.75 z" />
      <path
         inkscape:connector-curvature="0"
         style="fill:#ffffff"
         id="path132"
         d="m 631.5,143 c 2.57,0 5.16,0 7.75,0 0,2.59 0,5.17 0,7.75 -2.59,0 -5.17,0 -7.75,0 -0.01,-2.59 -0.01,-5.17 0,-7.75 z" />
      <path
         inkscape:connector-curvature="0"
         style="fill:#ffffff"
         id="path134"
         d="m 2.5,147.5 c 8.33,0 16.67,-0.01 25,0 0.01,8.25 0.01,16.5 0,24.75 -8.33,0 -16.67,0 -25,0 0,-8.25 -0.01,-16.5 0,-24.75 z" />
      <path
         inkscape:connector-curvature="0"
         style="fill:#ffffff"
         id="path136"
         d="m 177.5,147.5 c 8.11,-0.01 16.21,0.01 24.32,-0.01 0.37,0.3 1.09,0.89 1.46,1.19 -0.06,8.19 -0.01,16.38 -0.03,24.57 -7.1,-0.02 -14.2,0.03 -21.3,0.01 -1.54,0.04 -3.01,-0.46 -4.47,-0.87 0.04,-8.3 0.01,-16.59 0.02,-24.89 z" />
      <path
         inkscape:connector-curvature="0"
         style="fill:#ffffff"
         id="path138"
         d="m 31.5,172.04 c -0.01,-8.18 -0.01,-16.36 0,-24.54 8.64,0.12 17.28,-0.28 25.91,0.23 0.19,8.51 0.04,17.01 0.09,25.52 -8,0.03 -16,-0.03 -24,0.03 -0.5,-0.31 -1.5,-0.93 -2,-1.24 z" />
      <path
         inkscape:connector-curvature="0"
         style="fill:#ffffff"
         id="path140"
         d="m 61.75,148.25 c 8.25,0 16.5,0.01 24.75,0 0,8.33 0,16.66 0,25 -8.25,0 -16.5,0.01 -24.75,0 0,-8.33 0,-16.67 0,-25 z" />
      <path
         inkscape:connector-curvature="0"
         style="fill:#ffffff"
         id="path142"
         d="m 148.25,172.25 c 0,-8.25 0,-16.5 0,-24.76 8.34,0.01 16.67,0 25,0.01 0.01,8.25 0.01,16.5 0,24.75 -8.33,0 -16.67,0 -25,0 z" />
      <path
         inkscape:connector-curvature="0"
         style="fill:#ffffff"
         id="path144"
         d="m 207.5,148.25 c 8.33,0 16.67,0 25,0 0,8.34 0.01,16.67 0,25 -8.34,0 -16.67,0 -25,0 0,-8.33 0,-16.67 0,-25 z" />
      <path
         inkscape:connector-curvature="0"
         style="fill:#ffffff"
         id="path146"
         d="m 260.75,151.75 c 2.5,0 5,-0.01 7.5,0 0,2.5 0,5 0,7.5 -2.5,0 -5,0 -7.5,0 -0.01,-2.5 0,-5 0,-7.5 z" />
      <path
         inkscape:connector-curvature="0"
         style="fill:#ffffff"
         id="path148"
         d="m 269.25,159.25 c -0.01,-2.5 0,-5 0,-7.5 2.58,0 5.16,0 7.75,0 0,2.5 0,5 0,7.5 -2.58,0 -5.17,0 -7.75,0 z" />
      <path
         inkscape:connector-curvature="0"
         style="fill:#ffffff"
         id="path150"
         d="m 304,151.75 c 2.58,0 5.16,0 7.75,0 0,2.5 0,5 -0.01,7.5 -2.58,0 -5.16,0 -7.74,0 0,-2.5 0,-5 0,-7.5 z" />
      <path
         inkscape:connector-curvature="0"
         style="fill:#ffffff"
         id="path152"
         d="m 312.75,151.75 c 2.5,0 5,0 7.5,0 0,2.5 0,5 0,7.5 -2.5,0 -5,0 -7.5,0 -0.01,-2.5 -0.01,-5 0,-7.5 z" />
      <path
         inkscape:connector-curvature="0"
         style="fill:#ffffff"
         id="path154"
         d="m 343.5,159.25 c 0,-2.5 0,-5 0,-7.5 2.5,0 5,0 7.5,0 0,2.5 0,5 0,7.5 -2.5,0 -5.01,0 -7.5,0 z" />
      <path
         inkscape:connector-curvature="0"
         style="fill:#ffffff"
         id="path156"
         d="m 352.25,151.75 c 2.5,0 5,0 7.5,0 0,2.5 0,5 0,7.5 -2.5,0 -5,0 -7.5,0 0,-2.5 0,-5 0,-7.5 z" />
      <path
         inkscape:connector-curvature="0"
         style="fill:#ffffff"
         id="path158"
         d="m 409,151.75 c 2.5,0 5,0 7.5,0 0,2.5 0,5 0,7.5 -2.5,0 -5,0 -7.5,0 0,-2.5 -0.01,-5 0,-7.5 z" />
      <path
         inkscape:connector-curvature="0"
         style="fill:#ffffff"
         id="path160"
         d="m 417.75,151.75 c 2.5,0 5,0 7.5,0 0,2.5 0,5 0,7.5 -2.51,0 -5.01,0.01 -7.5,0 -0.01,-2.5 -0.01,-5 0,-7.5 z" />
      <path
         inkscape:connector-curvature="0"
         style="fill:#ffffff"
         id="path162"
         d="m 457.25,151.75 c 2.5,-0.01 4.99,-0.01 7.5,0 0,2.5 -0.01,5 0,7.5 -2.5,0 -5,0 -7.5,0 -0.01,-2.5 -0.01,-5 0,-7.5 z" />
      <path
         inkscape:connector-curvature="0"
         style="fill:#ffffff"
         id="path164"
         d="m 465.75,151.75 c 2.58,-0.01 5.16,0 7.75,0 0,2.5 0,5 0,7.5 -2.59,0 -5.17,0.01 -7.75,0 -0.01,-2.5 -0.01,-5 0,-7.5 z" />
      <path
         inkscape:connector-curvature="0"
         style="fill:#ffffff"
         id="path166"
         d="m 500.5,159.25 c 0,-2.5 -0.01,-5 0,-7.5 2.58,0 5.16,0 7.75,0 0,2.5 0,5 0,7.5 -2.59,0 -5.17,0 -7.75,0 z" />
      <path
         inkscape:connector-curvature="0"
         style="fill:#ffffff"
         id="path168"
         d="m 509.25,151.75 c 2.49,0 4.99,0 7.5,0 0,2.5 0,5 0,7.5 -2.5,0 -5,0 -7.49,0 -0.02,-2.5 -0.01,-5 -0.01,-7.5 z" />
      <path
         inkscape:connector-curvature="0"
         style="fill:#ffffff"
         id="path170"
         d="m 522.75,151.75 c 2.5,-0.01 5,0 7.5,0 0,2.5 0,5 0,7.5 -2.51,0 -5,0 -7.5,0 -0.01,-2.5 -0.01,-5 0,-7.5 z" />
      <path
         inkscape:connector-curvature="0"
         style="fill:#ffffff"
         id="path172"
         d="m 531.25,151.75 c 2.58,0 5.16,0 7.75,0 0,2.5 0,5 0,7.5 -2.59,0.01 -5.17,0 -7.75,0 -0.01,-2.5 0,-5 0,-7.5 z" />
      <path
         inkscape:connector-curvature="0"
         style="fill:#ffffff"
         id="path174"
         d="m 588.25,151.75 c 2.49,0 5,-0.01 7.5,0 0,2.5 -0.01,5 0,7.5 -2.5,0 -5,0 -7.5,0 -0.01,-2.5 -0.01,-5 0,-7.5 z" />
      <path
         inkscape:connector-curvature="0"
         style="fill:#ffffff"
         id="path176"
         d="m 597,151.75 c 2.49,0 4.99,0 7.5,0 0,2.5 0,5 0,7.5 -2.51,0 -5,0 -7.5,0 -0.01,-2.5 -0.01,-5 0,-7.5 z" />
      <path
         inkscape:connector-curvature="0"
         style="fill:#ffffff"
         id="path178"
         d="m 631.5,159.25 c -0.01,-2.5 -0.01,-5 0,-7.5 2.58,0 5.16,0 7.75,0 0,2.5 0,5 0,7.5 -2.59,0 -5.17,0 -7.75,0 z" />
      <path
         inkscape:connector-curvature="0"
         style="fill:#ffffff"
         id="path180"
         d="m 640.25,151.75 c 2.49,0 4.99,0 7.5,0 0,2.5 0,5 0,7.5 -2.51,0 -5.01,0 -7.5,0 -0.01,-2.5 -0.01,-5 0,-7.5 z" />
      <path
         inkscape:connector-curvature="0"
         style="fill:#ffffff"
         id="path182"
         d="m 260.75,160.25 c 2.5,-0.01 5,0 7.5,0 0,2.58 0,5.17 0,7.75 -2.5,0 -5.01,0 -7.51,0 0,-2.58 0.01,-5.17 0.01,-7.75 z" />
      <path
         inkscape:connector-curvature="0"
         style="fill:#ffffff"
         id="path184"
         d="m 269.25,160.25 c 2.58,0 5.16,0 7.75,0 0,2.58 0,5.17 0,7.75 -2.58,0 -5.17,0 -7.75,0 0,-2.59 0,-5.17 0,-7.75 z" />
      <path
         inkscape:connector-curvature="0"
         style="fill:#ffffff"
         id="path186"
         d="m 343.5,160.25 c 2.5,-0.01 4.99,0 7.5,0 0,2.58 0,5.16 0,7.75 -2.5,0 -5,0 -7.5,0 -0.01,-2.58 -0.01,-5.17 0,-7.75 z" />
      <path
         inkscape:connector-curvature="0"
         style="fill:#ffffff"
         id="path188"
         d="m 352.25,160.25 c 2.5,0 5,0 7.5,0 0,2.58 0,5.16 0,7.75 -2.5,0 -5,0 -7.5,0 0,-2.59 0,-5.17 0,-7.75 z" />
      <path
         inkscape:connector-curvature="0"
         style="fill:#ffffff"
         id="path190"
         d="m 409,160.25 c 2.5,0 5,0 7.5,0 0,2.58 0,5.16 0,7.75 -2.5,0 -5,0 -7.5,0 0,-2.58 -0.01,-5.17 0,-7.75 z" />
      <path
         inkscape:connector-curvature="0"
         style="fill:#ffffff"
         id="path192"
         d="m 417.75,160.25 c 2.5,-0.01 5,0 7.5,0 0,2.58 0,5.17 0,7.75 -2.5,0 -5.01,0 -7.5,0 -0.01,-2.58 -0.01,-5.17 0,-7.75 z" />
      <path
         inkscape:connector-curvature="0"
         style="fill:#ffffff"
         id="path194"
         d="m 457.25,160.25 c 2.5,0 5,0 7.5,0 0,2.58 0,5.16 0,7.75 -2.5,0 -5.01,0 -7.5,0 0,-2.59 0,-5.17 0,-7.75 z" />
      <path
         inkscape:connector-curvature="0"
         style="fill:#ffffff"
         id="path196"
         d="m 465.75,160.25 c 2.58,0 5.17,0 7.76,0 -0.02,2.58 -0.01,5.17 -0.01,7.75 -2.59,0 -5.17,0 -7.75,0 0,-2.58 -0.01,-5.17 0,-7.75 z" />
      <path
         inkscape:connector-curvature="0"
         style="fill:#ffffff"
         id="path198"
         d="m 522.75,160.25 c 2.49,0 4.99,0 7.5,0 0,2.58 0,5.16 0,7.75 -2.51,0 -5.01,0 -7.5,0 -0.01,-2.58 -0.01,-5.17 0,-7.75 z" />
      <path
         inkscape:connector-curvature="0"
         style="fill:#ffffff"
         id="path200"
         d="m 531.25,160.25 c 2.58,0 5.16,0 7.74,0 0.01,2.58 0,5.16 0.01,7.75 -2.59,0 -5.17,0 -7.75,0 -0.01,-2.59 -0.01,-5.17 0,-7.75 z" />
      <path
         inkscape:connector-curvature="0"
         style="fill:#ffffff"
         id="path202"
         d="m 588.25,160.25 c 2.5,0 5,0 7.5,0 0,2.58 -0.01,5.17 0,7.75 -2.51,0 -5.01,0 -7.5,0 0,-2.58 -0.01,-5.17 0,-7.75 z" />
      <path
         inkscape:connector-curvature="0"
         style="fill:#ffffff"
         id="path204"
         d="m 597,160.25 c 2.5,0 4.99,0 7.5,0 0,2.58 0,5.16 0,7.75 -2.51,0 -5.01,0 -7.5,0 -0.01,-2.58 -0.01,-5.17 0,-7.75 z" />
      <path
         inkscape:connector-curvature="0"
         style="fill:#ffffff"
         id="path206"
         d="m 269.25,169 c 2.58,0 5.17,0 7.75,0 0,2.5 0,5 0,7.5 -2.59,0 -5.17,0 -7.75,0 0,-2.5 0,-5 0,-7.5 z" />
      <path
         inkscape:connector-curvature="0"
         style="fill:#ffffff"
         id="path208"
         d="m 278,169 c 2.5,0 5,0 7.51,0 -0.01,2.5 -0.01,5 -0.01,7.5 -2.5,0 -5,0 -7.5,0 0,-2.5 0,-5 0,-7.5 z" />
      <path
         inkscape:connector-curvature="0"
         style="fill:#ffffff"
         id="path210"
         d="m 286.75,169 c 2.5,0 5,0 7.5,0 0,2.5 0,5 0,7.5 -2.5,0 -5,0 -7.5,0 0,-2.5 0,-5.01 0,-7.5 z" />
      <path
         inkscape:connector-curvature="0"
         style="fill:#ffffff"
         id="path212"
         d="M 295.49,169.01 C 298,168.99 300.5,169 303,169 c 0,2.49 0,4.99 0,7.5 -2.5,0 -5,0 -7.5,0.01 -0.01,-2.51 -0.01,-5.01 -0.01,-7.5 z" />
      <path
         inkscape:connector-curvature="0"
         style="fill:#ffffff"
         id="path214"
         d="m 304,169 c 2.58,0 5.16,0 7.75,0 0,2.5 0,5 0,7.5 -2.59,0 -5.17,0 -7.75,0 0,-2.5 0,-5 0,-7.5 z" />
      <path
         inkscape:connector-curvature="0"
         style="fill:#ffffff"
         id="path216"
         d="m 343.5,169 c 2.5,-0.01 5,0 7.51,0 -0.01,2.5 -0.01,5 -0.01,7.51 -2.51,-0.01 -5.01,-0.01 -7.51,-0.01 0,-2.5 0,-5 0.01,-7.5 z" />
      <path
         inkscape:connector-curvature="0"
         style="fill:#ffffff"
         id="path218"
         d="m 352.25,169 c 2.5,0 5,0 7.5,0 0,2.5 0,5 0,7.51 -2.5,-0.01 -5,-0.01 -7.5,0 0,-2.51 0,-5.01 0,-7.51 z" />
      <path
         inkscape:connector-curvature="0"
         style="fill:#ffffff"
         id="path220"
         d="m 408.99,169 c 2.5,0 5.01,0 7.51,0 0,2.5 0,5 0,7.5 -2.5,0 -5,0 -7.49,0.01 C 408.99,174 409,171.5 408.99,169 z" />
      <path
         inkscape:connector-curvature="0"
         style="fill:#ffffff"
         id="path222"
         d="m 417.75,169 c 2.49,0 5,0 7.5,0 0,2.5 0,5 0,7.5 -2.5,0 -5,0 -7.5,0 -0.01,-2.5 0,-5 0,-7.5 z" />
      <path
         inkscape:connector-curvature="0"
         style="fill:#ffffff"
         id="path224"
         d="m 457.25,169 c 2.5,0 5,0 7.5,0.01 0,2.49 0,4.99 -0.01,7.49 -2.5,0 -5,0.01 -7.49,0 0,-2.5 -0.01,-5 0,-7.5 z" />
      <path
         inkscape:connector-curvature="0"
         style="fill:#ffffff"
         id="path226"
         d="m 465.75,169 c 2.58,0 5.16,0 7.75,0 0,2.5 0,5 0,7.5 -2.59,0 -5.17,0 -7.75,0 -0.01,-2.5 -0.01,-5 0,-7.5 z" />
      <path
         inkscape:connector-curvature="0"
         style="fill:#ffffff"
         id="path228"
         d="m 492,169 c 2.5,0 5,0 7.5,0 0,2.5 0,5 0,7.5 -2.51,0 -5,0 -7.5,0 -0.01,-2.5 -0.01,-5 0,-7.5 z" />
      <path
         inkscape:connector-curvature="0"
         style="fill:#ffffff"
         id="path230"
         d="m 500.5,169 c 2.58,0 5.16,0 7.75,0 0,2.5 0,5 0,7.5 -2.59,0 -5.17,0 -7.75,0 -0.01,-2.5 0,-5 0,-7.5 z" />
      <path
         inkscape:connector-curvature="0"
         style="fill:#ffffff"
         id="path232"
         d="m 509.25,169 c 2.49,0 5,0 7.5,0 -0.01,2.5 0,5 -0.01,7.5 -2.5,0 -4.99,0 -7.48,0.01 -0.02,-2.51 -0.01,-5.01 -0.01,-7.51 z" />
      <path
         inkscape:connector-curvature="0"
         style="fill:#ffffff"
         id="path234"
         d="m 522.75,169 c 2.5,0 5,0 7.5,0 0,2.5 -0.01,5 0,7.5 -2.5,0 -5,0 -7.5,0 -0.01,-2.5 -0.01,-5 0,-7.5 z" />
      <path
         inkscape:connector-curvature="0"
         style="fill:#ffffff"
         id="path236"
         d="m 531.25,169 c 2.58,0 5.17,-0.01 7.75,0 0,2.5 0,5 0,7.51 -2.59,-0.01 -5.17,-0.01 -7.75,-0.01 -0.01,-2.5 0,-5 0,-7.5 z" />
      <path
         inkscape:connector-curvature="0"
         style="fill:#ffffff"
         id="path238"
         d="m 540,169 c 2.5,-0.01 5,0 7.5,0 0,2.5 0,5 0,7.5 -2.51,0 -5,0 -7.5,0 -0.01,-2.5 0,-5 0,-7.5 z" />
      <path
         inkscape:connector-curvature="0"
         style="fill:#ffffff"
         id="path240"
         d="m 548.75,169 c 2.5,0 5,0 7.5,0 0,2.5 -0.01,5 0,7.5 -2.51,0 -5.01,0 -7.5,0 -0.01,-2.5 -0.01,-5 0,-7.5 z" />
      <path
         inkscape:connector-curvature="0"
         style="fill:#ffffff"
         id="path242"
         d="m 557.49,169 c 2.5,0 5.01,0 7.51,0 0,2.5 0,5 0,7.5 -2.51,0 -5.01,0 -7.5,0 -0.01,-2.5 -0.01,-5 -0.01,-7.5 z" />
      <path
         inkscape:connector-curvature="0"
         style="fill:#ffffff"
         id="path244"
         d="m 566,169 c 2.58,0 5.16,0 7.75,0.01 0,2.49 -0.01,4.99 0,7.49 -2.59,0 -5.17,0 -7.75,0 -0.01,-2.5 0,-5 0,-7.5 z" />
      <path
         inkscape:connector-curvature="0"
         style="fill:#ffffff"
         id="path246"
         d="m 597,169 c 2.5,0 4.99,-0.01 7.5,0 0,2.5 -0.01,5 0,7.5 -2.51,0 -5.01,0.01 -7.5,0 -0.01,-2.5 -0.01,-5 0,-7.5 z" />
      <path
         inkscape:connector-curvature="0"
         style="fill:#ffffff"
         id="path248"
         d="m 605.5,169 c 2.49,0 4.99,0 7.5,0 0,2.5 0,5 0,7.5 -2.5,0 -5.01,0 -7.5,0 -0.01,-2.5 -0.01,-5 0,-7.5 z" />
      <path
         inkscape:connector-curvature="0"
         style="fill:#ffffff"
         id="path250"
         d="m 614.25,169 c 2.5,0 5,0 7.5,0 -0.01,2.5 0,5 0,7.5 -2.51,0 -5.01,0 -7.5,0 -0.01,-2.5 -0.01,-5 0,-7.5 z" />
      <path
         inkscape:connector-curvature="0"
         style="fill:#ffffff"
         id="path252"
         d="m 623,169 c 2.5,-0.01 5,0 7.51,0 -0.01,2.5 -0.02,5 -0.01,7.5 -2.5,0 -5.01,0 -7.5,0 -0.01,-2.5 0,-5 0,-7.5 z" />
      <path
         inkscape:connector-curvature="0"
         style="fill:#ffffff"
         id="path254"
         d="m 631.5,169 c 2.58,0 5.16,0 7.75,0 0,2.5 -0.01,5 0,7.5 -2.59,0 -5.17,0 -7.75,0 -0.01,-2.5 -0.01,-5 0,-7.5 z" />
      <path
         inkscape:connector-curvature="0"
         style="fill:#ffffff"
         id="path256"
         d="m 31.5,201.63 c -0.01,-8.38 0,-16.75 0,-25.13 8.55,0.21 17.15,-0.43 25.68,0.33 0.75,8.43 0.12,16.95 0.32,25.42 -8.66,-0.32 -17.42,0.71 -26,-0.62 z" />
      <path
         inkscape:connector-curvature="0"
         style="fill:#ffffff"
         id="path258"
         d="m 60.75,176.5 c 8.46,0.21 16.97,-0.44 25.4,0.33 0.84,8.42 0.11,16.96 0.35,25.42 -8.58,-0.41 -17.32,0.85 -25.79,-0.69 0.07,-8.35 0.02,-16.71 0.04,-25.06 z" />
      <path
         inkscape:connector-curvature="0"
         style="fill:#ffffff"
         id="path260"
         d="m 89.75,176.5 c 8.33,0 16.67,0 25,0 0,8.33 0,16.67 0,25 -8.33,0.01 -16.67,0.01 -25,0 0,-8.34 0,-16.67 0,-25 z" />
      <path
         inkscape:connector-curvature="0"
         style="fill:#ffffff"
         id="path262"
         d="m 119.25,201.5 c 0.01,-8.33 -0.01,-16.67 0,-25 8.34,0 16.67,0 25,0 0,8.33 0,16.67 0,25 -8.34,0 -16.67,0.01 -25,0 z" />
      <path
         inkscape:connector-curvature="0"
         style="fill:#ffffff"
         id="path264"
         d="m 148.25,176.5 c 8.33,0.01 16.67,0 25,0 0,8.33 0.01,16.67 0,25 -8.33,0 -16.66,0.01 -24.99,0 -0.02,-8.33 -0.01,-16.67 -0.01,-25 z" />
      <path
         inkscape:connector-curvature="0"
         style="fill:#ffffff"
         id="path266"
         d="m 178.5,177.5 c 8.25,0 16.5,0 24.75,0 0.01,8.25 -0.01,16.5 0,24.75 -8.25,0 -16.5,0 -24.75,0 -0.01,-8.25 -0.01,-16.5 0,-24.75 z" />
      <path
         inkscape:connector-curvature="0"
         style="fill:#ffffff"
         id="path268"
         d="m 207.5,202.25 c 0,-8.25 0,-16.5 0,-24.75 8.33,0 16.67,0 25,0 0,8.25 0.01,16.5 0,24.75 -8.33,0 -16.67,0 -25,0 z" />
      <path
         inkscape:connector-curvature="0"
         style="fill:#ffffff"
         id="path270"
         d="m 304,177.75 c 2.58,-0.01 5.16,-0.01 7.75,0 0,2.5 -0.01,5 0,7.5 -2.59,0 -5.17,0 -7.75,0 0,-2.5 0,-5 0,-7.5 z" />
      <path
         inkscape:connector-curvature="0"
         style="fill:#ffffff"
         id="path272"
         d="m 312.75,177.75 c 2.49,0 5,-0.01 7.5,0 0,2.5 0,5 0,7.5 -2.5,0 -5,0 -7.5,0 -0.01,-2.5 -0.01,-5 0,-7.5 z" />
      <path
         inkscape:connector-curvature="0"
         style="fill:#ffffff"
         id="path274"
         d="m 343.5,185.25 c -0.01,-2.5 -0.01,-5 0,-7.5 2.49,0 5,0 7.5,0 0,2.5 0,5 0,7.5 -2.5,0 -5,0 -7.5,0 z" />
      <path
         inkscape:connector-curvature="0"
         style="fill:#ffffff"
         id="path276"
         d="m 352.25,177.75 c 2.5,0 5,0 7.5,0 0,2.5 0,5 0,7.5 -2.5,0 -5,0 -7.5,0 -0.01,-2.5 0,-5 0,-7.5 z" />
      <path
         inkscape:connector-curvature="0"
         style="fill:#ffffff"
         id="path278"
         d="m 409,177.75 c 2.5,0 4.99,0 7.5,0 0,2.5 0,5 0,7.5 -2.5,0 -5.01,0 -7.5,0 0,-2.5 0,-5 0,-7.5 z" />
      <path
         inkscape:connector-curvature="0"
         style="fill:#ffffff"
         id="path280"
         d="m 417.75,177.75 c 2.5,-0.01 5,-0.01 7.5,0 0,2.5 0,5 0,7.5 -2.51,0 -5.01,0 -7.5,0 -0.01,-2.5 -0.01,-5 0,-7.5 z" />
      <path
         inkscape:connector-curvature="0"
         style="fill:#ffffff"
         id="path282"
         d="m 457.25,177.75 c 2.5,-0.01 4.99,-0.01 7.5,0 0,2.5 0,5 0,7.5 -2.5,0 -5,0 -7.5,0 -0.01,-2.5 -0.01,-5 0,-7.5 z" />
      <path
         inkscape:connector-curvature="0"
         style="fill:#ffffff"
         id="path284"
         d="m 465.75,177.75 c 2.58,-0.01 5.17,0 7.76,0 -0.01,2.5 -0.01,5 -0.01,7.5 -2.59,0 -5.17,0 -7.75,0 -0.01,-2.5 -0.01,-5 0,-7.5 z" />
      <path
         inkscape:connector-curvature="0"
         style="fill:#ffffff"
         id="path286"
         d="m 500.5,177.75 c 2.58,-0.01 5.16,-0.01 7.75,0 0,2.5 0,5 0,7.5 -2.59,0 -5.17,0 -7.75,0 -0.01,-2.5 -0.01,-5 0,-7.5 z" />
      <path
         inkscape:connector-curvature="0"
         style="fill:#ffffff"
         id="path288"
         d="m 509.25,177.75 c 2.49,0 4.99,0 7.5,0 -0.01,2.5 0,5 0,7.5 -2.51,0 -5,0 -7.5,0 0,-2.5 -0.01,-5 0,-7.5 z" />
      <path
         inkscape:connector-curvature="0"
         style="fill:#ffffff"
         id="path290"
         d="m 522.75,177.75 c 2.49,-0.01 4.99,-0.01 7.5,0 0,2.5 0,5 0,7.5 -2.5,0 -5,0 -7.5,0 -0.01,-2.5 -0.01,-5 0,-7.5 z" />
      <path
         inkscape:connector-curvature="0"
         style="fill:#ffffff"
         id="path292"
         d="m 531.25,185.25 c -0.01,-2.5 0,-5 0,-7.5 2.58,0 5.16,0 7.75,0 0,2.5 0,5 0,7.5 -2.59,0 -5.17,0 -7.75,0 z" />
      <path
         inkscape:connector-curvature="0"
         style="fill:#ffffff"
         id="path294"
         d="m 631.5,185.25 c -0.01,-2.5 -0.01,-5 0,-7.5 2.58,0 5.16,-0.01 7.75,0 0,2.5 0,5 0,7.5 -2.59,0 -5.17,0 -7.75,0 z" />
      <path
         inkscape:connector-curvature="0"
         style="fill:#ffffff"
         id="path296"
         d="m 640.25,185.25 c -0.01,-2.5 -0.01,-5 0,-7.5 2.49,0 5,0 7.5,0 0,2.5 0,5 0,7.5 -2.5,0.01 -5.01,0 -7.5,0 z" />
      <path
         inkscape:connector-curvature="0"
         style="fill:#ffffff"
         id="path298"
         d="m 260.75,186.5 c 2.5,-0.01 5,-0.01 7.51,0 -0.01,2.5 -0.01,5 -0.01,7.5 -2.5,0 -5,0 -7.5,0 0,-2.5 -0.01,-5 0,-7.5 z" />
      <path
         inkscape:connector-curvature="0"
         style="fill:#ffffff"
         id="path300"
         d="m 312.75,186.5 c 2.5,0 5,0 7.5,0 0,2.5 0,5 0,7.5 -2.5,0 -5,0 -7.5,0 -0.01,-2.5 -0.01,-5.01 0,-7.5 z" />
      <path
         inkscape:connector-curvature="0"
         style="fill:#ffffff"
         id="path302"
         d="m 343.49,186.5 c 2.5,-0.01 5,-0.01 7.51,-0.01 0,2.5 0,5.01 0,7.51 -2.5,0 -5,0 -7.5,0 -0.01,-2.5 -0.01,-5 -0.01,-7.5 z" />
      <path
         inkscape:connector-curvature="0"
         style="fill:#ffffff"
         id="path304"
         d="m 409,186.49 c 2.5,0.01 5,0 7.5,0.01 0,2.5 0,5 0,7.5 -2.5,0 -5,0 -7.5,0 -0.01,-2.5 -0.01,-5.01 0,-7.51 z" />
      <path
         inkscape:connector-curvature="0"
         style="fill:#ffffff"
         id="path306"
         d="m 417.75,186.5 c 2.5,-0.01 5,-0.01 7.5,0 0,2.5 0,5 0,7.5 -2.5,0 -5,0 -7.5,0 -0.01,-2.5 -0.01,-5 0,-7.5 z" />
      <path
         inkscape:connector-curvature="0"
         style="fill:#ffffff"
         id="path308"
         d="m 465.75,186.5 c 2.58,0 5.16,-0.01 7.75,0 0,2.5 0,5 0,7.5 -2.59,0 -5.17,0 -7.75,0 -0.01,-2.5 -0.01,-5 0,-7.5 z" />
      <path
         inkscape:connector-curvature="0"
         style="fill:#ffffff"
         id="path310"
         d="m 500.5,186.5 c 2.58,0 5.16,-0.01 7.75,0 0,2.5 0,5 0,7.5 -2.58,0 -5.17,0 -7.75,0 -0.01,-2.5 -0.01,-5 0,-7.5 z" />
      <path
         inkscape:connector-curvature="0"
         style="fill:#ffffff"
         id="path312"
         d="m 522.75,186.5 c 2.5,0 5,0 7.5,-0.01 0,2.5 0,5.01 0,7.51 -2.5,0 -5,0 -7.5,0 -0.01,-2.5 -0.01,-5 0,-7.5 z" />
      <path
         inkscape:connector-curvature="0"
         style="fill:#ffffff"
         id="path314"
         d="m 631.49,186.5 c 2.59,0 5.17,0 7.76,0 0,2.5 0,5 0,7.5 -2.59,0 -5.17,0 -7.75,0 -0.01,-2.5 -0.01,-5 -0.01,-7.5 z" />
      <path
         inkscape:connector-curvature="0"
         style="fill:#ffffff"
         id="path316"
         d="m 269.24,194 c 0.01,-2.5 0,-5 0.02,-7.5 2.58,-0.01 5.16,0 7.74,-0.01 0,2.5 0,5.01 0,7.51 -2.59,0 -5.17,0 -7.76,0 z" />
      <path
         inkscape:connector-curvature="0"
         style="fill:#ffffff"
         id="path318"
         d="m 304,186.5 c 2.58,-0.01 5.16,0 7.74,-0.01 0.01,2.5 0.01,5 0.02,7.51 -2.59,0 -5.18,0 -7.76,0 -0.01,-2.5 0,-5 0,-7.5 z" />
      <path
         inkscape:connector-curvature="0"
         style="fill:#ffffff"
         id="path320"
         d="m 352.25,186.5 c 2.49,-0.01 4.99,0 7.49,-0.01 0.01,2.5 0.01,5 0.01,7.51 -2.5,0 -5,0 -7.5,0 0,-2.5 0,-5.01 0,-7.5 z" />
      <path
         inkscape:connector-curvature="0"
         style="fill:#ffffff"
         id="path322"
         d="m 457.25,194 c 0,-2.5 -0.01,-5.01 0,-7.51 2.5,0 5,0 7.5,0.01 0,2.5 -0.01,5 0,7.5 -2.5,0 -5.01,0 -7.5,0 z" />
      <path
         inkscape:connector-curvature="0"
         style="fill:#ffffff"
         id="path324"
         d="m 509.25,194 c -0.01,-2.51 -0.01,-5.01 0.01,-7.51 2.49,0.01 4.99,0 7.49,0.01 -0.01,2.5 0,5 0,7.5 -2.5,0 -5.01,0 -7.5,0 z" />
      <path
         inkscape:connector-curvature="0"
         style="fill:#ffffff"
         id="path326"
         d="m 531.25,194 c 0,-2.51 -0.01,-5.01 0.01,-7.51 2.57,0.01 5.16,0 7.74,0.01 -0.01,2.5 0,5 0,7.5 -2.59,0 -5.17,0 -7.75,0 z" />
      <path
         inkscape:connector-curvature="0"
         style="fill:#ffffff"
         id="path328"
         d="m 588.25,186.5 c 2.49,-0.01 4.99,-0.01 7.5,0 -0.01,2.5 0,5 0,7.5 -2.5,0 -5,0 -7.5,0 -0.01,-2.5 -0.01,-5.01 0,-7.5 z" />
      <path
         inkscape:connector-curvature="0"
         style="fill:#ffffff"
         id="path330"
         d="m 597,186.5 c 2.49,-0.01 4.99,0 7.5,0 0,2.5 0,5 0,7.5 -2.51,0 -5.01,0 -7.5,0 -0.01,-2.5 -0.01,-5 0,-7.5 z" />
      <path
         inkscape:connector-curvature="0"
         style="fill:#ffffff"
         id="path332"
         d="m 640.25,194 c -0.01,-2.51 -0.01,-5.01 0.01,-7.51 2.48,0 4.98,0 7.48,0 0.01,2.5 0,5 0.01,7.51 -2.51,0 -5.01,0 -7.5,0 z" />
      <path
         inkscape:connector-curvature="0"
         style="fill:#ffffff"
         id="path334"
         d="m 269.24,195 c 2.59,0 5.17,0 7.76,0 0,2.58 0,5.17 0,7.76 -2.59,-0.01 -5.17,-0.01 -7.75,-0.01 0,-2.59 -0.01,-5.17 -0.01,-7.75 z" />
      <path
         inkscape:connector-curvature="0"
         style="fill:#ffffff"
         id="path336"
         d="m 278,195 c 2.5,0 5,0 7.5,0 0,2.58 0,5.16 0,7.75 -2.5,0 -5,0 -7.5,0 0,-2.59 0,-5.17 0,-7.75 z" />
      <path
         inkscape:connector-curvature="0"
         style="fill:#ffffff"
         id="path338"
         d="m 286.74,195 c 2.5,0 5.01,0 7.51,0 -0.01,2.58 0,5.16 0,7.75 -2.5,0 -5,0 -7.5,0 -0.01,-2.58 -0.01,-5.17 -0.01,-7.75 z" />
      <path
         inkscape:connector-curvature="0"
         style="fill:#ffffff"
         id="path340"
         d="m 295.5,195 c 2.5,-0.01 5,0 7.5,0 0,2.58 0,5.17 0,7.75 -2.51,0 -5.01,0.01 -7.5,0 -0.01,-2.59 -0.01,-5.17 0,-7.75 z" />
      <path
         inkscape:connector-curvature="0"
         style="fill:#ffffff"
         id="path342"
         d="m 304,195 c 2.58,0 5.17,0 7.75,0 0,2.58 0,5.17 0,7.75 -2.58,0 -5.17,0 -7.75,0 0,-2.58 0,-5.17 0,-7.75 z" />
      <path
         inkscape:connector-curvature="0"
         style="fill:#ffffff"
         id="path344"
         d="m 326.25,195 c 2.5,0 5,0 7.5,0 0,2.58 0,5.17 0,7.75 -2.5,0 -5,0 -7.5,0 -0.01,-2.59 0,-5.17 0,-7.75 z" />
      <path
         inkscape:connector-curvature="0"
         style="fill:#ffffff"
         id="path346"
         d="m 334.75,195 c 2.58,0 5.16,0 7.75,0 0,2.58 0,5.17 0,7.75 -2.59,0 -5.17,0 -7.75,0 -0.01,-2.59 0,-5.17 0,-7.75 z" />
      <path
         inkscape:connector-curvature="0"
         style="fill:#ffffff"
         id="path348"
         d="m 343.5,195 c 2.49,0 5,0 7.5,0 0,2.58 0,5.16 0,7.75 -2.5,0 -5,0 -7.5,0 -0.01,-2.58 -0.01,-5.17 0,-7.75 z" />
      <path
         inkscape:connector-curvature="0"
         style="fill:#ffffff"
         id="path350"
         d="m 352.25,195 c 2.5,0 5,0 7.5,0 0,2.58 0,5.17 0,7.75 -2.5,0 -5,0 -7.5,0 0,-2.58 0,-5.17 0,-7.75 z" />
      <path
         inkscape:connector-curvature="0"
         style="fill:#ffffff"
         id="path352"
         d="m 360.99,195 c 2.51,0 5.01,-0.01 7.52,0 -0.01,2.58 -0.01,5.17 -0.01,7.75 -2.5,0 -5,0 -7.5,0 0,-2.58 -0.01,-5.17 -0.01,-7.75 z" />
      <path
         inkscape:connector-curvature="0"
         style="fill:#ffffff"
         id="path354"
         d="m 369.5,195 c 2.58,-0.01 5.16,-0.01 7.75,0 0,2.58 0,5.16 0,7.75 -2.59,0 -5.17,0 -7.75,0 -0.01,-2.58 -0.01,-5.17 0,-7.75 z" />
      <path
         inkscape:connector-curvature="0"
         style="fill:#ffffff"
         id="path356"
         d="m 409,195 c 2.5,0 4.99,0 7.5,0 0,2.58 0,5.17 0,7.75 -2.5,0 -5,0 -7.5,0 0,-2.59 -0.01,-5.17 0,-7.75 z" />
      <path
         inkscape:connector-curvature="0"
         style="fill:#ffffff"
         id="path358"
         d="m 417.75,195 c 2.5,0 5,0 7.5,0 0,2.58 0,5.16 0,7.75 -2.5,0 -5,0 -7.5,0 -0.01,-2.59 0,-5.17 0,-7.75 z" />
      <path
         inkscape:connector-curvature="0"
         style="fill:#ffffff"
         id="path360"
         d="m 465.75,195 c 2.58,0 5.17,0 7.75,0 0,2.58 -0.01,5.16 0,7.75 -2.58,0 -5.17,-0.01 -7.75,0 -0.01,-2.58 0,-5.17 0,-7.75 z" />
      <path
         inkscape:connector-curvature="0"
         style="fill:#ffffff"
         id="path362"
         d="m 474.5,195 c 2.5,-0.01 5,0 7.51,0 -0.01,2.58 -0.01,5.17 -0.01,7.75 -2.51,0 -5.01,0 -7.51,0 0,-2.59 0,-5.17 0.01,-7.75 z" />
      <path
         inkscape:connector-curvature="0"
         style="fill:#ffffff"
         id="path364"
         d="m 483.25,194.99 c 2.5,0.01 4.99,0.01 7.5,0.02 0,2.58 0,5.16 0,7.74 -2.5,0 -5.01,0 -7.5,0 -0.01,-2.59 -0.01,-5.17 0,-7.76 z" />
      <path
         inkscape:connector-curvature="0"
         style="fill:#ffffff"
         id="path366"
         d="m 492,195 c 2.49,-0.01 4.99,-0.01 7.5,0 0,2.58 -0.01,5.16 0,7.75 -2.5,0 -5,0 -7.5,0 -0.01,-2.58 -0.01,-5.17 0,-7.75 z" />
      <path
         inkscape:connector-curvature="0"
         style="fill:#ffffff"
         id="path368"
         d="m 500.5,195 c 2.58,0 5.16,0 7.75,0 0,2.58 0,5.16 0,7.75 -2.59,0 -5.17,0 -7.75,0 -0.01,-2.59 -0.01,-5.17 0,-7.75 z" />
      <path
         inkscape:connector-curvature="0"
         style="fill:#ffffff"
         id="path370"
         d="m 522.75,195 c 2.49,0 4.99,0 7.5,0 0,2.58 0,5.16 0.01,7.75 -2.51,0 -5.01,0 -7.51,0 -0.01,-2.58 -0.01,-5.17 0,-7.75 z" />
      <path
         inkscape:connector-curvature="0"
         style="fill:#ffffff"
         id="path372"
         d="m 531.25,195 c 2.58,0 5.16,0 7.75,0 0,2.58 0,5.17 0,7.75 -2.59,0 -5.17,0 -7.75,0 0,-2.58 0,-5.17 0,-7.75 z" />
      <path
         inkscape:connector-curvature="0"
         style="fill:#ffffff"
         id="path374"
         d="m 540,195 c 2.49,0 4.99,0 7.5,0 0,2.58 -0.01,5.16 0,7.74 -2.5,0.01 -5,0.01 -7.5,0.01 0,-2.58 0,-5.17 0,-7.75 z" />
      <path
         inkscape:connector-curvature="0"
         style="fill:#ffffff"
         id="path376"
         d="m 548.75,195 c 2.49,-0.01 5,0 7.5,0 0,2.58 0,5.16 0,7.75 -2.51,0 -5.01,0 -7.5,0 -0.01,-2.59 -0.01,-5.17 0,-7.75 z" />
      <path
         inkscape:connector-curvature="0"
         style="fill:#ffffff"
         id="path378"
         d="m 557.5,195 c 2.49,0 5,0 7.51,0 -0.01,2.58 -0.01,5.17 -0.01,7.76 -2.51,-0.01 -5.01,-0.01 -7.5,-0.01 -0.01,-2.59 -0.01,-5.17 0,-7.75 z" />
      <path
         inkscape:connector-curvature="0"
         style="fill:#ffffff"
         id="path380"
         d="m 566,195 c 2.58,0 5.16,0 7.75,0 -0.01,2.58 -0.01,5.17 0,7.75 -2.59,0 -5.17,0 -7.75,0 -0.01,-2.59 0,-5.17 0,-7.75 z" />
      <path
         inkscape:connector-curvature="0"
         style="fill:#ffffff"
         id="path382"
         d="m 574.75,195 c 2.49,0 4.99,0 7.5,0 0,2.58 0,5.16 0,7.74 -2.5,0.01 -5.01,0 -7.5,0.01 -0.01,-2.59 -0.01,-5.17 0,-7.75 z" />
      <path
         inkscape:connector-curvature="0"
         style="fill:#ffffff"
         id="path384"
         d="m 597,195 c 2.5,0 5,0 7.51,0 -0.01,2.58 -0.02,5.16 -0.01,7.75 -2.5,0 -5,0 -7.5,0 -0.01,-2.58 -0.01,-5.17 0,-7.75 z" />
      <path
         inkscape:connector-curvature="0"
         style="fill:#ffffff"
         id="path386"
         d="m 605.5,195 c 2.49,-0.01 5,0 7.51,0 -0.02,2.58 -0.01,5.17 -0.01,7.75 -2.51,0 -5.01,0 -7.5,0 -0.01,-2.59 -0.01,-5.17 0,-7.75 z" />
      <path
         inkscape:connector-curvature="0"
         style="fill:#ffffff"
         id="path388"
         d="m 614.25,195 c 2.5,0 5,0 7.5,0 0,2.58 0,5.17 0,7.75 -2.51,0 -5.01,0 -7.5,0 -0.01,-2.58 -0.01,-5.17 0,-7.75 z" />
      <path
         inkscape:connector-curvature="0"
         style="fill:#ffffff"
         id="path390"
         d="m 622.99,195 c 2.5,0 5,0 7.51,0 0,2.58 0,5.16 0,7.75 -2.5,0 -5,0 -7.5,0 -0.01,-2.58 -0.01,-5.17 -0.01,-7.75 z" />
      <path
         inkscape:connector-curvature="0"
         style="fill:#ffffff"
         id="path392"
         d="m 631.5,195 c 2.58,0 5.16,0 7.75,0 0,2.58 0,5.17 0,7.75 -2.59,0 -5.17,0 -7.75,0 -0.01,-2.58 -0.01,-5.17 0,-7.75 z" />
      <path
         inkscape:connector-curvature="0"
         style="fill:#ffffff"
         id="path394"
         d="m 61.75,206.5 c 8.25,0 16.5,-0.01 24.75,0 0,8.33 0,16.67 0,25 -8.25,0 -16.5,0 -24.75,0 0,-8.33 0,-16.67 0,-25 z" />
      <path
         inkscape:connector-curvature="0"
         style="fill:#ffffff"
         id="path396"
         d="m 90.75,206.5 c 8.33,0 16.66,-0.01 25,0 0,8.33 0,16.67 0,25.01 -8.34,-0.02 -16.67,-0.01 -25,-0.01 0,-8.33 -0.01,-16.67 0,-25 z" />
      <path
         inkscape:connector-curvature="0"
         style="fill:#ffffff"
         id="path398"
         d="m 119.75,206.5 c 8.33,-0.01 16.67,-0.01 25,0 0,8.33 0,16.67 0,25 -8.33,0 -16.67,0 -25,0 0,-8.34 0,-16.67 0,-25 z" />
      <path
         inkscape:connector-curvature="0"
         style="fill:#ffffff"
         id="path400"
         d="m 149.25,206.5 c 8.33,-0.01 16.67,-0.01 25,0 0,8.34 0,16.67 0,25 -8.33,0 -16.67,0 -25,0 0,-8.33 0,-16.67 0,-25 z" />
      <path
         inkscape:connector-curvature="0"
         style="fill:#ffffff"
         id="path402"
         d="m 178.5,231.51 c 0,-8.34 -0.01,-16.68 0,-25.01 8.25,0 16.5,0 24.75,0 0.01,8.33 0,16.67 0,25 -8.25,0 -16.5,-0.01 -24.75,0.01 z" />
    </g>
    <g
       transform="translate(-6677.6398,32.298137)"
       style="fill:#ffffff"
       id="#9d9c9dff">
      <path
         inkscape:connector-curvature="0"
         style="fill:#ffffff"
         id="path405"
         d="m 278.01,66.47 c 2.5,0.02 5,0.03 7.5,0.05 0,2.58 -0.04,5.16 -0.03,7.75 -2.5,-0.01 -4.99,-0.01 -7.48,-0.02 0,-2.6 0,-5.19 0.01,-7.78 z" />
      <path
         inkscape:connector-curvature="0"
         style="fill:#ffffff"
         id="path407"
         d="m 286.75,66.52 c 2.49,-0.02 4.99,-0.03 7.49,-0.05 0,2.59 0.01,5.19 0.01,7.78 -2.5,0 -5,0 -7.5,0 -0.01,-2.57 0,-5.15 0,-7.73 z" />
      <path
         inkscape:connector-curvature="0"
         style="fill:#ffffff"
         id="path409"
         d="m 295.49,66.48 c 2.51,0.01 5.01,0.03 7.52,0.04 -0.01,2.58 -0.01,5.15 -0.02,7.73 -2.5,0 -4.99,0 -7.49,0 0,-2.59 -0.01,-5.18 -0.01,-7.77 z" />
      <path
         inkscape:connector-curvature="0"
         style="fill:#ffffff"
         id="path411"
         d="m 409.01,66.49 c 2.49,0 4.99,0 7.5,0.01 -0.01,2.58 -0.01,5.16 -0.02,7.75 -2.5,0.01 -5,0.01 -7.49,0 0,-2.59 0,-5.17 0.01,-7.76 z" />
      <path
         inkscape:connector-curvature="0"
         style="fill:#ffffff"
         id="path413"
         d="m 417.75,66.5 c 2.5,0 5,0 7.5,0 0,2.58 0,5.17 0,7.75 -2.5,0 -5,0 -7.5,0 0,-2.58 0,-5.17 0,-7.75 z" />
      <path
         inkscape:connector-curvature="0"
         style="fill:#ffffff"
         id="path415"
         d="m 522.76,66.5 c 2.49,0 4.99,0 7.49,0.01 0,2.58 0,5.16 0,7.74 -2.51,0 -5.01,0 -7.51,-0.01 0,-2.58 0.01,-5.16 0.02,-7.74 z" />
      <path
         inkscape:connector-curvature="0"
         style="fill:#ffffff"
         id="path417"
         d="m 540.02,66.48 c 2.47,0.01 4.96,0.02 7.45,0.02 0.03,2.56 0.08,5.12 0.1,7.68 -2.53,-0.03 -5.05,0.11 -7.57,0.11 0,-2.6 0,-5.21 0.02,-7.81 z" />
      <path
         inkscape:connector-curvature="0"
         style="fill:#ffffff"
         id="path419"
         d="m 269.25,74.25 c 0,-2.59 0.01,-5.18 0.03,-7.77 2.57,0.01 5.14,0.01 7.71,0.02 0,2.58 0.01,5.17 0,7.75 -2.58,0 -5.16,0 -7.74,0 z" />
      <path
         inkscape:connector-curvature="0"
         style="fill:#ffffff"
         id="path421"
         d="m 304,66.5 c 2.58,-0.01 5.15,0 7.73,-0.01 0.01,2.59 0.02,5.17 0.03,7.76 -2.59,0 -5.17,0 -7.76,0 -0.01,-2.58 0,-5.17 0,-7.75 z" />
      <path
         inkscape:connector-curvature="0"
         style="fill:#ffffff"
         id="path423"
         d="m 326.25,74.26 c 0,-2.6 0.01,-5.19 0.03,-7.79 2.49,0.02 4.98,0.02 7.47,0.04 -0.01,2.58 0,5.15 0,7.73 -2.51,0.01 -5.01,0.02 -7.5,0.02 z" />
      <path
         inkscape:connector-curvature="0"
         style="fill:#ffffff"
         id="path425"
         d="m 378.24,66.54 c 2.49,-0.04 4.98,-0.05 7.47,-0.08 0.02,2.6 0.03,5.19 0.06,7.79 -2.51,0 -5.02,0 -7.52,-0.01 -0.01,-2.56 -0.01,-5.13 -0.01,-7.7 z" />
      <path
         inkscape:connector-curvature="0"
         style="fill:#ffffff"
         id="path427"
         d="m 426.51,74.25 c -0.01,-2.58 -0.01,-5.16 -0.01,-7.74 2.5,-0.02 5,-0.02 7.5,-0.02 0,2.59 0,5.17 0,7.76 -2.5,0 -5,0 -7.49,0 z" />
      <path
         inkscape:connector-curvature="0"
         style="fill:#ffffff"
         id="path429"
         d="m 457.24,74.24 c 0.01,-2.59 0.02,-5.17 0.04,-7.76 2.48,0.01 4.96,0.01 7.45,0.01 0.01,2.59 0.01,5.17 0.02,7.76 -2.51,0 -5.01,0 -7.51,-0.01 z" />
      <path
         inkscape:connector-curvature="0"
         style="fill:#ffffff"
         id="path431"
         d="m 465.75,66.5 c 2.58,-0.01 5.16,0 7.75,0 0,2.58 0,5.16 -0.01,7.75 -2.58,0 -5.16,0 -7.73,0 -0.02,-2.58 -0.01,-5.17 -0.01,-7.75 z" />
      <path
         inkscape:connector-curvature="0"
         style="fill:#ffffff"
         id="path433"
         d="m 474.5,66.51 c 2.49,-0.01 4.99,-0.02 7.5,-0.02 0,2.59 0,5.17 0,7.76 -2.5,0 -5,0 -7.5,0 -0.01,-2.58 -0.01,-5.16 0,-7.74 z" />
      <path
         inkscape:connector-curvature="0"
         style="fill:#ffffff"
         id="path435"
         d="m 483.25,74.24 c 0,-2.58 0,-5.17 0.01,-7.75 2.49,0 4.98,0 7.48,0 0,2.59 0,5.17 0,7.76 -2.5,0 -5,0 -7.49,-0.01 z" />
      <path
         inkscape:connector-curvature="0"
         style="fill:#ffffff"
         id="path437"
         d="m 491.99,66.49 c 2.5,0 5.01,0.01 7.51,0.01 0,2.58 0,5.16 0,7.74 -2.51,0.01 -5,0.01 -7.49,0.01 -0.01,-2.58 -0.02,-5.17 -0.02,-7.76 z" />
      <path
         inkscape:connector-curvature="0"
         style="fill:#ffffff"
         id="path439"
         d="m 500.49,66.5 c 2.58,0 5.17,-0.01 7.75,0 0,2.58 0.01,5.16 0,7.75 -2.58,0 -5.16,0 -7.74,0.01 -0.01,-2.59 -0.01,-5.18 -0.01,-7.76 z" />
      <path
         inkscape:connector-curvature="0"
         style="fill:#ffffff"
         id="path441"
         d="m 531.25,74.23 c -0.01,-2.58 0,-5.16 0,-7.74 2.57,0 5.16,0 7.75,0.01 -0.01,2.58 -0.01,5.17 -0.01,7.76 -2.58,-0.01 -5.16,-0.02 -7.74,-0.03 z" />
      <path
         inkscape:connector-curvature="0"
         style="fill:#ffffff"
         id="path443"
         d="m 548.76,66.5 c 2.49,0 4.98,0 7.48,0 0,2.58 0.01,5.16 0.01,7.75 -2.5,0 -5,0 -7.5,0 0,-2.58 -0.01,-5.17 0.01,-7.75 z" />
      <path
         inkscape:connector-curvature="0"
         style="fill:#ffffff"
         id="path445"
         d="m 557.51,74.25 c -0.01,-2.59 -0.01,-5.17 -0.01,-7.75 2.49,-0.01 4.99,-0.01 7.49,-0.01 0,2.59 0.01,5.18 0.01,7.76 -2.5,0 -5,0 -7.49,0 z" />
      <path
         inkscape:connector-curvature="0"
         style="fill:#ffffff"
         id="path447"
         d="m 566,66.49 c 2.58,0 5.16,0.01 7.76,0.02 -0.02,2.58 -0.02,5.16 -0.02,7.74 -2.58,0 -5.16,0 -7.73,0.01 C 566,71.67 565.99,69.08 566,66.49 z" />
      <path
         inkscape:connector-curvature="0"
         style="fill:#ffffff"
         id="path449"
         d="m 260.75,75.25 c 2.5,0 4.99,0 7.49,0 0.01,2.5 0.01,5 0.01,7.5 -2.5,0 -5,0 -7.5,-0.01 0,-2.5 -0.01,-4.99 0,-7.49 z" />
      <path
         inkscape:connector-curvature="0"
         style="fill:#ffffff"
         id="path451"
         d="m 269.25,75.26 c 2.58,-0.01 5.16,-0.01 7.74,-0.02 0.01,2.5 0.01,5.01 0.01,7.51 -2.59,0 -5.17,-0.01 -7.74,-0.01 -0.01,-2.49 -0.01,-4.99 -0.01,-7.48 z" />
      <path
         inkscape:connector-curvature="0"
         style="fill:#ffffff"
         id="path453"
         d="m 304,75.24 c 2.58,0.01 5.17,0.01 7.75,0.02 0,2.5 -0.01,4.99 0,7.49 -2.59,0 -5.17,0 -7.75,0 0,-2.5 0,-5.01 0,-7.51 z" />
      <path
         inkscape:connector-curvature="0"
         style="fill:#ffffff"
         id="path455"
         d="m 312.75,75.25 c 2.5,0 5,0 7.5,0.01 0,2.5 0,4.99 0,7.49 -2.5,0 -5,0 -7.5,-0.01 0,-2.49 -0.01,-4.99 0,-7.49 z" />
      <path
         inkscape:connector-curvature="0"
         style="fill:#ffffff"
         id="path457"
         d="m 326.25,75.25 c 2.5,0 5,0 7.5,0 0,2.5 0,5 0,7.5 -2.5,0 -5,0 -7.5,0 0,-2.5 0,-5 0,-7.5 z" />
      <path
         inkscape:connector-curvature="0"
         style="fill:#ffffff"
         id="path459"
         d="m 334.78,75.26 c 2.57,-0.01 5.14,-0.01 7.72,-0.01 0,2.5 0,5 0,7.5 -2.59,0 -5.18,0 -7.76,-0.01 0.01,-2.49 0.02,-4.99 0.04,-7.48 z" />
      <path
         inkscape:connector-curvature="0"
         style="fill:#ffffff"
         id="path461"
         d="m 369.5,75.25 c 2.58,0 5.16,0 7.74,0.01 0.01,2.49 0.01,4.98 0.01,7.48 -2.58,0.01 -5.16,0.01 -7.74,0.02 -0.01,-2.5 -0.02,-5.01 -0.01,-7.51 z" />
      <path
         inkscape:connector-curvature="0"
         style="fill:#ffffff"
         id="path463"
         d="m 378.25,75.25 c 2.49,0 4.99,0 7.5,0 -0.01,2.5 0,5 0,7.5 -2.5,0 -5,0 -7.5,0 0,-2.5 0,-5 0,-7.5 z" />
      <path
         inkscape:connector-curvature="0"
         style="fill:#ffffff"
         id="path465"
         d="m 400.25,75.25 c 2.58,0 5.16,0 7.74,0 0,2.5 0.01,5 0.01,7.51 -2.59,-0.01 -5.17,-0.01 -7.75,-0.02 0,-2.5 0,-4.99 0,-7.49 z" />
      <path
         inkscape:connector-curvature="0"
         style="fill:#ffffff"
         id="path467"
         d="m 409,75.24 c 2.5,0.01 5,0.01 7.51,0.03 0,2.48 0,4.96 0,7.44 -2.5,0.03 -5,0.04 -7.49,0.06 C 409,80.26 409,77.75 409,75.24 z" />
      <path
         inkscape:connector-curvature="0"
         style="fill:#ffffff"
         id="path469"
         d="m 426.48,75.28 c 2.5,-0.02 5.01,-0.03 7.52,-0.04 0,2.5 -0.01,5 -0.01,7.51 -2.5,0 -4.99,0 -7.48,0 -0.02,-2.49 -0.02,-4.98 -0.03,-7.47 z" />
      <path
         inkscape:connector-curvature="0"
         style="fill:#ffffff"
         id="path471"
         d="m 435,75.25 c 2.58,0 5.16,0 7.75,0.01 0,2.49 -0.01,4.99 0,7.48 -2.59,0.01 -5.17,0.01 -7.75,0.01 0,-2.5 0,-5 0,-7.5 z" />
      <path
         inkscape:connector-curvature="0"
         style="fill:#ffffff"
         id="path473"
         d="m 457.25,75.24 c 2.5,0.01 5,0.01 7.51,0.01 -0.01,2.5 -0.01,5 -0.02,7.5 -2.5,0 -5,0 -7.5,0 0,-2.5 0.01,-5.01 0.01,-7.51 z" />
      <path
         inkscape:connector-curvature="0"
         style="fill:#ffffff"
         id="path475"
         d="m 465.75,75.26 c 2.58,-0.01 5.16,-0.01 7.75,0 0,2.48 0.01,4.97 0.02,7.46 -2.59,0.02 -5.18,0.03 -7.77,0.04 0,-2.5 -0.01,-5 0,-7.5 z" />
      <path
         inkscape:connector-curvature="0"
         style="fill:#ffffff"
         id="path477"
         d="m 500.52,75.25 c 2.57,0 5.15,0 7.73,0 0,2.5 0,5.01 -0.01,7.51 -2.59,-0.01 -5.18,-0.02 -7.76,-0.04 0.01,-2.49 0.01,-4.98 0.04,-7.47 z" />
      <path
         inkscape:connector-curvature="0"
         style="fill:#ffffff"
         id="path479"
         d="m 509.25,75.25 c 2.49,0 5,0 7.5,0 0,2.5 -0.01,5 0,7.5 -2.51,0 -5,-0.01 -7.5,-0.01 0,-2.49 -0.01,-4.99 0,-7.49 z" />
      <path
         inkscape:connector-curvature="0"
         style="fill:#ffffff"
         id="path481"
         d="m 540,75.25 c 2.5,0 5,0 7.5,0 0,2.5 0,5 -0.01,7.5 -2.5,0 -5,0 -7.49,0 0,-2.5 0,-5 0,-7.5 z" />
      <path
         inkscape:connector-curvature="0"
         style="fill:#ffffff"
         id="path483"
         d="m 548.78,75.25 c 2.48,0 4.96,0 7.44,-0.01 0.02,2.5 0.02,5 0.04,7.5 -2.52,0.01 -5.02,0.01 -7.52,0.02 0,-2.51 0.01,-5.01 0.04,-7.51 z" />
      <path
         inkscape:connector-curvature="0"
         style="fill:#ffffff"
         id="path485"
         d="m 260.75,84 c 2.5,0 5,-0.01 7.51,0 -0.01,2.5 -0.01,5 -0.02,7.5 -2.5,0.01 -4.99,0 -7.49,-0.01 -0.01,-2.49 -0.01,-4.99 0,-7.49 z" />
      <path
         inkscape:connector-curvature="0"
         style="fill:#ffffff"
         id="path487"
         d="m 269.25,84 c 2.58,0 5.16,0 7.75,0 0,2.49 0,4.99 0,7.49 -2.58,0.01 -5.16,0.01 -7.73,0.03 -0.02,-2.51 -0.02,-5.01 -0.02,-7.52 z" />
      <path
         inkscape:connector-curvature="0"
         style="fill:#ffffff"
         id="path489"
         d="m 326.25,83.99 c 2.5,0.01 5,0.01 7.51,0.02 -0.01,2.5 -0.01,5 -0.02,7.5 -2.5,0 -4.99,0 -7.48,0 -0.01,-2.51 -0.01,-5.01 -0.01,-7.52 z" />
      <path
         inkscape:connector-curvature="0"
         style="fill:#ffffff"
         id="path491"
         d="M 334.74,84.01 C 337.33,84 339.91,84 342.5,84 c 0,2.5 0,5 0,7.51 -2.59,-0.01 -5.17,-0.01 -7.74,-0.01 -0.02,-2.5 -0.02,-5 -0.02,-7.49 z" />
      <path
         inkscape:connector-curvature="0"
         style="fill:#ffffff"
         id="path493"
         d="m 343.5,84 c 2.5,0 5,0 7.5,0 0,2.5 0,5 -0.01,7.5 -2.5,0 -5,0 -7.49,0 -0.01,-2.5 0,-5 0,-7.5 z" />
      <path
         inkscape:connector-curvature="0"
         style="fill:#ffffff"
         id="path495"
         d="m 361,84 c 2.49,0 4.99,0 7.5,0 0,2.5 0,5 0,7.5 -2.5,0 -5,0 -7.49,0 C 361,89 361,86.5 361,84 z" />
      <path
         inkscape:connector-curvature="0"
         style="fill:#ffffff"
         id="path497"
         d="m 369.5,84 c 2.58,0 5.17,0 7.76,0.01 -0.01,2.49 -0.01,4.99 -0.02,7.49 -2.58,0 -5.16,0 -7.74,0.01 -0.01,-2.51 -0.01,-5.01 0,-7.51 z" />
      <path
         inkscape:connector-curvature="0"
         style="fill:#ffffff"
         id="path499"
         d="m 378.24,84.01 c 2.5,-0.01 5,-0.02 7.51,-0.02 0,2.5 0,5 0,7.51 -2.5,0.01 -4.99,0 -7.49,0.01 -0.01,-2.5 -0.02,-5 -0.02,-7.5 z" />
      <path
         inkscape:connector-curvature="0"
         style="fill:#ffffff"
         id="path501"
         d="m 391.74,84 c 2.51,-0.01 5.01,0 7.52,0 -0.01,2.5 -0.01,5 -0.02,7.5 -2.5,0 -4.99,0.01 -7.49,0 -0.01,-2.5 -0.01,-5 -0.01,-7.5 z" />
      <path
         inkscape:connector-curvature="0"
         style="fill:#ffffff"
         id="path503"
         d="m 400.25,84 c 2.58,0 5.17,0 7.75,0 0,2.5 0,5 -0.01,7.5 -2.58,0 -5.16,0.01 -7.74,0 0,-2.5 0,-5 0,-7.5 z" />
      <path
         inkscape:connector-curvature="0"
         style="fill:#ffffff"
         id="path505"
         d="m 435,84 c 2.58,0 5.17,-0.01 7.76,0 -0.02,2.5 -0.02,5.01 -0.03,7.52 -2.59,-0.01 -5.16,-0.01 -7.73,-0.02 -0.01,-2.5 -0.01,-5 0,-7.5 z" />
      <path
         inkscape:connector-curvature="0"
         style="fill:#ffffff"
         id="path507"
         d="M 443.74,84.01 C 446.25,84 448.75,84 451.26,84 c -0.01,2.5 -0.01,5 -0.02,7.5 -2.5,0 -4.99,0 -7.49,-0.01 -0.01,-2.49 -0.01,-4.99 -0.01,-7.48 z" />
      <path
         inkscape:connector-curvature="0"
         style="fill:#ffffff"
         id="path509"
         d="m 457.25,84 c 2.49,0 4.99,0 7.49,0 0.02,2.48 0.02,4.97 0.05,7.45 -2.51,0.02 -5.02,0.05 -7.52,0.08 -0.02,-2.51 -0.02,-5.02 -0.02,-7.53 z" />
      <path
         inkscape:connector-curvature="0"
         style="fill:#ffffff"
         id="path511"
         d="m 465.74,84 c 2.59,0 5.17,0 7.77,0 -0.01,2.5 -0.01,5 -0.01,7.5 -2.58,0 -5.16,0 -7.74,0 -0.02,-2.5 -0.02,-5 -0.02,-7.5 z" />
      <path
         inkscape:connector-curvature="0"
         style="fill:#ffffff"
         id="path513"
         d="m 500.49,84 c 2.59,0 5.17,0 7.77,0 -0.01,2.5 -0.01,5 -0.02,7.5 -2.58,0 -5.16,0 -7.73,0.01 -0.01,-2.5 -0.02,-5 -0.02,-7.51 z" />
      <path
         inkscape:connector-curvature="0"
         style="fill:#ffffff"
         id="path515"
         d="m 509.25,84 c 2.5,0 5,0 7.51,0 -0.02,2.51 -0.02,5.01 -0.03,7.51 -2.49,0 -4.98,0 -7.46,-0.01 -0.02,-2.5 -0.02,-5 -0.02,-7.5 z" />
      <path
         inkscape:connector-curvature="0"
         style="fill:#ffffff"
         id="path517"
         d="m 540,84 c 2.5,0 5,0 7.5,0 0,2.5 0,5 0,7.5 -2.51,0 -5,0.01 -7.5,0 -0.01,-2.5 -0.01,-5 0,-7.5 z" />
      <path
         inkscape:connector-curvature="0"
         style="fill:#ffffff"
         id="path519"
         d="m 548.74,84 c 2.5,0 5,0 7.51,0 0,2.5 -0.01,5 0,7.5 -2.51,0 -5,0 -7.49,0 -0.02,-2.5 -0.02,-5 -0.02,-7.5 z" />
      <path
         inkscape:connector-curvature="0"
         style="fill:#ffffff"
         id="path521"
         d="m 278.01,92.49 c 2.5,0 5,0 7.5,0.01 -0.01,2.59 -0.03,5.17 -0.04,7.76 -2.49,0 -4.98,-0.01 -7.47,-0.01 0,-2.59 0,-5.18 0.01,-7.76 z" />
      <path
         inkscape:connector-curvature="0"
         style="fill:#ffffff"
         id="path523"
         d="m 286.75,92.52 c 2.5,-0.01 4.99,-0.03 7.49,-0.04 0.01,2.59 0.01,5.18 0.01,7.76 -2.5,0.01 -5,0.01 -7.5,0.01 -0.01,-2.58 -0.01,-5.15 0,-7.73 z" />
      <path
         inkscape:connector-curvature="0"
         style="fill:#ffffff"
         id="path525"
         d="m 269.25,100.25 c 0,-2.59 0,-5.17 0.01,-7.76 2.58,0 5.16,0 7.74,0.01 0,2.58 0,5.16 0,7.75 -2.58,0 -5.17,0 -7.75,0 z" />
      <path
         inkscape:connector-curvature="0"
         style="fill:#ffffff"
         id="path527"
         d="m 295.5,100.25 c 0,-2.59 0,-5.17 0,-7.76 2.5,0 5,0 7.5,0.01 0,2.58 0,5.17 0,7.75 -2.5,0 -5,0 -7.5,0 z" />
      <path
         inkscape:connector-curvature="0"
         style="fill:#ffffff"
         id="path529"
         d="m 304.01,92.49 c 2.57,0.01 5.16,0.01 7.74,0.02 0,2.58 0,5.16 0,7.74 -2.58,0 -5.17,0 -7.74,0 -0.01,-2.59 -0.01,-5.17 0,-7.76 z" />
      <path
         inkscape:connector-curvature="0"
         style="fill:#ffffff"
         id="path531"
         d="m 326.25,92.51 c 2.49,-0.02 4.98,-0.02 7.48,-0.03 0.01,2.59 0.02,5.18 0.02,7.77 -2.5,0 -5,0 -7.49,0 -0.01,-2.58 -0.01,-5.16 -0.01,-7.74 z" />
      <path
         inkscape:connector-curvature="0"
         style="fill:#ffffff"
         id="path533"
         d="m 334.75,92.5 c 2.58,-0.01 5.16,-0.01 7.75,-0.01 0,2.59 0,5.17 0,7.76 -2.59,0 -5.17,0 -7.75,0 0,-2.58 0,-5.17 0,-7.75 z" />
      <path
         inkscape:connector-curvature="0"
         style="fill:#ffffff"
         id="path535"
         d="m 343.5,92.5 c 2.49,0 4.99,0 7.49,0 0,2.58 0.01,5.17 0.01,7.75 -2.5,0 -5,0 -7.5,0 -0.01,-2.59 -0.01,-5.17 0,-7.75 z" />
      <path
         inkscape:connector-curvature="0"
         style="fill:#ffffff"
         id="path537"
         d="m 352.25,92.5 c 2.5,0 5,0 7.51,0 -0.02,2.58 -0.01,5.17 -0.02,7.76 -2.5,0 -4.99,0 -7.48,-0.01 -0.01,-2.58 -0.01,-5.16 -0.01,-7.75 z" />
      <path
         inkscape:connector-curvature="0"
         style="fill:#ffffff"
         id="path539"
         d="m 361.01,92.5 c 2.49,0 4.99,0 7.49,0 0,2.58 0,5.16 0,7.75 -2.5,0 -5,0 -7.5,0 0,-2.59 0,-5.17 0.01,-7.75 z" />
      <path
         inkscape:connector-curvature="0"
         style="fill:#ffffff"
         id="path541"
         d="m 369.5,92.49 c 2.58,0 5.16,0 7.75,0.01 0,2.58 0,5.16 0,7.75 -2.59,0 -5.17,0 -7.75,0 -0.01,-2.59 0,-5.17 0,-7.76 z" />
      <path
         inkscape:connector-curvature="0"
         style="fill:#ffffff"
         id="path543"
         d="m 378.25,100.26 c 0,-2.59 0,-5.18 0.01,-7.76 2.49,-0.01 4.99,-0.01 7.49,-0.02 -0.01,2.59 -0.01,5.18 -0.01,7.77 -2.5,0 -5,0 -7.49,0.01 z" />
      <path
         inkscape:connector-curvature="0"
         style="fill:#ffffff"
         id="path545"
         d="m 391.75,92.5 c 2.5,-0.01 5,0 7.5,0 0,2.58 0,5.16 0,7.74 -2.51,0.01 -5,0.01 -7.5,0.01 -0.01,-2.58 -0.01,-5.17 0,-7.75 z" />
      <path
         inkscape:connector-curvature="0"
         style="fill:#ffffff"
         id="path547"
         d="m 400.24,100.25 c 0.01,-2.59 0.02,-5.18 0.04,-7.77 2.57,0.01 5.14,0.01 7.72,0.03 0,2.58 0,5.16 -0.01,7.75 -2.58,-0.01 -5.17,-0.01 -7.75,-0.01 z" />
      <path
         inkscape:connector-curvature="0"
         style="fill:#ffffff"
         id="path549"
         d="m 434.99,92.49 c 2.59,0 5.17,0.01 7.76,0.01 -0.01,2.58 -0.01,5.16 0,7.75 -2.59,0 -5.17,0 -7.74,0.01 -0.02,-2.59 -0.02,-5.18 -0.02,-7.77 z" />
      <path
         inkscape:connector-curvature="0"
         style="fill:#ffffff"
         id="path551"
         d="m 443.75,92.51 c 2.49,-0.01 4.99,-0.02 7.5,-0.01 0,2.58 0,5.16 0,7.75 -2.5,0 -5,0 -7.5,0 0,-2.58 -0.01,-5.17 0,-7.74 z" />
      <path
         inkscape:connector-curvature="0"
         style="fill:#ffffff"
         id="path553"
         d="m 457.25,92.51 c 2.49,-0.02 4.97,-0.02 7.47,-0.03 0.01,2.59 0.03,5.18 0.05,7.77 -2.51,0 -5.02,0 -7.52,-0.01 0,-2.58 0,-5.15 0,-7.73 z" />
      <path
         inkscape:connector-curvature="0"
         style="fill:#ffffff"
         id="path555"
         d="m 465.75,92.5 c 2.58,-0.01 5.16,-0.01 7.75,-0.01 0,2.59 0,5.17 0,7.76 -2.59,0 -5.17,0 -7.75,0 -0.01,-2.59 0,-5.17 0,-7.75 z" />
      <path
         inkscape:connector-curvature="0"
         style="fill:#ffffff"
         id="path557"
         d="m 474.5,92.49 c 2.5,0 5,0.01 7.5,0.02 0,2.58 0,5.16 -0.01,7.74 -2.5,0 -5,0 -7.49,0 -0.01,-2.59 0,-5.17 0,-7.76 z" />
      <path
         inkscape:connector-curvature="0"
         style="fill:#ffffff"
         id="path559"
         d="m 483.25,100.25 c 0,-2.59 0,-5.17 0.01,-7.76 2.49,0 4.98,0 7.47,0 0.01,2.59 0.01,5.17 0.03,7.76 -2.51,0 -5.01,0 -7.51,0 z" />
      <path
         inkscape:connector-curvature="0"
         style="fill:#ffffff"
         id="path561"
         d="m 492,92.49 c 2.5,0 5,0.01 7.51,0.02 -0.01,2.58 -0.01,5.16 -0.01,7.74 -2.51,0 -5.01,0 -7.5,0.01 -0.01,-2.59 0,-5.18 0,-7.77 z" />
      <path
         inkscape:connector-curvature="0"
         style="fill:#ffffff"
         id="path563"
         d="m 500.49,92.49 c 2.58,0 5.17,0.01 7.76,0.01 0,2.59 0,5.17 0,7.75 -2.59,0 -5.17,0 -7.74,0 -0.02,-2.59 -0.02,-5.17 -0.02,-7.76 z" />
      <path
         inkscape:connector-curvature="0"
         style="fill:#ffffff"
         id="path565"
         d="m 540,92.5 c 2.5,-0.01 5,0 7.5,0 0,2.58 0,5.16 0,7.74 -2.51,0.01 -5.01,0.02 -7.5,0.02 -0.01,-2.59 0,-5.18 0,-7.76 z" />
      <path
         inkscape:connector-curvature="0"
         style="fill:#ffffff"
         id="path567"
         d="m 548.75,92.5 c 2.49,0 4.99,0 7.5,0 -0.01,2.58 0,5.16 0,7.75 -2.5,0 -5,0 -7.5,0 -0.01,-2.58 -0.01,-5.17 0,-7.75 z" />
      <path
         inkscape:connector-curvature="0"
         style="fill:#ffffff"
         id="path569"
         d="m 304,101.25 c 2.58,0 5.16,0 7.75,0 0,2.58 -0.01,5.16 0,7.75 -2.59,0 -5.17,0 -7.75,0 0,-2.58 0,-5.17 0,-7.75 z" />
      <path
         inkscape:connector-curvature="0"
         style="fill:#ffffff"
         id="path571"
         d="m 312.76,101.25 c 2.49,0 4.99,0 7.48,0 0.01,2.58 0.01,5.16 0.01,7.74 -2.5,0.01 -5.01,0.01 -7.51,0.01 0,-2.58 0.01,-5.17 0.02,-7.75 z" />
      <path
         inkscape:connector-curvature="0"
         style="fill:#ffffff"
         id="path573"
         d="m 326.25,101.26 c 2.5,-0.01 5,-0.01 7.5,-0.01 0,2.58 0,5.16 0,7.74 -2.5,0 -5.01,0 -7.51,0 0.01,-2.58 0.01,-5.16 0.01,-7.73 z" />
      <path
         inkscape:connector-curvature="0"
         style="fill:#ffffff"
         id="path575"
         d="m 334.73,101.24 c 2.59,0.01 5.19,0.02 7.79,0.04 -0.01,2.57 -0.01,5.15 -0.02,7.72 -2.59,0 -5.17,0 -7.74,-0.01 -0.02,-2.58 -0.02,-5.17 -0.03,-7.75 z" />
      <path
         inkscape:connector-curvature="0"
         style="fill:#ffffff"
         id="path577"
         d="m 352.25,101.25 c 2.5,0 4.99,0 7.49,0 0.01,2.58 0.01,5.16 0.02,7.75 -2.51,0 -5.02,0 -7.52,0 0,-2.59 0.01,-5.17 0.01,-7.75 z" />
      <path
         inkscape:connector-curvature="0"
         style="fill:#ffffff"
         id="path579"
         d="m 369.49,101.26 c 2.58,-0.01 5.17,-0.01 7.76,0 0,2.57 0,5.15 0,7.73 -2.58,0.01 -5.17,0.01 -7.75,0.01 -0.01,-2.58 -0.01,-5.16 -0.01,-7.74 z" />
      <path
         inkscape:connector-curvature="0"
         style="fill:#ffffff"
         id="path581"
         d="m 378.25,101.25 c 2.5,0 4.99,0 7.5,0 0,2.58 0,5.16 0.01,7.74 -2.51,0 -5.01,0 -7.51,0 0,-2.58 0,-5.16 0,-7.74 z" />
      <path
         inkscape:connector-curvature="0"
         style="fill:#ffffff"
         id="path583"
         d="m 391.76,101.25 c 2.5,0 4.99,0 7.5,0 -0.01,2.58 -0.01,5.17 -0.01,7.75 -2.5,0 -5.01,0 -7.51,-0.01 0,-2.58 0.01,-5.16 0.02,-7.74 z" />
      <path
         inkscape:connector-curvature="0"
         style="fill:#ffffff"
         id="path585"
         d="m 400.25,101.25 c 2.58,0 5.16,0 7.74,0 0,2.58 0,5.17 0.01,7.75 -2.59,0 -5.17,0 -7.75,0 0,-2.59 0,-5.17 0,-7.75 z" />
      <path
         inkscape:connector-curvature="0"
         style="fill:#ffffff"
         id="path587"
         d="m 409.01,101.25 c 2.49,0 4.99,0 7.49,0 0,2.58 0,5.17 0,7.75 -2.5,0 -5,0 -7.5,0 0,-2.59 0,-5.17 0.01,-7.75 z" />
      <path
         inkscape:connector-curvature="0"
         style="fill:#ffffff"
         id="path589"
         d="m 417.75,101.25 c 2.49,0 4.99,0 7.49,0.01 0.01,2.58 0.01,5.16 0.02,7.73 -2.51,0.01 -5.01,0.01 -7.51,0.01 -0.01,-2.58 0,-5.17 0,-7.75 z" />
      <path
         inkscape:connector-curvature="0"
         style="fill:#ffffff"
         id="path591"
         d="m 426.49,101.27 c 2.5,-0.02 5,-0.02 7.51,-0.03 0,2.59 0,5.18 0,7.77 -2.51,-0.01 -5.01,-0.01 -7.52,-0.03 0.01,-2.57 0.01,-5.14 0.01,-7.71 z" />
      <path
         inkscape:connector-curvature="0"
         style="fill:#ffffff"
         id="path593"
         d="m 435.01,101.24 c 2.58,0.01 5.16,0.01 7.74,0.01 -0.01,2.58 0,5.16 0,7.74 -2.58,0.01 -5.17,0.01 -7.75,0.01 0,-2.59 0,-5.17 0.01,-7.76 z" />
      <path
         inkscape:connector-curvature="0"
         style="fill:#ffffff"
         id="path595"
         d="m 443.76,101.26 c 2.49,-0.01 4.99,-0.01 7.49,0 0,2.58 0,5.16 0,7.74 -2.5,0 -5,0 -7.5,0 -0.01,-2.58 0,-5.16 0.01,-7.74 z" />
      <path
         inkscape:connector-curvature="0"
         style="fill:#ffffff"
         id="path597"
         d="m 457.25,101.26 c 2.5,-0.01 5,-0.01 7.5,-0.01 0,2.58 0,5.16 0,7.74 -2.5,0 -5,0.01 -7.5,0.01 0,-2.58 0,-5.16 0,-7.74 z" />
      <path
         inkscape:connector-curvature="0"
         style="fill:#ffffff"
         id="path599"
         d="m 465.75,101.27 c 2.57,-0.02 5.14,-0.03 7.71,-0.04 0.02,2.59 0.04,5.18 0.06,7.77 -2.6,0 -5.19,0 -7.78,-0.01 0,-2.57 0,-5.15 0.01,-7.72 z" />
      <path
         inkscape:connector-curvature="0"
         style="fill:#ffffff"
         id="path601"
         d="m 483.25,101.25 c 2.49,0 4.99,0 7.49,0 0,2.58 0.01,5.16 0.02,7.74 -2.51,0.01 -5.01,0.01 -7.51,0.01 -0.01,-2.58 0,-5.17 0,-7.75 z" />
      <path
         inkscape:connector-curvature="0"
         style="fill:#ffffff"
         id="path603"
         d="m 492.01,101.25 c 2.49,0.01 4.99,0.01 7.5,0.02 -0.01,2.58 -0.01,5.15 -0.01,7.73 -2.51,0 -5.01,0 -7.5,0 -0.01,-2.58 0,-5.17 0.01,-7.75 z" />
      <path
         inkscape:connector-curvature="0"
         style="fill:#ffffff"
         id="path605"
         d="m 540,101.25 c 2.5,0 5,0 7.51,0.01 -0.01,2.58 -0.01,5.16 -0.01,7.74 -2.51,0 -5.01,0 -7.5,0 -0.01,-2.59 0,-5.17 0,-7.75 z" />
      <path
         inkscape:connector-curvature="0"
         style="fill:#ffffff"
         id="path607"
         d="m 548.72,101.25 c 2.51,0 5.02,0 7.53,0 0,2.59 -0.01,5.17 -0.01,7.75 -2.5,0 -4.99,0 -7.48,0 -0.02,-2.59 -0.02,-5.17 -0.04,-7.75 z" />
      <path
         inkscape:connector-curvature="0"
         style="fill:#ffffff"
         id="path609"
         d="m 260.75,110 c 2.5,0 5,0 7.51,0 0,2.5 -0.01,5 -0.01,7.51 -2.51,0 -5,-0.01 -7.5,-0.01 0,-2.5 0,-5 0,-7.5 z" />
      <path
         inkscape:connector-curvature="0"
         style="fill:#ffffff"
         id="path611"
         d="M 269.25,110.01 C 271.83,110 274.41,110 277,110 c 0,2.49 0,4.99 0,7.49 -2.58,0.01 -5.16,0.01 -7.74,0.02 -0.01,-2.5 -0.01,-5 -0.01,-7.5 z" />
      <path
         inkscape:connector-curvature="0"
         style="fill:#ffffff"
         id="path613"
         d="m 304,110 c 2.58,0 5.16,0 7.75,0 0.01,2.5 -0.01,5.01 0,7.51 -2.59,-0.01 -5.17,-0.01 -7.75,-0.01 0,-2.5 0,-5 0,-7.5 z" />
      <path
         inkscape:connector-curvature="0"
         style="fill:#ffffff"
         id="path615"
         d="m 312.75,110.01 c 2.5,-0.01 5,-0.01 7.5,-0.01 0,2.5 0,5 0,7.5 -2.5,0 -5,0 -7.5,0 -0.01,-2.5 0,-5 0,-7.49 z" />
      <path
         inkscape:connector-curvature="0"
         style="fill:#ffffff"
         id="path617"
         d="m 326.25,110.01 c 2.5,-0.01 5,-0.01 7.51,-0.01 -0.02,2.51 -0.02,5.01 -0.04,7.52 -2.49,-0.02 -4.98,-0.01 -7.47,-0.03 -0.01,-2.49 -0.01,-4.99 0,-7.48 z" />
      <path
         inkscape:connector-curvature="0"
         style="fill:#ffffff"
         id="path619"
         d="m 334.75,110 c 2.58,0 5.16,0 7.75,0 0,2.5 0,5 0,7.5 -2.58,0 -5.16,-0.01 -7.74,-0.01 -0.02,-2.49 -0.02,-4.99 -0.01,-7.49 z" />
      <path
         inkscape:connector-curvature="0"
         style="fill:#ffffff"
         id="path621"
         d="m 369.49,110.01 c 2.59,-0.01 5.17,-0.01 7.76,-0.01 0,2.49 0,4.99 0,7.49 -2.59,0 -5.17,0.01 -7.75,0.01 0,-2.5 -0.01,-5 -0.01,-7.49 z" />
      <path
         inkscape:connector-curvature="0"
         style="fill:#ffffff"
         id="path623"
         d="m 378.25,110 c 2.5,0 5,0 7.51,0.01 -0.02,2.5 -0.02,5 -0.03,7.5 -2.5,-0.01 -4.98,0 -7.47,-0.01 -0.01,-2.5 -0.01,-5 -0.01,-7.5 z" />
      <path
         inkscape:connector-curvature="0"
         style="fill:#ffffff"
         id="path625"
         d="m 391.75,110 c 2.49,0 5,0 7.5,0.01 0,2.49 0,4.99 0,7.49 -2.5,0 -5.01,0 -7.5,0.01 -0.01,-2.5 -0.01,-5.01 0,-7.51 z" />
      <path
         inkscape:connector-curvature="0"
         style="fill:#ffffff"
         id="path627"
         d="M 400.25,110.01 C 402.83,110 405.41,110 408,110 c 0,2.5 0,5 0,7.5 -2.59,0 -5.17,0 -7.75,0 0,-2.5 -0.01,-5 0,-7.49 z" />
      <path
         inkscape:connector-curvature="0"
         style="fill:#ffffff"
         id="path629"
         d="m 434.99,110 c 2.58,0 5.17,0 7.76,0.01 -0.01,2.49 0,4.99 -0.01,7.49 -2.58,0.01 -5.15,0.01 -7.72,0.02 -0.02,-2.51 -0.03,-5.02 -0.03,-7.52 z" />
      <path
         inkscape:connector-curvature="0"
         style="fill:#ffffff"
         id="path631"
         d="m 443.74,110 c 2.5,0 5.01,0 7.51,0 0,2.5 0,5 0,7.5 -2.5,0 -5,0 -7.49,0 -0.01,-2.5 -0.02,-5 -0.02,-7.5 z" />
      <path
         inkscape:connector-curvature="0"
         style="fill:#ffffff"
         id="path633"
         d="m 457.25,110 c 2.5,0 5,0 7.51,0.01 -0.01,2.5 -0.02,5 -0.03,7.5 -2.5,-0.01 -4.99,0 -7.47,-0.01 -0.01,-2.5 -0.02,-5 -0.01,-7.5 z" />
      <path
         inkscape:connector-curvature="0"
         style="fill:#ffffff"
         id="path635"
         d="m 465.74,110 c 2.59,0 5.17,0 7.77,0 -0.01,2.5 -0.01,5 -0.01,7.51 -2.59,-0.01 -5.17,-0.01 -7.75,-0.02 -0.01,-2.5 -0.01,-4.99 -0.01,-7.49 z" />
      <path
         inkscape:connector-curvature="0"
         style="fill:#ffffff"
         id="path637"
         d="m 492,110 c 2.5,0 5,0 7.51,0 -0.01,2.5 -0.01,5 -0.02,7.5 -2.5,0 -4.99,0 -7.48,0 -0.02,-2.5 -0.02,-5 -0.01,-7.5 z" />
      <path
         inkscape:connector-curvature="0"
         style="fill:#ffffff"
         id="path639"
         d="m 500.5,109.99 c 2.58,0.01 5.17,0.01 7.76,0.02 -0.01,2.49 -0.02,4.99 -0.02,7.49 -2.58,0 -5.17,0 -7.74,0 -0.01,-2.5 -0.01,-5.01 0,-7.51 z" />
      <path
         inkscape:connector-curvature="0"
         style="fill:#ffffff"
         id="path641"
         d="m 540,110 c 2.5,0 5,0 7.51,0 -0.01,2.49 -0.02,4.99 -0.01,7.48 -2.5,0.02 -5,0.02 -7.49,0.04 C 540,115.01 540,112.51 540,110 z" />
      <path
         inkscape:connector-curvature="0"
         style="fill:#ffffff"
         id="path643"
         d="m 548.74,110 c 2.5,0 5,0 7.51,0 0,2.49 0,4.98 0.01,7.48 -2.51,0 -5.01,0.01 -7.51,0.02 -0.01,-2.5 -0.01,-5 -0.01,-7.5 z" />
      <path
         inkscape:connector-curvature="0"
         style="fill:#ffffff"
         id="path645"
         d="m 269.25,118.77 c 2.58,-0.02 5.16,-0.02 7.74,-0.03 0.01,2.5 0.01,5.01 0.01,7.51 -2.58,0 -5.16,0 -7.74,0 -0.01,-2.5 -0.01,-4.99 -0.01,-7.48 z" />
      <path
         inkscape:connector-curvature="0"
         style="fill:#ffffff"
         id="path647"
         d="m 278.01,118.74 c 2.5,0 4.99,0.01 7.49,0.02 0,2.49 0,4.99 -0.01,7.48 -2.5,0.01 -4.99,0.01 -7.49,0.02 0,-2.51 0,-5.02 0.01,-7.52 z" />
      <path
         inkscape:connector-curvature="0"
         style="fill:#ffffff"
         id="path649"
         d="m 286.75,118.75 c 2.5,0 5,0 7.5,0 0,2.5 0,5 0,7.5 -2.51,0 -5,0 -7.5,0 -0.01,-2.5 -0.01,-5 0,-7.5 z" />
      <path
         inkscape:connector-curvature="0"
         style="fill:#ffffff"
         id="path651"
         d="m 295.5,118.76 c 2.49,-0.01 4.99,-0.01 7.5,-0.01 0,2.5 0,5 -0.01,7.5 -2.49,0 -4.99,0 -7.48,0 -0.01,-2.5 -0.02,-4.99 -0.01,-7.49 z" />
      <path
         inkscape:connector-curvature="0"
         style="fill:#ffffff"
         id="path653"
         d="m 304.01,118.75 c 2.57,0 5.15,0 7.73,0 0,2.5 0,5 0.01,7.5 -2.58,0 -5.16,0 -7.74,0.01 -0.01,-2.51 -0.01,-5.01 0,-7.51 z" />
      <path
         inkscape:connector-curvature="0"
         style="fill:#ffffff"
         id="path655"
         d="m 326.24,118.78 c 2.5,-0.03 5,-0.03 7.51,-0.05 0,2.51 0,5.01 0,7.52 -2.5,0 -5,-0.01 -7.5,-0.02 0,-2.49 -0.01,-4.97 -0.01,-7.45 z" />
      <path
         inkscape:connector-curvature="0"
         style="fill:#ffffff"
         id="path657"
         d="m 334.75,118.75 c 2.58,0 5.17,0 7.76,0 -0.01,2.5 -0.03,5 -0.04,7.5 -2.57,0 -5.15,0 -7.72,0 0,-2.5 -0.01,-5 0,-7.5 z" />
      <path
         inkscape:connector-curvature="0"
         style="fill:#ffffff"
         id="path659"
         d="m 369.51,126.25 c -0.02,-2.5 -0.02,-5 -0.03,-7.5 2.59,0 5.18,0 7.77,0 0,2.5 0,5 0,7.5 -2.59,0 -5.17,0 -7.74,0 z" />
      <path
         inkscape:connector-curvature="0"
         style="fill:#ffffff"
         id="path661"
         d="m 378.25,118.75 c 2.5,0 5,0 7.5,0.01 -0.01,2.49 -0.01,4.99 -0.01,7.49 -2.5,0 -5,0 -7.49,0 0,-2.5 0,-5 0,-7.5 z" />
      <path
         inkscape:connector-curvature="0"
         style="fill:#ffffff"
         id="path663"
         d="m 391.75,118.75 c 2.49,0 4.99,0 7.5,0 0,2.5 0,5 0,7.5 -2.5,0 -5,0 -7.5,0.01 -0.01,-2.51 -0.01,-5.01 0,-7.51 z" />
      <path
         inkscape:connector-curvature="0"
         style="fill:#ffffff"
         id="path665"
         d="m 400.26,118.78 c 2.57,-0.02 5.15,-0.03 7.73,-0.04 0.01,2.5 0,5.01 0.01,7.52 -2.59,-0.01 -5.17,-0.01 -7.75,-0.02 0,-2.49 0,-4.97 0.01,-7.46 z" />
      <path
         inkscape:connector-curvature="0"
         style="fill:#ffffff"
         id="path667"
         d="m 435.01,118.74 c 2.57,0 5.15,0.01 7.74,0.02 0,2.48 0,4.97 0.01,7.46 -2.59,0.01 -5.18,0.03 -7.76,0.04 0,-2.51 0,-5.02 0.01,-7.52 z" />
      <path
         inkscape:connector-curvature="0"
         style="fill:#ffffff"
         id="path669"
         d="m 443.75,118.75 c 2.5,0 5,0 7.5,0 0,2.5 0,5 0,7.5 -2.5,0 -5.01,0 -7.5,0 -0.01,-2.5 -0.01,-5 0,-7.5 z" />
      <path
         inkscape:connector-curvature="0"
         style="fill:#ffffff"
         id="path671"
         d="m 457.26,118.74 c 2.49,0.01 4.98,0.01 7.48,0.03 0.01,2.48 0.01,4.96 0.03,7.45 -2.51,0.01 -5.01,0.03 -7.51,0.04 -0.01,-2.51 -0.01,-5.01 0,-7.52 z" />
      <path
         inkscape:connector-curvature="0"
         style="fill:#ffffff"
         id="path673"
         d="m 465.76,118.75 c 2.57,-0.01 5.15,0 7.74,-0.01 -0.01,2.51 0,5.01 0,7.51 -2.59,0 -5.17,0.01 -7.75,0 -0.01,-2.5 0,-5 0.01,-7.5 z" />
      <path
         inkscape:connector-curvature="0"
         style="fill:#ffffff"
         id="path675"
         d="m 500.5,118.75 c 2.58,0 5.16,0 7.75,0 0,2.5 0,5 0,7.5 -2.58,0 -5.17,0 -7.74,0 -0.01,-2.5 -0.02,-5 -0.01,-7.5 z" />
      <path
         inkscape:connector-curvature="0"
         style="fill:#ffffff"
         id="path677"
         d="m 509.24,118.79 c 2.5,-0.03 5,-0.04 7.5,-0.05 0,2.5 0.01,5.01 0.01,7.52 -2.5,-0.01 -5,-0.02 -7.49,-0.04 -0.02,-2.47 -0.02,-4.95 -0.02,-7.43 z" />
      <path
         inkscape:connector-curvature="0"
         style="fill:#ffffff"
         id="path679"
         d="m 540,118.75 c 2.49,0 4.99,-0.01 7.5,0 0,2.5 0,5 0,7.5 -2.5,0 -5,0.01 -7.49,0.01 -0.02,-2.51 -0.02,-5.01 -0.01,-7.51 z" />
      <path
         inkscape:connector-curvature="0"
         style="fill:#ffffff"
         id="path681"
         d="m 548.75,118.75 c 2.5,-0.01 4.99,-0.01 7.5,0 0,2.5 0,4.99 0,7.49 -2.51,0.01 -5.01,0.01 -7.5,0.01 -0.01,-2.5 -0.01,-5 0,-7.5 z" />
    </g>
  </g>
</svg>
